<svg width="11" height="9" viewBox="0 0 11 9" fill="none" xmlns="http://www.w3.org/2000/svg">
<path d="M0.6875 5.14191H8.84125L6.34562 7.94452C6.28784 8.00951 6.24432 8.08452 6.21754 8.16524C6.19076 8.24597 6.18125 8.33083 6.18955 8.415C6.20631 8.58497 6.2946 8.74176 6.435 8.85086C6.5754 8.95997 6.7564 9.01246 6.9382 8.99679C7.11999 8.98112 7.28768 8.89857 7.40438 8.7673L10.8419 4.9105C10.865 4.87982 10.8857 4.8476 10.9038 4.81408C10.9038 4.78194 10.9381 4.76266 10.9519 4.73052C10.983 4.65682 10.9994 4.57836 11 4.49911C10.9994 4.41986 10.983 4.3414 10.9519 4.2677C10.9519 4.23556 10.9175 4.21628 10.9038 4.18414C10.8857 4.15062 10.865 4.11839 10.8419 4.08772L7.40438 0.230921C7.33973 0.15836 7.25879 0.100006 7.16729 0.0600108C7.0758 0.0200151 6.976 -0.000640414 6.875 -0.000487053C6.71436 -0.0007805 6.55869 0.0515276 6.435 0.147357C6.36538 0.201319 6.30784 0.267592 6.26566 0.34238C6.22348 0.417168 6.1975 0.499002 6.18919 0.583193C6.18089 0.667385 6.19044 0.752281 6.21728 0.833019C6.24412 0.913757 6.28774 0.98875 6.34562 1.0537L8.84125 3.85631H0.6875C0.505164 3.85631 0.330295 3.92403 0.201364 4.04458C0.072433 4.16513 0 4.32863 0 4.49911C0 4.66959 0.072433 4.83309 0.201364 4.95364C0.330295 5.07419 0.505164 5.14191 0.6875 5.14191Z" fill="#2AB0CA"/>
</svg>
