<svg width="353" height="79" viewBox="0 0 353 79" fill="none" xmlns="http://www.w3.org/2000/svg">
<path d="M0.464844 0V16.331H19.5197V78.5591H38.5822V16.7719H54.0932L59.4117 0.000512416H0.464844V0ZM156.475 0V16.331H175.53V78.5591H194.593V16.7719H210.103L215.421 0.000512416H156.475V0ZM62.9606 9.26752C62.9606 4.15029 67.1208 0 72.2605 0C77.4048 0 81.5696 4.15029 81.5696 9.26752C81.5696 14.3853 77.4073 18.5356 72.2605 18.5356C67.1208 18.533 62.9606 14.3853 62.9606 9.26752ZM62.9606 25.1576H81.5696V78.5591H62.9606V25.1576ZM89.5488 0V78.5586H108.165V58.2588L113.927 52.9581L132.096 78.9995H152.039L125.888 41.0445L149.379 18.0921H126.776L108.165 36.6276V0H89.5488ZM290.32 0V78.5586H308.939V58.2588L314.698 52.9581L332.873 78.9995H352.818L326.667 41.0445L350.156 18.0921H327.555L308.939 36.6276V0H290.32Z" fill="#CDE1F6"/>
<path d="M246.891 79C264.76 79 279.248 64.5747 279.248 46.7821C279.248 28.99 264.76 14.5621 246.891 14.5621H246.449C228.58 14.5621 214.094 28.9894 214.094 46.7821C214.094 64.5747 228.58 79 246.449 79H246.891ZM230.936 46.7821C230.936 38.1272 237.983 31.1166 246.674 31.1166C255.359 31.1166 262.406 38.1272 262.406 46.7821C262.406 55.4369 255.359 62.4517 246.674 62.4517C237.983 62.4501 230.936 55.4369 230.936 46.7821Z" fill="#CDE1F6"/>
</svg>
