<svg width="72" height="71" viewBox="0 0 72 71" fill="none" xmlns="http://www.w3.org/2000/svg">
<path d="M26.0042 30.864C30.3938 24.6397 34.7834 18.4154 39.1632 12.1911L36.4074 11.4438C37.3818 19.7134 38.3463 27.983 39.3207 36.2427C39.3995 36.9507 39.9309 37.8258 40.7971 37.7177C47.6472 36.8228 54.4974 35.9379 61.3377 35.0431L60.2944 32.5258C57.7847 35.6036 55.265 38.6813 52.7553 41.759C50.4522 44.5713 48.1098 47.3737 46.0921 50.4023C42.4112 55.9382 39.5372 62.7722 41.9584 69.3898L44.6552 68.2492C41.1612 63.254 37.3818 58.2687 32.3721 54.6993C27.1361 50.9627 20.7879 49.8123 14.6759 52.0149C10.8768 53.3817 7.49109 55.6138 4.17427 57.8754L6.33956 59.5371C11.1327 46.0462 11.1327 31.0115 6.33956 17.5305L3.64281 18.6711C8.55406 25.859 15.6207 31.2672 23.839 34.1384C25.6401 34.7677 26.4078 31.9162 24.6263 31.2967C17.1758 28.6909 10.6504 23.6958 6.20176 17.1863C5.31596 15.8883 2.90464 16.6455 3.50501 18.3269C8.15052 31.3754 8.15052 45.7217 3.50501 58.7702C3.0818 59.96 4.62703 61.1497 5.6703 60.4319C12.0284 56.0956 19.3214 51.6412 27.1262 55.0729C33.6122 57.9245 38.1691 64.1193 42.106 69.7438C42.9918 71.0123 45.413 70.2846 44.8028 68.6032C42.5391 62.4084 45.6394 56.2431 49.1235 51.1791C53.1194 45.3776 57.9224 40.0579 62.3809 34.6104C63.0699 33.7648 62.755 31.9063 61.3377 32.0932C54.4875 32.988 47.6374 33.8729 40.7971 34.7677L42.2734 36.2427C41.299 27.9731 40.3344 19.7036 39.3601 11.4438C39.1928 9.98853 37.4901 9.44771 36.6043 10.6965C32.2147 16.9208 27.8251 23.1451 23.4453 29.3694C22.3528 30.923 24.9118 32.398 25.9944 30.8542L26.0042 30.864Z" fill="#212664"/>
<path d="M1.42466 11.9499C3.3242 11.9499 3.3242 9 1.42466 9C-0.474885 9 -0.474885 11.9499 1.42466 11.9499Z" fill="#212664"/>
<path d="M39.4247 2.94991C41.3242 2.94991 41.3242 0 39.4247 0C37.5251 0 37.5251 2.94991 39.4247 2.94991Z" fill="#212664"/>
<path d="M68.4331 30.5185C68.7677 30.8528 69.1023 31.1871 69.437 31.5215C69.5748 31.669 69.7322 31.7673 69.9094 31.8263C70.0865 31.9148 70.2736 31.9639 70.4802 31.9541C70.6869 31.9541 70.8739 31.9148 71.0511 31.8263C71.2381 31.7673 71.3956 31.669 71.5235 31.5215L71.7499 31.2265C71.8877 31.0003 71.9467 30.7447 71.9467 30.4792L71.8975 30.0858C71.8286 29.84 71.7007 29.6237 71.5137 29.4369C71.179 29.1025 70.8444 28.7682 70.5097 28.4339C70.372 28.2864 70.2145 28.1881 70.0373 28.1291C69.8602 28.0406 69.6732 27.9914 69.4665 28.0012C69.2598 28.0012 69.0728 28.0406 68.8957 28.1291C68.7087 28.1881 68.5512 28.2864 68.4232 28.4339L68.1969 28.7289C68.0591 28.955 68 29.2107 68 29.4762L68.0492 29.8695C68.1181 30.1153 68.2461 30.3317 68.4331 30.5185Z" fill="#212664"/>
</svg>
