<svg width="66" height="67" viewBox="0 0 66 67" fill="none" xmlns="http://www.w3.org/2000/svg">
<g clip-path="url(#clip0_1418_2)">
<path d="M10.5599 1.44987C11.5699 24.6999 25.3199 46.5099 45.1399 58.4499C50.7499 61.8299 56.8499 64.3899 63.2099 65.9699C65.0799 66.4399 65.8799 63.5399 64.0099 63.0799C42.4699 57.7199 24.6099 40.6799 17.1999 19.8799C15.0899 13.9499 13.8299 7.74987 13.5599 1.45987C13.4799 -0.460134 10.4799 -0.470134 10.5599 1.45987V1.44987Z" fill="#212664"/>
<path d="M-0.00146111 8.53003C0.958539 26.41 7.58854 43.67 18.7985 57.62C20.0085 59.13 22.1185 56.99 20.9185 55.5C10.2385 42.2 3.90854 25.55 2.99854 8.53003C2.89854 6.61003 -0.101461 6.59003 -0.00146111 8.53003Z" fill="#212664"/>
</g>
<defs>
<clipPath id="clip0_1418_2">
<rect width="65.08" height="66.01" fill="white"/>
</clipPath>
</defs>
</svg>
