<svg width="106" height="49" viewBox="0 0 106 49" fill="none" xmlns="http://www.w3.org/2000/svg">
<path d="M3.00157 46.64C3.48157 35.66 8.97157 23.6 19.5816 19.05C28.3616 15.28 40.6016 17.74 45.3616 26.6C46.9516 29.57 47.4116 35.88 43.5016 37.41C41.2316 38.3 39.1616 36.77 38.0116 34.9C36.6816 32.72 36.2916 30.22 36.4516 27.71C37.1516 16.59 47.0116 8.15995 56.9916 4.88995C72.2616 -0.110046 88.7816 5.79995 103.222 10.82C105.052 11.46 105.832 8.55995 104.022 7.92995C89.3516 2.82995 72.7916 -2.91005 57.2316 1.67995C45.5816 5.10995 34.4916 14.62 33.4816 27.36C33.0716 32.57 35.3616 40.05 41.5116 40.63C47.3216 41.18 49.9416 34.94 49.4416 30.05C48.8716 24.48 44.7816 19.87 40.0016 17.28C34.9616 14.55 28.9916 13.77 23.3716 14.81C10.5516 17.17 2.37157 29.67 0.481572 41.83C0.231572 43.43 0.0715718 45.03 0.00157184 46.64C-0.0784282 48.57 2.92157 48.57 3.00157 46.64Z" fill="#212664"/>
</svg>
