<svg width="244" height="425" viewBox="0 0 244 425" fill="none" xmlns="http://www.w3.org/2000/svg">
<g clip-path="url(#clip0_1413_7314)">
<path d="M28.8087 146.195C46.3021 128.684 74.6595 128.684 92.153 146.195L244 298.186V425L28.8087 209.596C11.3152 192.085 11.3152 163.7 28.8087 146.189V146.195Z" fill="#FF0077"/>
<path d="M25.3377 9.53715C38.0355 -3.17319 58.6297 -3.17319 71.3274 9.53715L244 182.375V274.445L25.3377 55.5665C12.64 42.8562 12.64 22.2417 25.3377 9.53135V9.53715Z" fill="#00FFFF"/>
<path d="M48.5918 246.777C39.9656 246.777 32.9726 239.778 32.9726 231.143C32.9726 222.508 39.9656 215.508 48.5918 215.508C57.218 215.508 64.2109 222.508 64.2109 231.143C64.2109 239.778 57.218 246.777 48.5918 246.777Z" fill="#00FFFF"/>
<path d="M15.6191 113.594C6.99292 113.594 -1.14441e-05 106.594 -1.14441e-05 97.9593C-1.14441e-05 89.3245 6.99292 82.3247 15.6191 82.3247C24.2454 82.3247 31.2383 89.3245 31.2383 97.9593C31.2383 106.594 24.2454 113.594 15.6191 113.594Z" fill="#FF0077"/>
</g>
<defs>
<clipPath id="clip0_1413_7314">
<rect width="244" height="425" fill="white" transform="matrix(-1 0 0 1 244 0)"/>
</clipPath>
</defs>
</svg>
