<svg width="145" height="143" viewBox="0 0 145 143" fill="none" xmlns="http://www.w3.org/2000/svg">
<g clip-path="url(#clip0_1413_7278)">
<path d="M130.381 57.7797C110.882 77.2586 79.2726 77.2586 59.7734 57.7797L1.93329 0H139.634C149.113 18.7124 146.037 42.1463 130.381 57.7797Z" fill="#FF0077"/>
<path d="M98.6563 143C89.041 143 81.2463 135.213 81.2463 125.608C81.2463 116.003 89.041 108.216 98.6563 108.216C108.272 108.216 116.066 116.003 116.066 125.608C116.066 135.213 108.272 143 98.6563 143Z" fill="#00FFFF"/>
<path d="M17.4103 104.996C7.79494 104.996 0.000190735 97.2091 0.000190735 87.6038C0.000190735 77.9985 7.79494 70.2119 17.4103 70.2119C27.0256 70.2119 34.8203 77.9985 34.8203 87.6038C34.8203 97.2091 27.0256 104.996 17.4103 104.996Z" fill="#FF0077"/>
</g>
<defs>
<clipPath id="clip0_1413_7278">
<rect width="145" height="143" fill="white" transform="matrix(-1 0 0 1 145 0)"/>
</clipPath>
</defs>
</svg>
