<svg width="75" height="64" viewBox="0 0 75 64" fill="none" xmlns="http://www.w3.org/2000/svg">
<path d="M2.41931 63.2866C11.665 58.2253 19.9258 51.7123 26.6987 44.0734C29.8726 40.4939 33.5824 35.7761 31.7726 30.7673C30.414 26.9917 25.6771 23.7317 21.5661 26.026C17.9784 28.03 17.4719 32.802 19.9314 35.9021C22.9583 39.7158 28.3515 40.6744 33.0263 39.931C37.9657 39.1431 42.7272 37.0356 46.9766 34.7392C51.226 32.4427 54.8893 29.8167 58.2912 26.7604C65.1249 20.6041 70.2981 12.9291 73.1851 4.47954C73.5413 3.44114 73.8592 2.38842 74.1441 1.32875C74.4532 0.186615 72.47 -0.224061 72.1621 0.912085C70.0718 8.7223 65.9438 15.954 60.3091 22.0184C54.7108 28.0404 47.6287 32.9499 39.6203 36.0635C35.4657 37.6793 30.5671 39.2576 25.9678 37.7716C22.3248 36.5929 19.1899 33.1944 20.844 29.6581C21.5051 28.2523 22.8087 27.1378 24.5752 27.1026C26.5421 27.0658 28.2251 28.4454 29.1904 29.9242C31.9404 34.1362 28.6453 38.7848 25.8961 41.9846C19.8658 48.979 12.5947 55.0496 4.42977 59.9253C3.39684 60.54 2.34661 61.1386 1.28568 61.7224C0.224754 62.3061 1.32692 63.8888 2.41931 63.2866Z" fill="#212664"/>
</svg>
