<svg width="788" height="245" viewBox="0 0 788 245" fill="none" xmlns="http://www.w3.org/2000/svg">
<path d="M78.5324 188.089C97.5909 188.089 109.261 176.795 109.261 159.023V116.819H95.0065V158.659C95.0065 169.213 89.075 175.508 78.5324 175.508C68.1607 175.508 62.047 169.213 62.047 158.659V116.819H47.793V159.023C47.793 176.795 59.6447 188.089 78.5324 188.089Z" fill="#43BFD7"/>
<path d="M175.165 116.819V164.215L141.841 116.819H128.145V187.167H141.841V139.589L175.529 187.167H188.861V116.819H175.165Z" fill="#43BFD7"/>
<path d="M208.48 187.167H222.734V116.819H208.48V187.167Z" fill="#43BFD7"/>
<path d="M288.998 116.819L269.382 173.471L249.754 116.819H234.578L260.308 187.167H278.262L303.992 116.819H288.998Z" fill="#43BFD7"/>
<path d="M329.724 174.575V157.179H357.299V144.963H329.724V129.411H365.632V116.819H315.652V187.167H366.555V174.575H329.724Z" fill="#43BFD7"/>
<path d="M437.455 174.211C435.428 174.211 434.13 172.913 434.13 170.875V154.219H423.019C430.795 151.623 436.715 145.52 436.715 136.629C436.715 124.413 427.277 116.819 411.543 116.819H380.074V187.167H394.328V160.697H419.876V174.393C419.876 182.727 424.681 187.167 432.65 187.167H439.868V174.211H437.455ZM409.505 128.671C418.203 128.671 422.654 132.006 422.654 139.031C422.654 146.26 418.203 149.403 409.505 149.403H394.328V128.671H409.505Z" fill="#43BFD7"/>
<path d="M475.6 188.089C493.566 188.089 504.302 180.131 504.302 166.617C504.302 153.285 491.71 148.845 478.378 145.327C468.018 142.549 462.838 140.329 462.838 135.706C462.838 131.255 467.836 128.295 475.6 128.295C482.83 128.295 489.672 130.708 494.864 134.966L502.628 124.23C494.864 118.674 486.348 115.896 476.352 115.896C459.502 115.896 448.766 123.672 448.766 136.446C448.766 150.883 462.838 155.141 475.236 158.659C485.05 161.436 489.866 162.916 489.866 167.732C489.866 172.913 484.674 175.873 476.158 175.873C467.836 175.873 459.866 172.913 453.946 167.174L445.988 177.911C453.388 184.571 463.942 188.089 475.6 188.089Z" fill="#43BFD7"/>
<path d="M517.445 187.167H531.699V116.819H517.445V187.167Z" fill="#43BFD7"/>
<path d="M606.106 116.819H543.352V129.775H567.602V187.167H581.856V129.775H606.106V116.819Z" fill="#43BFD7"/>
<path d="M661.269 116.819L648.495 155.323H643.861L624.609 116.819H608.875L629.425 155.323H622.207C618.131 159.023 615.729 164.215 615.729 170.135C615.729 180.871 623.323 188.089 634.423 188.089C644.977 188.089 652.377 181.987 657.011 169.213L676.263 116.819H661.269ZM634.799 176.795C630.723 176.795 628.321 174.211 628.321 169.953C628.321 168.279 628.867 166.799 629.801 165.512H645.159L643.679 169.395C641.835 174.211 639.057 176.795 634.799 176.795Z" fill="#43BFD7"/>
<path d="M374.18 112.41C372.655 113.252 370.788 114.197 368.579 115.233C366.393 116.258 363.843 117.385 360.928 118.603C358.344 119.605 356.033 120.47 354.006 121.199C352.003 121.928 350.329 122.44 348.997 122.747C347.016 123.317 344.967 123.635 342.849 123.704C340.754 123.795 338.625 123.669 336.473 123.339C335.802 123.248 335.062 123.032 334.242 122.702C333.445 122.36 332.625 121.996 331.783 121.609C330.599 121.119 329.62 120.698 328.868 120.334C328.105 119.992 327.468 119.787 326.956 119.696L326.227 118.74L324.405 118.193C323.517 117.977 322.55 117.385 321.491 116.417C320.421 115.438 319.305 114.152 318.121 112.546C316.994 110.964 316.117 109.518 315.479 108.175C314.842 106.842 314.409 105.658 314.204 104.622L313.248 98.6111C312.906 96.5504 312.667 94.8996 312.519 93.6473C312.394 92.4063 312.383 91.5866 312.474 91.1881L313.612 88.2735C313.43 87.2489 313.294 86.3836 313.202 85.6778C313.134 84.9491 313.134 84.3913 313.202 83.9928C313.225 83.6968 313.487 82.6266 313.977 80.805C314.455 78.9834 315.161 76.4787 316.071 73.2909C316.459 72.7216 316.903 72.0044 317.392 71.1505C317.904 70.308 318.405 69.3517 318.895 68.2815V66.7787C318.952 66.4144 319.088 66.0273 319.305 65.5946C319.544 65.1392 319.851 64.6269 320.216 64.0463C321.513 62.0197 322.868 59.9705 324.269 57.8984C325.658 55.8035 327.012 53.7998 328.322 51.8871C329.472 50.4071 330.883 48.9156 332.557 47.4242C334.219 45.9441 336.109 44.4072 338.204 42.8247C338.682 42.4376 339.274 41.9366 339.98 41.3218C340.674 40.7184 341.483 40.0353 342.394 39.2725C343.213 38.9082 344.227 38.3617 345.445 37.6331C346.686 36.9045 348.189 35.9367 349.953 34.7185C350.409 34.6275 350.966 34.4795 351.638 34.2631C352.299 34.0241 353.141 33.7394 354.143 33.3979C354.348 33.284 354.644 33.1019 355.008 32.8514C355.395 32.5782 355.839 32.3049 356.329 32.0317C356.898 31.6674 358.799 31.2803 362.021 30.8476C365.266 30.3922 367.349 30.2442 368.26 30.3922C370.321 30.6996 372.04 31.1095 373.406 31.6218C374.795 32.1114 375.877 32.7375 376.64 33.489L378.78 34.2176C380.476 34.8893 381.569 36.4491 382.059 38.9082C382.571 41.3674 382.492 44.7829 381.831 49.1547C381.524 51.2268 381.262 52.8776 381.057 54.1186C380.841 55.3709 380.624 56.202 380.419 56.6233C379.987 57.8984 379.463 59.5378 378.826 61.5416C378.188 63.5226 377.414 65.7996 376.503 68.3726C376.287 69.1012 375.774 70.2625 374.955 71.8336C374.158 73.382 373.144 75.2947 371.903 77.5717C370.56 80.0308 369.456 81.9207 368.579 83.2186C367.691 84.4937 367.031 85.1541 366.575 85.1768C364.72 85.359 362.727 85.5867 360.61 85.8599C359.63 85.7119 358.947 85.5298 358.56 85.3134C358.162 85.0744 357.991 84.767 358.059 84.4026C358.116 84.0725 358.264 83.5829 358.515 82.9454C358.754 82.3078 358.902 81.8524 358.97 81.5792C359.084 79.8487 359.209 78.1181 359.334 76.3876C359.426 75.7501 359.79 74.5432 360.427 72.7444C361.065 70.957 361.953 68.6914 363.114 65.959C364.321 62.9533 365.357 60.5852 366.211 58.8547C367.088 57.1014 367.725 56.0085 368.124 55.5758C369.638 54.6081 370.776 53.6176 371.539 52.6157C372.291 51.5911 372.735 50.6348 372.86 49.7467C373.042 48.5058 372.905 47.3673 372.45 46.3312C371.995 45.3066 371.186 44.4527 370.036 43.781C368.909 43.3256 367.771 42.893 366.621 42.4603C365.494 42.0391 364.355 41.5837 363.205 41.0941C362.226 41.2763 361.361 41.4015 360.61 41.4585C359.847 41.5268 359.175 41.5837 358.606 41.6406C355.566 41.6748 352.481 42.6311 349.361 44.5096C346.264 46.3654 343.168 49.1319 340.071 52.7979C337.487 55.9857 335.301 59.2418 333.513 62.5435C331.714 65.8565 330.337 69.2606 329.369 72.7444C329.062 73.7805 328.641 75.067 328.094 76.6153C327.57 78.1637 326.921 79.9853 326.136 82.0801C326.341 83.5146 326.512 84.7897 326.637 85.9055L325.043 91.9167C325.009 92.1672 325.145 92.6682 325.453 93.4196C325.749 94.1482 326.238 95.2412 326.91 96.6984C327.274 97.6092 327.559 98.6111 327.775 99.7041C328.014 100.774 328.162 101.958 328.231 103.256C328.288 103.564 328.413 103.928 328.595 104.349C328.777 104.748 329.005 105.066 329.278 105.305C329.881 106.034 330.462 106.66 331.009 107.173C332.648 109.518 334.47 111.362 336.473 112.729C338.477 114.117 340.709 115.006 343.168 115.37C343.373 115.393 344.227 115.393 345.718 115.37C347.198 115.37 349.281 115.324 351.957 115.233C352.435 114.983 353.061 114.755 353.824 114.55C354.576 114.368 355.52 114.163 356.648 113.958C357.706 113.195 358.697 112.694 359.608 112.455C360.541 112.205 361.395 112.148 362.158 112.273C362.431 112 362.761 111.658 363.16 111.271C363.547 110.873 364.071 110.429 364.708 109.951C366.165 109.62 367.509 109.108 368.761 108.402C370.002 107.708 371.22 106.842 372.404 105.806C373.611 109.962 374.203 112.159 374.18 112.41Z" fill="#D82565"/>
<path d="M384.093 95.7554C384.241 94.8218 384.241 93.319 384.093 91.2469C383.934 89.1521 383.934 87.5924 384.093 86.5563C384.184 85.9871 384.367 85.0877 384.64 83.8695C384.936 82.6627 385.141 81.7632 385.232 81.1826C385.471 79.5432 385.744 77.0385 386.052 73.6685C386.382 70.2986 386.666 67.7939 386.917 66.1544C387.338 63.3651 388.021 59.813 388.966 55.4981C389.934 51.1604 391.129 46.0599 392.564 40.1966C393.201 38.1018 393.941 36.5534 394.795 35.5516C395.638 34.5269 396.662 34.0829 397.846 34.2309C398.234 34.2992 398.586 34.6294 398.894 35.2328C399.19 35.8476 399.463 36.7242 399.714 37.8741C400.624 39.0012 401.535 40.06 402.446 41.0619C403.14 41.8816 403.607 42.8607 403.858 43.9765C404.131 45.0694 404.142 46.3331 403.903 47.7563C403.721 49.0997 403.175 50.9213 402.264 53.2211C401.353 55.4981 400.818 57.2286 400.67 58.4126C400.306 60.7807 399.907 62.7389 399.486 64.2873C399.087 65.8356 398.678 67.0197 398.256 67.8394L397.209 69.8887C397.141 71.2321 397.084 72.7577 397.027 74.4882C396.503 77.0157 396.025 79.6343 395.569 82.3667C395.137 85.1332 394.932 87.9908 394.932 90.9282C394.955 93.8769 395.137 96.8711 395.478 99.8995C395.991 103.998 396.856 107.175 398.074 109.417C399.281 111.637 400.863 112.901 402.81 113.197C403.778 113.322 404.723 113.22 405.634 112.878C406.545 112.548 407.455 111.911 408.366 110.966C409.095 110.305 409.778 109.588 410.415 108.825C411.076 108.04 411.736 107.277 412.374 106.548C413.102 105.911 413.876 105.114 414.696 104.135C415.539 103.133 416.472 101.937 417.474 100.537C418.658 97.9869 419.911 95.4139 421.254 92.7953C422.586 90.1881 423.941 87.5582 425.307 84.9169C425.671 84.0972 426.127 83.0042 426.673 81.638C427.22 80.2718 427.823 78.7007 428.495 76.9019C429.679 74.7842 430.977 71.79 432.411 67.9305C433.834 64.0824 435.508 59.3917 437.421 53.8586C437.876 53.0161 438.468 51.9346 439.197 50.6253C439.925 49.3274 440.756 47.7904 441.701 46.0258C441.975 45.3882 442.453 44.4091 443.159 43.0657C443.887 41.6995 444.844 40.0031 446.028 37.9652C446.597 36.9405 447.394 36.2233 448.396 35.8248C449.398 35.4036 450.593 35.3011 451.993 35.506C452.836 35.6313 453.371 36.2688 453.587 37.4187C453.826 38.58 453.781 40.2649 453.451 42.4736C452.813 46.7544 451.493 51.889 449.489 57.8661C447.508 63.8547 444.81 70.6173 441.383 78.177C441.2 78.9056 440.859 79.805 440.381 80.8638C439.925 81.8999 439.379 83.0839 438.741 84.416C438.582 85.2698 438.354 86.2375 438.058 87.3305C437.751 88.4007 437.341 89.5961 436.829 90.9282C435.736 93.3873 434.734 96.0173 433.823 98.8066C432.912 101.573 432.092 104.488 431.364 107.55C431.296 108.006 431.113 108.666 430.817 109.508C430.51 110.362 430.157 111.421 429.77 112.696C429.315 113.88 428.962 114.962 428.723 115.93C428.472 116.909 428.29 117.82 428.176 118.662C428.142 119.903 428.085 121.053 427.994 122.123C428.472 122.852 428.836 123.444 429.087 123.899C429.326 124.377 429.428 124.764 429.406 125.038C428.973 125.766 428.381 126.54 427.63 127.36C426.867 128.203 425.865 129.091 424.624 130.001C423.372 131.094 422.188 131.869 421.072 132.324C419.945 132.779 418.954 132.927 418.112 132.779C417.315 132.654 416.609 132.028 415.971 130.912C415.357 129.819 415.129 128.829 415.288 127.952L415.334 127.451C415.573 127.019 415.801 126.518 416.017 125.948C416.04 125.698 416.028 125.447 415.971 125.174C415.903 124.924 415.857 124.594 415.835 124.172C415.949 123.99 416.131 123.683 416.381 123.262C416.62 122.829 416.882 122.351 417.155 121.804C417.087 121.588 417.019 121.303 416.928 120.939C416.859 120.597 416.768 120.21 416.654 119.755C416.768 119.516 416.894 119.208 417.019 118.844C417.167 118.457 417.394 117.979 417.702 117.432C417.725 117.068 417.747 116.613 417.747 116.066C417.838 115.736 417.975 115.281 418.157 114.7C418.339 114.131 418.544 113.402 418.795 112.514C419.125 111.82 419.387 111.216 419.569 110.693C419.751 110.18 419.854 109.804 419.888 109.554C419.945 109.19 419.933 108.871 419.842 108.598C419.774 108.324 419.66 108.142 419.478 108.051C419.205 108.085 418.795 108.359 418.248 108.871C417.725 109.395 417.087 110.123 416.336 111.057C415.425 112.127 414.651 113.004 414.013 113.698C413.398 114.404 412.988 114.859 412.784 115.064L412.374 115.975C410.916 117.432 409.619 118.639 408.503 119.573C407.41 120.506 406.59 121.178 406.044 121.577C405.042 122.18 403.903 122.715 402.628 123.17C401.376 123.626 399.873 123.956 398.12 124.172C397.266 124.195 396.446 124.309 395.661 124.491C393.987 124.241 392.53 123.785 391.289 123.125C390.07 122.487 389.194 121.713 388.647 120.802C386.37 117.228 384.845 113.368 384.093 109.235C383.365 105.08 383.365 100.583 384.093 95.7554Z" fill="#D82565"/>
<path d="M482.852 122.398C484.059 126.564 484.651 128.762 484.628 129.001C483.923 129.707 483.262 130.458 482.625 131.278C482.01 132.12 481.327 132.963 480.575 133.783C479.938 134.534 479.141 135.126 478.207 135.559C477.262 135.98 476.215 136.31 475.065 136.561C473.357 136.948 471.741 137.335 470.192 137.699C468.667 138.086 467.3 138.519 466.094 138.974C464.659 139.361 463.179 139.566 461.631 139.566C460.105 139.566 458.671 139.532 457.304 139.475C456.211 139.589 455.187 139.612 454.253 139.521C453.308 139.43 452.432 139.316 451.612 139.202C450.906 139.111 450.337 138.986 449.881 138.837C449.449 138.712 449.107 138.541 448.834 138.337C448.47 138.029 448.105 137.71 447.741 137.38C447.4 137.039 447.081 136.743 446.785 136.469C446.079 135.923 445.567 135.49 445.236 135.194C444.69 134.796 444.394 133.839 444.371 132.325C444.371 130.834 444.576 128.682 445.009 125.859C445.282 123.923 446.295 120.883 448.06 116.751C449.847 112.595 450.849 109.817 451.065 108.417C451.122 108.087 451.134 107.631 451.111 107.051C451.111 106.447 451.134 105.98 451.202 105.639C451.384 104.398 452.25 101.609 453.798 97.2595C455.346 92.9218 456.257 89.9048 456.53 88.197C456.644 87.3204 456.405 86.6373 455.802 86.1477C455.187 85.6696 454.936 85.0434 455.027 84.2806C455.21 83.2218 455.494 82.0378 455.893 80.7285C456.28 79.4306 456.826 77.9961 457.532 76.4477C458.044 75.2068 458.557 73.943 459.081 72.6679C459.593 71.3928 460.094 70.1518 460.583 68.9336C461.13 67.5105 461.688 66.0646 462.268 64.6073C462.838 63.1501 463.338 61.7156 463.771 60.281C464.192 59.3702 464.784 58.2317 465.547 56.8655C466.333 55.4993 467.289 53.9738 468.416 52.266C468.929 51.4463 469.395 50.6721 469.828 49.9435C470.283 49.2148 470.75 48.4293 471.24 47.5754C471.718 46.9151 472.344 46.3686 473.107 45.9359C473.858 45.4805 474.758 45.1048 475.794 44.7974C476.613 44.5925 477.342 44.4559 477.98 44.3876C478.64 44.3307 479.095 44.3193 479.346 44.342C480.553 44.5242 481.372 45.0593 481.805 45.9359C482.26 46.824 482.351 48.1446 482.078 49.8979C482.01 50.4216 481.896 51.025 481.714 51.7195C481.532 52.3912 481.224 53.154 480.803 53.9965C480.496 54.9073 480.211 55.7043 479.938 56.3646C479.687 57.0363 479.482 57.5373 479.3 57.8674C479.118 58.9376 478.902 59.9167 478.663 60.8275C478.446 61.7156 478.219 62.5353 477.98 63.2867C477.706 63.7421 477.274 64.3227 476.704 65.0172C476.033 67.112 475.486 68.8426 475.065 70.2088C474.667 71.575 474.427 72.5654 474.336 73.1689C474.029 75.0246 473.175 77.3016 471.786 79.9998C470.42 82.7095 469.623 84.7815 469.418 86.2388C469.327 86.8764 469.099 87.6961 468.735 88.698C468.371 89.6771 467.847 90.8156 467.187 92.1135C466.424 93.9123 465.82 95.3013 465.365 96.3032C464.91 97.2823 464.602 97.8743 464.454 98.0792C464.238 98.7168 464.01 99.491 463.771 100.402C463.555 101.29 463.247 102.303 462.86 103.453C461.096 108.166 459.718 112.094 458.716 115.248C457.714 118.379 457.088 120.735 456.849 122.306C456.599 123.832 456.576 125.016 456.758 125.859C456.963 126.678 457.396 127.134 458.033 127.225C460.857 127.657 463.748 127.771 466.731 127.589C469.737 127.407 472.891 126.94 476.204 126.177C476.568 126.212 476.909 126.177 477.251 126.086C477.615 125.972 477.98 125.893 478.344 125.859C479.004 125.312 479.505 124.8 479.847 124.31C480.45 124.037 480.997 123.752 481.486 123.445C481.998 123.115 482.454 122.762 482.852 122.398Z" fill="#D82565"/>
<path d="M508.9 49.7549C510.835 49.4589 512.907 49.3336 515.093 49.3906C517.302 49.4589 519.738 49.6866 522.38 50.0737C522.858 50.1647 523.575 50.3697 524.52 50.6657C525.488 50.9389 526.251 51.1211 526.797 51.2122C527.617 51.4854 528.232 51.7131 528.664 51.8953C529.142 52.1116 529.803 52.3848 530.622 52.715L532.626 52.4417C532.956 52.51 533.332 52.7377 533.765 53.1248C534.22 53.4892 534.767 53.9218 535.404 54.4C535.768 54.2178 536.292 54.0129 536.998 53.7624C537.692 53.8876 538.205 54.2406 538.546 54.8098C538.876 55.3904 539.059 56.1646 539.093 57.1324C538.968 57.861 538.842 58.5669 538.728 59.2272C538.637 59.8989 538.478 60.6275 538.273 61.4131C538.182 61.7547 538.114 62.3125 538.091 63.0981C538.057 63.8609 538.011 64.4415 537.954 64.8286C537.886 65.3523 537.738 65.6939 537.499 65.876C537.283 66.0582 536.975 66.1265 536.588 66.0582C534.88 65.8191 533.23 65.4434 531.624 64.9197C530.008 64.3732 528.402 63.6787 526.797 62.8248C525.363 62.8932 524.087 62.9159 522.972 62.9159C522.084 62.8248 521.435 62.8476 521.013 62.9615C520.615 63.0867 520.399 63.2802 520.376 63.5535C520.49 63.895 520.672 64.2707 520.922 64.692C521.161 65.0905 521.48 65.4662 521.879 65.8305C522.175 66.1037 522.471 66.6502 522.744 67.4699C523.04 68.2896 523.336 69.3371 523.609 70.6122C523.7 71.1359 523.746 71.6368 523.746 72.115C523.769 72.5704 523.757 73.0144 523.7 73.4357C523.541 74.3465 523.268 75.5077 522.881 76.8967C522.482 78.2629 522.106 79.39 521.742 80.2667C521.07 81.9403 520.535 83.3406 520.148 84.4563C519.75 85.5493 519.442 86.3918 519.237 86.961C519.055 87.4164 518.884 87.9515 518.736 88.5549C518.611 89.1697 518.475 89.8642 518.327 90.6498C518.167 91.3556 517.848 92.1867 517.37 93.1545C516.915 94.0994 516.437 95.1924 515.959 96.4334C515.867 97.014 515.685 97.6857 515.412 98.4371C515.162 99.1657 514.877 100.008 514.547 100.942C514.33 101.488 514.012 102.126 513.59 102.854C513.158 103.56 512.748 104.357 512.361 105.268C512.327 105.94 512.281 106.634 512.224 107.363C511.86 108.615 511.496 109.902 511.131 111.234C510.585 113.09 510.016 114.991 509.446 116.926C508.866 118.873 508.331 120.74 507.852 122.528C507.511 123.017 507.147 123.598 506.759 124.258C506.691 124.566 506.668 125.055 506.668 125.716C506.691 126.353 506.68 126.888 506.623 127.309C506.532 127.799 506.315 128.493 505.985 129.404C505.678 130.315 505.496 130.998 505.439 131.454C505.314 132.342 505.086 133.674 504.756 135.461C504.448 137.214 504.221 138.558 504.073 139.469C504.221 140.254 504.312 140.994 504.346 141.7C504.129 142.303 503.902 142.793 503.663 143.157C503.446 143.522 503.185 143.806 502.889 144.023C502.035 144.387 501.26 144.672 500.566 144.888C500.042 145.252 499.61 145.537 499.245 145.753C498.904 145.992 498.619 146.095 498.38 146.072C497.401 145.913 496.741 145.673 496.376 145.343C496.035 145.002 495.898 144.626 495.966 144.205C496.262 142.713 496.65 141.29 497.105 139.924C497.014 139.765 496.934 139.491 496.877 139.104C496.843 138.706 496.741 138.239 496.558 137.693C496.889 134.209 497.15 130.588 497.333 126.854C497.845 124.247 498.3 121.594 498.699 118.885C498.881 117.609 499.166 116.05 499.564 114.194C499.985 112.315 500.532 110.129 501.204 107.636C501.932 105.211 502.49 103.071 502.889 101.215C503.276 99.3365 503.583 97.7768 503.799 96.5244C503.856 96.0121 503.993 95.3632 504.209 94.5662C504.448 93.7465 504.733 92.7446 505.074 91.5606C505.348 90.5587 505.598 89.6707 505.849 88.8737C506.122 88.054 506.315 87.3026 506.441 86.5967C506.498 86.2666 506.532 85.8908 506.532 85.4582C506.555 85.037 506.577 84.6727 506.577 84.3653C507.215 83.3406 507.682 82.4867 507.989 81.815C508.319 81.1547 508.513 80.6993 508.581 80.4488C508.422 79.8796 508.285 79.2876 508.171 78.6728C508.558 78.0352 509.036 76.9309 509.583 75.3483C510.152 73.7772 510.824 71.6938 511.587 69.1094C511.644 68.597 511.735 67.9595 511.86 67.1967C511.974 66.4453 512.145 65.5117 512.361 64.4187L512.133 63.1892C511.974 63.0753 511.678 62.9045 511.222 62.6882C510.767 62.4833 510.152 62.2784 509.401 62.0962L508.49 62.5516C507.875 62.6199 507.26 62.6655 506.623 62.6882C505.985 62.7224 505.314 62.7793 504.619 62.8704C499.792 63.5079 495.01 64.0886 490.274 64.6009C489.91 64.544 489.636 64.3618 489.454 64.0544C489.272 63.7584 489.204 63.3486 489.272 62.8248C489.295 62.5516 489.477 62.0962 489.819 61.4586C490.149 60.7983 490.65 59.9786 491.321 58.9995C491.652 57.4284 491.959 56.1305 492.232 55.1286C492.505 54.1267 492.79 53.3753 493.097 52.8516C493.61 51.9408 494.281 51.2008 495.101 50.6201C495.921 50.0509 496.854 49.6638 497.925 49.4816C500.111 49.1856 502.114 49.049 503.936 49.0718C505.78 49.1059 507.443 49.3336 508.9 49.7549Z" fill="#D82565"/>
<path d="M534.382 118.301C534.53 117.367 534.53 115.864 534.382 113.792C534.223 111.698 534.223 110.138 534.382 109.102C534.473 108.532 534.656 107.633 534.929 106.415C535.225 105.208 535.43 104.309 535.521 103.728C535.76 102.089 536.033 99.5839 536.341 96.2139C536.671 92.844 536.955 90.3393 537.206 88.6998C537.627 85.9105 538.31 82.3584 539.255 78.0435C540.223 73.7058 541.418 68.6053 542.853 62.742C543.49 60.6472 544.23 59.0988 545.084 58.097C545.927 57.0723 546.951 56.6283 548.135 56.7763C548.523 56.8446 548.876 57.1748 549.183 57.7782C549.479 58.393 549.752 59.2696 550.003 60.4195C550.913 61.5466 551.824 62.6054 552.735 63.6073C553.43 64.427 553.896 65.4061 554.147 66.5219C554.42 67.6148 554.431 68.8786 554.192 70.3017C554.01 71.6451 553.464 73.4667 552.553 75.7665C551.642 78.0435 551.107 79.774 550.959 80.958C550.595 83.3261 550.196 85.2843 549.775 86.8327C549.376 88.3811 548.967 89.5651 548.545 90.3848L547.498 92.4341C547.43 93.7775 547.373 95.3031 547.316 97.0336C546.792 99.5611 546.314 102.18 545.858 104.912C545.426 107.679 545.221 110.536 545.221 113.474C545.244 116.422 545.426 119.417 545.767 122.445C546.28 126.544 547.145 129.72 548.363 131.963C549.57 134.183 551.153 135.447 553.099 135.743C554.067 135.868 555.012 135.765 555.923 135.424C556.834 135.094 557.744 134.456 558.655 133.511C559.384 132.851 560.067 132.134 560.705 131.371C561.365 130.585 562.025 129.822 562.663 129.094C563.391 128.456 564.166 127.659 564.985 126.68C565.828 125.678 566.761 124.483 567.763 123.083C568.947 120.532 570.2 117.959 571.543 115.341C572.875 112.734 574.23 110.104 575.596 107.462C575.96 106.643 576.416 105.55 576.962 104.183C577.509 102.817 578.112 101.246 578.784 99.4473C579.968 97.3297 581.266 94.3354 582.7 90.4759C584.123 86.6278 585.797 81.9371 587.71 76.404C588.165 75.5615 588.757 74.48 589.486 73.1707C590.214 71.8728 591.046 70.3358 591.99 68.5712C592.264 67.9336 592.742 66.9545 593.448 65.6111C594.176 64.2449 595.133 62.5485 596.317 60.5106C596.886 59.4859 597.683 58.7687 598.685 58.3702C599.687 57.949 600.882 57.8465 602.283 58.0514C603.125 58.1767 603.66 58.8142 603.876 59.9641C604.115 61.1254 604.07 62.8104 603.74 65.019C603.102 69.2998 601.782 74.4344 599.778 80.4116C597.797 86.4001 595.099 93.1627 591.672 100.722C591.49 101.451 591.148 102.35 590.67 103.409C590.214 104.445 589.668 105.629 589.03 106.961C588.871 107.815 588.643 108.783 588.347 109.876C588.04 110.946 587.63 112.142 587.118 113.474C586.025 115.933 585.023 118.563 584.112 121.352C583.201 124.119 582.382 127.033 581.653 130.096C581.585 130.551 581.402 131.211 581.106 132.054C580.799 132.908 580.446 133.967 580.059 135.242C579.604 136.426 579.251 137.507 579.012 138.475C578.761 139.454 578.579 140.365 578.465 141.207C578.431 142.448 578.374 143.598 578.283 144.668C578.761 145.397 579.125 145.989 579.376 146.445C579.615 146.923 579.717 147.31 579.695 147.583C579.262 148.312 578.67 149.086 577.919 149.906C577.156 150.748 576.154 151.636 574.913 152.547C573.661 153.64 572.477 154.414 571.361 154.869C570.234 155.325 569.243 155.473 568.401 155.325C567.604 155.2 566.898 154.573 566.26 153.458C565.646 152.365 565.418 151.374 565.577 150.498L565.623 149.997C565.862 149.564 566.09 149.063 566.306 148.494C566.329 148.243 566.317 147.993 566.26 147.72C566.192 147.469 566.147 147.139 566.124 146.718C566.238 146.536 566.42 146.228 566.67 145.807C566.909 145.374 567.171 144.896 567.444 144.35C567.376 144.133 567.308 143.849 567.217 143.484C567.148 143.143 567.057 142.756 566.943 142.3C567.057 142.061 567.183 141.754 567.308 141.39C567.456 141.002 567.684 140.524 567.991 139.978C568.014 139.614 568.036 139.158 568.036 138.612C568.128 138.281 568.264 137.826 568.446 137.245C568.628 136.676 568.833 135.948 569.084 135.06C569.414 134.365 569.676 133.762 569.858 133.238C570.04 132.726 570.143 132.35 570.177 132.099C570.234 131.735 570.222 131.416 570.131 131.143C570.063 130.87 569.949 130.688 569.767 130.597C569.494 130.631 569.084 130.904 568.537 131.416C568.014 131.94 567.376 132.669 566.625 133.602C565.714 134.672 564.94 135.549 564.302 136.244C563.687 136.949 563.278 137.405 563.073 137.61L562.663 138.521C561.205 139.978 559.908 141.185 558.792 142.118C557.699 143.052 556.879 143.724 556.333 144.122C555.331 144.725 554.192 145.26 552.917 145.716C551.665 146.171 550.162 146.501 548.409 146.718C547.555 146.741 546.735 146.854 545.95 147.037C544.276 146.786 542.819 146.331 541.578 145.67C540.36 145.033 539.483 144.259 538.936 143.348C536.659 139.773 535.134 135.913 534.382 131.781C533.654 127.625 533.654 123.128 534.382 118.301Z" fill="#D82565"/>
<path d="M618.511 124.724C618.385 125.577 618.841 126.864 619.877 128.594C620.936 130.302 622.586 132.408 624.841 134.925C626.23 136.598 627.721 138.226 629.304 139.797C630.875 141.38 632.457 142.974 634.04 144.579C634.7 145.308 635.554 146.264 636.59 147.448C637.649 148.632 638.878 150.032 640.279 151.638C641.372 152.731 642.476 153.801 643.603 154.871C644.719 155.964 645.948 157.068 647.292 158.195C648.134 159.106 649.113 160.085 650.206 161.156C651.299 162.249 652.54 163.398 653.941 164.617C654.76 165.311 655.307 166.404 655.58 167.895C655.853 169.376 655.876 171.243 655.671 173.497L654.76 175.136L654.032 175.41C653.576 175.341 653.007 175.057 652.347 174.544C651.675 174.055 650.821 173.36 649.797 172.449C649.58 172.29 648.635 171.653 646.973 170.537C645.3 169.41 642.875 167.816 639.687 165.755C637.922 164.685 636.328 163.535 634.905 162.294C633.505 161.042 632.241 159.755 631.125 158.423C630.419 157.626 629.543 156.75 628.484 155.782C627.448 154.803 626.173 153.733 624.659 152.549C623.201 151.342 621.926 150.215 620.833 149.179C619.74 148.154 618.875 147.3 618.237 146.628C616.143 144.294 614.412 142.507 613.046 141.255C611.68 139.979 610.689 139.296 610.086 139.205C609.539 139.82 609.198 140.435 609.084 141.072C608.196 143.076 607.228 145.649 606.169 148.769C605.099 151.865 603.892 155.486 602.526 159.653C602.401 160.381 602.173 160.905 601.843 161.247C601.501 161.577 601.08 161.702 600.568 161.611C598.837 161.338 597.574 160.723 596.788 159.789C596.025 158.844 595.763 157.49 596.014 155.736C596.378 153.482 596.879 151.137 597.517 148.678C598.177 146.196 599.065 143.623 600.158 140.981C600.579 139.797 600.909 138.739 601.16 137.794C601.399 136.86 601.581 135.995 601.706 135.198C602.037 133.103 601.41 131.19 599.839 129.46C598.291 127.706 597.562 126.522 597.653 125.908C597.801 124.883 598.075 124.029 598.473 123.357C598.894 122.663 599.441 122.151 600.112 121.809C601.684 121.115 603.175 120.42 604.575 119.714C604.94 119.566 605.213 119.293 605.395 118.894C605.577 118.507 605.714 117.927 605.805 117.164C605.896 116.709 605.964 116.23 606.033 115.707C606.124 115.194 606.192 114.705 606.26 114.249C606.989 110.276 607.718 106.143 608.446 101.863C608.469 101.589 608.537 101.123 608.628 100.451C608.742 99.7563 608.833 98.8797 608.902 97.8095C608.924 96.967 609.016 96.2042 609.175 95.5325C609.323 94.8721 609.448 94.246 609.539 93.6653C609.38 92.7318 609.243 91.9234 609.129 91.2517C609.038 90.5914 609.038 89.9538 609.129 89.339C609.186 88.7926 609.357 87.9728 609.63 86.8799C609.904 85.7642 610.086 84.9217 610.177 84.3752C610.268 83.7718 610.325 82.9065 610.359 81.7794C610.416 80.6295 610.496 79.7529 610.587 79.1381C610.826 77.5328 611.429 76.0641 612.408 74.7207C613.376 73.3545 614.742 72.068 616.507 70.8498C618.112 69.8479 619.74 69.1421 621.38 68.7094C623.019 68.254 624.659 68.1516 626.298 68.3907C627.049 68.5159 628.165 68.7436 629.622 69.0738C631.102 69.4153 632.286 69.6544 633.175 69.8024C633.721 69.8707 635.224 70.5766 637.683 71.9428C638.708 72.216 639.607 72.4893 640.37 72.7625C641.155 73.0357 641.793 73.309 642.282 73.5822C643.307 74.2539 644.115 74.789 644.696 75.1761C645.3 75.5746 645.744 75.8137 646.017 75.9048C646.677 76.2691 647.292 76.5879 647.838 76.8611C648.385 77.1343 648.806 77.4303 649.113 77.7264C649.66 78.0907 650.275 78.5233 650.981 79.0015C651.709 79.4569 652.552 79.992 653.531 80.5954C654.988 81.6314 656.354 82.8041 657.629 84.1019C658.905 85.3771 660.043 86.7319 661.045 88.155C662.286 89.9766 663.14 91.7299 663.595 93.3921C664.051 95.0315 664.164 96.6254 663.96 98.1738C663.891 98.6064 663.755 99.2212 663.55 100.041C663.333 100.861 663.094 101.794 662.821 102.819C662.479 104.071 661.591 105.358 660.134 106.69C658.7 107.999 656.719 109.365 654.168 110.788C651.948 112.063 649.865 113.111 647.929 113.931C646.017 114.728 644.298 115.24 642.783 115.479C642.146 115.786 641.645 116.071 641.281 116.344C640.757 116.743 639.709 117.244 638.138 117.847C636.59 118.428 634.495 119.145 631.854 119.987C627.049 121.479 623.657 122.435 621.653 122.856C619.672 123.289 618.624 123.904 618.511 124.724ZM616.325 91.3428C617.292 90.7963 618.203 90.2954 619.057 89.84C619.9 89.3618 620.924 89.191 622.108 89.339C622.678 89.4301 623.258 90.136 623.839 91.4339C624.442 92.709 624.704 93.654 624.613 94.2574C624.579 94.5648 624.363 95.2592 623.975 96.3522C623.577 97.4224 622.974 98.8911 622.154 100.77C620.514 104.936 619.535 107.555 619.239 108.648C618.966 109.718 618.431 111.369 617.645 113.612C617.338 114.192 617.019 114.933 616.689 115.843C616.621 116.276 616.655 116.572 616.78 116.754C616.894 116.936 617.11 117.062 617.418 117.118C626.981 113.999 631.945 112.359 632.309 112.2C632.639 112.143 633.015 112.063 633.448 111.972C633.869 111.881 634.29 111.779 634.723 111.654L635.907 110.561C638.73 109.286 641.69 107.942 644.787 106.508C646.666 105.392 648.123 104.253 649.159 103.092C650.218 101.908 650.855 100.678 651.072 99.4034C651.311 97.7639 650.594 95.9879 648.931 94.0752C647.258 92.1625 644.616 90.1929 641.007 88.155C637.911 86.3334 635.053 84.9217 632.446 83.9198C629.861 82.9179 627.459 82.2576 625.251 81.916C622.359 81.4948 620.116 81.6769 618.511 82.4625C616.894 83.2253 615.96 84.5915 615.687 86.5611C615.437 88.0867 615.368 89.2707 615.459 90.1132C615.573 90.9329 615.869 91.3428 616.325 91.3428Z" fill="#D82565"/>
<path d="M712.255 156.797L713.894 163.401C713.314 163.765 712.631 164.141 711.845 164.539C711.082 164.926 710.206 165.359 709.204 165.814C708.168 165.996 706.95 166.27 705.561 166.634C704.16 167.021 702.566 167.465 700.779 167.955C699.344 168.592 698.195 169.048 697.318 169.321C696.43 169.594 695.826 169.697 695.496 169.64C694.916 169.549 693.811 169.64 692.172 169.913C690.555 170.186 688.438 170.619 685.796 171.234C684.362 171.507 682.848 171.78 681.242 172.053C679.66 172.349 678.032 172.577 676.37 172.736L672.362 171.279L669.675 171.962C668.787 171.837 667.922 171.7 667.079 171.552C666.225 171.393 665.394 171.234 664.575 171.051C663.265 170.801 662.309 170.471 661.706 170.049C661.091 169.651 660.84 169.161 660.931 168.592L661.797 166.133L661.387 165.541C659.895 165.291 658.928 164.949 658.472 164.494C658.017 164.038 657.903 163.059 658.154 161.579C658.245 160.885 658.438 159.78 658.746 158.255C659.042 156.706 659.44 154.691 659.93 152.198C659.952 151.959 660.169 151.503 660.567 150.832C660.988 150.171 661.216 149.67 661.25 149.329C661.125 148.851 661.045 148.486 661.023 148.236C660.988 147.997 660.988 147.758 661.023 147.507C661.41 145.754 661.933 143.625 662.571 141.132C663.231 138.616 664.051 135.644 665.03 132.206C665.907 130.179 666.715 127.879 667.444 125.329C667.683 123.325 667.91 121.31 668.127 119.272C670.916 112.054 673.74 104.825 676.597 97.5954C677.053 96.2975 677.736 95.0907 678.647 93.9978C679.557 92.9048 680.616 91.8574 681.834 90.8555C682.312 90.6164 682.654 90.4229 682.836 90.2635C683.109 89.8764 683.451 89.421 683.884 88.8973C684.339 88.385 684.863 87.7588 685.478 87.0301C685.774 86.8821 686.263 86.6886 686.935 86.4381C687.595 86.1649 688.46 85.8006 689.531 85.3452C690.043 85.0492 690.635 84.6962 691.307 84.2977C692.001 83.8765 692.764 83.3756 693.584 82.7949C695.462 82.0663 697.227 81.2466 698.866 80.3358C700.506 79.4022 702.418 78.9468 704.604 78.9696C705.663 79.0948 706.711 79.1973 707.747 79.2883C708.771 79.3794 709.75 79.4591 710.661 79.516C711.595 79.425 712.414 79.4136 713.12 79.4705C713.576 79.5047 713.963 79.4933 714.304 79.425C714.669 79.368 714.987 79.3567 715.261 79.3794C715.534 79.4477 715.898 79.5502 716.354 79.6982C716.809 79.8234 717.447 80.0056 718.266 80.2447C718.813 80.3699 719.314 80.4724 719.769 80.5635C720.225 80.6318 720.68 80.6773 721.135 80.7001C722.798 81.554 724.004 82.5558 724.733 83.7057C725.462 84.8328 725.712 86.0966 725.507 87.4855C725.018 90.5823 724.346 92.8479 723.503 94.271C722.684 95.6713 721.636 96.2748 720.361 96.0926C719.359 95.9446 718.312 95.2729 717.219 94.0888C716.126 92.9048 712.813 91.8915 707.291 91.0377C704.923 91.1629 702.578 91.2881 700.278 91.402C700.005 91.7094 699.709 91.9371 699.413 92.0851C699.105 92.2103 698.832 92.3014 698.593 92.3583L696.407 91.1287C695.61 91.3109 694.677 91.9371 693.584 92.9959C692.491 94.0661 691.307 95.5803 690.032 97.5499C689.758 97.9825 689.496 98.529 689.257 99.1893C689.041 99.8269 688.87 100.601 688.756 101.512C687.447 104.609 686.183 107.591 684.977 110.438C683.701 113.534 682.7 115.891 681.971 117.496C681.265 119.079 680.844 120.035 680.696 120.365C680.479 120.798 680.297 121.208 680.149 121.595C679.99 121.959 679.887 122.358 679.831 122.779C679.739 123.325 679.785 123.781 679.967 124.145C680.149 124.51 680.468 124.726 680.924 124.783C681.311 124.851 682.392 124.259 684.157 123.007C685.944 121.766 687.219 121.117 687.982 121.048C689.007 120.935 690.009 120.775 690.988 120.593C691.99 120.411 693.049 120.183 694.176 119.91C694.597 119.887 695.69 119.887 697.455 119.91C699.208 119.944 701.656 120.001 704.786 120.092L706.563 120.957L710.206 120.821L711.982 121.959C712.346 122.483 712.665 123.086 712.938 123.781C713.234 124.487 713.485 125.261 713.667 126.103C713.234 128.813 712.642 130.794 711.891 132.069C711.128 133.344 710.16 133.891 708.976 133.709L705.515 131.705C702.384 131.557 699.322 131.42 696.316 131.295C693.31 131.147 690.236 130.976 687.117 130.794C683.223 130.953 680.149 131.728 677.872 133.117C675.595 134.517 674.149 136.6 673.546 139.356C673.387 139.902 673.091 140.767 672.635 141.951C672.203 143.113 671.69 144.547 671.087 146.278L671.178 148.372C670.54 150.262 669.971 152.038 669.493 153.701C669.003 155.374 668.65 156.877 668.446 158.209C668.377 158.665 668.4 159.006 668.491 159.211C668.605 159.427 668.776 159.507 668.992 159.439C671.11 159.598 672.829 159.712 674.138 159.803C675.47 159.894 676.392 160.019 676.916 160.167C678.066 160.418 679.25 160.691 680.468 160.987L684.703 161.26C685.181 161.238 686.218 161.033 687.8 160.668C689.405 160.281 690.806 160.167 691.99 160.349C693.322 160.532 694.677 160.577 696.043 160.486C697.409 160.395 698.707 160.213 699.959 159.94C701.257 159.666 702.532 159.393 703.785 159.12C705.026 158.847 706.289 158.573 707.564 158.3C708.043 158.277 708.669 158.118 709.432 157.845C710.217 157.572 711.162 157.23 712.255 156.797Z" fill="#D82565"/>
<g clip-path="url(#clip0_1413_7346)">
<path d="M655.169 244.252C659.017 235.177 666.989 228.146 676.477 225.422C678.859 224.744 681.31 224.311 683.78 224.242C686.25 224.173 689.292 224.459 691.073 226.455C692.382 227.93 693.071 230.565 691.27 231.961C689.311 233.475 686.595 232.561 685.05 230.948C681.654 227.409 681.625 221.538 682.973 217.143C684.4 212.472 687.53 208.264 691.477 205.402C700.906 198.558 713.602 197.791 724.852 197.86C738.975 197.949 753.01 200.486 766.287 205.284C768.078 205.933 768.846 203.082 767.074 202.442C753.709 197.614 739.526 195.058 725.314 194.92C712.775 194.792 698.297 195.776 688.258 204.212C683.938 207.841 680.611 213.042 679.578 218.618C678.593 223.908 679.538 230.555 684.085 234.026C686.31 235.717 689.351 236.189 691.929 234.99C694.508 233.79 695.62 231.263 695.236 228.618C694.282 222.168 687.117 220.889 681.723 221.44C669.135 222.718 657.57 231.096 652.63 242.768C652.315 243.505 652.413 244.341 653.161 244.783C653.781 245.147 654.874 244.99 655.179 244.252H655.169Z" fill="#212664"/>
<path d="M727.637 27.6111C732.027 21.3868 736.416 15.1625 740.796 8.93819L738.04 8.19088C739.015 16.4605 739.979 24.73 740.954 32.9898C741.032 33.6977 741.564 34.5729 742.43 34.4647C749.28 33.5699 756.13 32.6849 762.97 31.7901L761.927 29.2729C759.417 32.3506 756.898 35.4284 754.388 38.5061C752.085 41.3183 749.743 44.1208 747.725 47.1493C744.044 52.6853 741.17 59.5193 743.591 66.1369L746.288 64.9963C742.794 60.0011 739.015 55.0157 734.005 51.4464C728.769 47.7098 722.421 46.5593 716.309 48.7619C712.51 50.1287 709.124 52.3608 705.807 54.6224L707.972 56.2842C712.766 42.7933 712.766 27.7586 707.972 14.2775L705.276 15.4182C710.187 22.6061 717.254 28.0143 725.472 30.8855C727.273 31.5148 728.041 28.6632 726.259 28.0438C718.809 25.438 712.283 20.4428 707.835 13.9334C706.949 12.6354 704.537 13.3926 705.138 15.074C709.783 28.1224 709.783 42.4688 705.138 55.5172C704.715 56.707 706.26 57.8968 707.303 57.179C713.661 52.8426 720.954 48.3883 728.759 51.82C735.245 54.6716 739.802 60.8664 743.739 66.4909C744.625 67.7593 747.046 67.0317 746.436 65.3502C744.172 59.1554 747.272 52.9901 750.756 47.9261C754.752 42.1247 759.555 36.805 764.014 31.3575C764.703 30.5118 764.388 28.6534 762.97 28.8402C756.12 29.735 749.27 30.62 742.43 31.5148L743.906 32.9898C742.932 24.7202 741.967 16.4506 740.993 8.19088C740.826 6.7356 739.123 6.19478 738.237 7.44357C733.847 13.6679 729.458 19.8922 725.078 26.1165C723.986 27.6701 726.545 29.1451 727.627 27.6013L727.637 27.6111Z" fill="#212664"/>
<path d="M282.379 85.9308C278.284 85.0655 274.032 84.2199 270.42 81.9976C267.458 80.1785 264.682 77.1696 264.407 73.551C264.19 70.6306 265.667 67.0219 268.767 66.2353C271.365 65.5764 274.731 67.4054 274.79 70.2668C274.83 72.2236 277.507 72.0957 277.743 70.2668C278.186 66.8056 278.658 62.8134 281.001 60.0404C282.91 57.7887 286.217 56.2744 288.934 58.1033C291.207 59.6373 292.132 62.7642 292.349 65.3503C292.634 68.7328 292.014 72.2039 290.892 75.3898C289.573 79.1657 287.369 82.5876 284.534 85.3998C283.186 86.7371 285.272 88.8315 286.621 87.4844C292.457 81.6731 296.256 72.843 295.203 64.5243C294.77 61.1024 293.402 57.5232 290.41 55.5468C287.034 53.3245 282.802 54.3963 279.928 56.9135C276.119 60.2469 275.391 65.5273 274.771 70.257H277.723C277.664 67.0317 275.322 64.5243 272.34 63.541C269.21 62.5085 265.844 63.6 263.787 66.1369C261.73 68.6738 260.962 72.2039 261.71 75.3996C262.556 78.9985 265.135 81.9583 268.127 84.0134C272.094 86.7371 276.946 87.7794 281.581 88.7529C283.432 89.1462 284.229 86.3045 282.369 85.9111L282.379 85.9308Z" fill="#212664"/>
<path d="M687.057 32.0754C688.957 32.0754 688.957 29.1255 687.057 29.1255C685.158 29.1255 685.158 32.0754 687.057 32.0754Z" fill="#212664"/>
<path d="M717.214 2.94991C719.113 2.94991 719.113 0 717.214 0C715.314 0 715.314 2.94991 717.214 2.94991Z" fill="#212664"/>
<path d="M756.378 6.539C756.713 6.87333 757.048 7.20765 757.382 7.54197C757.52 7.68947 757.678 7.7878 757.855 7.84679C758.032 7.93529 758.219 7.98446 758.426 7.97462C758.632 7.97462 758.819 7.93529 758.996 7.84679C759.183 7.7878 759.341 7.68947 759.469 7.54197L759.695 7.24698C759.833 7.02082 759.892 6.76516 759.892 6.49967L759.843 6.10635C759.774 5.86052 759.646 5.6442 759.459 5.45737C759.124 5.12305 758.79 4.78872 758.455 4.4544C758.317 4.30691 758.16 4.20858 757.983 4.14958C757.805 4.06108 757.618 4.01192 757.412 4.02175C757.205 4.02175 757.018 4.06108 756.841 4.14958C756.654 4.20858 756.496 4.30691 756.369 4.4544L756.142 4.74939C756.004 4.97555 755.945 5.23121 755.945 5.4967L755.995 5.89002C756.063 6.13585 756.191 6.35217 756.378 6.539V6.539Z" fill="#212664"/>
<path d="M786.573 82.2829C788.473 82.2829 788.473 79.333 786.573 79.333C784.674 79.333 784.674 82.2829 786.573 82.2829Z" fill="#212664"/>
<path d="M725.257 240.948C727.156 240.948 727.156 237.999 725.257 237.999C723.357 237.999 723.357 240.948 725.257 240.948Z" fill="#212664"/>
<path d="M300.073 42.1149C301.973 42.1149 301.973 39.165 300.073 39.165C298.174 39.165 298.174 42.1149 300.073 42.1149Z" fill="#212664"/>
<path d="M253.835 41.112C255.734 41.112 255.734 38.1621 253.835 38.1621C251.935 38.1621 251.935 41.112 253.835 41.112Z" fill="#212664"/>
<path d="M229.714 96.344C231.613 96.344 231.613 93.394 229.714 93.394C227.814 93.394 227.814 96.344 229.714 96.344Z" fill="#212664"/>
</g>
<path d="M61.648 87.3342C66.6533 91.941 73.1022 95.0988 80.3841 96.0281L82.1588 82.1214C80.7807 81.9459 79.4243 81.6278 78.1122 81.1723L76.7153 92.1187C69.434 91.1895 62.986 88.0319 57.9792 83.4252L54.3574 111.805C52.5456 126.001 39.4807 136.029 25.1768 134.204C19.8397 133.523 15.0834 131.288 11.3131 128.016C15.4072 133.389 21.5884 137.187 28.8447 138.113C43.1495 139.938 56.215 129.91 58.0269 115.713L61.6486 87.3343L61.648 87.3342V87.3342ZM68.4974 73.9498C66.074 70.5412 64.7302 66.3645 64.8867 61.9565L65.115 60.1678L61.2288 59.6719C61.5003 65.3345 64.233 70.4914 68.4974 73.9498ZM21.7506 118.277C20.4401 116.031 19.9102 113.421 20.2422 110.85C21.0709 104.357 27.0468 99.7688 33.5906 100.604C34.8102 100.759 35.9987 101.099 37.1142 101.614L38.9287 87.3962C37.594 87.0381 36.2333 86.7848 34.8594 86.6387L33.4472 97.7048C32.3308 97.1904 31.1417 96.8497 29.9217 96.6952C23.3779 95.8601 17.4024 100.447 16.5736 106.941C15.9876 111.533 18.1314 115.847 21.7506 118.277Z" fill="#FF004F"/>
<path d="M58.164 83.5654C63.2077 88.196 69.7026 91.3709 77.0359 92.3067L78.4396 81.3074C74.4564 79.9216 71.1029 77.3411 68.7543 74.0472C64.4583 70.5704 61.7049 65.3876 61.4298 59.6977L51.1488 58.3857L44.026 114.199C43.1724 120.702 37.1671 125.29 30.5907 124.451C26.7153 123.956 23.5059 121.688 21.687 118.576C18.0417 116.133 15.8814 111.798 16.4701 107.184C17.3028 100.66 23.3197 96.0513 29.9102 96.8924C31.1729 97.0535 32.3652 97.4035 33.461 97.9079L34.8801 86.7883C20.6901 85.2716 7.84624 95.2696 6.04902 109.352C5.15186 116.382 7.17305 123.117 11.1792 128.36C14.9773 131.649 19.7681 133.896 25.1433 134.582C39.5498 136.421 52.7045 126.347 54.525 112.082L58.1643 83.5655L58.164 83.5654Z" fill="#2D326D"/>
<path d="M78.4778 81.0102L78.8585 78.0278C75.1854 77.5647 71.7162 76.0788 68.8482 73.7401C71.2217 77.1058 74.5884 79.6474 78.4778 81.0102ZM61.5745 59.36C61.5491 58.8148 61.5458 58.2689 61.5647 57.7237L61.7947 55.9213L47.6723 54.119L40.5295 110.088C39.6744 116.609 33.6949 121.215 27.1516 120.38C25.2306 120.135 23.475 119.448 21.972 118.435C23.7787 121.553 26.9698 123.824 30.8254 124.316C37.3675 125.151 43.348 120.545 44.2036 114.023L51.3463 58.0547L61.5745 59.36ZM35.1313 86.5491L35.5365 83.374C34.377 83.0625 33.1976 82.8299 32.0063 82.6784C17.6726 80.8489 4.57335 90.9624 2.74789 105.266C1.60343 114.234 5.1614 122.72 11.5074 128.255C7.52642 123.001 5.52206 116.251 6.42168 109.201C8.22387 95.0797 21.0131 85.0424 35.1313 86.5491Z" fill="#00F2EA"/>
<path d="M192.465 235.174C200.542 235.174 207.09 228.653 207.09 220.611C207.09 212.568 200.542 206.047 192.465 206.047H190.262C198.339 206.047 204.887 212.568 204.887 220.611C204.887 228.653 198.339 235.174 190.262 235.174H192.465Z" fill="#FF004F"/>
<path d="M190.067 206.047H187.864C179.787 206.047 173.238 212.568 173.238 220.611C173.238 228.653 179.787 235.174 187.864 235.174H190.067C181.989 235.174 175.441 228.653 175.441 220.611C175.441 212.568 181.989 206.047 190.067 206.047Z" fill="#00F2EA"/>
<path d="M78.8789 199.465V206.847H87.4919V234.975H96.1085V207.046H103.12L105.524 199.465H78.8789V199.465ZM149.398 199.465V206.847H158.011V234.975H166.627V207.046H173.638L176.042 199.465H149.398V199.465ZM107.128 203.654C107.128 201.341 109.008 199.465 111.332 199.465C113.657 199.465 115.539 201.341 115.539 203.654C115.539 205.967 113.658 207.843 111.332 207.843C109.008 207.842 107.128 205.967 107.128 203.654ZM107.128 210.836H115.539V234.975H107.128V210.836ZM119.146 199.465V234.974H127.561V225.799L130.165 223.403L138.378 235.174H147.393L135.572 218.018L146.19 207.643H135.973L127.561 216.021V199.465H119.146ZM209.897 199.465V234.974H218.313V225.799L220.917 223.403L229.132 235.174H238.147L226.327 218.018L236.944 207.643H226.728L218.313 216.021V199.465H209.897Z" fill="#2D326D"/>
<path d="M190.266 235.174C198.343 235.174 204.892 228.653 204.892 220.611C204.892 212.568 198.343 206.047 190.266 206.047H190.066C181.989 206.047 175.441 212.568 175.441 220.611C175.441 228.653 181.989 235.174 190.066 235.174H190.266ZM183.054 220.611C183.054 216.699 186.24 213.53 190.168 213.53C194.093 213.53 197.279 216.699 197.279 220.611C197.279 224.523 194.093 227.694 190.168 227.694C186.24 227.693 183.054 224.523 183.054 220.611Z" fill="#2D326D"/>
<defs>
<clipPath id="clip0_1413_7346">
<rect width="559.715" height="244.97" fill="white" transform="translate(228.285)"/>
</clipPath>
</defs>
</svg>
