<svg width="330" height="469" viewBox="0 0 330 469" fill="none" xmlns="http://www.w3.org/2000/svg">
<g clip-path="url(#clip0_1413_7463)">
<path d="M162.538 210.425C187.789 185.221 228.722 185.221 253.974 210.425L329.895 286.196V468.725L162.538 301.682C137.286 276.478 137.286 235.621 162.538 210.417V210.425Z" fill="#FF0077"/>
<path d="M157.527 13.7275C175.856 -4.56706 205.583 -4.56706 223.912 13.7275L329.895 119.503V252.024L157.527 79.9798C139.199 61.6852 139.199 32.0138 157.527 13.7192V13.7275Z" fill="#00FFFF"/>
<path d="M191.103 355.199C178.651 355.199 168.557 345.123 168.557 332.695C168.557 320.267 178.651 310.191 191.103 310.191C203.555 310.191 213.649 320.267 213.649 332.695C213.649 345.123 203.555 355.199 191.103 355.199Z" fill="#00FFFF"/>
<path d="M143.505 163.501C131.053 163.501 120.959 153.426 120.959 140.997C120.959 128.569 131.053 118.494 143.505 118.494C155.957 118.494 166.051 128.569 166.051 140.997C166.051 153.426 155.957 163.501 143.505 163.501Z" fill="#FF0077"/>
</g>
<path d="M74.3503 249.852C68.7223 248.663 62.878 247.5 57.9129 244.446C53.8408 241.945 50.0257 237.809 49.6469 232.835C49.3493 228.821 51.3786 223.861 55.6401 222.779C59.2117 221.874 63.8385 224.388 63.9197 228.321C63.9738 231.011 67.6536 230.835 67.9783 228.321C68.5871 223.563 69.2364 218.076 72.4563 214.264C75.0808 211.169 79.6264 209.088 83.3604 211.601C86.4855 213.71 87.7572 218.008 88.0548 221.563C88.4471 226.212 87.5948 230.984 86.0526 235.363C84.2397 240.553 81.2093 245.257 77.313 249.122C75.4596 250.96 78.3277 253.839 80.1811 251.988C88.2036 244 93.4257 231.862 91.9781 220.428C91.3829 215.724 89.5024 210.804 85.3897 208.087C80.7493 205.033 74.932 206.506 70.9816 209.966C65.746 214.548 64.7449 221.806 63.8926 228.307H67.9512C67.87 223.874 64.6502 220.428 60.551 219.076C56.2489 217.657 51.6221 219.157 48.7946 222.644C45.9671 226.131 44.9119 230.984 45.9401 235.376C47.1035 240.323 50.648 244.392 54.7607 247.216C60.2128 250.96 66.8824 252.393 73.2544 253.731C75.7978 254.272 76.8937 250.366 74.3367 249.825L74.3503 249.852Z" fill="#212664"/>
<path d="M98.6729 189.625C101.284 189.625 101.284 185.57 98.6729 185.57C96.0618 185.57 96.0618 189.625 98.6729 189.625Z" fill="#212664"/>
<path d="M35.1145 188.246C37.7256 188.246 37.7256 184.191 35.1145 184.191C32.5035 184.191 32.5035 188.246 35.1145 188.246Z" fill="#212664"/>
<path d="M1.95828 264.166C4.56931 264.166 4.56931 260.111 1.95828 260.111C-0.652758 260.111 -0.652758 264.166 1.95828 264.166Z" fill="#212664"/>
<defs>
<clipPath id="clip0_1413_7463">
<rect width="208.933" height="468.725" fill="white" transform="matrix(-1 0 0 1 329.895 0)"/>
</clipPath>
</defs>
</svg>
