<svg width="212" height="64" viewBox="0 0 212 64" fill="none" xmlns="http://www.w3.org/2000/svg">
<g clip-path="url(#clip0_1413_7319)">
<path d="M3.0097 63.3982C20.7627 42.6548 47.7655 30.5193 75.0454 30.6397C82.4043 30.6758 89.6308 31.7232 96.797 33.3605C104.83 35.1905 112.731 37.5863 120.801 39.2477C134.929 42.1491 149.213 41.8722 163.003 37.4539C177.613 32.7706 190.922 24.0061 200.653 12.0995C202.11 10.3177 199.569 7.74129 198.1 9.54716C189.404 20.1897 177.83 28.3041 164.906 32.9873C151.321 37.9113 137.012 38.7661 122.86 35.9851C107.492 32.9512 92.702 27.4493 76.8881 27.052C63.3626 26.715 49.7407 29.3274 37.239 34.4922C23.1354 40.3071 10.3807 49.2402 0.45635 60.8459C-1.04916 62.6036 1.49214 65.1679 3.0097 63.3982Z" fill="#212664"/>
<path d="M210.251 3.61174C212.576 3.61174 212.576 0 210.251 0C207.927 0 207.927 3.61174 210.251 3.61174Z" fill="#212664"/>
</g>
<defs>
<clipPath id="clip0_1413_7319">
<rect width="212" height="64" fill="white"/>
</clipPath>
</defs>
</svg>
