<svg width="339" height="339" viewBox="0 0 339 339" fill="none" xmlns="http://www.w3.org/2000/svg">
<path d="M127.138 75.0763C128.874 67.1428 133.202 59.9943 139.369 54.7053C145.949 49.0651 154.482 46.1107 163.118 46.1623C168.242 46.1933 173.355 47.2676 178.014 49.3853C179.811 50.2014 181.392 47.5362 179.574 46.7098C170.649 42.6501 160.391 41.9373 151.001 44.8297C142.406 47.4846 135.01 53.1765 129.989 60.6038C127.2 64.7255 125.207 69.3844 124.143 74.2395C123.719 76.1816 126.704 77.0183 127.128 75.0659L127.138 75.0763Z" fill="#212664"/>
<path d="M160.82 3.27188C162.813 3.27188 162.813 0.172852 160.82 0.172852C158.826 0.172852 158.826 3.27188 160.82 3.27188Z" fill="#212664"/>
<path d="M133.39 7.49698C135.384 7.49698 135.384 4.39795 133.39 4.39795C131.396 4.39795 131.396 7.49698 133.39 7.49698Z" fill="#212664"/>
<path d="M99.632 20.1513C101.626 20.1513 101.626 17.0522 99.632 17.0522C97.6383 17.0522 97.6383 20.1513 99.632 20.1513Z" fill="#212664"/>
<path d="M126.943 70.8101C123.297 57.5875 119.64 44.365 115.993 31.1425L113.4 32.6507C120.621 38.2289 127.842 43.8072 135.052 49.3958C136.095 50.2015 137.635 49.747 137.697 48.3008C138.048 40.202 138.409 32.0929 138.761 23.9941L136.116 25.0891C140.703 30.9875 145.3 36.8964 149.886 42.7948C150.465 43.5386 151.942 43.3217 152.324 42.4849C156.043 34.2828 159.762 26.0807 163.481 17.8786H160.805C165.113 27.5993 169.42 37.3302 173.728 47.0508C174.534 48.8689 177.209 47.2988 176.404 45.491C172.096 35.7704 167.788 26.0394 163.481 16.3188C163.026 15.2961 161.26 15.3065 160.805 16.3188C157.086 24.5209 153.367 32.723 149.649 40.9251L152.086 40.6152C147.5 34.7167 142.903 28.8079 138.316 22.9094C137.428 21.7731 135.724 22.8061 135.672 24.0044C135.321 32.1032 134.959 40.2123 134.608 48.3111L137.252 47.2161C130.032 41.6379 122.811 36.0596 115.601 30.471C114.454 29.593 112.564 30.3471 113.008 31.9792C116.654 45.2018 120.311 58.4243 123.958 71.6468C124.484 73.5682 127.48 72.7521 126.943 70.8204V70.8101Z" fill="#212664"/>
<path d="M240.266 308.454C253.388 297.882 264.746 285.109 273.635 270.794C277.8 264.087 282.57 255.354 278.897 247.397C276.136 241.397 268.336 237.032 262.509 241.806C257.425 245.975 257.533 254.066 261.843 258.685C267.146 264.367 275.521 264.736 282.49 262.425C289.853 259.979 296.703 255.369 302.74 250.56C308.776 245.75 313.861 240.524 318.469 234.639C327.724 222.788 334.174 208.779 337.006 193.998C337.357 192.181 337.646 190.349 337.884 188.513C338.143 186.533 335.053 186.3 334.794 188.269C333.055 201.8 328.112 214.83 320.663 226.253C313.263 237.596 303.401 247.42 291.801 254.454C285.784 258.104 278.628 261.862 271.363 260.43C265.608 259.292 260.217 254.329 262.08 248.041C262.826 245.541 264.603 243.38 267.281 242.917C270.265 242.406 273.077 244.327 274.817 246.578C279.772 252.989 275.62 261.511 272.03 267.487C264.151 280.555 254.217 292.362 242.703 302.377C241.246 303.64 239.76 304.881 238.255 306.099C236.75 307.317 238.717 309.71 240.266 308.454Z" fill="#212664"/>
<g clip-path="url(#clip0_1413_7282)">
<path d="M204.432 99.0842C204.422 98.8936 204.414 98.7031 204.407 98.5176C204.401 98.4017 204.399 98.291 204.394 98.1803C204.389 98.0206 204.383 97.8583 204.378 97.7038C204.376 97.5879 204.373 97.4797 204.37 97.3664C204.368 97.2222 204.365 97.0754 204.363 96.9337C204.363 96.8204 204.363 96.7123 204.36 96.6015C204.36 96.4702 204.36 96.3414 204.36 96.2152C204.36 96.107 204.36 96.004 204.36 95.8984C204.36 95.7774 204.36 95.6589 204.36 95.543C204.36 95.4426 204.363 95.3421 204.365 95.2443C204.365 95.1335 204.368 95.0254 204.37 94.9223C204.37 94.8296 204.376 94.7395 204.378 94.6493C204.381 94.5515 204.383 94.4562 204.386 94.3635C204.389 94.2579 204.394 94.1574 204.396 94.0596C204.399 93.9772 204.404 93.8973 204.407 93.8201C204.412 93.7248 204.414 93.6372 204.42 93.5471C204.422 93.475 204.427 93.4028 204.43 93.3359C204.435 93.2509 204.44 93.1711 204.445 93.0938C204.451 93.0346 204.453 92.9728 204.458 92.9161C204.463 92.844 204.469 92.7796 204.474 92.7152C204.476 92.6637 204.482 92.6122 204.484 92.5658C204.489 92.5014 204.494 92.4448 204.5 92.3907C204.502 92.3547 204.505 92.316 204.51 92.2825C204.515 92.2336 204.518 92.1924 204.523 92.1512C204.525 92.1229 204.528 92.0894 204.531 92.0636C204.536 92.0224 204.538 91.9889 204.541 91.958C204.541 91.9477 204.543 91.9323 204.543 91.9246C204.549 91.8885 204.551 91.8653 204.551 91.855L197.721 77C197.721 77 197.718 77.0335 197.713 77.067C197.713 77.0798 197.711 77.1004 197.708 77.1185C197.706 77.1468 197.703 77.1751 197.698 77.2138C197.698 77.2344 197.693 77.2575 197.69 77.2807C197.685 77.3271 197.682 77.3709 197.677 77.4275C197.675 77.461 197.672 77.4996 197.667 77.5357C197.662 77.5923 197.656 77.6464 197.651 77.7108C197.649 77.7546 197.644 77.8061 197.641 77.855C197.636 77.922 197.631 77.9915 197.625 78.0662C197.623 78.1203 197.618 78.1795 197.615 78.2362C197.61 78.316 197.605 78.3959 197.6 78.4834C197.597 78.5504 197.592 78.6199 197.589 78.6895C197.584 78.7796 197.579 78.8698 197.576 78.965C197.574 79.0423 197.569 79.1221 197.566 79.202C197.561 79.3024 197.558 79.4054 197.556 79.511C197.556 79.5548 197.553 79.5934 197.551 79.6372C197.551 79.6862 197.551 79.7428 197.545 79.7943C197.545 79.8819 197.54 79.9695 197.538 80.0622C197.538 80.1703 197.533 80.2837 197.533 80.397C197.533 80.4923 197.53 80.585 197.527 80.6828C197.527 80.8013 197.527 80.9249 197.527 81.0511C197.527 81.1516 197.527 81.252 197.527 81.355C197.527 81.4838 197.527 81.6177 197.527 81.7516C197.527 81.8598 197.527 81.9654 197.53 82.0787C197.53 82.2204 197.535 82.3646 197.538 82.5114C197.538 82.6221 197.543 82.7329 197.545 82.8488C197.551 83.0033 197.556 83.1656 197.561 83.3252C197.566 83.4385 197.569 83.5493 197.574 83.6626C197.582 83.848 197.592 84.0386 197.6 84.2292C197.605 84.3271 197.607 84.4224 197.613 84.5228C197.628 84.8164 197.646 85.1177 197.667 85.4268L204.5 100.282C204.479 99.9727 204.461 99.6714 204.445 99.3778C204.44 99.2774 204.435 99.1847 204.432 99.0842Z" fill="#19A6A2"/>
<path d="M208.567 85.4244H197.672C197.868 88.3707 198.312 91.9042 199.234 95.6952C201.075 101.544 204.316 109.185 209.959 116.669C211.389 118.264 212.982 119.804 214.759 121.249C202.565 104.189 208.267 86.3619 208.569 85.4219L208.567 85.4244Z" fill="#D82565"/>
<path d="M209.518 111.387C209.572 111.536 209.629 111.683 209.686 111.833C209.794 112.118 209.91 112.407 210.027 112.695C210.081 112.829 210.135 112.963 210.189 113.097C210.365 113.514 210.546 113.932 210.739 114.351C210.739 114.351 210.739 114.351 210.739 114.354L217.572 129.209C217.378 128.789 217.198 128.369 217.022 127.95C216.965 127.816 216.914 127.682 216.859 127.548C216.743 127.259 216.627 126.971 216.518 126.685C216.462 126.536 216.405 126.386 216.351 126.239C216.247 125.959 216.149 125.678 216.051 125.397C216.005 125.261 215.955 125.122 215.912 124.985C215.85 124.797 215.793 124.609 215.733 124.424C215.635 124.11 215.537 123.795 215.447 123.484C215.393 123.296 215.341 123.11 215.289 122.925C215.207 122.624 215.129 122.325 215.054 122.029C215.008 121.843 214.964 121.66 214.92 121.477C214.848 121.174 214.783 120.872 214.719 120.574C214.682 120.404 214.646 120.234 214.613 120.064C214.546 119.721 214.484 119.384 214.427 119.046C214.406 118.923 214.38 118.799 214.362 118.675C214.339 118.536 214.321 118.4 214.3 118.263C214.262 118.003 214.22 117.743 214.187 117.486C214.166 117.328 214.148 117.171 214.127 117.014C214.099 116.78 214.07 116.548 214.045 116.316C214.027 116.154 214.014 115.992 213.998 115.83C213.977 115.611 213.957 115.392 213.941 115.173C213.928 115.011 213.918 114.848 213.905 114.686C213.89 114.475 213.877 114.264 213.866 114.055C213.859 113.895 213.851 113.738 213.843 113.579C213.835 113.373 213.828 113.167 213.823 112.963C213.817 112.811 213.815 112.657 213.812 112.507C213.81 112.304 213.807 112.103 213.807 111.902C213.807 111.758 213.807 111.611 213.807 111.467C213.807 111.261 213.812 111.057 213.817 110.856C213.82 110.725 213.823 110.594 213.825 110.465C213.83 110.303 213.838 110.146 213.843 109.986C213.851 109.795 213.859 109.605 213.869 109.419C213.877 109.265 213.887 109.113 213.897 108.961C213.908 108.781 213.921 108.603 213.934 108.428C213.944 108.278 213.957 108.132 213.97 107.987C213.985 107.817 213.998 107.645 214.016 107.477C214.029 107.336 214.045 107.197 214.06 107.058C214.078 106.895 214.096 106.736 214.114 106.579C214.13 106.442 214.148 106.308 214.163 106.177C214.184 106.025 214.202 105.876 214.223 105.729C214.241 105.6 214.259 105.476 214.277 105.353C214.298 105.209 214.321 105.069 214.342 104.93C214.36 104.812 214.38 104.696 214.398 104.58C214.422 104.446 214.445 104.315 214.466 104.186C214.486 104.078 214.504 103.967 214.525 103.864C214.548 103.738 214.571 103.617 214.595 103.498C214.615 103.401 214.633 103.3 214.654 103.205C214.677 103.092 214.701 102.981 214.724 102.873C214.744 102.783 214.762 102.69 214.783 102.605C214.806 102.499 214.83 102.401 214.853 102.303C214.871 102.224 214.889 102.144 214.907 102.069C214.93 101.976 214.951 101.886 214.974 101.801C214.992 101.732 215.008 101.66 215.026 101.595C215.047 101.513 215.067 101.436 215.088 101.361C215.103 101.304 215.119 101.245 215.132 101.191C215.152 101.116 215.17 101.052 215.189 100.987C215.201 100.944 215.214 100.895 215.225 100.854C215.243 100.792 215.258 100.74 215.274 100.689C215.284 100.655 215.294 100.619 215.302 100.588C215.318 100.534 215.333 100.49 215.346 100.449C215.351 100.434 215.356 100.411 215.362 100.398C215.377 100.346 215.39 100.308 215.398 100.282L208.565 85.4268C208.557 85.4525 208.544 85.4911 208.529 85.5427C208.524 85.5581 208.518 85.5787 208.513 85.5942C208.5 85.6354 208.487 85.6791 208.469 85.7332C208.462 85.7616 208.449 85.8002 208.441 85.8337C208.425 85.8878 208.41 85.9367 208.392 85.9985C208.379 86.0397 208.366 86.0886 208.353 86.1324C208.335 86.1968 208.317 86.2612 208.296 86.3333C208.281 86.3874 208.265 86.4466 208.25 86.5059C208.229 86.5805 208.211 86.6552 208.188 86.7402C208.172 86.8046 208.154 86.8767 208.136 86.9463C208.116 87.0338 208.092 87.1188 208.072 87.2141C208.054 87.2888 208.036 87.3712 208.017 87.451C207.994 87.5489 207.974 87.6468 207.95 87.7498C207.93 87.8374 207.912 87.9275 207.891 88.0202C207.868 88.1284 207.844 88.2365 207.821 88.3524C207.801 88.4477 207.782 88.5456 207.762 88.646C207.739 88.7671 207.715 88.8881 207.692 89.0117C207.671 89.1173 207.653 89.2255 207.633 89.3362C207.609 89.465 207.586 89.5964 207.566 89.7303C207.545 89.8462 207.527 89.9621 207.509 90.0805C207.486 90.2196 207.465 90.3587 207.444 90.5029C207.426 90.6265 207.408 90.7527 207.39 90.8789C207.369 91.0257 207.349 91.1751 207.331 91.327C207.313 91.461 207.297 91.5923 207.282 91.7288C207.263 91.8859 207.245 92.0456 207.227 92.2078C207.212 92.3469 207.196 92.486 207.183 92.6276C207.168 92.795 207.152 92.965 207.137 93.1376C207.124 93.2844 207.111 93.4286 207.101 93.578C207.088 93.7531 207.078 93.9308 207.065 94.1111C207.054 94.263 207.044 94.415 207.036 94.5695C207.026 94.7549 207.018 94.9455 207.01 95.1361C207.005 95.2597 206.997 95.3808 206.995 95.5069C206.995 95.543 206.995 95.5791 206.995 95.6125C206.992 95.7413 206.99 95.8752 206.987 96.004C206.982 96.2049 206.979 96.4083 206.977 96.6144C206.977 96.7586 206.977 96.9028 206.977 97.0496C206.977 97.2505 206.977 97.4514 206.982 97.6548C206.985 97.8068 206.99 97.9587 206.992 98.1107C206.997 98.3142 207.005 98.5202 207.013 98.7262C207.021 98.8833 207.026 99.043 207.036 99.2027C207.047 99.4113 207.059 99.6225 207.075 99.8337C207.085 99.9959 207.098 100.158 207.111 100.32C207.129 100.537 207.147 100.756 207.17 100.977C207.186 101.139 207.201 101.299 207.217 101.464C207.24 101.693 207.271 101.927 207.3 102.162C207.318 102.319 207.336 102.473 207.359 102.633C207.393 102.891 207.434 103.151 207.473 103.411C207.493 103.547 207.511 103.684 207.535 103.823C207.537 103.846 207.54 103.867 207.545 103.89C207.56 103.99 207.584 104.093 207.602 104.194C207.661 104.531 207.721 104.869 207.788 105.211C207.821 105.381 207.86 105.551 207.894 105.721C207.958 106.022 208.023 106.321 208.095 106.625C208.139 106.808 208.183 106.993 208.229 107.179C208.304 107.475 208.382 107.774 208.464 108.072C208.516 108.26 208.568 108.446 208.622 108.636C208.712 108.948 208.808 109.26 208.906 109.571C208.947 109.7 208.981 109.829 209.022 109.958C209.043 110.017 209.063 110.079 209.084 110.138C209.128 110.274 209.177 110.408 209.223 110.545C209.319 110.826 209.42 111.106 209.523 111.39L209.518 111.387Z" fill="#D02C67"/>
<path d="M110.967 162.154L109.172 172.947L116.005 187.802L117.802 177.009L110.967 162.154Z" fill="#1BB5B1"/>
<path d="M214.754 121.251C212.977 119.804 211.386 118.263 209.953 116.672C212.61 120.205 215.797 123.7 219.626 126.948C227.133 133.337 237.093 138.802 250.279 141.795L251.683 133.34C234.55 132.668 222.803 127.834 214.754 121.254V121.251Z" fill="#1FCFCA"/>
<path d="M251.682 133.337L250.277 141.793L257.113 156.65L258.515 148.192L251.682 133.337Z" fill="#1BB5B1"/>
<path d="M120.541 173.102L113.543 215.238L120.378 230.093L127.374 187.957L120.541 173.102Z" fill="#CD2B65"/>
<path d="M120.377 230.093L113.545 215.238C113.353 215.197 109.707 214.427 103.995 214.427C103.654 214.427 103.303 214.429 102.949 214.437C102.833 214.437 102.712 214.442 102.593 214.447C102.35 214.453 102.11 214.458 101.862 214.468C101.718 214.473 101.57 214.481 101.426 214.486C101.199 214.496 100.974 214.504 100.741 214.517C100.581 214.525 100.421 214.538 100.259 214.548C100.036 214.561 99.8144 214.576 99.5871 214.592C99.4167 214.604 99.2463 214.62 99.0758 214.633C98.8512 214.651 98.6291 214.669 98.4019 214.692C98.2237 214.71 98.0455 214.728 97.8673 214.746C97.6427 214.769 97.418 214.792 97.1908 214.821C97.0074 214.841 96.8215 214.865 96.6381 214.888C96.4109 214.916 96.1837 214.947 95.9538 214.978C95.7653 215.004 95.5742 215.032 95.3857 215.06C95.1559 215.094 94.9261 215.13 94.6937 215.168C94.593 215.184 94.4948 215.199 94.3941 215.215C94.3115 215.228 94.2237 215.246 94.1411 215.261C93.8467 215.313 93.5497 215.367 93.2527 215.423C93.0849 215.454 92.917 215.488 92.7466 215.521C92.4057 215.591 92.0623 215.663 91.7188 215.74C91.5923 215.769 91.4684 215.794 91.3444 215.823C90.877 215.931 90.4044 216.047 89.9319 216.17C89.8286 216.199 89.7227 216.227 89.6194 216.255C89.2476 216.356 88.8757 216.459 88.5039 216.567C88.4522 216.582 88.398 216.595 88.3463 216.611C88.1165 216.678 87.8867 216.752 87.6569 216.824C87.5536 216.858 87.4477 216.889 87.3444 216.922C86.9442 217.051 86.5439 217.185 86.1436 217.327C86.0533 217.358 85.9629 217.394 85.8725 217.425C85.56 217.535 85.2476 217.651 84.9377 217.77C84.7982 217.824 84.6562 217.88 84.5168 217.934C84.3567 217.996 84.1966 218.058 84.0365 218.122C83.9693 218.151 83.8996 218.184 83.8325 218.213C83.3599 218.408 82.8873 218.612 82.4174 218.828C82.3554 218.856 82.2908 218.882 82.2289 218.913C81.6995 219.158 81.1727 219.415 80.6485 219.686C80.5968 219.712 80.5426 219.737 80.491 219.763C80.3825 219.82 80.2715 219.884 80.163 219.941C79.8402 220.111 79.52 220.286 79.1972 220.466C79.019 220.567 78.8434 220.667 78.6678 220.77C78.3451 220.958 78.0249 221.151 77.7046 221.349C77.591 221.419 77.4774 221.483 77.3638 221.553C77.3121 221.584 77.2631 221.62 77.2114 221.653C76.868 221.872 76.5271 222.102 76.1862 222.333C76.0649 222.416 75.9409 222.496 75.8196 222.581C75.3599 222.9 74.9028 223.232 74.4509 223.577C74.4354 223.588 74.4225 223.598 74.407 223.608C74.3296 223.667 74.2573 223.732 74.1798 223.791C73.8079 224.079 73.4361 224.376 73.0668 224.682C72.9119 224.811 72.7569 224.945 72.602 225.079C72.2973 225.339 71.9951 225.607 71.6956 225.88C71.6104 225.957 71.5252 226.026 71.4425 226.104C71.3031 226.232 71.1662 226.366 71.0268 226.5C70.9416 226.583 70.8564 226.663 70.7711 226.745C70.4251 227.08 70.0817 227.422 69.7434 227.778C69.6814 227.842 69.6194 227.912 69.5574 227.976C69.2708 228.277 68.9868 228.586 68.7053 228.903C68.6175 229.001 68.5323 229.099 68.4445 229.197C68.3799 229.271 68.3128 229.341 68.2508 229.416C67.9848 229.722 67.724 230.036 67.4632 230.356C67.4296 230.397 67.3961 230.443 67.3599 230.485C67.0681 230.848 66.7789 231.219 66.4922 231.597C66.4096 231.705 66.327 231.816 66.2443 231.927C65.9293 232.352 65.6168 232.784 65.3121 233.23C65.0513 233.611 64.7982 233.99 64.5503 234.366C64.4677 234.492 64.3877 234.618 64.3076 234.744C64.1527 234.984 63.9951 235.223 63.848 235.463C63.8428 235.471 63.8376 235.478 63.8325 235.489C63.582 235.888 63.3418 236.284 63.1068 236.678C63.0449 236.784 62.988 236.887 62.9261 236.99C62.7582 237.278 62.5904 237.567 62.4277 237.855C62.3451 238.002 62.2702 238.146 62.1901 238.291C62.0558 238.535 61.9241 238.777 61.795 239.022C61.7124 239.179 61.6323 239.336 61.5523 239.493C61.4361 239.72 61.3199 239.949 61.2088 240.176C61.1288 240.338 61.0513 240.498 60.9738 240.657C60.868 240.879 60.7647 241.098 60.664 241.317C60.5891 241.476 60.5168 241.636 60.4471 241.796C60.3489 242.015 60.256 242.234 60.163 242.45C60.0959 242.604 60.0313 242.762 59.9667 242.916C59.8764 243.14 59.7886 243.359 59.7008 243.581C59.644 243.727 59.5846 243.874 59.5303 244.021C59.4425 244.255 59.3599 244.49 59.2773 244.721C59.2308 244.85 59.1843 244.982 59.1404 245.11C59.0423 245.396 58.9519 245.682 58.8641 245.965C58.8409 246.04 58.815 246.112 58.7918 246.187C58.6833 246.542 58.5826 246.898 58.4871 247.25C58.4613 247.346 58.438 247.441 58.4148 247.539C58.3476 247.794 58.2831 248.046 58.2263 248.299C58.1953 248.43 58.1695 248.559 58.1411 248.69C58.0946 248.906 58.0481 249.123 58.0042 249.337C57.9758 249.478 57.9525 249.617 57.9267 249.756C57.8906 249.957 57.8544 250.161 57.8234 250.359C57.8002 250.501 57.7795 250.645 57.7589 250.787C57.7305 250.982 57.7046 251.178 57.6814 251.374C57.6633 251.515 57.6478 251.657 57.6323 251.796C57.6117 251.989 57.5936 252.185 57.5781 252.376C57.5678 252.512 57.5549 252.651 57.5471 252.788C57.5342 252.983 57.5239 253.179 57.5161 253.375C57.511 253.468 57.5032 253.563 57.5006 253.656C57.5006 253.689 57.5006 253.72 57.5006 253.753C57.4903 254.109 57.4851 254.464 57.4903 254.814C57.4903 254.851 57.4929 254.884 57.4929 254.92C57.4981 255.237 57.511 255.551 57.529 255.863C57.5342 255.971 57.5445 256.079 57.5523 256.187C57.5704 256.432 57.591 256.677 57.6168 256.921C57.6272 257.029 57.6401 257.14 57.653 257.248C57.6866 257.534 57.7253 257.817 57.7718 258.098C57.7795 258.142 57.7821 258.188 57.7899 258.232C57.7899 258.24 57.7924 258.245 57.795 258.253C57.8854 258.791 57.9939 259.324 58.1204 259.849C58.1256 259.875 58.1307 259.901 58.1385 259.927C58.2676 260.45 58.4148 260.962 58.5775 261.469C58.5826 261.487 58.5878 261.508 58.593 261.526C58.5955 261.536 58.6007 261.544 58.6033 261.554C58.7221 261.917 58.8538 262.278 58.9906 262.633C59.0242 262.718 59.0552 262.801 59.0888 262.883C59.2308 263.241 59.3806 263.597 59.5407 263.947L66.3735 278.802C66.2134 278.452 66.0636 278.096 65.9216 277.738C65.888 277.656 65.8544 277.571 65.8234 277.488C65.6866 277.133 65.5549 276.773 65.4361 276.409C65.4258 276.381 65.418 276.353 65.4103 276.324C65.245 275.817 65.0978 275.302 64.9713 274.782C64.9661 274.756 64.9609 274.73 64.9532 274.704C64.8267 274.179 64.7182 273.649 64.6278 273.108C64.6201 273.056 64.6123 273.002 64.6046 272.951C64.5607 272.67 64.5219 272.389 64.4858 272.103C64.4729 271.995 64.4625 271.887 64.4496 271.779C64.4238 271.534 64.4032 271.289 64.3851 271.045C64.3773 270.937 64.3696 270.831 64.3618 270.723C64.3438 270.409 64.3309 270.094 64.3257 269.775C64.3257 269.742 64.3231 269.708 64.3231 269.675C64.3179 269.324 64.3231 268.969 64.3334 268.614C64.336 268.49 64.3438 268.364 64.3489 268.238C64.3567 268.042 64.367 267.846 64.3799 267.648C64.3902 267.511 64.4006 267.375 64.4109 267.236C64.4264 267.043 64.4445 266.849 64.4651 266.656C64.4806 266.515 64.4961 266.376 64.5142 266.234C64.5374 266.038 64.5633 265.842 64.5917 265.647C64.6123 265.505 64.633 265.363 64.6562 265.222C64.6872 265.021 64.7234 264.817 64.7621 264.614C64.7879 264.475 64.8112 264.338 64.8396 264.197C64.8809 263.983 64.9299 263.767 64.9764 263.548C65.0048 263.419 65.0307 263.288 65.0616 263.159C65.121 262.909 65.1856 262.654 65.2502 262.402C65.276 262.304 65.2966 262.209 65.325 262.111C65.4206 261.758 65.5213 261.405 65.6298 261.05C65.653 260.977 65.6788 260.903 65.6995 260.828C65.7873 260.545 65.8802 260.259 65.9758 259.973C66.0197 259.844 66.0687 259.713 66.1152 259.584C66.1979 259.35 66.2805 259.118 66.3683 258.884C66.4225 258.737 66.4819 258.59 66.5387 258.443C66.6239 258.222 66.7117 258 66.8021 257.779C66.8667 257.624 66.9312 257.467 66.9984 257.313C67.0913 257.096 67.1843 256.877 67.2824 256.658C67.3547 256.499 67.427 256.337 67.4993 256.177C67.6001 255.958 67.7034 255.739 67.8092 255.518C67.8867 255.358 67.9642 255.196 68.0416 255.036C68.1527 254.809 68.2689 254.583 68.3851 254.353C68.4651 254.196 68.5452 254.039 68.6278 253.882C68.7543 253.64 68.8886 253.398 69.0229 253.153C69.103 253.007 69.1804 252.862 69.2631 252.716C69.4232 252.43 69.5884 252.144 69.7563 251.858C69.8183 251.752 69.8777 251.647 69.9396 251.539C70.1746 251.145 70.4148 250.748 70.6653 250.349C70.8202 250.101 70.9803 249.854 71.1404 249.607C71.223 249.481 71.3005 249.355 71.3831 249.228C71.631 248.852 71.8841 248.474 72.1449 248.093C72.4496 247.647 72.7621 247.214 73.0771 246.789C73.1598 246.679 73.2424 246.568 73.325 246.46C73.6117 246.081 73.9009 245.71 74.1927 245.347C74.2263 245.306 74.2598 245.26 74.296 245.218C74.6188 244.822 74.9467 244.438 75.2773 244.06C75.3651 243.959 75.4529 243.861 75.5407 243.761C75.8196 243.447 76.1036 243.14 76.3877 242.839C76.4496 242.772 76.5142 242.702 76.5762 242.638C76.9145 242.285 77.2579 241.943 77.6039 241.608C77.6891 241.525 77.7744 241.445 77.8596 241.363C78.0817 241.152 78.3037 240.948 78.5284 240.742C78.8279 240.469 79.1301 240.204 79.4348 239.941C79.5897 239.81 79.7421 239.674 79.897 239.545C80.2663 239.238 80.6381 238.942 81.01 238.651C81.1004 238.582 81.1882 238.51 81.2786 238.44C81.7305 238.095 82.1875 237.763 82.6472 237.443C82.7686 237.358 82.8899 237.281 83.0113 237.199C83.3522 236.967 83.6956 236.738 84.0391 236.519C84.2017 236.416 84.367 236.315 84.5323 236.212C84.8525 236.014 85.1727 235.821 85.4955 235.633C85.6711 235.53 85.8493 235.429 86.0274 235.329C86.3476 235.149 86.6678 234.973 86.9906 234.803C87.1533 234.718 87.316 234.631 87.4787 234.546C88.0055 234.278 88.5323 234.018 89.0591 233.773C89.121 233.745 89.183 233.719 89.2476 233.691C89.7201 233.475 90.1927 233.271 90.6653 233.075C90.8925 232.98 91.1223 232.887 91.3496 232.797C91.489 232.741 91.6311 232.686 91.7705 232.632C92.083 232.514 92.3954 232.398 92.7053 232.287C92.7957 232.254 92.886 232.22 92.9764 232.189C93.3767 232.048 93.7795 231.914 94.1772 231.785C94.2805 231.752 94.3864 231.721 94.4897 231.687C94.7737 231.6 95.0552 231.512 95.3367 231.43C95.7111 231.319 96.0829 231.216 96.4522 231.118C96.5555 231.09 96.6588 231.059 96.7621 231.033C97.2347 230.909 97.7072 230.794 98.1772 230.685C98.3012 230.657 98.4225 230.631 98.5439 230.606C98.8899 230.528 99.236 230.454 99.5794 230.384C99.7472 230.351 99.9125 230.32 100.08 230.286C100.38 230.23 100.679 230.173 100.976 230.121C101.16 230.09 101.343 230.06 101.524 230.029C101.756 229.99 101.989 229.954 102.219 229.92C102.41 229.892 102.598 229.864 102.787 229.838C103.016 229.807 103.244 229.776 103.471 229.748C103.657 229.725 103.84 229.702 104.026 229.681C104.253 229.655 104.478 229.629 104.703 229.606C104.881 229.588 105.062 229.568 105.237 229.552C105.464 229.532 105.687 229.511 105.911 229.493C106.082 229.478 106.255 229.465 106.423 229.452C106.65 229.434 106.872 229.421 107.094 229.408C107.254 229.398 107.417 229.387 107.577 229.377C107.807 229.364 108.034 229.354 108.261 229.346C108.406 229.341 108.556 229.333 108.698 229.328C108.945 229.32 109.186 229.313 109.428 229.308C109.547 229.305 109.668 229.3 109.785 229.297C110.141 229.292 110.49 229.287 110.831 229.287C113.33 229.287 115.432 229.434 117.025 229.604C117.48 229.653 117.893 229.702 118.262 229.751C118.632 229.799 118.954 229.848 119.231 229.892C119.923 230 120.321 230.085 120.38 230.098L120.377 230.093Z" fill="url(#paint0_linear_1413_7282)"/>
<path d="M109.174 172.947L105.6 194.411L103.924 204.458C103.771 204.432 101.292 204.015 97.3828 204.007C97.06 204.007 96.7269 204.009 96.386 204.017C92.3551 204.092 87.0923 204.646 81.561 206.461C73.8967 208.504 66.958 212.135 60.6107 217.414C55.5106 222.336 51.5545 228.254 49.1504 234.389C45.0445 252.582 52.0736 262.404 61.4939 267.393C55.6346 258.745 55.6243 247.349 65.3105 233.228C76.2905 217.226 93.3802 214.427 103.996 214.43C109.708 214.43 113.354 215.2 113.545 215.241L120.544 173.104L109.174 172.95V172.947Z" fill="#D82565"/>
<path d="M261.165 143.752L254.484 183.993L261.317 198.848L268 158.607L261.165 143.752Z" fill="#CD2B65"/>
<path d="M254.486 183.993C254.444 183.996 253.685 184.05 252.198 184.05C245.138 184.05 222.581 182.757 196.469 167.895L203.302 182.75C229.416 197.612 251.973 198.905 259.033 198.905C260.52 198.905 261.28 198.851 261.321 198.848L254.488 183.993H254.486Z" fill="#A91B5F" fill-opacity="0.99"/>
<path d="M21.7791 296.137C21.3298 295.844 18.9489 294.28 15.9121 291.329C15.5067 290.935 15.0909 290.518 14.6648 290.075C14.2387 289.632 13.8075 289.163 13.3685 288.671C10.515 285.467 7.4266 281.197 4.93726 275.786L11.7701 290.641C17.8953 303.959 27.6538 310.361 28.6119 310.99L21.7791 296.135V296.137Z" fill="#137F7C"/>
<path d="M197.67 85.4242C197.326 80.3506 197.703 77.1674 197.722 77H152.469C151.317 84.4095 129.458 225.184 124.482 245.535C119.511 265.892 99.1857 269.68 87.1547 271.576C85.6054 271.82 83.6919 271.97 81.5511 271.97C75.6428 271.97 67.9992 270.829 61.4917 267.39C52.0715 262.402 45.0398 252.579 49.1483 234.386C48.1231 236.995 47.3768 239.643 46.943 242.275C46.3491 245.881 46.3387 249.45 46.9946 252.834C48.9262 262.775 55.7435 271.169 64.9727 276.479C70.1244 279.443 76.2316 281.365 82.6667 282.117C82.9327 282.148 83.2012 282.176 83.4672 282.204C85.2206 282.382 86.9998 282.472 89.0786 282.475C98.739 282.431 108.634 279.776 117.024 273.904C117.303 273.705 117.58 273.502 117.856 273.296C126.695 266.651 132.25 257.158 135.147 247.67C135.917 245.147 137.355 237.304 139.173 226.338C145.334 189.214 155.883 116.298 159.777 92.8646C160.562 88.1361 161.079 85.4216 161.231 85.4216H196.9C196.921 85.6302 197.301 89.5835 199.232 95.6924C198.31 91.9014 197.866 88.3679 197.67 85.4216V85.4242Z" fill="#1FCFCA"/>
<path d="M256.94 143.778C254.766 143.778 252.46 143.721 250.007 143.446L244.21 175.178C244.016 175.178 243.773 175.178 243.484 175.172C242.996 175.165 242.371 175.152 241.532 175.121C239.988 175.062 237.942 174.943 235.254 174.686C224.044 173.583 204.958 170.045 189.379 158.685C189.147 158.515 188.912 158.339 188.68 158.167C188.447 157.992 188.212 157.814 187.649 157.374C187.494 158.244 187.345 159.117 187.197 159.998C184.589 175.657 183.117 192.914 180.264 210.116C175.068 241.428 165.292 272.554 135.737 293.531C135.28 293.855 134.82 294.175 134.358 294.492C116.173 306.951 93.6841 313.751 71.9978 313.805C64.1915 313.797 56.5504 312.885 49.1779 310.974C48.7286 310.856 48.2819 310.735 47.8351 310.611C39.471 308.27 31.6441 304.652 25.4336 299.534C34.2005 312.553 53.7564 324.15 81.7383 324.15C94.043 324.15 107.977 321.907 123.337 316.558C173.625 299.04 180.783 259.013 181.157 256.906L196.463 167.902C222.578 182.765 245.134 184.058 252.192 184.058C253.679 184.058 254.438 184.004 254.479 184.001L261.162 143.76C259.807 143.76 258.402 143.786 256.938 143.786L256.94 143.778Z" fill="#D82565"/>
<path d="M106.274 162.033C89.3181 162.033 31.0714 165.911 8.21024 217.605C-15.6606 271.576 19.9055 294.909 21.7777 296.137C10.5188 284.347 7.07919 262.093 9.85776 245.443C16.094 207.996 57.5298 172.777 102.103 172.643C104.303 172.643 106.509 172.731 108.716 172.909C108.866 172.922 109.011 172.932 109.161 172.945C109.06 173.545 107.164 184.962 105.597 194.408L109.171 172.945L110.968 162.154C110.883 162.149 109.264 162.033 106.274 162.033Z" fill="#1FCFCA"/>
<path d="M25.4287 299.519L32.2615 314.374C30.9704 313.315 29.7515 312.19 28.6101 310.992L21.7773 296.137C22.9187 297.335 24.1376 298.46 25.4287 299.519Z" fill="#212664"/>
<path d="M25.4287 299.519C24.1376 298.46 22.9187 297.335 21.7773 296.137L28.6101 310.992C29.7515 312.19 30.973 313.315 32.2615 314.374L25.4287 299.519Z" fill="#212664"/>
<path d="M219.626 126.948C215.796 123.7 212.61 120.205 209.945 116.664C204.018 110.068 200.873 102.468 199.231 95.6975C197.299 89.5861 196.917 85.6328 196.899 85.4268H161.229C161.077 85.4268 160.56 88.1412 159.775 92.8697C155.881 116.306 145.333 189.219 139.171 226.343C137.351 237.307 135.915 245.149 135.145 247.676C132.248 257.163 126.693 266.656 117.854 273.301C117.578 273.507 117.302 273.711 116.731 274.115C108.635 279.778 98.7399 282.436 88.7851 282.477C87.0008 282.477 85.2215 282.385 83.4682 282.207C83.1996 282.179 82.9336 282.15 82.6625 282.119C76.2325 281.367 70.1254 279.443 64.9736 276.482C55.747 271.171 48.9297 262.778 46.9956 252.837C46.3397 249.453 46.3474 245.883 46.9439 242.278C47.3778 239.648 48.1241 236.998 49.1492 234.389C51.5534 228.257 55.5095 222.336 60.6095 217.414C66.9569 212.137 73.893 208.503 81.5598 206.461C87.0911 204.646 92.3539 204.092 96.3849 204.017C96.7257 204.012 97.0589 204.007 97.4746 204.007C101.291 204.015 103.77 204.429 103.93 204.458L105.599 194.408C107.169 184.959 109.162 172.945 108.721 172.906C106.51 172.728 104.305 172.641 101.826 172.641C57.5366 172.777 16.0982 207.994 9.85937 245.44C7.08081 262.09 10.5204 284.344 21.7793 296.135C22.9207 297.33 24.137 298.455 25.4281 299.514C25.4307 299.519 25.4333 299.521 25.4359 299.527C31.6463 304.644 39.4733 308.262 47.8374 310.603C48.2842 310.73 48.7309 310.848 49.3352 311.008C56.5527 312.88 64.1964 313.792 72.3565 313.8C93.6864 313.745 116.178 306.944 134.36 294.486C134.823 294.17 135.282 293.848 135.739 293.526C165.294 272.549 175.07 241.423 180.266 210.111C183.12 192.909 184.591 175.651 187.2 159.993C187.347 159.112 187.497 158.239 187.985 157.629C188.217 157.809 188.449 157.987 188.682 158.162C188.914 158.337 189.147 158.509 189.49 158.759C204.958 170.04 224.044 173.578 235.512 174.706C237.942 174.941 239.987 175.059 241.627 175.121C242.371 175.149 242.996 175.162 244.739 175.17L250.007 143.443L250.28 141.792C237.095 138.802 227.132 133.337 219.628 126.945L219.626 126.948Z" fill="#212664"/>
<path d="M196.462 167.895L181.156 256.898L187.989 271.753L203.294 182.752L196.462 167.895Z" fill="#CD2B65"/>
<path d="M172.45 303.073C172.646 302.836 172.835 302.602 173.026 302.365C173.168 302.19 173.312 302.012 173.452 301.837C173.648 301.589 173.839 301.342 174.03 301.095C174.157 300.93 174.286 300.768 174.41 300.603C174.616 300.333 174.815 300.065 175.014 299.794C175.117 299.655 175.226 299.514 175.326 299.375C175.616 298.981 175.9 298.587 176.176 298.192C176.184 298.18 176.194 298.169 176.202 298.156C176.486 297.752 176.765 297.348 177.036 296.946C177.131 296.807 177.219 296.668 177.312 296.529C177.485 296.269 177.661 296.006 177.831 295.746C177.937 295.581 178.04 295.419 178.146 295.254C178.296 295.02 178.446 294.788 178.59 294.556C178.606 294.533 178.621 294.507 178.637 294.481C178.758 294.286 178.877 294.092 178.996 293.897C179.091 293.742 179.19 293.585 179.283 293.431C179.425 293.196 179.561 292.962 179.698 292.73C179.778 292.594 179.864 292.454 179.941 292.318C180.093 292.058 180.238 291.8 180.383 291.543C180.445 291.435 180.509 291.324 180.569 291.216C180.773 290.853 180.971 290.489 181.165 290.131C181.188 290.088 181.212 290.044 181.235 289.998C181.403 289.683 181.568 289.372 181.728 289.065C181.793 288.942 181.852 288.821 181.914 288.699C182.03 288.47 182.149 288.241 182.26 288.017C182.33 287.878 182.394 287.741 182.464 287.602C182.565 287.399 182.665 287.193 182.764 286.989C182.833 286.843 182.9 286.698 182.97 286.554C183.06 286.364 183.151 286.173 183.239 285.982C183.306 285.836 183.37 285.691 183.437 285.545C183.52 285.362 183.605 285.179 183.685 284.999C183.75 284.852 183.812 284.708 183.876 284.563C183.954 284.388 184.031 284.213 184.104 284.038C184.166 283.894 184.225 283.752 184.284 283.608C184.357 283.438 184.426 283.271 184.496 283.103C184.556 282.961 184.61 282.822 184.667 282.681C184.731 282.518 184.798 282.356 184.86 282.197C184.915 282.057 184.969 281.921 185.023 281.782C185.082 281.627 185.144 281.47 185.201 281.318C185.253 281.182 185.304 281.048 185.354 280.914C185.41 280.765 185.465 280.615 185.519 280.471C185.568 280.34 185.614 280.208 185.661 280.08C185.712 279.935 185.764 279.794 185.813 279.655C185.857 279.526 185.901 279.4 185.945 279.276C185.991 279.14 186.04 279.003 186.084 278.867C186.126 278.746 186.167 278.624 186.206 278.503C186.25 278.369 186.294 278.238 186.335 278.109C186.371 277.993 186.407 277.883 186.443 277.769C186.485 277.641 186.523 277.512 186.565 277.388C186.598 277.28 186.632 277.172 186.663 277.066C186.699 276.945 186.735 276.824 186.771 276.706C186.802 276.603 186.833 276.5 186.862 276.399C186.895 276.283 186.929 276.17 186.96 276.059C186.988 275.961 187.014 275.866 187.042 275.773C187.073 275.665 187.102 275.557 187.13 275.452C187.156 275.361 187.179 275.271 187.202 275.184C187.231 275.081 187.257 274.983 187.283 274.885C187.306 274.8 187.326 274.715 187.347 274.633C187.37 274.537 187.394 274.447 187.417 274.357C187.437 274.28 187.456 274.2 187.474 274.125C187.494 274.038 187.515 273.955 187.536 273.87C187.554 273.801 187.569 273.729 187.585 273.664C187.605 273.582 187.621 273.505 187.639 273.427C187.652 273.365 187.667 273.304 187.68 273.247C187.698 273.172 187.711 273.103 187.727 273.033C187.74 272.979 187.75 272.925 187.763 272.874C187.778 272.804 187.791 272.742 187.804 272.68C187.814 272.637 187.822 272.59 187.833 272.549C187.845 272.487 187.856 272.433 187.866 272.379C187.874 272.343 187.882 272.304 187.887 272.273C187.897 272.217 187.907 272.17 187.915 272.122C187.92 272.098 187.926 272.07 187.931 272.047C187.941 271.99 187.951 271.941 187.959 271.897C187.959 271.89 187.962 271.879 187.964 271.872C187.975 271.823 187.98 271.779 187.988 271.748L181.155 256.893C181.15 256.927 181.142 256.968 181.131 257.017C181.131 257.024 181.129 257.035 181.126 257.042C181.119 257.086 181.108 257.135 181.098 257.192C181.093 257.215 181.088 257.241 181.082 257.267C181.072 257.315 181.064 257.362 181.054 257.418C181.049 257.452 181.039 257.491 181.033 257.524C181.023 257.578 181.013 257.632 181 257.694C180.992 257.735 180.982 257.784 180.971 257.828C180.958 257.89 180.946 257.952 180.93 258.019C180.92 258.07 180.907 258.127 180.894 258.183C180.878 258.25 180.863 258.32 180.847 258.392C180.835 258.451 180.819 258.513 180.806 258.575C180.788 258.652 180.77 258.729 180.752 258.812C180.736 258.879 180.718 258.951 180.703 259.02C180.682 259.103 180.664 259.185 180.641 259.273C180.623 259.347 180.602 259.427 180.581 259.505C180.558 259.595 180.535 259.685 180.512 259.778C180.491 259.86 180.468 259.945 180.447 260.03C180.421 260.128 180.396 260.226 180.367 260.329C180.344 260.416 180.318 260.506 180.295 260.597C180.266 260.702 180.235 260.808 180.207 260.918C180.181 261.011 180.153 261.109 180.127 261.204C180.096 261.315 180.062 261.428 180.029 261.544C179.998 261.645 179.969 261.75 179.938 261.853C179.902 261.972 179.869 262.09 179.83 262.211C179.796 262.317 179.765 262.425 179.729 262.533C179.691 262.659 179.649 262.786 179.608 262.914C179.572 263.028 179.536 263.141 179.499 263.257C179.458 263.386 179.414 263.517 179.37 263.648C179.332 263.769 179.29 263.89 179.249 264.012C179.202 264.145 179.156 264.282 179.11 264.418C179.066 264.545 179.022 264.671 178.978 264.797C178.929 264.936 178.877 265.08 178.825 265.222C178.779 265.351 178.733 265.482 178.683 265.613C178.629 265.76 178.575 265.91 178.518 266.056C178.469 266.19 178.417 266.324 178.366 266.461C178.306 266.613 178.247 266.77 178.188 266.924C178.133 267.063 178.079 267.2 178.025 267.342C177.963 267.501 177.896 267.661 177.831 267.823C177.774 267.965 177.718 268.104 177.658 268.248C177.589 268.416 177.519 268.583 177.447 268.753C177.387 268.895 177.328 269.036 177.266 269.183C177.191 269.356 177.113 269.533 177.039 269.708C176.974 269.853 176.912 269.997 176.847 270.144C176.767 270.324 176.682 270.507 176.6 270.69C176.532 270.834 176.468 270.978 176.401 271.127C176.313 271.315 176.223 271.509 176.132 271.699C176.062 271.843 175.995 271.988 175.926 272.134C175.83 272.335 175.729 272.539 175.629 272.742C175.559 272.881 175.492 273.02 175.422 273.162C175.311 273.383 175.197 273.605 175.084 273.829C175.019 273.955 174.957 274.081 174.89 274.21C174.73 274.517 174.567 274.826 174.399 275.137C174.374 275.184 174.35 275.23 174.327 275.274C174.133 275.632 173.935 275.995 173.731 276.358C173.671 276.466 173.607 276.577 173.545 276.685C173.4 276.943 173.253 277.2 173.103 277.46C173.023 277.597 172.94 277.736 172.86 277.872C172.723 278.107 172.587 278.339 172.445 278.573C172.352 278.727 172.253 278.885 172.158 279.039C172.024 279.258 171.892 279.477 171.753 279.696C171.608 279.928 171.456 280.162 171.308 280.394C171.202 280.559 171.102 280.721 170.993 280.886C170.825 281.146 170.65 281.406 170.474 281.669C170.381 281.808 170.291 281.947 170.198 282.086C169.927 282.488 169.648 282.892 169.364 283.296C169.356 283.309 169.346 283.319 169.338 283.332C169.062 283.724 168.778 284.118 168.488 284.514C168.388 284.654 168.279 284.793 168.176 284.934C167.977 285.205 167.778 285.473 167.572 285.743C167.448 285.905 167.319 286.07 167.192 286.235C167.001 286.482 166.81 286.729 166.614 286.977C166.474 287.152 166.33 287.329 166.188 287.504C165.997 287.741 165.808 287.976 165.612 288.213C165.462 288.396 165.307 288.578 165.152 288.761C164.958 288.993 164.765 289.222 164.566 289.454C164.457 289.583 164.344 289.709 164.233 289.838C163.892 290.229 163.543 290.623 163.187 291.017C163.058 291.162 162.926 291.306 162.794 291.45C162.343 291.945 161.883 292.436 161.408 292.928C161.4 292.936 161.392 292.946 161.382 292.954C160.902 293.454 160.406 293.951 159.9 294.448C159.758 294.589 159.613 294.729 159.468 294.87C159.068 295.259 158.66 295.648 158.247 296.034C158.108 296.163 157.971 296.294 157.831 296.423C157.524 296.706 157.206 296.99 156.891 297.273C156.734 297.412 156.581 297.554 156.421 297.693C155.946 298.113 155.463 298.53 154.97 298.945C154.967 298.947 154.962 298.95 154.96 298.955C154.461 299.375 153.955 299.789 153.439 300.204C153.273 300.338 153.1 300.472 152.933 300.603C152.579 300.884 152.225 301.162 151.864 301.44C151.626 301.623 151.383 301.803 151.141 301.986C150.867 302.192 150.596 302.396 150.317 302.599C150.066 302.782 149.813 302.965 149.558 303.148C149.276 303.348 148.995 303.552 148.708 303.753C148.45 303.936 148.184 304.113 147.92 304.294C147.631 304.492 147.342 304.69 147.048 304.889C146.779 305.069 146.505 305.247 146.232 305.424C145.935 305.62 145.635 305.813 145.333 306.006C145.046 306.189 144.757 306.369 144.465 306.55C144.176 306.73 143.884 306.91 143.59 307.091C143.293 307.271 142.993 307.449 142.691 307.629C142.392 307.807 142.092 307.984 141.79 308.159C141.483 308.337 141.173 308.512 140.86 308.687C140.553 308.86 140.246 309.035 139.931 309.205C139.616 309.378 139.295 309.55 138.975 309.72C138.658 309.89 138.337 310.06 138.015 310.23C137.707 310.39 137.392 310.549 137.08 310.709C136.716 310.894 136.352 311.08 135.982 311.26C135.665 311.417 135.345 311.572 135.024 311.726C134.652 311.907 134.278 312.084 133.901 312.259C133.573 312.411 133.24 312.563 132.907 312.715C132.525 312.888 132.14 313.06 131.753 313.233C131.414 313.382 131.073 313.529 130.73 313.676C130.337 313.843 129.94 314.011 129.542 314.176C129.222 314.309 128.899 314.441 128.574 314.57C127.985 314.807 127.388 315.041 126.787 315.273C126.516 315.376 126.25 315.481 125.976 315.584C125.106 315.911 124.225 316.233 123.329 316.545C122.273 316.913 121.224 317.263 120.184 317.601C119.848 317.709 119.515 317.812 119.179 317.92C118.472 318.144 117.769 318.366 117.067 318.577C116.46 318.76 115.858 318.938 115.257 319.113C115.076 319.164 114.895 319.218 114.714 319.27C113.885 319.504 113.062 319.731 112.241 319.947C112.039 320.001 111.84 320.05 111.641 320.102C111.009 320.266 110.376 320.426 109.749 320.581C109.496 320.642 109.243 320.704 108.989 320.763C108.341 320.918 107.698 321.067 107.058 321.209C106.887 321.248 106.717 321.286 106.547 321.325C105.749 321.5 104.956 321.665 104.166 321.825C103.969 321.863 103.776 321.899 103.579 321.938C102.973 322.056 102.368 322.17 101.769 322.278C101.524 322.322 101.281 322.365 101.039 322.407C100.55 322.492 100.065 322.571 99.5795 322.649C99.1922 322.71 98.8048 322.775 98.4175 322.834C97.963 322.904 97.5111 322.968 97.0617 323.03C96.6847 323.084 96.3051 323.138 95.9281 323.187C95.4736 323.246 95.0243 323.3 94.575 323.352C94.2083 323.396 93.839 323.442 93.4723 323.481C93.0178 323.529 92.5685 323.573 92.1192 323.617C91.7628 323.651 91.4065 323.689 91.0527 323.72C90.593 323.761 90.1386 323.792 89.6841 323.828C89.3458 323.854 89.0075 323.882 88.6692 323.905C88.1941 323.936 87.7215 323.96 87.2515 323.985C86.9417 324.001 86.6292 324.021 86.3219 324.034C85.8029 324.057 85.2916 324.07 84.7777 324.086C84.522 324.093 84.2638 324.104 84.0107 324.112C83.2464 324.13 82.4872 324.137 81.7357 324.137C68.6202 324.137 57.3535 321.59 48.1838 317.542C46.9597 317.001 45.7745 316.434 44.6279 315.844C41.1857 314.073 38.0818 312.084 35.3368 309.944C34.42 309.231 33.5446 308.502 32.7105 307.755C32.2922 307.382 31.8842 307.008 31.4865 306.627C29.1005 304.353 27.0759 301.963 25.4336 299.521L32.2664 314.376C41.0333 327.395 60.5892 338.992 88.5711 338.992C89.3226 338.992 90.0818 338.985 90.8461 338.967C91.0992 338.961 91.3574 338.949 91.6131 338.941C92.1269 338.925 92.6383 338.912 93.1573 338.889C93.4672 338.876 93.7822 338.856 94.0947 338.838C94.5647 338.812 95.0321 338.789 95.5046 338.758C95.8403 338.735 96.1838 338.706 96.522 338.681C96.9765 338.647 97.431 338.614 97.8907 338.573C98.2419 338.542 98.5982 338.506 98.9546 338.469C99.4065 338.426 99.8558 338.382 100.31 338.333C100.677 338.292 101.046 338.248 101.416 338.204C101.865 338.15 102.312 338.099 102.763 338.039C103.141 337.99 103.523 337.936 103.902 337.882C104.352 337.818 104.801 337.756 105.255 337.687C105.64 337.627 106.028 337.566 106.417 337.501C106.714 337.452 107.011 337.411 107.311 337.359C107.499 337.329 107.688 337.293 107.876 337.259C108.119 337.218 108.362 337.174 108.605 337.13C109.206 337.022 109.813 336.909 110.42 336.788C110.614 336.749 110.807 336.713 111.004 336.674C111.791 336.517 112.587 336.35 113.385 336.175C113.555 336.139 113.725 336.098 113.893 336.059C114.534 335.915 115.179 335.768 115.827 335.613C116.08 335.554 116.334 335.492 116.587 335.43C117.214 335.276 117.847 335.116 118.482 334.951C118.681 334.9 118.88 334.851 119.081 334.797C119.902 334.581 120.726 334.354 121.555 334.12C121.736 334.068 121.916 334.014 122.097 333.962C122.552 333.831 123.006 333.702 123.466 333.566C123.613 333.522 123.763 333.473 123.907 333.429C124.605 333.218 125.307 332.999 126.012 332.775C126.35 332.667 126.686 332.564 127.027 332.453C128.068 332.116 129.116 331.766 130.17 331.397C131.066 331.086 131.946 330.764 132.816 330.437C133.09 330.334 133.356 330.231 133.627 330.125C134.229 329.893 134.825 329.662 135.414 329.422C135.559 329.363 135.709 329.309 135.853 329.249C136.031 329.177 136.204 329.1 136.383 329.025C136.78 328.861 137.175 328.693 137.568 328.526C137.911 328.379 138.255 328.23 138.593 328.08C138.98 327.91 139.363 327.738 139.745 327.565C140.078 327.413 140.411 327.261 140.739 327.109C141.116 326.934 141.488 326.756 141.86 326.576C142.182 326.422 142.505 326.265 142.823 326.11C143.19 325.927 143.554 325.744 143.915 325.561C144.122 325.456 144.336 325.353 144.54 325.247C144.646 325.193 144.749 325.134 144.855 325.08C145.178 324.912 145.496 324.742 145.813 324.573C146.133 324.4 146.454 324.23 146.771 324.055C147.084 323.882 147.391 323.71 147.701 323.537C148.013 323.362 148.323 323.187 148.631 323.009C148.935 322.834 149.235 322.656 149.532 322.479C149.834 322.301 150.133 322.121 150.43 321.94C150.725 321.76 151.017 321.58 151.306 321.4C151.499 321.279 151.701 321.16 151.892 321.036C151.988 320.977 152.078 320.915 152.171 320.856C152.473 320.663 152.77 320.47 153.067 320.274C153.341 320.094 153.617 319.916 153.888 319.736C154.182 319.54 154.469 319.342 154.758 319.144C155.022 318.963 155.288 318.783 155.546 318.6C155.833 318.399 156.111 318.198 156.393 317.997C156.649 317.815 156.904 317.632 157.155 317.449C157.431 317.245 157.702 317.042 157.976 316.836C158.162 316.697 158.353 316.558 158.536 316.419C158.59 316.378 158.645 316.334 158.699 316.29C159.06 316.014 159.412 315.734 159.765 315.456C159.936 315.322 160.109 315.188 160.277 315.051C160.791 314.637 161.299 314.219 161.795 313.802C161.803 313.794 161.813 313.787 161.821 313.779C162.309 313.367 162.787 312.955 163.259 312.54C163.419 312.399 163.574 312.257 163.734 312.115C164.049 311.834 164.362 311.554 164.669 311.27C164.718 311.227 164.767 311.183 164.814 311.139C164.907 311.052 164.995 310.967 165.088 310.879C165.501 310.493 165.909 310.106 166.306 309.717C166.451 309.576 166.596 309.437 166.738 309.295C167.241 308.798 167.737 308.301 168.22 307.801C168.228 307.794 168.235 307.783 168.246 307.776C168.721 307.284 169.181 306.789 169.632 306.297C169.764 306.153 169.893 306.009 170.025 305.865C170.381 305.471 170.73 305.079 171.071 304.685C171.143 304.603 171.221 304.518 171.293 304.435C171.332 304.392 171.368 304.345 171.406 304.301C171.605 304.07 171.799 303.84 171.993 303.609C172.145 303.426 172.303 303.243 172.452 303.06L172.45 303.073Z" fill="url(#paint1_linear_1413_7282)"/>
</g>
<defs>
<linearGradient id="paint0_linear_1413_7282" x1="115.574" y1="218.591" x2="44.3587" y2="270.247" gradientUnits="userSpaceOnUse">
<stop stop-color="#CA2492"/>
<stop offset="1" stop-color="#B4166B"/>
</linearGradient>
<linearGradient id="paint1_linear_1413_7282" x1="163.406" y1="236.336" x2="55.9232" y2="345.628" gradientUnits="userSpaceOnUse">
<stop stop-color="#B21F80"/>
<stop offset="1" stop-color="#E83475"/>
</linearGradient>
<clipPath id="clip0_1413_7282">
<rect width="268" height="262" fill="white" transform="translate(0 77)"/>
</clipPath>
</defs>
</svg>
