<svg width="11" height="9" viewBox="0 0 11 9" fill="none" xmlns="http://www.w3.org/2000/svg">
<path d="M0.6875 5.14252H8.84125L6.34562 7.94513C6.28784 8.01013 6.24432 8.08513 6.21754 8.16585C6.19076 8.24658 6.18125 8.33144 6.18955 8.41561C6.20631 8.58558 6.2946 8.74237 6.435 8.85147C6.5754 8.96058 6.7564 9.01307 6.9382 8.9974C7.11999 8.98173 7.28768 8.89918 7.40438 8.76791L10.8419 4.91111C10.865 4.88043 10.8857 4.84821 10.9038 4.81469C10.9038 4.78255 10.9381 4.76327 10.9519 4.73113C10.983 4.65743 10.9994 4.57897 11 4.49972C10.9994 4.42047 10.983 4.34202 10.9519 4.26831C10.9519 4.23617 10.9175 4.21689 10.9038 4.18475C10.8857 4.15123 10.865 4.11901 10.8419 4.08833L7.40438 0.231531C7.33973 0.15897 7.25879 0.100617 7.16729 0.0606212C7.0758 0.0206255 6.976 -3.00622e-05 6.875 0.000123298C6.71436 -0.000170148 6.55869 0.0521379 6.435 0.147967C6.36538 0.20193 6.30784 0.268203 6.26566 0.34299C6.22348 0.417778 6.1975 0.499612 6.18919 0.583804C6.18089 0.667995 6.19044 0.752892 6.21728 0.83363C6.24412 0.914367 6.28774 0.989361 6.34562 1.05431L8.84125 3.85692H0.6875C0.505164 3.85692 0.330295 3.92464 0.201364 4.04519C0.072433 4.16574 0 4.32924 0 4.49972C0 4.6702 0.072433 4.8337 0.201364 4.95425C0.330295 5.0748 0.505164 5.14252 0.6875 5.14252Z" fill="#1740FE"/>
</svg>
