<svg width="372" height="87" viewBox="0 0 372 87" fill="none" xmlns="http://www.w3.org/2000/svg">
<path d="M16.8547 86.4963C27.3046 86.4963 33.7031 80.3038 33.7031 70.5593V47.4185H25.8875V70.3596C25.8875 76.1463 22.6352 79.5984 16.8547 79.5984C11.1678 79.5984 7.81558 76.1463 7.81558 70.3596V47.4185H0V70.5593C0 80.3038 6.49842 86.4963 16.8547 86.4963Z" fill="#1740FE"/>
<path d="M69.8381 47.4185V73.4059L51.5663 47.4185H44.0566V85.9907H51.5663V59.9034L70.0378 85.9907H77.3478V47.4185H69.8381Z" fill="#1740FE"/>
<path d="M88.1074 85.9907H95.923V47.4185H88.1074V85.9907Z" fill="#1740FE"/>
<path d="M132.257 47.4185L121.501 78.481L110.739 47.4185H102.418L116.526 85.9907H126.37L140.478 47.4185H132.257Z" fill="#1740FE"/>
<path d="M154.593 79.0865V69.548H169.712V62.8499H154.593V54.3226H174.281V47.4185H146.877V85.9907H174.787V79.0865H154.593Z" fill="#1740FE"/>
<path d="M213.661 78.8868C212.55 78.8868 211.838 78.1751 211.838 77.0577V67.925H205.746C210.009 66.5017 213.256 63.1557 213.256 58.2804C213.256 51.5822 208.081 47.4185 199.453 47.4185H182.199V85.9907H190.015V71.477H204.023V78.9867C204.023 83.5561 206.657 85.9907 211.027 85.9907H214.985V78.8868H213.661ZM198.336 53.9169C203.105 53.9169 205.546 55.7459 205.546 59.5975C205.546 63.5615 203.105 65.2844 198.336 65.2844H190.015V53.9169H198.336Z" fill="#1740FE"/>
<path d="M234.569 86.4961C244.419 86.4961 250.306 82.1326 250.306 74.7228C250.306 67.4129 243.402 64.9783 236.092 63.0494C230.411 61.5262 227.571 60.3089 227.571 57.7745C227.571 55.3337 230.311 53.7107 234.569 53.7107C238.533 53.7107 242.284 55.0341 245.131 57.3687L249.388 51.4821C245.131 48.4358 240.462 46.9126 234.981 46.9126C225.742 46.9126 219.855 51.1762 219.855 58.1803C219.855 66.0957 227.571 68.4304 234.369 70.3593C239.75 71.8825 242.391 72.694 242.391 75.3346C242.391 78.1749 239.544 79.7979 234.875 79.7979C230.311 79.7979 225.942 78.1749 222.696 75.0287L218.332 80.9154C222.39 84.5672 228.176 86.4961 234.569 86.4961Z" fill="#1740FE"/>
<path d="M257.514 85.9907H265.329V47.4185H257.514V85.9907Z" fill="#1740FE"/>
<path d="M306.133 47.4185H271.725V54.5224H285.021V85.9907H292.837V54.5224H306.133V47.4185Z" fill="#1740FE"/>
<path d="M336.378 47.4185L329.374 68.5305H326.834L316.277 47.4185H307.65L318.918 68.5305H314.96C312.726 70.5593 311.408 73.4059 311.408 76.652C311.408 82.5386 315.572 86.4963 321.659 86.4963C327.445 86.4963 331.503 83.1504 334.044 76.1463L344.6 47.4185H336.378ZM321.865 80.3038C319.63 80.3038 318.313 78.8868 318.313 76.5521C318.313 75.6344 318.612 74.8229 319.124 74.1175H327.545L326.734 76.2462C325.722 78.8868 324.199 80.3038 321.865 80.3038Z" fill="#1740FE"/>
<path d="M178.967 45.0011C178.13 45.4631 177.106 45.9812 175.895 46.5493C174.697 47.1111 173.298 47.7291 171.7 48.397C170.283 48.9464 169.016 49.4208 167.905 49.8203C166.806 50.2198 165.889 50.5007 165.158 50.6693C164.072 50.9814 162.948 51.1562 161.787 51.1937C160.639 51.2436 159.471 51.1749 158.292 50.9939C157.923 50.944 157.517 50.8253 157.068 50.6443C156.631 50.457 156.182 50.2573 155.72 50.045C155.07 49.7766 154.534 49.5456 154.122 49.3459C153.703 49.1586 153.354 49.0462 153.073 48.9963L152.673 48.4719L151.674 48.1723C151.188 48.0537 150.657 47.7291 150.076 47.1985C149.49 46.6616 148.878 45.9562 148.229 45.076C147.611 44.2083 147.13 43.4155 146.78 42.6789C146.431 41.9486 146.194 41.2993 146.081 40.7313L145.557 37.4352C145.37 36.3054 145.238 35.4002 145.157 34.7135C145.089 34.0331 145.082 33.5836 145.132 33.3652L145.757 31.7671C145.657 31.2053 145.582 30.7308 145.532 30.3438C145.494 29.9443 145.494 29.6384 145.532 29.4199C145.544 29.2576 145.688 28.6708 145.956 27.672C146.219 26.6732 146.606 25.2999 147.105 23.552C147.317 23.2399 147.561 22.8466 147.829 22.3784C148.11 21.9164 148.385 21.3921 148.653 20.8053V19.9813C148.684 19.7815 148.759 19.5693 148.878 19.3321C149.009 19.0824 149.177 18.8015 149.377 18.4831C150.089 17.3719 150.832 16.2483 151.6 15.1122C152.361 13.9635 153.104 12.8649 153.822 11.8161C154.452 11.0046 155.226 10.1868 156.144 9.36908C157.056 8.55756 158.092 7.71482 159.24 6.84712C159.503 6.63487 159.827 6.3602 160.214 6.02311C160.595 5.69226 161.038 5.31771 161.538 4.89947C161.987 4.69971 162.543 4.40007 163.211 4.00055C163.891 3.60103 164.715 3.07042 165.683 2.40248C165.932 2.35254 166.238 2.27138 166.606 2.15278C166.969 2.02168 167.43 1.86562 167.98 1.67835C168.092 1.61592 168.254 1.51604 168.454 1.37871C168.667 1.22889 168.91 1.07907 169.178 0.929251C169.491 0.729492 170.533 0.517249 172.3 0.280034C174.079 0.030335 175.221 -0.0508167 175.72 0.0303351C176.85 0.198882 177.793 0.423611 178.542 0.704522C179.304 0.972949 179.897 1.31629 180.315 1.72829L181.489 2.12781C182.419 2.49611 183.018 3.35133 183.286 4.69971C183.567 6.04808 183.524 7.92082 183.162 10.3179C182.993 11.4541 182.849 12.3592 182.737 13.0397C182.618 13.7263 182.5 14.182 182.387 14.413C182.15 15.1122 181.863 16.0111 181.514 17.1097C181.164 18.1959 180.739 19.4444 180.24 20.8552C180.121 21.2547 179.841 21.8915 179.391 22.7529C178.954 23.6019 178.399 24.6507 177.718 25.8991C176.981 27.2475 176.376 28.2838 175.895 28.9954C175.408 29.6946 175.046 30.0566 174.797 30.0691C173.779 30.169 172.687 30.2939 171.526 30.4437C170.989 30.3625 170.614 30.2626 170.402 30.144C170.183 30.0129 170.09 29.8444 170.127 29.6446C170.158 29.4636 170.24 29.1952 170.377 28.8456C170.508 28.496 170.589 28.2463 170.627 28.0965C170.689 27.1476 170.758 26.1988 170.826 25.2499C170.876 24.9004 171.076 24.2387 171.426 23.2523C171.775 22.2723 172.262 21.03 172.899 19.5318C173.561 17.8838 174.129 16.5854 174.597 15.6365C175.078 14.6752 175.427 14.0759 175.646 13.8387C176.476 13.3081 177.1 12.765 177.518 12.2156C177.93 11.6538 178.174 11.1295 178.242 10.6425C178.342 9.96211 178.267 9.33786 178.018 8.7698C177.768 8.20798 177.325 7.73979 176.694 7.37149C176.076 7.12179 175.452 6.88457 174.822 6.64736C174.204 6.41639 173.579 6.16669 172.949 5.89826C172.412 5.99814 171.938 6.06681 171.526 6.09802C171.107 6.13547 170.739 6.16669 170.427 6.1979C168.76 6.21663 167.068 6.741 165.358 7.771C163.66 8.78853 161.962 10.3054 160.264 12.3155C158.847 14.0634 157.649 15.8488 156.668 17.6591C155.682 19.4756 154.927 21.3421 154.396 23.2523C154.228 23.8204 153.997 24.5258 153.697 25.3748C153.41 26.2238 153.054 27.2226 152.623 28.3712C152.736 29.1577 152.829 29.8569 152.898 30.4686L152.024 33.7647C152.005 33.902 152.08 34.1767 152.249 34.5887C152.411 34.9882 152.68 35.5875 153.048 36.3865C153.248 36.8859 153.404 37.4352 153.522 38.0345C153.653 38.6213 153.735 39.2705 153.772 39.9822C153.803 40.1507 153.872 40.3505 153.972 40.5814C154.072 40.7999 154.196 40.9747 154.346 41.1058C154.677 41.5053 154.995 41.8487 155.295 42.1296C156.194 43.4155 157.193 44.4268 158.292 45.1759C159.39 45.9375 160.614 46.4244 161.962 46.6242C162.074 46.6367 162.543 46.6367 163.36 46.6242C164.172 46.6242 165.314 46.5992 166.781 46.5493C167.043 46.4119 167.387 46.2871 167.805 46.1747C168.217 46.0748 168.735 45.9625 169.353 45.8501C169.934 45.4319 170.477 45.1572 170.976 45.0261C171.488 44.8888 171.956 44.8575 172.375 44.9262C172.524 44.7764 172.705 44.5891 172.924 44.3769C173.136 44.1584 173.423 43.9149 173.773 43.6527C174.572 43.4717 175.308 43.1908 175.995 42.8038C176.676 42.423 177.344 41.9486 177.993 41.3805C178.654 43.659 178.979 44.8638 178.967 45.0011Z" fill="#CCFF00"/>
<path d="M184.395 35.8692C184.476 35.3573 184.476 34.5333 184.395 33.3972C184.308 32.2486 184.308 31.3933 184.395 30.8253C184.445 30.5131 184.545 30.02 184.695 29.352C184.857 28.6903 184.97 28.1972 185.02 27.8788C185.151 26.9799 185.301 25.6066 185.469 23.7588C185.65 21.911 185.806 20.5377 185.943 19.6388C186.174 18.1094 186.549 16.1617 187.067 13.7958C187.598 11.4174 188.253 8.62079 189.04 5.40591C189.389 4.2573 189.795 3.40832 190.263 2.85898C190.725 2.29716 191.287 2.05371 191.936 2.13486C192.148 2.17231 192.342 2.35334 192.511 2.68419C192.673 3.02129 192.823 3.50196 192.96 4.13245C193.459 4.75045 193.959 5.331 194.458 5.88034C194.839 6.3298 195.095 6.86665 195.232 7.47842C195.382 8.07769 195.388 8.77061 195.257 9.55092C195.157 10.2875 194.858 11.2863 194.358 12.5473C193.859 13.7958 193.566 14.7447 193.484 15.3939C193.285 16.6923 193.066 17.766 192.835 18.615C192.617 19.464 192.392 20.1132 192.161 20.5626L191.587 21.6863C191.549 22.4229 191.518 23.2594 191.487 24.2082C191.2 25.5941 190.937 27.0298 190.688 28.528C190.451 30.045 190.338 31.6118 190.338 33.2224C190.351 34.8392 190.451 36.481 190.638 38.1414C190.919 40.3887 191.393 42.1304 192.061 43.3602C192.723 44.5774 193.591 45.2704 194.658 45.4327C195.189 45.5013 195.707 45.4451 196.206 45.2579C196.706 45.0768 197.205 44.7273 197.704 44.2091C198.104 43.8471 198.478 43.4538 198.828 43.0355C199.19 42.6048 199.552 42.1866 199.902 41.7871C200.301 41.4375 200.726 41.0005 201.175 40.4636C201.637 39.9143 202.149 39.2589 202.698 38.491C203.347 37.0927 204.034 35.6819 204.771 34.2461C205.501 32.8166 206.244 31.3746 206.993 29.9264C207.193 29.4769 207.443 28.8776 207.742 28.1285C208.042 27.3794 208.373 26.518 208.741 25.5317C209.39 24.3706 210.102 22.7288 210.888 20.6126C211.669 18.5026 212.586 15.9307 213.635 12.8969C213.885 12.4349 214.209 11.8419 214.609 11.124C215.008 10.4124 215.464 9.56964 215.982 8.60206C216.132 8.25248 216.394 7.71563 216.781 6.97902C217.181 6.22992 217.705 5.29979 218.354 4.18239C218.667 3.62057 219.104 3.22729 219.653 3.0088C220.202 2.77783 220.858 2.72165 221.625 2.83401C222.087 2.90268 222.381 3.25226 222.499 3.88275C222.63 4.51948 222.606 5.44337 222.424 6.65441C222.075 9.00158 221.351 11.8169 220.252 15.0942C219.166 18.3778 217.686 22.0858 215.807 26.2308C215.708 26.6303 215.52 27.1235 215.258 27.704C215.008 28.2721 214.709 28.9213 214.359 29.6517C214.272 30.1199 214.147 30.6505 213.985 31.2498C213.816 31.8366 213.591 32.492 213.31 33.2224C212.711 34.5708 212.162 36.0128 211.662 37.5422C211.163 39.0591 210.714 40.6572 210.314 42.3364C210.277 42.5861 210.177 42.9482 210.014 43.4101C209.846 43.8783 209.652 44.4588 209.44 45.158C209.19 45.8072 208.997 46.4002 208.866 46.9309C208.729 47.4677 208.629 47.9671 208.566 48.429C208.547 49.1095 208.516 49.74 208.466 50.3268C208.729 50.7263 208.928 51.0509 209.066 51.3006C209.197 51.5628 209.253 51.775 209.24 51.9248C209.003 52.3244 208.679 52.7488 208.267 53.1983C207.848 53.6602 207.299 54.1472 206.619 54.6466C205.932 55.2458 205.283 55.6703 204.671 55.92C204.053 56.1697 203.51 56.2509 203.048 56.1697C202.611 56.101 202.224 55.7577 201.874 55.146C201.537 54.5467 201.412 54.0036 201.5 53.5229L201.525 53.2482C201.656 53.011 201.781 52.7364 201.899 52.4242C201.912 52.2869 201.905 52.1496 201.874 51.9997C201.837 51.8624 201.812 51.6814 201.799 51.4504C201.862 51.3505 201.962 51.182 202.099 50.951C202.23 50.7138 202.374 50.4516 202.523 50.152C202.486 50.0334 202.449 49.8773 202.399 49.6775C202.361 49.4903 202.311 49.278 202.249 49.0283C202.311 48.8972 202.38 48.7287 202.449 48.5289C202.53 48.3167 202.655 48.0545 202.823 47.7549C202.836 47.5551 202.848 47.3054 202.848 47.0058C202.898 46.8247 202.973 46.575 203.073 46.2567C203.173 45.9445 203.285 45.545 203.422 45.0581C203.603 44.6773 203.747 44.3465 203.847 44.0593C203.947 43.7784 204.003 43.5724 204.022 43.4351C204.053 43.2353 204.047 43.0605 203.997 42.9107C203.959 42.7609 203.897 42.661 203.797 42.6111C203.647 42.6298 203.422 42.7796 203.123 43.0605C202.836 43.3477 202.486 43.7472 202.074 44.2591C201.575 44.8459 201.15 45.3265 200.801 45.7073C200.463 46.0944 200.239 46.3441 200.126 46.4564L199.902 46.9558C199.103 47.7549 198.391 48.4166 197.779 48.9284C197.18 49.4403 196.73 49.8086 196.431 50.0271C195.881 50.358 195.257 50.6514 194.558 50.9011C193.871 51.1508 193.047 51.3318 192.086 51.4504C191.618 51.4629 191.168 51.5253 190.738 51.6252C189.82 51.4879 189.021 51.2382 188.341 50.8761C187.673 50.5265 187.192 50.102 186.892 49.6026C185.644 47.6425 184.807 45.5263 184.395 43.2603C183.996 40.9818 183.996 38.516 184.395 35.8692Z" fill="#CCFF00"/>
<path d="M238.543 50.4778C239.205 52.7625 239.529 53.9673 239.517 54.0984C239.13 54.4854 238.768 54.8974 238.418 55.3469C238.081 55.8088 237.706 56.2708 237.294 56.7202C236.945 57.1322 236.508 57.4569 235.996 57.6941C235.478 57.925 234.904 58.1061 234.273 58.2434C233.337 58.4557 232.45 58.6679 231.601 58.8677C230.765 59.0799 230.016 59.3171 229.354 59.5668C228.567 59.7791 227.756 59.8914 226.907 59.8914C226.07 59.8914 225.284 59.8727 224.535 59.8415C223.936 59.9039 223.374 59.9164 222.862 59.8665C222.344 59.8165 221.863 59.7541 221.414 59.6917C221.027 59.6417 220.714 59.5731 220.465 59.4919C220.228 59.4232 220.04 59.3296 219.89 59.2172C219.691 59.0487 219.491 58.8739 219.291 58.6929C219.104 58.5056 218.929 58.3433 218.767 58.1935C218.38 57.8938 218.099 57.6566 217.918 57.4943C217.618 57.2758 217.456 56.7515 217.443 55.9212C217.443 55.1034 217.556 53.9236 217.793 52.3755C217.943 51.3143 218.498 49.6475 219.466 47.3815C220.446 45.103 220.995 43.5798 221.114 42.812C221.145 42.631 221.151 42.3813 221.139 42.0629C221.139 41.7321 221.151 41.4761 221.189 41.2888C221.289 40.6084 221.763 39.079 222.612 36.6944C223.461 34.316 223.961 32.6617 224.11 31.7254C224.173 31.2447 224.042 30.8702 223.711 30.6017C223.374 30.3396 223.236 29.9962 223.286 29.578C223.386 28.9974 223.542 28.3482 223.761 27.6303C223.973 26.9187 224.273 26.1321 224.66 25.2831C224.941 24.6027 225.221 23.9098 225.509 23.2106C225.79 22.5115 226.064 21.8311 226.333 21.1631C226.632 20.3828 226.938 19.59 227.257 18.791C227.569 17.9919 227.843 17.2054 228.081 16.4188C228.312 15.9194 228.636 15.2952 229.054 14.5461C229.485 13.797 230.009 12.9605 230.627 12.0241C230.908 11.5747 231.164 11.1502 231.402 10.7507C231.651 10.3511 231.907 9.92042 232.176 9.45223C232.438 9.09017 232.781 8.79053 233.199 8.55331C233.611 8.30362 234.105 8.09761 234.673 7.92907C235.122 7.8167 235.522 7.74179 235.871 7.70434C236.233 7.67313 236.483 7.66688 236.62 7.67937C237.282 7.77925 237.731 8.07264 237.969 8.55331C238.218 9.04023 238.268 9.76436 238.118 10.7257C238.081 11.0129 238.019 11.3437 237.919 11.7245C237.819 12.0928 237.65 12.511 237.419 12.973C237.251 13.4724 237.095 13.9094 236.945 14.2714C236.808 14.6397 236.695 14.9144 236.595 15.0954C236.495 15.6822 236.377 16.2191 236.246 16.7185C236.127 17.2054 236.002 17.6548 235.871 18.0668C235.721 18.3165 235.484 18.6349 235.172 19.0157C234.804 20.1643 234.504 21.1132 234.273 21.8623C234.055 22.6114 233.923 23.1545 233.874 23.4853C233.705 24.5028 233.237 25.7513 232.475 27.2308C231.726 28.7165 231.289 29.8526 231.177 30.6517C231.127 31.0013 231.002 31.4507 230.802 32C230.602 32.5369 230.315 33.1611 229.953 33.8728C229.535 34.8591 229.204 35.6207 228.954 36.17C228.705 36.7069 228.536 37.0315 228.455 37.1438C228.336 37.4934 228.212 37.9179 228.081 38.4173C227.962 38.9042 227.793 39.4598 227.581 40.0903C226.614 42.6747 225.858 44.8283 225.309 46.5575C224.76 48.2742 224.416 49.5664 224.285 50.4278C224.148 51.2643 224.135 51.9135 224.235 52.3755C224.348 52.8249 224.585 53.0746 224.934 53.1246C226.482 53.3618 228.068 53.4242 229.704 53.3243C231.352 53.2245 233.081 52.9685 234.897 52.5503C235.097 52.569 235.284 52.5503 235.472 52.5003C235.671 52.4379 235.871 52.3942 236.071 52.3755C236.433 52.0758 236.708 51.7949 236.895 51.5265C237.226 51.3767 237.525 51.2206 237.794 51.0521C238.075 50.871 238.324 50.6775 238.543 50.4778Z" fill="#CCFF00"/>
<path d="M252.833 10.6469C253.894 10.4846 255.03 10.4159 256.229 10.4471C257.44 10.4846 258.776 10.6094 260.224 10.8217C260.486 10.8716 260.879 10.984 261.398 11.1463C261.928 11.2961 262.346 11.396 262.646 11.4459C263.096 11.5957 263.433 11.7206 263.67 11.8205C263.932 11.9391 264.294 12.0889 264.744 12.2699L265.842 12.1201C266.023 12.1576 266.229 12.2824 266.466 12.4947C266.716 12.6944 267.016 12.9316 267.365 13.1938C267.565 13.0939 267.852 12.9816 268.239 12.8442C268.62 12.9129 268.901 13.1064 269.088 13.4185C269.269 13.7369 269.369 14.1614 269.388 14.692C269.319 15.0915 269.251 15.4786 269.188 15.8406C269.138 16.2089 269.051 16.6084 268.938 17.0392C268.889 17.2264 268.851 17.5323 268.839 17.9631C268.82 18.3813 268.795 18.6997 268.764 18.9119C268.726 19.1991 268.645 19.3863 268.514 19.4862C268.395 19.5861 268.227 19.6236 268.015 19.5861C267.078 19.455 266.173 19.249 265.293 18.9619C264.406 18.6622 263.526 18.2814 262.646 17.8132C261.86 17.8507 261.16 17.8632 260.549 17.8632C260.062 17.8132 259.706 17.8257 259.475 17.8882C259.256 17.9568 259.138 18.0629 259.125 18.2128C259.188 18.4 259.288 18.606 259.425 18.837C259.556 19.0555 259.731 19.2615 259.949 19.4613C260.112 19.6111 260.274 19.9107 260.424 20.3602C260.586 20.8096 260.748 21.3839 260.898 22.0831C260.948 22.3702 260.973 22.6449 260.973 22.9071C260.986 23.1568 260.979 23.4003 260.948 23.6312C260.861 24.1306 260.711 24.7674 260.499 25.5289C260.28 26.278 260.074 26.896 259.874 27.3767C259.506 28.2944 259.213 29.0622 259 29.6739C258.782 30.2732 258.613 30.7352 258.501 31.0473C258.401 31.297 258.308 31.5904 258.226 31.9212C258.158 32.2583 258.083 32.6391 258.002 33.0699C257.914 33.4569 257.739 33.9126 257.477 34.4432C257.228 34.9613 256.965 35.5606 256.703 36.241C256.653 36.5594 256.553 36.9277 256.404 37.3397C256.266 37.7392 256.11 38.2012 255.929 38.713C255.811 39.0127 255.636 39.3623 255.405 39.7618C255.168 40.1488 254.943 40.5858 254.731 41.0852C254.712 41.4535 254.687 41.8343 254.656 42.2338C254.456 42.9205 254.256 43.6259 254.056 44.3562C253.757 45.3738 253.445 46.4163 253.133 47.4775C252.814 48.5449 252.521 49.5687 252.259 50.5488C252.071 50.8172 251.872 51.1356 251.659 51.4976C251.622 51.6662 251.609 51.9346 251.609 52.2967C251.622 52.6463 251.616 52.9396 251.584 53.1706C251.534 53.439 251.416 53.8198 251.235 54.3192C251.066 54.8186 250.966 55.1932 250.935 55.4429C250.867 55.9298 250.742 56.6602 250.561 57.6402C250.392 58.6016 250.267 59.3382 250.186 59.8376C250.267 60.2683 250.317 60.6741 250.336 61.0611C250.217 61.392 250.092 61.6604 249.961 61.8601C249.843 62.0599 249.699 62.216 249.537 62.3346C249.069 62.5343 248.644 62.6904 248.263 62.809C247.976 63.0088 247.739 63.1648 247.539 63.2834C247.352 63.4145 247.196 63.4707 247.065 63.4582C246.528 63.3708 246.166 63.2397 245.966 63.0587C245.779 62.8714 245.704 62.6654 245.741 62.4344C245.904 61.6167 246.116 60.8364 246.366 60.0873C246.316 59.9999 246.272 59.8501 246.241 59.6378C246.222 59.4193 246.166 59.1634 246.066 58.8638C246.247 56.9536 246.391 54.9685 246.491 52.9209C246.771 51.4914 247.021 50.0369 247.24 48.5512C247.34 47.852 247.496 46.9968 247.714 45.9793C247.945 44.9493 248.245 43.7507 248.613 42.3836C249.013 41.054 249.318 39.8804 249.537 38.8629C249.749 37.8329 249.918 36.9776 250.036 36.291C250.067 36.0101 250.142 35.6542 250.261 35.2173C250.392 34.7678 250.548 34.2185 250.735 33.5693C250.885 33.0199 251.023 32.533 251.16 32.096C251.31 31.6466 251.416 31.2346 251.485 30.8475C251.516 30.6665 251.534 30.4605 251.534 30.2233C251.547 29.9923 251.559 29.7926 251.559 29.624C251.909 29.0622 252.165 28.594 252.334 28.2257C252.515 27.8636 252.621 27.6139 252.658 27.4766C252.571 27.1645 252.496 26.8399 252.433 26.5028C252.646 26.1532 252.908 25.5477 253.207 24.68C253.52 23.8185 253.888 22.6761 254.306 21.2591C254.337 20.9782 254.387 20.6286 254.456 20.2104C254.518 19.7984 254.612 19.2865 254.731 18.6872L254.606 18.013C254.518 17.9506 254.356 17.8569 254.106 17.7383C253.857 17.626 253.52 17.5136 253.108 17.4137L252.608 17.6634C252.271 17.7009 251.934 17.7258 251.584 17.7383C251.235 17.7571 250.867 17.7883 250.486 17.8382C247.839 18.1878 245.217 18.5062 242.62 18.7871C242.42 18.7559 242.271 18.656 242.171 18.4874C242.071 18.3251 242.033 18.1004 242.071 17.8132C242.083 17.6634 242.183 17.4137 242.371 17.0641C242.552 16.7021 242.826 16.2526 243.195 15.7158C243.376 14.8543 243.544 14.1427 243.694 13.5933C243.844 13.044 244 12.632 244.168 12.3448C244.449 11.8454 244.818 11.4397 245.267 11.1213C245.716 10.8092 246.228 10.5969 246.815 10.4971C248.014 10.3348 249.112 10.2598 250.111 10.2723C251.122 10.2911 252.034 10.4159 252.833 10.6469Z" fill="#CCFF00"/>
<path d="M266.804 48.231C266.885 47.7191 266.885 46.8951 266.804 45.759C266.716 44.6104 266.716 43.7552 266.804 43.1871C266.853 42.875 266.953 42.3818 267.103 41.7139C267.265 41.0522 267.378 40.559 267.428 40.2406C267.559 39.3417 267.709 37.9684 267.877 36.1206C268.058 34.2728 268.214 32.8995 268.352 32.0006C268.583 30.4712 268.957 28.5235 269.475 26.1576C270.006 23.7792 270.661 20.9826 271.448 17.7677C271.798 16.6191 272.203 15.7701 272.671 15.2208C273.133 14.659 273.695 14.4155 274.344 14.4967C274.557 14.5341 274.75 14.7152 274.919 15.046C275.081 15.3831 275.231 15.8638 275.368 16.4943C275.868 17.1123 276.367 17.6928 276.866 18.2422C277.247 18.6916 277.503 19.2285 277.64 19.8402C277.79 20.4395 277.797 21.1324 277.665 21.9127C277.566 22.6493 277.266 23.6481 276.767 24.9091C276.267 26.1576 275.974 27.1065 275.893 27.7557C275.693 29.0541 275.474 30.1278 275.243 30.9768C275.025 31.8258 274.8 32.475 274.569 32.9245L273.995 34.0481C273.957 34.7847 273.926 35.6212 273.895 36.5701C273.608 37.9559 273.346 39.3917 273.096 40.8899C272.859 42.4068 272.746 43.9736 272.746 45.5842C272.759 47.201 272.859 48.8428 273.046 50.5033C273.327 52.7506 273.801 54.4922 274.469 55.722C275.131 56.9393 275.999 57.6322 277.066 57.7945C277.597 57.8631 278.115 57.807 278.614 57.6197C279.114 57.4387 279.613 57.0891 280.113 56.571C280.512 56.2089 280.887 55.8156 281.236 55.3974C281.598 54.9666 281.96 54.5484 282.31 54.1489C282.709 53.7993 283.134 53.3623 283.583 52.8255C284.045 52.2761 284.557 51.6207 285.106 50.8528C285.756 49.4545 286.442 48.0437 287.179 46.608C287.909 45.1784 288.652 43.7364 289.401 42.2882C289.601 41.8387 289.851 41.2394 290.15 40.4903C290.45 39.7412 290.781 38.8798 291.149 37.8935C291.798 36.7324 292.51 35.0906 293.297 32.9744C294.077 30.8644 294.995 28.2925 296.043 25.2587C296.293 24.7968 296.618 24.2037 297.017 23.4858C297.417 22.7742 297.872 21.9315 298.39 20.9639C298.54 20.6143 298.802 20.0774 299.19 19.3408C299.589 18.5917 300.113 17.6616 300.763 16.5442C301.075 15.9824 301.512 15.5891 302.061 15.3706C302.61 15.1396 303.266 15.0835 304.034 15.1958C304.496 15.2645 304.789 15.6141 304.908 16.2446C305.039 16.8813 305.014 17.8052 304.833 19.0162C304.483 21.3634 303.759 24.1788 302.66 27.4561C301.574 30.7396 300.095 34.4476 298.216 38.5926C298.116 38.9921 297.929 39.4853 297.666 40.0658C297.417 40.6339 297.117 41.2831 296.767 42.0135C296.68 42.4817 296.555 43.0123 296.393 43.6116C296.224 44.1984 296 44.8538 295.719 45.5842C295.119 46.9326 294.57 48.3746 294.071 49.904C293.571 51.4209 293.122 53.019 292.722 54.6982C292.685 54.9479 292.585 55.31 292.423 55.7719C292.254 56.2401 292.061 56.8207 291.848 57.5198C291.599 58.169 291.405 58.7621 291.274 59.2927C291.137 59.8295 291.037 60.3289 290.974 60.7909C290.956 61.4713 290.924 62.1018 290.875 62.6886C291.137 63.0881 291.336 63.4127 291.474 63.6624C291.605 63.9246 291.661 64.1368 291.649 64.2867C291.411 64.6862 291.087 65.1107 290.675 65.5601C290.257 66.0221 289.707 66.509 289.027 67.0084C288.34 67.6076 287.691 68.0321 287.079 68.2818C286.461 68.5315 285.918 68.6127 285.456 68.5315C285.019 68.4629 284.632 68.1195 284.282 67.5078C283.945 66.9085 283.821 66.3654 283.908 65.8847L283.933 65.6101C284.064 65.3728 284.189 65.0982 284.307 64.786C284.32 64.6487 284.314 64.5114 284.282 64.3616C284.245 64.2242 284.22 64.0432 284.208 63.8122C284.27 63.7123 284.37 63.5438 284.507 63.3128C284.638 63.0756 284.782 62.8134 284.932 62.5138C284.894 62.3952 284.857 62.2391 284.807 62.0394C284.769 61.8521 284.719 61.6398 284.657 61.3901C284.719 61.2591 284.788 61.0905 284.857 60.8907C284.938 60.6785 285.063 60.4163 285.231 60.1167C285.244 59.9169 285.256 59.6672 285.256 59.3676C285.306 59.1866 285.381 58.9369 285.481 58.6185C285.581 58.3064 285.693 57.9068 285.831 57.4199C286.012 57.0391 286.155 56.7083 286.255 56.4211C286.355 56.1402 286.411 55.9342 286.43 55.7969C286.461 55.5971 286.455 55.4223 286.405 55.2725C286.367 55.1227 286.305 55.0228 286.205 54.9729C286.055 54.9916 285.831 55.1414 285.531 55.4223C285.244 55.7095 284.894 56.109 284.482 56.6209C283.983 57.2077 283.558 57.6884 283.209 58.0691C282.872 58.4562 282.647 58.7059 282.535 58.8182L282.31 59.3176C281.511 60.1167 280.799 60.7784 280.187 61.2903C279.588 61.8021 279.139 62.1705 278.839 62.3889C278.29 62.7198 277.665 63.0132 276.966 63.2629C276.28 63.5126 275.456 63.6936 274.494 63.8122C274.026 63.8247 273.577 63.8871 273.146 63.987C272.228 63.8497 271.429 63.6 270.749 63.2379C270.081 62.8883 269.6 62.4638 269.301 61.9645C268.052 60.0043 267.216 57.8881 266.804 55.6221C266.404 53.3436 266.404 50.8778 266.804 48.231Z" fill="#CCFF00"/>
<path d="M312.936 51.7527C312.868 52.2209 313.117 52.9263 313.685 53.8751C314.266 54.8115 315.171 55.9664 316.407 57.346C317.169 58.2636 317.987 59.1563 318.854 60.0177C319.716 60.8854 320.583 61.7594 321.451 62.6396C321.813 63.0391 322.281 63.5635 322.849 64.2127C323.43 64.8619 324.104 65.6297 324.872 66.5099C325.471 67.1092 326.077 67.696 326.695 68.2828C327.307 68.8821 327.981 69.4876 328.717 70.1056C329.179 70.605 329.716 71.1418 330.315 71.7286C330.915 72.3279 331.595 72.9584 332.363 73.6263C332.812 74.0071 333.112 74.6064 333.262 75.4242C333.412 76.2357 333.424 77.2595 333.312 78.4955L332.812 79.3944L332.413 79.5442C332.163 79.5067 331.851 79.3507 331.489 79.0698C331.121 78.8013 330.653 78.4206 330.091 77.9212C329.972 77.8338 329.454 77.4842 328.543 76.8724C327.625 76.2544 326.295 75.3805 324.547 74.2506C323.58 73.6638 322.706 73.0333 321.926 72.3529C321.158 71.6662 320.465 70.9608 319.853 70.2304C319.466 69.7935 318.985 69.3128 318.405 68.7822C317.837 68.2453 317.138 67.6585 316.307 67.0093C315.508 66.3476 314.809 65.7296 314.21 65.1615C313.611 64.5997 313.136 64.1315 312.787 63.7632C311.638 62.4835 310.689 61.5034 309.94 60.8168C309.191 60.1176 308.648 59.7431 308.317 59.6931C308.017 60.0302 307.83 60.3673 307.768 60.7169C307.281 61.8156 306.75 63.2264 306.17 64.9368C305.583 66.6348 304.921 68.6199 304.172 70.9046C304.103 71.3041 303.978 71.5913 303.797 71.7786C303.61 71.9596 303.379 72.0283 303.098 71.9783C302.149 71.8285 301.456 71.4914 301.026 70.9795C300.607 70.4614 300.464 69.7185 300.601 68.7572C300.801 67.5212 301.076 66.2352 301.425 64.8869C301.787 63.526 302.274 62.1152 302.873 60.667C303.104 60.0177 303.285 59.4372 303.423 58.9191C303.554 58.4072 303.654 57.9328 303.722 57.4958C303.903 56.3472 303.56 55.2984 302.699 54.3496C301.85 53.3882 301.45 52.739 301.5 52.4019C301.581 51.8401 301.731 51.3719 301.95 51.0036C302.181 50.6228 302.48 50.3419 302.849 50.1546C303.71 49.7738 304.528 49.3931 305.296 49.006C305.495 48.9249 305.645 48.775 305.745 48.5566C305.845 48.3443 305.92 48.0259 305.97 47.6077C306.02 47.358 306.057 47.0958 306.095 46.8087C306.145 46.5278 306.182 46.2593 306.219 46.0096C306.619 43.831 307.018 41.565 307.418 39.2178C307.43 39.068 307.468 38.8121 307.518 38.4438C307.58 38.063 307.63 37.5823 307.668 36.9955C307.68 36.5336 307.73 36.1153 307.818 35.747C307.899 35.3849 307.967 35.0416 308.017 34.7232C307.93 34.2114 307.855 33.7681 307.793 33.3998C307.743 33.0378 307.743 32.6882 307.793 32.3511C307.824 32.0515 307.917 31.602 308.067 31.0027C308.217 30.391 308.317 29.929 308.367 29.6294C308.417 29.2985 308.448 28.8241 308.467 28.2061C308.498 27.5756 308.542 27.0949 308.592 26.7578C308.723 25.8777 309.054 25.0724 309.59 24.3358C310.121 23.5867 310.87 22.8813 311.838 22.2133C312.718 21.664 313.611 21.2769 314.509 21.0397C315.408 20.79 316.307 20.7339 317.206 20.8649C317.618 20.9336 318.23 21.0585 319.029 21.2395C319.841 21.4268 320.49 21.5579 320.977 21.639C321.276 21.6765 322.1 22.0635 323.449 22.8126C324.011 22.9624 324.504 23.1122 324.922 23.2621C325.353 23.4119 325.702 23.5617 325.971 23.7115C326.532 24.0798 326.976 24.3732 327.294 24.5855C327.625 24.8039 327.868 24.935 328.018 24.985C328.38 25.1847 328.717 25.3595 329.017 25.5093C329.317 25.6592 329.548 25.8215 329.716 25.9838C330.016 26.1835 330.353 26.4207 330.74 26.6829C331.139 26.9326 331.601 27.226 332.138 27.5569C332.937 28.1249 333.686 28.7679 334.386 29.4796C335.085 30.1787 335.709 30.9216 336.258 31.7019C336.939 32.7007 337.407 33.662 337.657 34.5734C337.906 35.4723 337.969 36.3463 337.856 37.1953C337.819 37.4325 337.744 37.7696 337.632 38.219C337.513 38.6685 337.382 39.1804 337.232 39.7422C337.045 40.4289 336.558 41.1343 335.759 41.8646C334.972 42.5825 333.886 43.3316 332.488 44.1119C331.271 44.8111 330.128 45.3854 329.067 45.8348C328.018 46.2718 327.076 46.5527 326.245 46.6838C325.896 46.8524 325.621 47.0084 325.421 47.1582C325.134 47.3767 324.56 47.6514 323.698 47.9823C322.849 48.3006 321.701 48.6939 320.253 49.1558C317.618 49.9736 315.758 50.498 314.659 50.7289C313.573 50.9662 312.999 51.3032 312.936 51.7527ZM311.738 33.4498C312.268 33.1501 312.768 32.8755 313.236 32.6258C313.698 32.3636 314.26 32.2699 314.909 32.3511C315.221 32.401 315.539 32.7881 315.858 33.4997C316.189 34.1989 316.332 34.717 316.282 35.0478C316.264 35.2164 316.145 35.5972 315.933 36.1965C315.714 36.7833 315.383 37.5885 314.934 38.6185C314.035 40.9033 313.498 42.3391 313.336 42.9383C313.186 43.5251 312.893 44.4303 312.462 45.6601C312.293 45.9784 312.119 46.3842 311.938 46.8836C311.9 47.1208 311.919 47.2831 311.988 47.383C312.05 47.4829 312.169 47.5515 312.337 47.5827C317.581 45.8723 320.302 44.9734 320.502 44.886C320.683 44.8548 320.889 44.8111 321.126 44.7611C321.357 44.7112 321.588 44.655 321.826 44.5863L322.475 43.9871C324.023 43.2879 325.646 42.5513 327.344 41.7647C328.374 41.153 329.173 40.5287 329.741 39.892C330.322 39.2428 330.671 38.5686 330.79 37.8694C330.921 36.9705 330.528 35.9967 329.616 34.948C328.699 33.8992 327.25 32.8193 325.271 31.7019C323.574 30.7031 322.007 29.929 320.577 29.3797C319.16 28.8303 317.843 28.4683 316.632 28.281C315.046 28.05 313.817 28.1499 312.936 28.5806C312.05 28.9989 311.538 29.748 311.388 30.8279C311.251 31.6644 311.213 32.3136 311.263 32.7756C311.326 33.225 311.488 33.4498 311.738 33.4498Z" fill="#CCFF00"/>
<path d="M364.329 69.339L365.228 72.9597C364.91 73.1594 364.535 73.3654 364.105 73.5839C363.686 73.7962 363.206 74.0334 362.656 74.2831C362.088 74.383 361.42 74.5328 360.659 74.7325C359.891 74.9448 359.017 75.1882 358.037 75.4567C357.25 75.8062 356.62 76.0559 356.139 76.2058C355.652 76.3556 355.321 76.4118 355.14 76.3806C354.822 76.3306 354.217 76.3806 353.318 76.5304C352.431 76.6802 351.27 76.9174 349.822 77.2545C349.035 77.4043 348.205 77.5541 347.325 77.704C346.457 77.8663 345.564 77.9911 344.653 78.0785L342.456 77.2795L340.982 77.654C340.496 77.5854 340.021 77.5104 339.559 77.4293C339.091 77.3419 338.635 77.2545 338.186 77.1546C337.468 77.0173 336.944 76.8363 336.613 76.6053C336.276 76.3868 336.138 76.1184 336.188 75.8062L336.663 74.4579L336.438 74.1333C335.62 73.9959 335.09 73.8087 334.84 73.559C334.59 73.3093 334.528 72.7724 334.665 71.9609C334.715 71.5801 334.821 70.9746 334.99 70.1381C335.152 69.2891 335.37 68.1842 335.639 66.8171C335.651 66.686 335.77 66.4363 335.988 66.068C336.219 65.7059 336.344 65.4313 336.363 65.244C336.294 64.9818 336.251 64.782 336.238 64.6447C336.219 64.5136 336.219 64.3825 336.238 64.2452C336.45 63.2838 336.738 62.1165 337.087 60.7494C337.449 59.3698 337.899 57.7405 338.436 55.8553C338.916 54.7441 339.359 53.4832 339.759 52.0848C339.89 50.9862 340.015 49.8812 340.133 48.7638C341.663 44.8061 343.211 40.8421 344.778 36.8782C345.028 36.1665 345.402 35.5048 345.902 34.9056C346.401 34.3063 346.981 33.732 347.649 33.1826C347.912 33.0515 348.099 32.9454 348.199 32.858C348.349 32.6458 348.536 32.3961 348.773 32.1089C349.023 31.828 349.31 31.4847 349.647 31.0852C349.809 31.004 350.078 30.8979 350.446 30.7605C350.808 30.6107 351.283 30.411 351.869 30.1613C352.15 29.999 352.475 29.8054 352.843 29.587C353.224 29.356 353.642 29.0813 354.092 28.763C355.122 28.3634 356.089 27.914 356.988 27.4146C357.887 26.9027 358.936 26.653 360.134 26.6655C360.715 26.7342 361.289 26.7903 361.857 26.8403C362.419 26.8902 362.956 26.9339 363.455 26.9651C363.967 26.9152 364.417 26.9089 364.804 26.9402C365.053 26.9589 365.266 26.9526 365.453 26.9152C365.653 26.884 365.828 26.8777 365.977 26.8902C366.127 26.9277 366.327 26.9839 366.577 27.065C366.826 27.1337 367.176 27.2336 367.625 27.3646C367.925 27.4333 368.2 27.4895 368.449 27.5394C368.699 27.5769 368.949 27.6019 369.198 27.6143C370.11 28.0825 370.772 28.6319 371.171 29.2624C371.571 29.8804 371.708 30.5733 371.596 31.3349C371.327 33.0328 370.959 34.2751 370.497 35.0554C370.047 35.8232 369.473 36.154 368.774 36.0542C368.225 35.973 367.65 35.6047 367.051 34.9555C366.452 34.3063 364.635 33.7507 361.608 33.2825C360.309 33.3512 359.023 33.4198 357.762 33.4823C357.612 33.6508 357.45 33.7757 357.288 33.8568C357.119 33.9255 356.969 33.9754 356.838 34.0066L355.64 33.3324C355.203 33.4323 354.691 33.7757 354.092 34.3562C353.492 34.943 352.843 35.7733 352.144 36.8532C351.994 37.0904 351.851 37.3901 351.72 37.7521C351.601 38.1017 351.507 38.5262 351.445 39.0256C350.727 40.7235 350.034 42.3591 349.372 43.9197C348.673 45.6176 348.124 46.9098 347.724 47.79C347.337 48.6577 347.106 49.1821 347.025 49.3631C346.907 49.6003 346.807 49.8251 346.726 50.0373C346.638 50.2371 346.582 50.4556 346.551 50.6865C346.501 50.9862 346.526 51.2359 346.626 51.4356C346.726 51.6354 346.9 51.754 347.15 51.7852C347.362 51.8227 347.955 51.498 348.923 50.8114C349.903 50.1309 350.602 49.7751 351.02 49.7377C351.582 49.6752 352.132 49.5879 352.668 49.488C353.218 49.3881 353.798 49.2632 354.416 49.1134C354.647 49.1009 355.247 49.1009 356.214 49.1134C357.175 49.1322 358.518 49.1634 360.234 49.2133L361.208 49.6877L363.206 49.6128L364.179 50.2371C364.379 50.5242 364.554 50.8551 364.704 51.2359C364.866 51.6229 365.004 52.0474 365.103 52.5093C364.866 53.995 364.542 55.0812 364.13 55.7804C363.711 56.4795 363.181 56.7792 362.531 56.6793L360.634 55.5806C358.917 55.4995 357.238 55.4246 355.59 55.3559C353.942 55.2747 352.256 55.1811 350.546 55.0812C348.411 55.1686 346.726 55.5931 345.477 56.3547C344.229 57.1225 343.436 58.2649 343.105 59.7756C343.018 60.0752 342.855 60.5496 342.606 61.1989C342.368 61.8356 342.087 62.6221 341.757 63.571L341.806 64.7196C341.457 65.7559 341.145 66.7297 340.883 67.6411C340.614 68.5587 340.421 69.3827 340.308 70.1131C340.271 70.3628 340.283 70.5501 340.333 70.6624C340.396 70.7811 340.489 70.8247 340.608 70.7873C341.769 70.8747 342.712 70.9371 343.43 70.9871C344.16 71.037 344.666 71.1057 344.953 71.1868C345.583 71.3241 346.232 71.474 346.9 71.6363L349.223 71.7861C349.485 71.7736 350.053 71.6612 350.92 71.4615C351.801 71.2492 352.568 71.1868 353.218 71.2867C353.948 71.3866 354.691 71.4115 355.44 71.3616C356.189 71.3117 356.901 71.2118 357.587 71.062C358.299 70.9121 358.998 70.7623 359.685 70.6125C360.365 70.4627 361.058 70.3129 361.757 70.163C362.02 70.1506 362.363 70.0632 362.781 69.9133C363.212 69.7635 363.73 69.5763 364.329 69.339Z" fill="#CCFF00"/>
</svg>
