<svg width="397" height="93" viewBox="0 0 397 93" fill="none" xmlns="http://www.w3.org/2000/svg">
<path d="M17.9888 92.3162C29.1418 92.3162 35.9709 85.707 35.9709 75.3068V50.6089H27.6294V75.0936C27.6294 81.2698 24.1583 84.9541 17.9888 84.9541C11.9192 84.9541 8.34146 81.2698 8.34146 75.0936V50.6089H0V75.3068C0 85.707 6.93567 92.3162 17.9888 92.3162Z" fill="white"/>
<path d="M74.5376 50.6089V78.3449L55.0365 50.6089H47.0215V91.7765H55.0365V63.9339L74.7508 91.7765H82.5526V50.6089H74.5376Z" fill="white"/>
<path d="M94.0352 91.7765H102.377V50.6089H94.0352V91.7765Z" fill="white"/>
<path d="M141.157 50.6089L129.678 83.7615L118.192 50.6089H109.311L124.368 91.7765H134.875L149.932 50.6089H141.157Z" fill="white"/>
<path d="M164.995 84.4078V74.2275H181.131V67.0786H164.995V57.9776H186.008V50.6089H156.76V91.7765H186.548V84.4078H164.995Z" fill="white"/>
<path d="M228.036 84.1946C226.85 84.1946 226.091 83.4351 226.091 82.2425V72.4952H219.588C224.139 70.9762 227.603 67.4051 227.603 62.2017C227.603 55.0528 222.08 50.6089 212.872 50.6089H194.457V91.7765H202.798V76.2862H217.749V84.3012C217.749 89.1781 220.561 91.7765 225.224 91.7765H229.449V84.1946H228.036ZM211.68 57.5446C216.77 57.5446 219.375 59.4967 219.375 63.6074C219.375 67.8381 216.77 69.677 211.68 69.677H202.798V57.5446H211.68Z" fill="white"/>
<path d="M250.357 92.3163C260.87 92.3163 267.153 87.6592 267.153 79.7508C267.153 71.949 259.784 69.3506 251.982 67.2919C245.919 65.6663 242.888 64.3671 242.888 61.6621C242.888 59.0571 245.813 57.3248 250.357 57.3248C254.587 57.3248 258.591 58.7373 261.629 61.229L266.173 54.9463C261.629 51.695 256.646 50.0693 250.796 50.0693C240.936 50.0693 234.653 54.6198 234.653 62.0952C234.653 70.5432 242.888 73.035 250.143 75.0937C255.886 76.7194 258.705 77.5855 258.705 80.4037C258.705 83.4352 255.667 85.1674 250.683 85.1674C245.813 85.1674 241.149 83.4352 237.684 80.0773L233.027 86.36C237.358 90.2576 243.534 92.3163 250.357 92.3163Z" fill="white"/>
<path d="M274.842 91.7765H283.183V50.6089H274.842V91.7765Z" fill="white"/>
<path d="M326.732 50.6089H290.008V58.1908H304.199V91.7765H312.54V58.1908H326.732V50.6089Z" fill="white"/>
<path d="M359.016 50.6089L351.541 73.1415H348.829L337.563 50.6089H328.355L340.381 73.1415H336.157C333.772 75.3068 332.366 78.3449 332.366 81.8094C332.366 88.0922 336.81 92.3162 343.306 92.3162C349.482 92.3162 353.813 88.7451 356.525 81.2698L367.791 50.6089H359.016ZM343.526 85.707C341.141 85.707 339.735 84.1946 339.735 81.7028C339.735 80.7234 340.055 79.8573 340.601 79.1044H349.589L348.723 81.3764C347.643 84.1946 346.018 85.707 343.526 85.707Z" fill="white"/>
<path d="M191.005 48.0291C190.112 48.5221 189.02 49.0751 187.727 49.6814C186.448 50.281 184.956 50.9406 183.25 51.6535C181.738 52.2398 180.385 52.7461 179.199 53.1725C178.027 53.5989 177.047 53.8988 176.268 54.0786C175.108 54.4118 173.909 54.5983 172.67 54.6383C171.444 54.6916 170.198 54.6183 168.939 54.4251C168.546 54.3718 168.113 54.2452 167.633 54.052C167.167 53.8521 166.687 53.6389 166.194 53.4124C165.501 53.1259 164.928 52.8794 164.488 52.6662C164.042 52.4663 163.669 52.3464 163.369 52.2931L162.943 51.7334L161.877 51.4136C161.357 51.2871 160.791 50.9406 160.171 50.3743C159.545 49.8013 158.892 49.0485 158.199 48.109C157.539 47.1829 157.026 46.3368 156.653 45.5506C156.28 44.7711 156.027 44.0782 155.907 43.4719L155.347 39.9541C155.148 38.7482 155.008 37.7821 154.921 37.0493C154.848 36.3231 154.841 35.8434 154.894 35.6102L155.561 33.9046C155.454 33.3049 155.374 32.7986 155.321 32.3855C155.281 31.9591 155.281 31.6327 155.321 31.3995C155.334 31.2262 155.487 30.6 155.774 29.534C156.054 28.468 156.467 27.0022 157 25.1367C157.226 24.8036 157.486 24.3838 157.773 23.8842C158.072 23.3911 158.366 22.8315 158.652 22.2052V21.3258C158.685 21.1126 158.765 20.886 158.892 20.6329C159.032 20.3664 159.212 20.0665 159.425 19.7268C160.184 18.5408 160.977 17.3416 161.797 16.129C162.61 14.9031 163.402 13.7305 164.169 12.6112C164.841 11.7451 165.668 10.8723 166.647 9.99949C167.62 9.13336 168.726 8.23392 169.952 7.30784C170.231 7.08131 170.578 6.78816 170.991 6.42838C171.397 6.07527 171.87 5.67552 172.403 5.22913C172.883 5.01593 173.476 4.69613 174.189 4.26973C174.915 3.84333 175.795 3.27702 176.827 2.56413C177.094 2.51083 177.42 2.42422 177.813 2.29763C178.2 2.15772 178.693 1.99115 179.279 1.79128C179.399 1.72465 179.572 1.61805 179.785 1.47148C180.012 1.31158 180.272 1.15168 180.558 0.991777C180.891 0.778577 182.004 0.552053 183.89 0.298877C185.788 0.0323762 187.008 -0.054236 187.541 0.0323762C188.747 0.212264 189.753 0.452115 190.552 0.751927C191.365 1.03842 191.998 1.40485 192.444 1.84458L193.697 2.27098C194.69 2.66407 195.329 3.57683 195.616 5.01593C195.915 6.45503 195.869 8.45379 195.482 11.0122C195.302 12.2248 195.149 13.1908 195.029 13.917C194.903 14.6499 194.776 15.1363 194.656 15.3828C194.403 16.129 194.097 17.0884 193.723 18.261C193.35 19.4203 192.897 20.7528 192.364 22.2585C192.238 22.6849 191.938 23.3645 191.458 24.2839C190.992 25.19 190.399 26.3093 189.673 27.6418C188.886 29.0809 188.24 30.1869 187.727 30.9464C187.208 31.6926 186.821 32.079 186.555 32.0924C185.469 32.199 184.303 32.3322 183.063 32.4921C182.49 32.4055 182.091 32.2989 181.864 32.1723C181.631 32.0324 181.531 31.8525 181.571 31.6393C181.604 31.4461 181.691 31.1596 181.838 30.7865C181.977 30.4134 182.064 30.1469 182.104 29.987C182.171 28.9743 182.244 27.9616 182.317 26.9489C182.371 26.5758 182.584 25.8696 182.957 24.8169C183.33 23.7709 183.85 22.4451 184.529 20.8461C185.235 19.0871 185.842 17.7013 186.341 16.6886C186.854 15.6626 187.227 15.023 187.461 14.7698C188.347 14.2035 189.013 13.6239 189.459 13.0376C189.899 12.438 190.159 11.8783 190.232 11.3586C190.339 10.6324 190.259 9.96618 189.992 9.35989C189.726 8.76026 189.253 8.26057 188.58 7.86749C187.92 7.60099 187.254 7.34781 186.581 7.09464C185.922 6.84812 185.255 6.58162 184.582 6.29513C184.01 6.40173 183.503 6.47502 183.063 6.50833C182.617 6.54831 182.224 6.58162 181.891 6.61493C180.112 6.63492 178.306 7.19457 176.481 8.29389C174.669 9.37988 172.856 10.9989 171.044 13.1442C169.532 15.0097 168.253 16.9152 167.207 18.8473C166.154 20.7861 165.348 22.7782 164.782 24.8169C164.602 25.4232 164.355 26.1761 164.035 27.0822C163.729 27.9883 163.349 29.0543 162.889 30.2802C163.009 31.1196 163.109 31.8658 163.183 32.5188L162.25 36.0366C162.23 36.1831 162.31 36.4763 162.49 36.916C162.663 37.3424 162.949 37.982 163.342 38.8348C163.556 39.3678 163.722 39.9541 163.849 40.5937C163.989 41.22 164.075 41.9129 164.115 42.6724C164.149 42.8523 164.222 43.0655 164.328 43.312C164.435 43.5452 164.568 43.7318 164.728 43.8717C165.081 44.2981 165.421 44.6645 165.741 44.9643C166.7 46.3368 167.766 47.4161 168.939 48.2156C170.112 49.0285 171.417 49.5481 172.856 49.7613C172.976 49.7747 173.476 49.7747 174.349 49.7613C175.215 49.7613 176.434 49.7347 178 49.6814C178.28 49.5348 178.646 49.4016 179.093 49.2816C179.532 49.175 180.085 49.0551 180.745 48.9352C181.364 48.4888 181.944 48.1956 182.477 48.0557C183.023 47.9092 183.523 47.8758 183.97 47.9491C184.129 47.7892 184.323 47.5894 184.556 47.3628C184.782 47.1296 185.089 46.8698 185.462 46.59C186.315 46.3968 187.101 46.097 187.834 45.6839C188.56 45.2775 189.273 44.7711 189.966 44.1648C190.672 46.5966 191.018 47.8825 191.005 48.0291Z" fill="#CCFF00"/>
<path d="M196.802 38.2827C196.889 37.7363 196.889 36.8569 196.802 35.6443C196.709 34.4184 196.709 33.5056 196.802 32.8993C196.856 32.5662 196.962 32.0399 197.122 31.327C197.295 30.6208 197.415 30.0944 197.468 29.7546C197.608 28.7952 197.768 27.3295 197.948 25.3574C198.141 23.3853 198.308 21.9195 198.455 20.9601C198.701 19.3278 199.101 17.2491 199.654 14.724C200.22 12.1856 200.92 9.20081 201.759 5.76961C202.132 4.54371 202.565 3.63761 203.065 3.05131C203.558 2.45168 204.158 2.19185 204.851 2.27846C205.077 2.31844 205.284 2.51165 205.463 2.86476C205.637 3.22454 205.797 3.73755 205.943 4.41046C206.476 5.07005 207.009 5.68966 207.542 6.27596C207.949 6.75567 208.222 7.32864 208.368 7.98157C208.528 8.62117 208.535 9.36071 208.395 10.1935C208.288 10.9797 207.969 12.0457 207.436 13.3915C206.903 14.724 206.589 15.7367 206.503 16.4296C206.29 17.8154 206.056 18.9614 205.81 19.8675C205.577 20.7736 205.337 21.4665 205.09 21.9462L204.477 23.1454C204.437 23.9316 204.404 24.8244 204.371 25.8371C204.064 27.3162 203.785 28.8485 203.518 30.4475C203.265 32.0665 203.145 33.7388 203.145 35.4578C203.158 37.1833 203.265 38.9356 203.465 40.7078C203.765 43.1063 204.271 44.9652 204.984 46.2777C205.69 47.5769 206.616 48.3164 207.755 48.4896C208.322 48.5629 208.875 48.5029 209.408 48.3031C209.941 48.1099 210.474 47.7368 211.007 47.1838C211.433 46.7973 211.833 46.3776 212.206 45.9312C212.592 45.4715 212.979 45.0251 213.352 44.5987C213.778 44.2256 214.231 43.7592 214.711 43.1863C215.204 42.6 215.75 41.9004 216.337 41.0809C217.03 39.5885 217.762 38.0828 218.549 36.5504C219.328 35.0247 220.121 33.4856 220.921 31.9399C221.134 31.4602 221.4 30.8206 221.72 30.0211C222.04 29.2216 222.393 28.3022 222.786 27.2495C223.479 26.0103 224.238 24.2581 225.078 21.9995C225.911 19.7476 226.89 17.0026 228.009 13.7646C228.276 13.2716 228.622 12.6387 229.049 11.8725C229.475 11.1129 229.962 10.2135 230.515 9.18082C230.674 8.80772 230.954 8.23474 231.367 7.44857C231.794 6.64907 232.353 5.65635 233.046 4.46376C233.379 3.86414 233.846 3.4444 234.432 3.21121C235.018 2.9647 235.718 2.90474 236.537 3.02466C237.03 3.09795 237.344 3.47105 237.47 4.14396C237.61 4.82354 237.583 5.80959 237.39 7.10212C237.017 9.60722 236.244 12.612 235.072 16.1098C233.912 19.6143 232.333 23.5718 230.328 27.9957C230.221 28.4221 230.021 28.9485 229.742 29.5681C229.475 30.1744 229.155 30.8673 228.782 31.6468C228.689 32.1465 228.556 32.7128 228.383 33.3524C228.203 33.9787 227.963 34.6782 227.663 35.4578C227.023 36.8969 226.437 38.4359 225.904 40.0682C225.371 41.6872 224.891 43.3928 224.465 45.185C224.425 45.4515 224.318 45.8379 224.145 46.331C223.965 46.8307 223.759 47.4503 223.532 48.1965C223.266 48.8894 223.059 49.5223 222.919 50.0886C222.773 50.6616 222.666 51.1946 222.599 51.6876C222.579 52.4138 222.546 53.0867 222.493 53.713C222.773 54.1394 222.986 54.4859 223.132 54.7524C223.272 55.0322 223.332 55.2587 223.319 55.4186C223.066 55.845 222.719 56.2981 222.28 56.7778C221.833 57.2708 221.247 57.7905 220.521 58.3235C219.788 58.9631 219.095 59.4161 218.442 59.6826C217.782 59.9491 217.203 60.0357 216.71 59.9491C216.243 59.8758 215.83 59.5094 215.457 58.8565C215.097 58.2169 214.964 57.6372 215.057 57.1242L215.084 56.8311C215.224 56.5779 215.357 56.2848 215.484 55.9516C215.497 55.8051 215.491 55.6585 215.457 55.4986C215.417 55.352 215.391 55.1588 215.377 54.9123C215.444 54.8057 215.551 54.6258 215.697 54.3793C215.837 54.1261 215.99 53.8463 216.15 53.5265C216.11 53.3999 216.07 53.2333 216.017 53.0201C215.977 52.8202 215.924 52.5937 215.857 52.3272C215.924 52.1873 215.997 52.0074 216.07 51.7942C216.157 51.5677 216.29 51.2879 216.47 50.9681C216.483 50.7549 216.497 50.4884 216.497 50.1686C216.55 49.9754 216.63 49.7089 216.736 49.3691C216.843 49.0359 216.963 48.6095 217.11 48.0899C217.303 47.6835 217.456 47.3303 217.563 47.0239C217.669 46.7241 217.729 46.5042 217.749 46.3576C217.782 46.1444 217.776 45.9579 217.722 45.798C217.683 45.6381 217.616 45.5315 217.509 45.4782C217.349 45.4982 217.11 45.6581 216.79 45.9579C216.483 46.2643 216.11 46.6907 215.67 47.2371C215.137 47.8633 214.684 48.3764 214.311 48.7828C213.952 49.1958 213.712 49.4623 213.592 49.5823L213.352 50.1153C212.499 50.9681 211.74 51.6743 211.087 52.2206C210.447 52.7669 209.967 53.16 209.648 53.3932C209.061 53.7463 208.395 54.0595 207.649 54.326C206.916 54.5925 206.036 54.7857 205.01 54.9123C204.511 54.9256 204.031 54.9922 203.571 55.0988C202.592 54.9523 201.739 54.6858 201.013 54.2993C200.3 53.9262 199.787 53.4732 199.467 52.9402C198.135 50.8481 197.242 48.5896 196.802 46.1711C196.376 43.7393 196.376 41.1076 196.802 38.2827Z" fill="#CCFF00"/>
<path d="M254.594 53.874C255.3 56.3125 255.646 57.5984 255.633 57.7383C255.22 58.1514 254.833 58.5911 254.46 59.0708C254.1 59.5638 253.701 60.0569 253.261 60.5366C252.888 60.9763 252.422 61.3227 251.875 61.5759C251.322 61.8224 250.709 62.0156 250.036 62.1622C249.037 62.3887 248.091 62.6153 247.185 62.8285C246.292 63.055 245.493 63.3082 244.786 63.5747C243.947 63.8012 243.081 63.9211 242.175 63.9211C241.282 63.9211 240.442 63.9011 239.643 63.8678C239.003 63.9344 238.404 63.9478 237.857 63.8945C237.304 63.8412 236.791 63.7745 236.312 63.7079C235.899 63.6546 235.565 63.5813 235.299 63.4947C235.046 63.4214 234.846 63.3215 234.686 63.2016C234.473 63.0217 234.26 62.8351 234.046 62.6419C233.846 62.442 233.66 62.2688 233.487 62.1089C233.074 61.7891 232.774 61.5359 232.581 61.3627C232.261 61.1295 232.088 60.5699 232.074 59.6838C232.074 58.811 232.194 57.5518 232.447 55.8994C232.607 54.7668 233.2 52.9879 234.233 50.5694C235.279 48.1376 235.865 46.512 235.992 45.6925C236.025 45.4993 236.032 45.2328 236.018 44.893C236.018 44.5399 236.032 44.2667 236.072 44.0668C236.178 43.3406 236.685 41.7083 237.591 39.1632C238.497 36.6248 239.03 34.8592 239.19 33.8599C239.256 33.3469 239.116 32.9471 238.763 32.6606C238.404 32.3808 238.257 32.0144 238.31 31.568C238.417 30.9484 238.583 30.2555 238.817 29.4893C239.043 28.7297 239.363 27.8903 239.776 26.9842C240.076 26.2579 240.376 25.5184 240.682 24.7722C240.982 24.026 241.275 23.2998 241.562 22.5869C241.881 21.7541 242.208 20.908 242.548 20.0552C242.881 19.2024 243.174 18.3629 243.427 17.5234C243.674 16.9904 244.02 16.3241 244.466 15.5246C244.926 14.7251 245.486 13.8324 246.145 12.833C246.445 12.3533 246.718 11.9002 246.972 11.4738C247.238 11.0474 247.511 10.5877 247.798 10.088C248.078 9.70161 248.444 9.38181 248.89 9.12864C249.33 8.86214 249.856 8.64228 250.463 8.46239C250.942 8.34246 251.369 8.26251 251.742 8.22254C252.128 8.18922 252.395 8.18256 252.541 8.19589C253.248 8.30249 253.727 8.61563 253.981 9.12864C254.247 9.64831 254.3 10.4212 254.14 11.4472C254.1 11.7537 254.034 12.1068 253.927 12.5132C253.821 12.9063 253.641 13.3527 253.394 13.8457C253.214 14.3787 253.048 14.8451 252.888 15.2315C252.741 15.6246 252.621 15.9177 252.515 16.1109C252.408 16.7372 252.282 17.3102 252.142 17.8432C252.015 18.3629 251.882 18.8426 251.742 19.2823C251.582 19.5488 251.329 19.8886 250.996 20.295C250.603 21.5209 250.283 22.5336 250.036 23.3331C249.803 24.1326 249.663 24.7122 249.61 25.0654C249.43 26.1513 248.93 27.4838 248.118 29.0629C247.318 30.6485 246.852 31.8611 246.732 32.7139C246.678 33.087 246.545 33.5667 246.332 34.153C246.119 34.726 245.812 35.3922 245.426 36.1518C244.979 37.2044 244.626 38.0173 244.36 38.6036C244.093 39.1766 243.913 39.523 243.827 39.6429C243.7 40.016 243.567 40.4691 243.427 41.0021C243.301 41.5218 243.121 42.1147 242.894 42.7876C241.861 45.5459 241.055 47.8445 240.469 49.69C239.883 51.5222 239.516 52.9013 239.376 53.8207C239.23 54.7135 239.216 55.4064 239.323 55.8994C239.443 56.3791 239.696 56.6456 240.069 56.6989C241.722 56.9521 243.414 57.0187 245.159 56.9121C246.918 56.8055 248.764 56.5324 250.703 56.086C250.916 56.106 251.116 56.086 251.316 56.0327C251.529 55.9661 251.742 55.9194 251.955 55.8994C252.342 55.5796 252.635 55.2798 252.835 54.9933C253.188 54.8334 253.508 54.6669 253.794 54.487C254.094 54.2938 254.36 54.0872 254.594 53.874Z" fill="#CCFF00"/>
<path d="M269.845 11.3631C270.978 11.1899 272.19 11.1166 273.47 11.1499C274.762 11.1899 276.188 11.3231 277.734 11.5496C278.013 11.6029 278.433 11.7229 278.986 11.8961C279.552 12.056 279.999 12.1626 280.319 12.2159C280.798 12.3758 281.158 12.509 281.411 12.6156C281.691 12.7422 282.077 12.9021 282.557 13.0953L283.73 12.9354C283.923 12.9754 284.143 13.1087 284.396 13.3352C284.663 13.5484 284.982 13.8016 285.355 14.0814C285.569 13.9748 285.875 13.8549 286.288 13.7083C286.695 13.7816 286.994 13.9881 287.194 14.3212C287.388 14.661 287.494 15.1141 287.514 15.6804C287.441 16.1068 287.368 16.5199 287.301 16.9063C287.248 17.2994 287.154 17.7258 287.034 18.1855C286.981 18.3854 286.941 18.7118 286.928 19.1716C286.908 19.6179 286.881 19.9577 286.848 20.1843C286.808 20.4907 286.721 20.6906 286.581 20.7972C286.455 20.9038 286.275 20.9438 286.048 20.9038C285.049 20.7639 284.083 20.544 283.143 20.2376C282.197 19.9178 281.258 19.5113 280.319 19.0117C279.479 19.0516 278.733 19.065 278.08 19.065C277.56 19.0117 277.181 19.025 276.934 19.0916C276.701 19.1649 276.574 19.2782 276.561 19.4381C276.628 19.6379 276.734 19.8578 276.881 20.1043C277.021 20.3375 277.207 20.5574 277.44 20.7706C277.614 20.9305 277.787 21.2503 277.947 21.73C278.12 22.2097 278.293 22.8226 278.453 23.5688C278.506 23.8753 278.533 24.1684 278.533 24.4483C278.546 24.7148 278.54 24.9746 278.506 25.2211C278.413 25.7541 278.253 26.4337 278.027 27.2465C277.793 28.046 277.574 28.7056 277.36 29.2186C276.967 30.198 276.654 31.0175 276.428 31.6704C276.194 32.31 276.015 32.803 275.895 33.1362C275.788 33.4027 275.688 33.7158 275.602 34.0689C275.528 34.4287 275.448 34.8351 275.362 35.2948C275.268 35.7079 275.082 36.1943 274.802 36.7606C274.536 37.3136 274.256 37.9532 273.976 38.6794C273.923 39.0192 273.816 39.4123 273.656 39.852C273.509 40.2784 273.343 40.7714 273.15 41.3177C273.023 41.6375 272.837 42.0106 272.59 42.437C272.337 42.8501 272.097 43.3165 271.871 43.8495C271.851 44.2426 271.824 44.649 271.791 45.0754C271.577 45.8083 271.364 46.5611 271.151 47.3406C270.831 48.4266 270.498 49.5393 270.165 50.6719C269.825 51.8112 269.512 52.9038 269.232 53.9498C269.032 54.2363 268.819 54.5761 268.593 54.9626C268.553 55.1424 268.539 55.4289 268.539 55.8154C268.553 56.1885 268.546 56.5016 268.513 56.7481C268.459 57.0346 268.333 57.441 268.14 57.974C267.96 58.507 267.853 58.9068 267.82 59.1733C267.746 59.6929 267.613 60.4724 267.42 61.5185C267.24 62.5445 267.107 63.3307 267.02 63.8637C267.107 64.3234 267.16 64.7564 267.18 65.1695C267.054 65.5226 266.92 65.8091 266.78 66.0223C266.654 66.2355 266.501 66.4021 266.327 66.5287C265.828 66.7419 265.375 66.9084 264.968 67.035C264.662 67.2482 264.409 67.4148 264.195 67.5414C263.995 67.6813 263.829 67.7412 263.689 67.7279C263.116 67.6346 262.73 67.4947 262.516 67.3015C262.316 67.1016 262.237 66.8818 262.277 66.6353C262.45 65.7625 262.676 64.9297 262.943 64.1302C262.889 64.0369 262.843 63.877 262.81 63.6505C262.79 63.4173 262.73 63.1441 262.623 62.8243C262.816 60.7856 262.969 58.6669 263.076 56.4816C263.376 54.9559 263.642 53.4035 263.876 51.8178C263.982 51.0716 264.149 50.1589 264.382 49.0729C264.628 47.9736 264.948 46.6944 265.341 45.2353C265.768 43.8162 266.094 42.5636 266.327 41.4776C266.554 40.3783 266.734 39.4656 266.86 38.7327C266.894 38.4329 266.974 38.0531 267.1 37.5867C267.24 37.107 267.407 36.5207 267.607 35.8278C267.766 35.2415 267.913 34.7218 268.06 34.2555C268.219 33.7758 268.333 33.336 268.406 32.923C268.439 32.7298 268.459 32.5099 268.459 32.2567C268.473 32.0102 268.486 31.797 268.486 31.6171C268.859 31.0175 269.132 30.5178 269.312 30.1247C269.505 29.7383 269.619 29.4718 269.659 29.3252C269.565 28.9921 269.485 28.6456 269.419 28.2859C269.645 27.9128 269.925 27.2665 270.245 26.3404C270.578 25.421 270.971 24.2017 271.417 22.6894C271.451 22.3895 271.504 22.0164 271.577 21.5701C271.644 21.1303 271.744 20.584 271.871 19.9444L271.737 19.2249C271.644 19.1582 271.471 19.0583 271.204 18.9317C270.938 18.8118 270.578 18.6919 270.138 18.5853L269.605 18.8518C269.245 18.8917 268.886 18.9184 268.513 18.9317C268.14 18.9517 267.746 18.985 267.34 19.0383C264.515 19.4114 261.717 19.7512 258.945 20.051C258.732 20.0177 258.572 19.9111 258.466 19.7312C258.359 19.558 258.319 19.3181 258.359 19.0117C258.372 18.8518 258.479 18.5853 258.679 18.2122C258.872 17.8257 259.165 17.346 259.558 16.773C259.751 15.8536 259.931 15.0941 260.091 14.5078C260.251 13.9215 260.418 13.4818 260.598 13.1753C260.897 12.6423 261.29 12.2092 261.77 11.8694C262.25 11.5363 262.796 11.3098 263.422 11.2032C264.702 11.03 265.874 10.95 266.94 10.9633C268.02 10.9833 268.992 11.1166 269.845 11.3631Z" fill="#CCFF00"/>
<path d="M284.753 51.476C284.84 50.9297 284.84 50.0502 284.753 48.8377C284.66 47.6118 284.66 46.699 284.753 46.0927C284.807 45.7596 284.913 45.2332 285.073 44.5204C285.246 43.8141 285.366 43.2878 285.42 42.948C285.56 41.9886 285.719 40.5229 285.899 38.5507C286.093 36.5786 286.259 35.1129 286.406 34.1535C286.652 32.5212 287.052 30.4425 287.605 27.9174C288.171 25.379 288.871 22.3942 289.71 18.963C290.083 17.7371 290.516 16.831 291.016 16.2447C291.509 15.645 292.109 15.3852 292.802 15.4718C293.028 15.5118 293.235 15.705 293.415 16.0581C293.588 16.4179 293.748 16.9309 293.894 17.6038C294.427 18.2634 294.96 18.883 295.493 19.4693C295.9 19.949 296.173 20.522 296.32 21.1749C296.479 21.8145 296.486 22.5541 296.346 23.3869C296.24 24.1731 295.92 25.2391 295.387 26.5849C294.854 27.9174 294.541 28.9301 294.454 29.623C294.241 31.0088 294.008 32.1547 293.761 33.0608C293.528 33.9669 293.288 34.6598 293.042 35.1395L292.429 36.3388C292.389 37.125 292.355 38.0177 292.322 39.0304C292.016 40.5095 291.736 42.0419 291.469 43.6409C291.216 45.2599 291.096 46.9322 291.096 48.6511C291.109 50.3767 291.216 52.1289 291.416 53.9012C291.716 56.2997 292.222 58.1585 292.935 59.471C293.641 60.7702 294.567 61.5098 295.707 61.683C296.273 61.7563 296.826 61.6963 297.359 61.4964C297.892 61.3032 298.425 60.9301 298.958 60.3771C299.384 59.9907 299.784 59.571 300.157 59.1246C300.544 58.6649 300.93 58.2185 301.303 57.7921C301.729 57.419 302.183 56.9526 302.662 56.3796C303.155 55.7933 303.702 55.0938 304.288 54.2743C304.981 52.7819 305.714 51.2761 306.5 49.7438C307.279 48.218 308.072 46.679 308.872 45.1333C309.085 44.6536 309.351 44.014 309.671 43.2145C309.991 42.415 310.344 41.4956 310.737 40.4429C311.43 39.2037 312.19 37.4514 313.029 35.1928C313.862 32.9409 314.841 30.196 315.961 26.958C316.227 26.465 316.574 25.832 317 25.0658C317.426 24.3063 317.913 23.4069 318.466 22.3742C318.626 22.0011 318.905 21.4281 319.318 20.6419C319.745 19.8424 320.305 18.8497 320.997 17.6571C321.331 17.0575 321.797 16.6378 322.383 16.4046C322.97 16.1581 323.669 16.0981 324.489 16.218C324.982 16.2913 325.295 16.6644 325.421 17.3373C325.561 18.0169 325.535 19.0029 325.341 20.2955C324.968 22.8006 324.195 25.8054 323.023 29.3032C321.864 32.8077 320.285 36.7652 318.279 41.1891C318.173 41.6155 317.973 42.1418 317.693 42.7615C317.426 43.3677 317.107 44.0606 316.733 44.8402C316.64 45.3398 316.507 45.9062 316.334 46.5458C316.154 47.172 315.914 47.8716 315.614 48.6511C314.975 50.0902 314.388 51.6293 313.855 53.2616C313.322 54.8806 312.843 56.5862 312.416 58.3784C312.376 58.6449 312.27 59.0313 312.096 59.5243C311.916 60.024 311.71 60.6436 311.483 61.3898C311.217 62.0827 311.01 62.7157 310.87 63.282C310.724 63.855 310.617 64.388 310.551 64.881C310.531 65.6072 310.497 66.2801 310.444 66.9064C310.724 67.3328 310.937 67.6792 311.084 67.9457C311.224 68.2256 311.284 68.4521 311.27 68.612C311.017 69.0384 310.671 69.4914 310.231 69.9711C309.784 70.4642 309.198 70.9838 308.472 71.5168C307.739 72.1564 307.046 72.6095 306.393 72.876C305.734 73.1425 305.154 73.2291 304.661 73.1425C304.195 73.0692 303.782 72.7028 303.408 72.0498C303.049 71.4102 302.915 70.8306 303.009 70.3176L303.035 70.0244C303.175 69.7713 303.308 69.4781 303.435 69.145C303.448 68.9984 303.442 68.8518 303.408 68.6919C303.368 68.5454 303.342 68.3521 303.328 68.1056C303.395 67.999 303.502 67.8191 303.648 67.5726C303.788 67.3195 303.941 67.0396 304.101 66.7198C304.061 66.5932 304.021 66.4267 303.968 66.2135C303.928 66.0136 303.875 65.7871 303.808 65.5206C303.875 65.3807 303.948 65.2008 304.021 64.9876C304.108 64.7611 304.241 64.4812 304.421 64.1614C304.434 63.9482 304.448 63.6817 304.448 63.3619C304.501 63.1687 304.581 62.9022 304.688 62.5624C304.794 62.2293 304.914 61.8029 305.061 61.2832C305.254 60.8768 305.407 60.5237 305.514 60.2172C305.62 59.9174 305.68 59.6976 305.7 59.551C305.734 59.3378 305.727 59.1512 305.674 58.9913C305.634 58.8314 305.567 58.7248 305.46 58.6715C305.301 58.6915 305.061 58.8514 304.741 59.1512C304.434 59.4577 304.061 59.8841 303.622 60.4304C303.089 61.0567 302.636 61.5697 302.262 61.9761C301.903 62.3892 301.663 62.6557 301.543 62.7756L301.303 63.3086C300.45 64.1614 299.691 64.8677 299.038 65.414C298.398 65.9603 297.919 66.3534 297.599 66.5866C297.012 66.9397 296.346 67.2528 295.6 67.5193C294.867 67.7858 293.988 67.979 292.962 68.1056C292.462 68.119 291.982 68.1856 291.523 68.2922C290.543 68.1456 289.69 67.8791 288.964 67.4927C288.251 67.1196 287.738 66.6665 287.418 66.1335C286.086 64.0415 285.193 61.7829 284.753 59.3644C284.327 56.9326 284.327 54.3009 284.753 51.476Z" fill="#CCFF00"/>
<path d="M333.992 55.2351C333.919 55.7348 334.186 56.4876 334.792 57.5003C335.412 58.4997 336.378 59.7323 337.697 61.2047C338.51 62.1841 339.382 63.1368 340.308 64.0562C341.228 64.9823 342.154 65.9151 343.08 66.8545C343.466 67.2809 343.966 67.8405 344.572 68.5334C345.192 69.2263 345.912 70.0458 346.731 70.9852C347.371 71.6248 348.017 72.2511 348.677 72.8774C349.329 73.517 350.049 74.1632 350.835 74.8228C351.328 75.3558 351.901 75.9288 352.541 76.5551C353.18 77.1947 353.907 77.8676 354.726 78.5805C355.206 78.9869 355.526 79.6265 355.686 80.4993C355.845 81.3654 355.859 82.4581 355.739 83.7772L355.206 84.7367L354.779 84.8966C354.513 84.8566 354.18 84.69 353.793 84.3902C353.4 84.1037 352.901 83.6973 352.301 83.1643C352.174 83.071 351.621 82.6979 350.649 82.045C349.669 81.3854 348.25 80.4527 346.385 79.2467C345.352 78.6205 344.419 77.9476 343.586 77.2213C342.767 76.4885 342.027 75.7356 341.374 74.9561C340.961 74.4897 340.448 73.9767 339.829 73.4104C339.222 72.8374 338.476 72.2111 337.59 71.5182C336.737 70.812 335.991 70.1524 335.352 69.5461C334.712 68.9465 334.206 68.4468 333.832 68.0537C332.607 66.6879 331.594 65.6419 330.794 64.909C329.995 64.1628 329.415 63.7631 329.062 63.7098C328.742 64.0696 328.542 64.4293 328.476 64.8024C327.956 65.975 327.39 67.4808 326.77 69.3063C326.144 71.1185 325.438 73.2372 324.638 75.6756C324.565 76.102 324.432 76.4085 324.238 76.6084C324.039 76.8016 323.792 76.8749 323.492 76.8216C322.48 76.6617 321.74 76.3019 321.28 75.7556C320.834 75.2026 320.681 74.4098 320.827 73.3837C321.04 72.0646 321.334 70.6921 321.707 69.253C322.093 67.8006 322.613 66.2948 323.252 64.7491C323.499 64.0562 323.692 63.4366 323.839 62.8836C323.979 62.3373 324.085 61.8309 324.159 61.3646C324.352 60.1387 323.985 59.0194 323.066 58.0067C322.16 56.9806 321.733 56.2877 321.787 55.928C321.873 55.3283 322.033 54.8287 322.266 54.4356C322.513 54.0291 322.833 53.7293 323.226 53.5295C324.145 53.123 325.018 52.7166 325.837 52.3036C326.051 52.2169 326.211 52.057 326.317 51.8239C326.424 51.5973 326.504 51.2575 326.557 50.8112C326.61 50.5447 326.65 50.2648 326.69 49.9584C326.744 49.6585 326.784 49.3721 326.824 49.1056C327.25 46.7803 327.676 44.3618 328.103 41.8567C328.116 41.6968 328.156 41.4237 328.209 41.0306C328.276 40.6242 328.329 40.1112 328.369 39.4849C328.383 38.9919 328.436 38.5455 328.529 38.1524C328.616 37.766 328.689 37.3995 328.742 37.0597C328.649 36.5134 328.569 36.0404 328.502 35.6473C328.449 35.2609 328.449 34.8878 328.502 34.528C328.536 34.2082 328.636 33.7285 328.796 33.0889C328.956 32.436 329.062 31.9429 329.115 31.6231C329.169 31.27 329.202 30.7637 329.222 30.1041C329.255 29.4312 329.302 28.9182 329.355 28.5584C329.495 27.619 329.848 26.7595 330.421 25.9733C330.988 25.1738 331.787 24.421 332.82 23.7081C333.759 23.1218 334.712 22.7087 335.671 22.4555C336.631 22.189 337.59 22.1291 338.55 22.269C338.989 22.3423 339.642 22.4755 340.495 22.6687C341.361 22.8686 342.054 23.0085 342.574 23.0951C342.894 23.1351 343.773 23.5482 345.212 24.3477C345.812 24.5076 346.338 24.6675 346.784 24.8274C347.244 24.9873 347.617 25.1472 347.904 25.3071C348.503 25.7002 348.976 26.0133 349.316 26.2398C349.669 26.473 349.929 26.6129 350.089 26.6662C350.475 26.8794 350.835 27.066 351.155 27.2259C351.475 27.3858 351.721 27.559 351.901 27.7322C352.221 27.9454 352.581 28.1986 352.994 28.4784C353.42 28.7449 353.913 29.0581 354.486 29.4112C355.339 30.0175 356.139 30.7037 356.885 31.4632C357.631 32.2094 358.297 33.0023 358.884 33.8351C359.61 34.9011 360.109 35.9271 360.376 36.8998C360.642 37.8592 360.709 38.792 360.589 39.6981C360.549 39.9513 360.469 40.311 360.349 40.7907C360.223 41.2704 360.083 41.8168 359.923 42.4164C359.723 43.1493 359.203 43.9021 358.351 44.6816C357.511 45.4478 356.352 46.2473 354.859 47.0802C353.56 47.8264 352.341 48.4393 351.208 48.919C350.089 49.3854 349.083 49.6852 348.197 49.8251C347.824 50.005 347.531 50.1716 347.317 50.3315C347.011 50.5646 346.398 50.8578 345.479 51.2109C344.572 51.5507 343.347 51.9704 341.801 52.4635C338.989 53.3362 337.004 53.8959 335.831 54.1424C334.672 54.3956 334.059 54.7554 333.992 55.2351ZM332.713 35.7006C333.28 35.3808 333.813 35.0876 334.312 34.8211C334.805 34.5413 335.405 34.4414 336.098 34.528C336.431 34.5813 336.771 34.9944 337.11 35.7539C337.464 36.5001 337.617 37.0531 337.564 37.4062C337.544 37.5861 337.417 37.9925 337.19 38.6321C336.957 39.2584 336.604 40.1178 336.124 41.2171C335.165 43.6556 334.592 45.188 334.419 45.8276C334.259 46.4539 333.946 47.4199 333.486 48.7325C333.306 49.0722 333.12 49.5053 332.926 50.0383C332.886 50.2915 332.906 50.4647 332.98 50.5713C333.046 50.6779 333.173 50.7512 333.353 50.7845C338.949 48.959 341.854 47.9996 342.067 47.9063C342.261 47.873 342.48 47.8264 342.734 47.7731C342.98 47.7198 343.227 47.6598 343.48 47.5865L344.173 46.9469C345.825 46.2007 347.557 45.4145 349.369 44.575C350.469 43.9221 351.322 43.2559 351.928 42.5763C352.547 41.8834 352.921 41.1638 353.047 40.4176C353.187 39.4582 352.767 38.4189 351.795 37.2996C350.815 36.1803 349.27 35.0277 347.158 33.8351C345.345 32.7691 343.673 31.9429 342.147 31.3566C340.635 30.7703 339.229 30.3839 337.937 30.184C336.244 29.9375 334.932 30.0441 333.992 30.5038C333.046 30.9502 332.5 31.7497 332.34 32.9023C332.194 33.7951 332.154 34.488 332.207 34.981C332.273 35.4607 332.447 35.7006 332.713 35.7006Z" fill="#CCFF00"/>
<path d="M388.846 74.0049L389.805 77.8691C389.465 78.0823 389.066 78.3022 388.606 78.5354C388.16 78.7619 387.646 79.0151 387.06 79.2816C386.454 79.3882 385.741 79.5481 384.928 79.7613C384.109 79.9878 383.176 80.2476 382.13 80.5341C381.29 80.9072 380.618 81.1737 380.105 81.3336C379.585 81.4935 379.232 81.5535 379.039 81.5202C378.699 81.4669 378.052 81.5202 377.093 81.6801C376.147 81.84 374.908 82.0931 373.362 82.4529C372.523 82.6128 371.636 82.7727 370.697 82.9326C369.771 83.1058 368.818 83.2391 367.846 83.3324L365.5 82.4796L363.928 82.8793C363.408 82.806 362.902 82.7261 362.409 82.6395C361.909 82.5462 361.423 82.4529 360.943 82.3463C360.177 82.1997 359.617 82.0065 359.264 81.76C358.904 81.5268 358.758 81.2403 358.811 80.9072L359.318 79.4681L359.078 79.1217C358.205 78.9751 357.639 78.7752 357.372 78.5087C357.106 78.2422 357.039 77.6692 357.186 76.8031C357.239 76.3967 357.352 75.7504 357.532 74.8577C357.705 73.9516 357.938 72.7723 358.225 71.3132C358.238 71.1733 358.365 70.9068 358.598 70.5137C358.844 70.1273 358.978 69.8341 358.998 69.6343C358.924 69.3544 358.878 69.1412 358.864 68.9947C358.844 68.8547 358.844 68.7148 358.864 68.5683C359.091 67.5422 359.397 66.2963 359.771 64.8372C360.157 63.3648 360.637 61.6259 361.21 59.6138C361.723 58.4279 362.196 57.0821 362.622 55.5897C362.762 54.4171 362.895 53.2378 363.022 52.0452C364.654 47.8212 366.306 43.5905 367.979 39.3598C368.245 38.6003 368.645 37.8941 369.178 37.2545C369.711 36.6149 370.331 36.0019 371.044 35.4156C371.323 35.2757 371.523 35.1624 371.63 35.0692C371.79 34.8426 371.99 34.5761 372.243 34.2697C372.509 33.9698 372.816 33.6034 373.176 33.177C373.349 33.0904 373.635 32.9771 374.028 32.8306C374.415 32.6707 374.921 32.4575 375.547 32.191C375.847 32.0177 376.194 31.8112 376.587 31.578C376.993 31.3315 377.44 31.0383 377.919 30.6986C379.019 30.2722 380.051 29.7925 381.011 29.2594C381.97 28.7131 383.089 28.4466 384.369 28.4599C384.988 28.5332 385.601 28.5932 386.207 28.6465C386.807 28.6998 387.38 28.7464 387.913 28.7797C388.459 28.7264 388.939 28.7198 389.352 28.7531C389.619 28.7731 389.845 28.7664 390.045 28.7264C390.258 28.6931 390.445 28.6865 390.605 28.6998C390.765 28.7398 390.978 28.7997 391.244 28.8863C391.511 28.9596 391.884 29.0662 392.364 29.2061C392.683 29.2794 392.977 29.3394 393.243 29.3927C393.51 29.4327 393.776 29.4593 394.043 29.4726C395.015 29.9723 395.721 30.5586 396.148 31.2316C396.574 31.8911 396.721 32.6307 396.601 33.4435C396.314 35.2557 395.921 36.5815 395.428 37.4144C394.949 38.2338 394.336 38.587 393.589 38.4804C393.003 38.3937 392.39 38.0007 391.751 37.3078C391.111 36.6149 389.172 36.0219 385.941 35.5222C384.555 35.5955 383.183 35.6688 381.837 35.7354C381.677 35.9153 381.504 36.0485 381.33 36.1352C381.151 36.2084 380.991 36.2617 380.851 36.2951L379.572 35.5755C379.105 35.6821 378.559 36.0485 377.919 36.6682C377.28 37.2944 376.587 38.1805 375.841 39.3332C375.681 39.5863 375.527 39.9061 375.387 40.2926C375.261 40.6657 375.161 41.1187 375.094 41.6517C374.328 43.4639 373.589 45.2095 372.882 46.8751C372.136 48.6873 371.55 50.0665 371.123 51.0059C370.71 51.932 370.464 52.4916 370.377 52.6848C370.251 52.938 370.144 53.1779 370.057 53.4044C369.964 53.6176 369.904 53.8508 369.871 54.0973C369.818 54.4171 369.844 54.6836 369.951 54.8968C370.057 55.11 370.244 55.2366 370.511 55.2699C370.737 55.3099 371.37 54.9634 372.403 54.2305C373.449 53.5043 374.195 53.1246 374.641 53.0846C375.241 53.018 375.827 52.9247 376.4 52.8181C376.986 52.7115 377.606 52.5782 378.266 52.4183C378.512 52.405 379.152 52.405 380.184 52.4183C381.211 52.4383 382.643 52.4716 384.475 52.5249L385.514 53.0313L387.646 52.9513L388.686 53.6176C388.899 53.9241 389.086 54.2772 389.245 54.6836C389.419 55.0967 389.565 55.5497 389.672 56.0427C389.419 57.6284 389.072 58.7877 388.633 59.5339C388.186 60.2801 387.62 60.5999 386.927 60.4933L384.902 59.3207C383.069 59.2341 381.277 59.1541 379.518 59.0808C377.759 58.9942 375.96 58.8943 374.135 58.7877C371.856 58.881 370.057 59.334 368.725 60.1468C367.392 60.9663 366.546 62.1856 366.193 63.7979C366.1 64.1177 365.927 64.624 365.66 65.3169C365.407 65.9965 365.107 66.836 364.754 67.8487L364.807 69.0746C364.434 70.1806 364.101 71.2199 363.821 72.1927C363.535 73.172 363.328 74.0515 363.208 74.831C363.168 75.0975 363.182 75.2974 363.235 75.4173C363.302 75.5439 363.402 75.5905 363.528 75.5506C364.767 75.6438 365.773 75.7105 366.54 75.7638C367.319 75.8171 367.859 75.8903 368.165 75.977C368.838 76.1235 369.531 76.2834 370.244 76.4567L372.722 76.6166C373.002 76.6032 373.609 76.4833 374.535 76.2701C375.474 76.0436 376.294 75.977 376.986 76.0836C377.766 76.1902 378.559 76.2168 379.358 76.1635C380.158 76.1102 380.917 76.0036 381.65 75.8437C382.41 75.6838 383.156 75.5239 383.889 75.364C384.615 75.2041 385.355 75.0442 386.101 74.8843C386.381 74.871 386.747 74.7777 387.193 74.6178C387.653 74.4579 388.206 74.258 388.846 74.0049Z" fill="#CCFF00"/>
</svg>
