<svg width="102" height="23" viewBox="0 0 102 23" fill="none" xmlns="http://www.w3.org/2000/svg">
<path d="M20.3388 -0.000488513L18.5203 20.6012L10.1694 22.9995L1.81853 20.6012L0 -0.000488281L20.3388 -0.000488513Z" fill="url(#paint0_linear_868_7100)"/>
<path d="M30.6978 12.7347L30.6978 14.8693L24.668 14.8693L24.668 14.5096L27.3479 10.0007L24.9072 10.0007L24.9072 7.86621L30.674 7.86621L30.674 8.24989L28.0419 12.7108L30.6978 12.7347Z" fill="#212664"/>
<path d="M39.5047 7.86634L39.5047 14.8694L37.6383 14.8694L37.423 14.3658C36.8487 14.8215 36.1308 15.0853 35.3172 15.0853C33.1877 15.0853 31.6563 13.5264 31.6563 11.3439C31.6563 9.18534 33.1877 7.62646 35.3172 7.62646C36.1308 7.62646 36.8726 7.8903 37.4468 8.36998L37.6861 7.81834L39.5047 7.81834L39.5047 7.86634ZM37.2315 11.3679C37.2315 10.4565 36.5615 9.78499 35.6762 9.78499C34.7669 9.78499 34.1209 10.4565 34.1209 11.3679C34.1209 12.2792 34.7909 12.9747 35.6762 12.9747C36.5615 12.9747 37.2315 12.2792 37.2315 11.3679Z" fill="#212664"/>
<path d="M48.2853 10.6484L48.2853 14.8695L45.8925 14.8695L45.8925 10.9363C45.8925 10.1208 45.6054 9.71312 44.9833 9.71312C44.2654 9.71312 43.8108 10.2407 43.8108 11.1281L43.8108 14.8695L41.418 14.8695L41.418 5.34814L43.8108 5.34814L43.8108 8.32208C44.3133 7.91435 44.9833 7.65055 45.6772 7.65055C47.2564 7.67453 48.2853 8.84968 48.2853 10.6484Z" fill="#212664"/>
<path d="M57.5242 7.86585L57.5242 14.8689L55.6577 14.8689L55.4424 14.3653C54.8681 14.821 54.1503 15.0848 53.3367 15.0848C51.2071 15.0848 49.6758 13.5259 49.6758 11.3434C49.6758 9.18485 51.2071 7.62598 53.3367 7.62598C54.1503 7.62598 54.8921 7.88981 55.4664 8.36949L55.7056 7.81785L57.5242 7.81785L57.5242 7.86585ZM55.227 11.3674C55.227 10.456 54.557 9.7845 53.6717 9.7845C52.7625 9.7845 52.1164 10.456 52.1164 11.3674C52.1164 12.2787 52.7864 12.9742 53.6717 12.9742C54.557 12.9742 55.227 12.2787 55.227 11.3674Z" fill="#212664"/>
<path d="M63.9365 7.84183L63.9365 10.0483L63.0033 10.0483C62.1418 10.0483 61.8069 10.4321 61.8069 11.3194L61.8069 14.8689L59.4141 14.8689L59.4141 7.86587L61.0173 7.86587L61.4001 8.63331C61.9026 8.05771 62.5007 7.81787 63.3143 7.81787L63.9365 7.81787L63.9365 7.84183Z" fill="#212664"/>
<path d="M64.6758 11.3678C64.6758 9.20932 66.3029 7.65039 68.5761 7.65039C70.8492 7.65039 72.4763 9.20932 72.4763 11.3678C72.4763 13.5263 70.8253 15.0852 68.5761 15.0852C66.3268 15.1092 64.6758 13.5263 64.6758 11.3678ZM68.5999 12.9267C69.4853 12.9267 70.1074 12.2792 70.1074 11.3678C70.1074 10.4564 69.4853 9.80888 68.5999 9.80888C67.7146 9.80888 67.0925 10.4564 67.0925 11.3678C67.0925 12.3031 67.7146 12.9267 68.5999 12.9267Z" fill="#212664"/>
<path d="M80.7347 7.86621L77.9351 14.8693L75.7577 14.8693L72.9102 7.86621L75.5423 7.86621L76.8583 12.0153L78.1504 7.86621L80.7347 7.86621Z" fill="#212664"/>
<path d="M81.8828 7.86621L84.2756 9.61698L84.2756 14.8693L81.8828 14.8693L81.8828 7.86621Z" fill="#00FFFF"/>
<path d="M81.8828 4.36475L84.2513 4.36475L84.2756 7.86635L81.8828 6.11553L81.8828 4.36475Z" fill="#CC3371"/>
<path d="M89.61 15.1087C87.3605 15.1087 85.7578 13.5258 85.7578 11.3673C85.7578 9.20883 87.3605 7.6499 89.61 7.6499C91.5721 7.6499 93.0316 8.89703 93.2946 10.7437L90.9496 10.7437C90.7586 10.1681 90.2082 9.80839 89.5857 9.80839C88.7487 9.80839 88.1506 10.456 88.1506 11.3673C88.1506 12.2787 88.7487 12.9262 89.5857 12.9262C90.2325 12.9262 90.7586 12.5185 90.9496 11.8949L93.3189 11.8949C93.0558 13.8136 91.5721 15.1087 89.61 15.1087Z" fill="#212664"/>
<path d="M101.625 10.648L101.625 14.869L99.2317 14.869L99.2317 10.9358C99.2317 10.1204 98.9451 9.71263 98.3226 9.71263C97.6047 9.71263 97.1506 10.2402 97.1506 11.1276L97.1506 14.869L94.7578 14.869L94.7578 5.34766L97.1506 5.34766L97.1506 8.32159C97.6524 7.91387 98.3226 7.65006 99.0163 7.65006C100.596 7.67404 101.625 8.84919 101.625 10.648Z" fill="#212664"/>
<path d="M3.03866 9.8084C3.03866 9.8084 2.63188 10.0723 2.60795 10.3361C2.58403 10.5759 2.63188 10.7917 3.1583 10.6478C3.68471 10.504 4.11542 10.0482 4.85719 10.36C5.59896 10.6718 5.52717 10.6718 5.64681 10.456C5.74253 10.2402 5.74253 9.61656 5.52717 9.76048C5.31182 9.90432 4.28291 9.92836 3.90007 9.95232C3.51722 10.0003 3.42151 9.8564 3.42151 9.8564L2.7276 8.94504C2.7276 8.94504 2.82331 8.48931 3.18223 8.20155C3.54115 7.91371 3.90007 7.96171 3.90007 7.96171C3.90007 7.96171 3.7565 7.76987 3.54115 7.79383C3.32579 7.81779 3.18223 7.79383 3.06259 7.74583C3.06259 7.74583 3.99578 7.14629 4.28291 6.95441L4.23506 7.00238C4.76148 6.57068 5.19218 6.5467 5.19218 6.5467C5.19218 6.5467 5.47932 6.5467 5.67074 6.78653C5.83824 7.02636 5.81431 7.17027 6.19716 7.21823C6.58001 7.2662 7.29785 6.5467 7.29785 6.5467C7.29785 6.5467 6.3168 6.35483 5.74253 6.37882C5.16825 6.4028 5.04862 6.21094 5.04862 6.21094L4.97683 6.2589C4.0197 7.07433 2.5601 7.53001 2.5601 7.53001C2.27296 7.72188 2.10547 8.03367 2.10547 8.03367C2.10547 8.03367 2.1294 8.58532 2.5601 9.11292C2.91902 9.66456 3.03866 9.8084 3.03866 9.8084Z" fill="#212664"/>
<path d="M15.7207 5.39564C15.3139 4.79605 14.8353 4.2924 14.3089 3.90867L16.5103 4.07655C16.5103 4.07655 15.9599 3.16519 14.2371 2.87739C13.95 2.82942 13.7107 2.80544 13.4714 2.80544L15.266 2.32577C15.266 2.32577 14.4764 1.99001 13.304 2.01399C12.1315 2.03798 11.5333 2.5656 11.5333 2.5656L12.4904 1.67822C12.4904 1.67822 9.30794 1.91806 7.60907 3.35705C6.65194 3.81274 5.95803 4.53223 5.71875 5.37165C5.71875 5.37165 5.81446 5.08385 6.89123 4.62817C7.94406 4.19647 8.73371 4.43631 8.73371 4.43631C8.73371 4.43631 8.2312 4.53223 7.80049 5.20377C7.36978 5.8753 7.8962 6.42691 7.8962 6.42691C7.8962 6.42691 8.20724 5.75538 8.75759 5.22775C9.35578 4.65215 10.313 4.62817 10.313 4.62817C10.313 4.62817 10.7675 5.27572 10.959 6.83464C13.7825 7.36227 16.271 9.16105 17.7067 11.8951C17.7546 9.83258 17.0846 7.4582 15.7207 5.39564Z" fill="#212664"/>
<path d="M14.2385 8.87332C12.7071 7.938 11.6544 7.53025 10.9844 7.33838C11.0083 7.72212 11.0322 8.1538 11.0083 8.63348C14.2864 9.8326 16.0571 12.6627 16.9903 14.8451C17.3014 14.2216 17.5167 13.5261 17.6124 12.7826C16.8228 11.3676 15.6263 9.71273 14.2385 8.87332Z" fill="#212664"/>
<path d="M10.9593 10.2882C10.8397 10.1923 10.72 10.0964 10.6004 10.0244C10.5764 10.2402 10.4807 10.8158 10.2415 11.4394C9.85859 12.4467 9.35609 12.9503 8.66222 13.454C7.84863 14.0296 7.17865 14.4613 6.98723 15.4686C6.74795 16.6917 7.20258 17.867 7.75292 18.6104C8.66222 19.8576 8.99717 20.5531 9.04501 20.9368C9.21257 20.673 9.66716 20.0494 11.0789 18.5144C11.2942 18.2986 11.4857 18.0348 11.6532 17.771C13.7589 14.7491 12.8256 11.8232 10.9593 10.2882Z" fill="#212664"/>
<path d="M7.10582 12.3505C8.03901 12.1347 8.78079 11.4392 8.97223 10.5039C8.97223 10.4559 8.99611 10.4079 8.99611 10.3599C9.2115 9.04085 8.01505 8.29736 8.01505 8.29736C8.01505 8.29736 8.6372 10.6237 7.39295 10.8636C6.98618 10.9355 6.36405 11.0555 5.9812 11.2473C5.9812 11.2473 5.93335 11.2473 5.90942 11.2473L5.86156 11.2473C5.57443 11.3672 4.11481 11.9669 3.73196 11.8949C3.30126 11.8229 2.9902 11.8469 2.77484 11.2953C2.77484 11.2953 2.24843 11.727 2.392 12.4705C2.53557 13.214 2.94234 13.4058 2.94234 13.4058C2.94234 13.4058 2.9902 12.9261 3.80375 12.5424C4.0191 12.4465 4.23446 12.3985 4.42588 12.3985C4.16267 12.8542 4.0191 13.4298 4.06696 14.1973C4.09088 14.5331 4.16267 14.8448 4.28231 15.1566C4.47374 13.5257 5.81371 12.6384 7.10582 12.3505Z" fill="#212664"/>
<path d="M8.20812 13.3579C9.11746 12.7583 9.76348 11.9668 10.0506 11.1274C9.78744 11.3912 9.50025 11.6071 9.2371 11.775C8.75847 12.0868 8.23208 12.3027 7.68174 12.4226C6.98783 12.5904 5.50429 13.0941 5.02573 14.4371C4.83431 14.9888 4.78644 15.6124 4.81037 16.1879C5.71964 18.8741 8.30388 20.0013 8.30388 20.0013C8.16028 19.5936 4.23611 15.9241 8.20812 13.3579Z" fill="#212664"/>
<path d="M13.6639 11.2956C12.4914 10.1684 11.5582 9.64075 10.96 9.37695C10.9361 9.52087 10.8882 9.66479 10.8643 9.78467C13.8553 12.0631 14.4535 16.0683 10.0508 20.2654C10.96 19.9536 13.8793 17.3874 14.7407 16.9317C14.8125 15.4207 14.31 13.9578 14.31 13.9578C14.31 13.9578 15.1714 15.2289 15.6499 16.4041C16.0567 16.1163 16.3917 15.7565 16.6788 15.3488C15.8892 14.0298 14.7885 12.3989 13.6639 11.2956Z" fill="#212664"/>
<path d="M10.3112 6.93035C10.3112 6.93035 10.3351 6.78646 10.2634 6.21085C10.1916 5.63526 9.88049 5.22754 9.88049 5.22754C9.88049 5.22754 9.01907 5.41941 8.66016 6.33078C8.66016 6.33078 8.92339 6.59459 9.3541 6.76247C9.88049 6.90638 10.2394 6.95434 10.3112 6.93035Z" fill="#212664"/>
<defs>
<linearGradient id="paint0_linear_868_7100" x1="16.2652" y1="19.5833" x2="-1.5" y2="-12.5" gradientUnits="userSpaceOnUse">
<stop stop-color="#E02466"/>
<stop offset="1" stop-color="#FAE47E"/>
<stop offset="1" stop-color="#00FFFF"/>
</linearGradient>
</defs>
</svg>
