<svg width="102" height="23" viewBox="0 0 102 23" fill="none" xmlns="http://www.w3.org/2000/svg">
<path d="M20.3388 -2.32063e-07L18.5203 20.6017L10.1694 23L1.81853 20.6017L0 0L20.3388 -2.32063e-07Z" fill="url(#paint0_linear_320_3492)"/>
<path d="M30.6998 12.7351L30.6998 14.8696L24.6699 14.8696L24.6699 14.5099L27.3499 10.001L24.9092 10.001L24.9092 7.86658L30.6759 7.86658L30.6759 8.25026L28.0438 12.7112L30.6998 12.7351Z" fill="#191919"/>
<path d="M39.5067 7.86658L39.5067 14.8696L37.6402 14.8696L37.4249 14.366C36.8506 14.8217 36.1328 15.0855 35.3192 15.0855C33.1896 15.0855 31.6582 13.5266 31.6582 11.3442C31.6582 9.18559 33.1896 7.62671 35.3192 7.62671C36.1328 7.62671 36.8746 7.89054 37.4488 8.37022L37.6881 7.81858L39.5067 7.81858L39.5067 7.86658ZM37.2335 11.3681C37.2335 10.4568 36.5635 9.78523 35.6781 9.78523C34.7689 9.78523 34.1228 10.4568 34.1228 11.3681C34.1228 12.2795 34.7928 12.975 35.6781 12.975C36.5635 12.975 37.2335 12.2795 37.2335 11.3681Z" fill="#191919"/>
<path d="M48.2872 10.6487L48.2872 14.8697L45.8945 14.8697L45.8945 10.9365C45.8945 10.1211 45.6073 9.71337 44.9852 9.71337C44.2673 9.71337 43.8127 10.241 43.8127 11.1284L43.8127 14.8697L41.4199 14.8697L41.4199 5.34839L43.8127 5.34839L43.8127 8.32232C44.3153 7.9146 44.9852 7.65079 45.6791 7.65079C47.2583 7.67477 48.2872 8.84992 48.2872 10.6487Z" fill="#191919"/>
<path d="M57.5222 7.86658L57.5222 14.8696L55.6558 14.8696L55.4405 14.366C54.8662 14.8217 54.1483 15.0855 53.3347 15.0855C51.2052 15.0855 49.6738 13.5266 49.6738 11.3442C49.6738 9.18559 51.2052 7.62671 53.3347 7.62671C54.1483 7.62671 54.8901 7.89054 55.4644 8.37022L55.7037 7.81858L57.5222 7.81858L57.5222 7.86658ZM55.2251 11.3681C55.2251 10.4568 54.5551 9.78523 53.6698 9.78523C52.7605 9.78523 52.1144 10.4568 52.1144 11.3681C52.1144 12.2795 52.7844 12.975 53.6698 12.975C54.5551 12.975 55.2251 12.2795 55.2251 11.3681Z" fill="#191919"/>
<path d="M63.9365 7.84256L63.9365 10.0491L63.0033 10.0491C62.1418 10.0491 61.8069 10.4328 61.8069 11.3201L61.8069 14.8697L59.4141 14.8697L59.4141 7.8666L61.0173 7.8666L61.4001 8.63405C61.9026 8.05844 62.5007 7.8186 63.3143 7.8186L63.9365 7.8186L63.9365 7.84256Z" fill="#191919"/>
<path d="M64.6777 11.3681C64.6777 9.20956 66.3048 7.65063 68.578 7.65063C70.8511 7.65063 72.4783 9.20956 72.4783 11.3681C72.4783 13.5265 70.8272 15.0855 68.578 15.0855C66.3288 15.1094 64.6777 13.5265 64.6777 11.3681ZM68.6019 12.927C69.4873 12.927 70.1093 12.2794 70.1093 11.3681C70.1093 10.4567 69.4873 9.80912 68.6019 9.80912C67.7166 9.80912 67.0944 10.4567 67.0944 11.3681C67.0944 12.3034 67.7166 12.927 68.6019 12.927Z" fill="#191919"/>
<path d="M80.7327 7.86658L77.9331 14.8696L75.7557 14.8696L72.9082 7.86658L75.5403 7.86658L76.8564 12.0157L78.1484 7.86658L80.7327 7.86658Z" fill="#191919"/>
<path d="M81.8809 7.86646L84.2736 9.61722L84.2736 14.8695L81.8809 14.8695L81.8809 7.86646Z" fill="#FFEA23"/>
<path d="M81.8809 4.36499L84.2493 4.36499L84.2736 7.86659L81.8809 6.11577L81.8809 4.36499Z" fill="#005BBB"/>
<path d="M89.61 15.1094C87.3605 15.1094 85.7578 13.5265 85.7578 11.3681C85.7578 9.20956 87.3605 7.65063 89.61 7.65063C91.5721 7.65063 93.0316 8.89776 93.2946 10.7444L90.9496 10.7444C90.7586 10.1688 90.2082 9.80912 89.5857 9.80912C88.7487 9.80912 88.1506 10.4567 88.1506 11.3681C88.1506 12.2794 88.7487 12.927 89.5857 12.927C90.2325 12.927 90.7586 12.5193 90.9496 11.8957L93.3189 11.8957C93.0558 13.8143 91.5721 15.1094 89.61 15.1094Z" fill="#191919"/>
<path d="M101.623 10.6486L101.623 14.8696L99.2297 14.8696L99.2297 10.9364C99.2297 10.121 98.9432 9.71324 98.3207 9.71324C97.6027 9.71324 97.1486 10.2408 97.1486 11.1283L97.1486 14.8696L94.7559 14.8696L94.7559 5.34827L97.1486 5.34827L97.1486 8.3222C97.6505 7.91448 98.3207 7.65067 99.0144 7.65067C100.594 7.67465 101.623 8.8498 101.623 10.6486Z" fill="#191919"/>
<path d="M3.03866 9.80913C3.03866 9.80913 2.63188 10.073 2.60795 10.3368C2.58403 10.5767 2.63188 10.7925 3.1583 10.6485C3.68471 10.5047 4.11542 10.049 4.85719 10.3608C5.59896 10.6726 5.52717 10.6726 5.64681 10.4567C5.74253 10.2409 5.74253 9.61729 5.52717 9.76121C5.31182 9.90505 4.28291 9.92909 3.90007 9.95305C3.51722 10.0011 3.42151 9.85713 3.42151 9.85713L2.7276 8.94577C2.7276 8.94577 2.82331 8.49005 3.18223 8.20229C3.54115 7.91444 3.90007 7.96245 3.90007 7.96245C3.90007 7.96245 3.7565 7.7706 3.54115 7.79456C3.32579 7.81852 3.18223 7.79456 3.06259 7.74656C3.06259 7.74656 3.99578 7.14702 4.28291 6.95515L4.23506 7.00311C4.76148 6.57142 5.19218 6.54743 5.19218 6.54743C5.19218 6.54743 5.47932 6.54743 5.67074 6.78726C5.83824 7.0271 5.81431 7.171 6.19716 7.21896C6.58001 7.26693 7.29785 6.54743 7.29785 6.54743C7.29785 6.54743 6.3168 6.35557 5.74253 6.37955C5.16825 6.40353 5.04862 6.21167 5.04862 6.21167L4.97683 6.25963C4.0197 7.07507 2.5601 7.53075 2.5601 7.53075C2.27296 7.72261 2.10547 8.03441 2.10547 8.03441C2.10547 8.03441 2.1294 8.58605 2.5601 9.11365C2.91902 9.66529 3.03866 9.80913 3.03866 9.80913Z" fill="#191919"/>
<path d="M15.7207 5.39625C15.3139 4.79666 14.8353 4.29301 14.3089 3.90928L16.5103 4.07716C16.5103 4.07716 15.9599 3.1658 14.2371 2.878C13.95 2.83003 13.7107 2.80605 13.4714 2.80605L15.266 2.32638C15.266 2.32638 14.4764 1.99062 13.304 2.0146C12.1315 2.03859 11.5333 2.56621 11.5333 2.56621L12.4904 1.67883C12.4904 1.67883 9.30794 1.91867 7.60907 3.35766C6.65194 3.81335 5.95803 4.53284 5.71875 5.37226C5.71875 5.37226 5.81446 5.08446 6.89123 4.62878C7.94406 4.19708 8.73371 4.43692 8.73371 4.43692C8.73371 4.43692 8.2312 4.53284 7.80049 5.20438C7.36978 5.87591 7.8962 6.42752 7.8962 6.42752C7.8962 6.42752 8.20724 5.75599 8.75759 5.22836C9.35578 4.65276 10.313 4.62878 10.313 4.62878C10.313 4.62878 10.7675 5.27633 10.959 6.83525C13.7825 7.36288 16.271 9.16166 17.7067 11.8958C17.7546 9.83319 17.0846 7.45881 15.7207 5.39625Z" fill="#191919"/>
<path d="M14.2385 8.87381C12.7071 7.93849 11.6544 7.53074 10.9844 7.33887C11.0083 7.7226 11.0322 8.15429 11.0083 8.63397C14.2864 9.83309 16.0571 12.6632 16.9903 14.8456C17.3014 14.2221 17.5167 13.5265 17.6124 12.7831C16.8228 11.3681 15.6263 9.71321 14.2385 8.87381Z" fill="#191919"/>
<path d="M10.9593 10.2888C10.8397 10.1929 10.72 10.097 10.6004 10.025C10.5764 10.2408 10.4807 10.8164 10.2415 11.44C9.85859 12.4473 9.35609 12.951 8.66222 13.4546C7.84863 14.0302 7.17865 14.4619 6.98723 15.4692C6.74795 16.6923 7.20258 17.8676 7.75292 18.6111C8.66222 19.8582 8.99717 20.5537 9.04501 20.9374C9.21257 20.6736 9.66716 20.05 11.0789 18.5151C11.2942 18.2993 11.4857 18.0355 11.6532 17.7716C13.7589 14.7497 12.8256 11.8238 10.9593 10.2888Z" fill="#191919"/>
<path d="M7.10778 12.3513C8.04096 12.1355 8.78275 11.4399 8.97418 10.5046C8.97418 10.4566 8.99806 10.4087 8.99806 10.3607C9.21346 9.04158 8.017 8.2981 8.017 8.2981C8.017 8.2981 8.63915 10.6245 7.39491 10.8643C6.98813 10.9363 6.366 11.0562 5.98315 11.2481C5.98315 11.2481 5.9353 11.2481 5.91137 11.2481L5.86352 11.2481C5.57638 11.3679 4.11676 11.9676 3.73392 11.8956C3.30322 11.8237 2.99215 11.8476 2.7768 11.296C2.7768 11.296 2.25038 11.7278 2.39395 12.4712C2.53752 13.2147 2.9443 13.4066 2.9443 13.4066C2.9443 13.4066 2.99215 12.9269 3.80571 12.5431C4.02105 12.4472 4.23641 12.3993 4.42783 12.3993C4.16463 12.8549 4.02106 13.4305 4.06891 14.198C4.09284 14.5338 4.16463 14.8455 4.28427 15.1573C4.47569 13.5264 5.81566 12.6391 7.10778 12.3513Z" fill="#191919"/>
<path d="M8.20812 13.3586C9.11746 12.7591 9.76348 11.9676 10.0506 11.1282C9.78744 11.392 9.50025 11.6079 9.2371 11.7757C8.75847 12.0875 8.23208 12.3034 7.68174 12.4233C6.98783 12.5912 5.50429 13.0948 5.02573 14.4379C4.83431 14.9895 4.78644 15.6131 4.81037 16.1886C5.71964 18.8748 8.30388 20.0021 8.30388 20.0021C8.16028 19.5943 4.23611 15.9248 8.20812 13.3586Z" fill="#191919"/>
<path d="M13.6619 11.2961C12.4895 10.1689 11.5563 9.64124 10.9581 9.37744C10.9341 9.52136 10.8863 9.66528 10.8623 9.78516C13.8533 12.0636 14.4515 16.0688 10.0488 20.2659C10.9581 19.9541 13.8773 17.3879 14.7387 16.9322C14.8105 15.4212 14.308 13.9583 14.308 13.9583C14.308 13.9583 15.1694 15.2294 15.648 16.4045C16.0547 16.1168 16.3898 15.757 16.6769 15.3493C15.8873 14.0303 14.7866 12.3994 13.6619 11.2961Z" fill="#191919"/>
<path d="M10.3132 6.93121C10.3132 6.93121 10.337 6.78731 10.2653 6.21171C10.1935 5.63612 9.88244 5.22839 9.88244 5.22839C9.88244 5.22839 9.02102 5.42027 8.66211 6.33163C8.66211 6.33163 8.92534 6.59545 9.35605 6.76333C9.88244 6.90723 10.2414 6.95519 10.3132 6.93121Z" fill="#191919"/>
<defs>
<linearGradient id="paint0_linear_320_3492" x1="16.2652" y1="19.5838" x2="6.84501" y2="2.80088" gradientUnits="userSpaceOnUse">
<stop stop-color="#FFEA1B"/>
<stop offset="1" stop-color="#FAE47E"/>
</linearGradient>
</defs>
</svg>
