<svg width="447" height="203" viewBox="0 0 447 203" fill="none" xmlns="http://www.w3.org/2000/svg">
<g clip-path="url(#clip0_1308_15)">
<path d="M0.788539 185.461C0.873689 185.89 0.341499 186.5 0.628882 186.639C3.49206 187.209 3.91782 184.382 5.3228 183.114C5.87627 183.233 4.77996 184.172 5.63147 184.142C7.17482 184.492 8.19662 183.133 8.60109 181.935C9.98478 180.826 11.7197 180.057 12.6777 178.559C15.3812 177.91 16.073 175.383 18.7872 174.733C20.0964 177.131 22.4912 176.032 22.8531 173.415C23.6301 172.826 24.8648 172.656 25.2054 171.647C25.9185 171.657 25.844 172.416 26.4614 172.526C29.1968 170.468 31.0489 167.652 32.8796 164.885C38.276 156.705 44.9603 149.254 52.6132 142.841C51.4637 148.305 51.9533 153.948 51.0486 159.451C50.676 161.719 48.9411 165.005 51.3572 165.774C50.8357 172.876 48.3876 178.169 46.5037 183.992C46.5888 187.978 50.4206 176.342 46.7378 187.978C46.0353 190.175 45.3435 192.373 44.6516 194.58C43.7788 197.377 42.9273 200.183 42.1291 203.01H71.3037C73.4431 197.267 78.9672 183.972 82.9267 189.676C85.7367 193.721 88.1209 198.256 90.239 203.01H119.041C116.38 192.952 112.942 183.243 110.132 173.395C109.579 171.467 109.185 169.5 108.972 167.512C108.461 162.578 109.685 166.913 110.228 164.446C110.462 160.92 108.823 157.164 108.663 153.568C108.27 144.809 109.313 139.205 114.454 131.824C120.074 123.764 124.597 115.463 131.196 107.992C134.315 104.457 136.412 99.5323 138.296 95.3173C139.211 93.2697 140.116 91.2421 141.883 89.694C143.075 88.6552 145.385 87.2568 145.363 85.5289C145.331 82.7022 150.983 77.5383 152.633 75.1212C155.028 71.6453 157.678 68.3692 159.53 64.5836C163.894 55.6942 168.535 46.7847 171.292 37.3259C171.909 35.2283 172.76 33.4904 171.451 32.3318C171.302 32.2019 170.387 31.7724 170.355 31.5926C170.27 31.0932 172.782 28.786 173.335 27.917C174.272 26.4188 174.719 24.7807 175.368 23.3624C175.709 22.6233 176.23 22.0539 176.624 21.3048C176.986 20.6156 177.039 19.7966 177.412 18.9576C177.657 18.3982 178.253 17.9088 178.508 17.3395C178.753 16.8001 178.732 16.1509 178.976 15.5816C179.892 13.4641 182.308 11.1368 180.701 8.9694C178.583 10.8472 177.646 13.8436 175.847 16.0211C175.198 15.1421 176.177 14.0734 176.315 12.9347C176.379 12.4353 176.241 11.866 176.315 11.3166C176.88 7.41124 178.359 4.26496 176.784 0.589303C176.72 0.449469 176.709 0.0599291 176.315 0C174.889 0.529374 174.74 2.24734 173.963 3.37601C172.505 3.67565 171.1 5.53346 170.206 6.75202C168.141 9.5587 167.673 12.2255 165.821 15.5716C165.331 16.4605 164.969 17.2896 164.565 18.2185C163.585 20.5058 162 23.4423 161.276 26.1491C160.978 26.5087 160.456 25.9393 160.02 26.2989C156.028 30.1144 155.092 35.4481 152.814 40.7019C148.929 49.6912 143.043 60.2687 135.688 67.0108C131.952 70.4267 128.259 73.2934 124.32 76.4197C121.468 78.687 117.775 81.4537 115.55 84.2104C114.411 85.6188 113.506 87.0471 112.58 88.7651C111.974 88.4554 110.547 88.3256 109.919 87.8861C109.472 87.5765 108.876 86.2181 108.195 85.389C107.407 84.4302 106.45 83.9408 106.002 83.3315C105.758 83.0019 105.225 81.8133 105.215 81.7134C105.194 80.8344 106.215 80.0354 106.62 79.2163C106.801 78.8568 106.96 78.4772 107.12 78.0677C107.386 78.2675 107.567 78.5671 108.195 78.4373C108.312 77.9778 107.578 77.3086 108.004 76.5595C109.345 76.8092 110.994 76.7992 111.825 76.11C111.814 75.5207 111.197 75.5107 110.675 75.3909C110.59 74.7716 111.484 75.0812 111.441 74.4919C111.803 74.6717 112.548 74.7816 112.878 74.4919C112.378 73.4632 111.612 72.6941 110.771 71.9849C110.771 71.5354 110.654 71.3856 110.633 71.1059C110.675 70.9661 110.728 70.8163 110.76 70.6665C110.899 70.6265 110.931 70.9062 111.239 70.8163C111.271 70.5466 111.388 70.3568 111.527 70.187C111.835 70.6964 112.463 70.4068 113.059 70.5466C113.251 70.217 113.102 69.6177 113.251 69.4679C113.975 69.7475 114.166 70.5266 115.071 70.6365C114.518 69.4579 113.528 68.2893 113.155 67.2305C113.985 67.5401 114.369 68.7088 115.454 68.489C114.837 67.4003 113.772 66.4315 113.347 65.4426C113.783 65.2329 114.305 65.8821 114.784 65.6224C114.603 65.0131 114.06 64.7435 113.826 64.1841C113.826 63.8845 114.102 64.1542 114.305 63.9144V63.1953C114.965 63.2452 115.518 63.7346 116.21 63.465C115.539 61.9168 113.421 61.717 113.251 59.6994C113.613 59.4198 113.975 59.9092 114.305 59.6994C114.518 59.0302 113.623 58.7605 113.442 58.1712C113.953 58.0514 114.954 59.2799 115.539 58.5308C114.677 57.512 113.23 57.0525 112.964 55.4844C112.889 55.1748 113.315 55.3346 113.347 55.1248C113.325 54.0061 112.74 53.4268 112.389 52.6078C112.548 52.458 112.868 52.458 112.964 52.2482C111.942 50.6401 109.409 50.4304 108.089 49.1119C109.089 48.9222 111.899 50.0109 111.431 48.213C110.909 48.1431 111.026 48.6725 110.664 48.7524C109.696 48.7624 109.291 48.243 108.557 48.0332C109.334 47.5837 109.77 45.8358 109.132 44.8969C108.28 45.2765 109.345 47.1243 108.078 47.2242C107.29 47.1542 106.609 46.9845 106.354 46.4151C107.131 45.9557 108.333 45.4862 107.886 44.1678C107.78 44.0679 107.546 44.0679 107.312 44.0779C107.173 43.2489 107.024 42.4298 106.258 42.2001C105.992 42.5896 106.354 43.0391 106.354 43.4586C106.247 43.7782 106.024 43.988 105.683 44.0879C105.374 43.8681 105.481 43.2589 104.821 43.3687C104.64 43.5885 104.725 44.1178 104.821 44.3576C104.768 44.4874 104.683 44.5873 104.629 44.7171C102.99 45.7659 99.1479 44.0879 97.3704 45.4363C93.2512 44.8769 90.9202 46.5649 88.7702 48.1231C88.206 48.203 87.9719 47.9733 87.5248 47.9433C87.2268 48.3329 87.61 48.7224 87.7164 49.022C87.1204 49.9909 86.056 50.5103 84.7575 50.8199C84.832 51.0796 84.9065 51.3393 85.1406 51.4492C83.7144 53.3869 82.022 55.9139 82.4584 58.8005C81.8411 60.5384 82.8735 63.8445 81.692 65.2628C81.2556 65.4226 80.7767 65.5425 80.4467 65.8022C80.4254 65.952 80.5319 65.952 80.5425 66.0719C80.4467 66.3915 80.915 66.1917 81.1173 66.2517C81.0428 66.6013 81.1599 66.7211 81.0215 66.8809C81.0747 67.1306 81.394 67.1306 81.5963 67.2405C81.4472 67.7 81.2024 68.0595 80.7341 68.2293C79.7336 68.2793 79.6378 67.4702 79.0098 67.1506C78.9459 68.4091 79.8826 68.7287 81.0215 68.8586C81.0641 69.348 80.7128 69.4679 80.7341 69.9373C79.8613 70.1271 79.8932 69.4679 79.2014 69.4878C79.2333 70.1071 80.021 70.7464 81.1173 70.6565C81.2982 72.3445 80.5957 74.8615 81.9794 75.4108C81.9156 74.6817 81.7559 73.2234 82.3626 72.6341C82.9161 73.4931 82.5648 75.6705 83.7037 75.6805C83.6399 75.1911 83.4802 74.7616 83.6079 74.3321C84.0763 74.8115 84.5978 76.12 85.6196 75.5007C85.46 75.0113 84.6084 74.8415 85.0448 74.0624C85.3322 74.1423 85.5664 74.2722 85.7793 74.422C85.8325 74.8215 85.8963 75.2211 85.9602 75.6006C85.6302 76.0201 85.1193 76.2698 84.6617 76.5695C84.7042 76.7093 84.9597 76.6494 84.8533 76.929C85.4493 77.1188 85.8325 76.959 86.1518 76.6893C86.4711 78.4473 86.7798 80.2152 86.5563 82.4625C84.0017 82.5923 81.4259 82.8321 78.9566 83.4713C77.8603 83.761 74.3478 85.9684 74.1882 84.8097C69.7923 88.0459 64.8748 90.7327 61.1814 94.748C56.6365 99.6722 54.8697 106.754 52.2194 112.657C47.5787 122.985 40.0322 132.673 32.7093 141.423C30.4954 144.07 16.3285 161.789 19.8303 164.466C18.3934 166.403 16.4349 167.842 14.6681 169.46C12.9118 171.078 11.411 172.836 9.81448 174.604C8.22855 176.352 6.84486 178.289 5.10992 179.887C3.37498 181.495 1.37395 182.844 -0.0523215 184.732C-0.0736091 185.241 0.73532 184.971 0.73532 185.471L0.788539 185.461ZM83.4589 73.4032C83.2993 72.734 83.2354 72.0748 83.4909 71.6253C83.6292 71.7052 83.7676 71.7851 83.9166 71.8451C83.7995 72.4044 83.6399 72.9138 83.4483 73.4032H83.4589Z" fill="#3155FE"/>
<path d="M107.066 44.8771C107.066 44.7273 107.141 44.6474 107.258 44.6074C107.258 44.7572 107.183 44.8372 107.066 44.8771Z" fill="#3155FE"/>
<path d="M139.008 117.021C139.008 117.021 138.987 117.121 138.977 117.201C138.977 117.111 138.997 117.061 139.008 117.021Z" fill="#3155FE"/>
<path d="M131.74 121.067V121.087C131.74 121.067 131.729 121.057 131.719 121.037L131.697 120.997L131.729 121.067H131.74Z" fill="#3155FE"/>
<path d="M121.649 136.988C124.714 137.687 127.833 137.837 130.93 137.667C130.27 137.747 129.929 137.777 129.259 137.827C129.227 137.827 129.216 137.827 129.184 137.827H129.227C129.142 137.827 129.099 137.827 129.025 137.837C126.651 137.987 124.246 137.947 121.798 137.557C120.818 137.388 120.329 137.298 119.339 137.018C120.307 137.338 120.797 137.447 121.766 137.657C124.192 138.147 126.619 138.286 129.025 138.227C132.984 138.147 137.157 137.398 140.754 135.42C141.861 134.831 142.415 134.521 143.436 133.822C141.627 135.29 139.541 136.569 137.189 137.408C136.901 137.507 136.624 137.597 136.348 137.687C136.262 137.677 136.188 137.667 136.103 137.657C134.996 137.567 133.655 137.777 133.197 138.396C131.483 138.616 129.791 138.696 128.077 138.686C127.141 138.666 126.672 138.656 125.725 138.586C126.662 138.696 127.13 138.716 128.077 138.776C128.471 138.786 128.663 138.796 129.057 138.806C128.184 138.836 127.747 138.846 126.864 138.836C125.885 138.826 125.385 138.786 124.384 138.716C125.374 138.826 125.874 138.866 126.853 138.916C128.503 138.996 130.153 138.956 131.803 138.816C129.78 139.125 127.747 139.305 125.672 139.315C124.661 139.315 124.15 139.295 123.117 139.235C124.139 139.345 124.65 139.385 125.661 139.425C128.141 139.505 130.568 139.355 133.016 138.976C133.016 139.006 133.016 139.036 133.016 139.056C132.846 139.086 132.686 139.116 132.516 139.135C130.525 139.425 128.546 139.575 126.523 139.565C123.703 139.535 120.829 139.295 117.774 138.237C116.55 137.777 115.922 137.517 114.698 136.738C115.89 137.547 116.518 137.837 117.732 138.346C120.754 139.505 123.66 139.845 126.502 139.965C128.844 140.024 131.09 139.965 133.431 139.595C133.463 139.635 133.484 139.665 133.516 139.705C131.26 140.134 129.057 140.334 126.779 140.374C125.746 140.384 125.225 140.374 124.171 140.324C125.214 140.404 125.736 140.444 126.768 140.454C129.099 140.484 131.377 140.344 133.729 139.945C133.836 140.064 133.963 140.184 134.091 140.314C132.654 140.594 131.207 140.754 129.823 140.863C128.822 140.933 128.333 140.953 127.322 140.983C128.322 140.993 128.822 140.983 129.823 140.953C131.302 140.873 132.75 140.754 134.272 140.494C134.304 140.524 134.336 140.544 134.357 140.574C133.272 140.823 132.42 140.963 131.068 141.163C130.025 141.313 128.439 141.443 128.439 141.443C128.439 141.443 130.015 141.363 131.068 141.243C132.207 141.113 133.335 140.943 134.517 140.704C134.581 140.754 134.634 140.794 134.698 140.843C132.92 141.253 131.281 141.443 129.546 141.613C126.704 141.842 123.841 141.842 120.744 141.363C119.488 141.143 118.86 141.023 117.529 140.634C118.839 141.063 119.467 141.203 120.712 141.473C123.799 142.052 126.683 142.142 129.557 142.002C131.228 141.912 132.899 141.732 134.634 141.413C134.9 141.363 135.156 141.313 135.422 141.253C135.517 141.293 135.613 141.323 135.72 141.343C135.049 141.523 134.4 141.663 133.761 141.802C132.452 142.062 131.164 142.252 129.876 142.382C128.844 142.482 128.322 142.521 127.268 142.571C128.322 142.551 128.833 142.531 129.876 142.462C131.175 142.362 132.463 142.222 133.793 141.992C134.464 141.872 135.134 141.742 135.837 141.573C135.975 141.543 136.113 141.503 136.262 141.463C136.827 141.563 137.455 141.593 138.083 141.633L137.923 141.692H137.891V141.702C137.987 141.672 138.061 141.653 138.115 141.633C138.115 141.633 138.125 141.633 138.136 141.633H138.115L137.955 141.692L137.646 141.802C137.231 141.952 136.859 142.072 136.475 142.182C135.741 142.402 135.038 142.581 134.357 142.741C133.261 143.001 131.664 143.271 131.664 143.261C131.664 143.261 133.261 143.041 134.368 142.811C135.049 142.671 135.762 142.502 136.507 142.302C136.89 142.192 137.263 142.082 137.689 141.942L138.008 141.832L138.168 141.772L138.253 141.742H138.274C138.593 141.643 137.838 141.862 137.923 141.842L137.955 141.832L138.487 141.643C139.264 141.682 140.009 141.752 140.605 141.952C141.361 142.212 142.127 142.601 142.67 143.171C142.468 143.121 142.255 143.061 142.01 142.981C142.266 143.081 142.5 143.161 142.723 143.221C143.213 143.75 143.5 144.429 143.404 145.288C143.277 146.347 141.808 147.206 140.861 148.145C138.923 150.093 137.359 151.411 135.017 153.029C133.378 154.158 131.835 154.827 132.228 156.725C134.868 156.845 136.167 154.707 138.317 153.988C138.583 154.228 138.029 154.987 138.7 155.057C140.02 155.027 140.882 154.567 142.127 154.457C142.329 154.757 141.659 155.796 142 156.245C146.034 155.946 149.152 154.777 151.387 152.789C151.749 154.367 150.876 158.413 152.782 158.393C154.474 158.373 153.729 154.567 154.176 152.909C154.485 151.791 155.4 151.081 155.826 150.292C158.135 151.701 158.976 155.167 161.542 157.204C162.457 157.933 163.777 158.563 164.841 159.352C166.491 160.57 167.64 162.278 170.301 162.208C172.228 162.158 173.345 161.09 174.995 160.54C177.507 158.123 178.061 153.888 179.689 150.652C181.009 152.5 181.914 154.238 182.989 156.485C183.564 157.694 184.458 159.032 184.383 160.89C184.33 162.358 183.329 164.695 182.989 166.723C182.073 172.116 179.168 175.682 176.89 180.467C176.528 181.216 176.092 182.135 177.124 182.604C178.635 183.283 177.135 184.602 176.581 185.621C175.112 188.277 173.867 190.874 173.931 193.931C173.995 196.947 174.825 200.023 175.762 202.99H227.49C223.776 198.595 219.508 194.61 214.973 190.914C219.327 189.796 216.634 172.146 215.484 167.971C213.185 159.551 220.572 143.78 214.718 136.828C212.068 133.622 207.65 131.435 203.425 129.567C207.544 127.959 211.865 126.64 216.123 125.162C220.136 123.764 223.861 121.606 227.427 119.449C232.408 116.422 237.208 112.467 242.786 109.441C244.286 108.632 247.501 107.453 248.118 106.344C248.81 105.106 248.374 103.418 248.118 101.939C249.896 101.66 250.843 100.601 252.056 99.792C252.759 97.7344 253.983 95.7568 255.484 94.0788C256.112 93.3796 259.72 91.5418 258.4 89.7938C257.431 88.5054 254.93 90.6628 254.462 91.2221C253.994 91.7815 250.343 96.4859 250.396 92.4107C250.396 91.7815 250.886 91.0423 250.907 90.3831C250.928 89.3444 250.183 86.8273 250.524 85.2592C250.811 83.9507 252.418 83.2416 252.429 82.043C252.44 80.6946 251.066 80.3849 250.651 79.1864C250.545 79.2463 250.534 78.9267 250.268 79.3062C249.449 80.4649 249.64 81.4137 249.119 82.4026C248.161 84.2504 246.032 85.1693 245.053 86.8074C244.435 87.8461 244.542 89.0847 243.658 90.1434C243.052 89.0048 242.903 86.8074 241.37 86.9272C240.753 87.3367 241.125 88.1957 241.242 88.7151C241.391 89.3643 241.444 90.0735 241.625 90.7427C241.817 91.4419 242.424 92.0711 242.509 92.7703C242.615 93.5694 242.339 94.688 242.126 95.7468C241.966 96.5458 241.977 97.8643 241.615 98.4836C241.327 98.973 239.337 99.9318 238.315 100.511C234.845 102.449 231.354 104.247 227.778 105.755C225.223 106.834 222.616 107.783 220.412 108.971C218.284 110.12 216.389 112.117 214.196 113.256C211.067 114.884 206.267 115.124 201.754 115.404C197.071 115.693 192.919 116.582 189.694 117.791C189.343 117.122 188.587 115.903 188.939 114.934C189.109 114.435 189.737 114.415 190.078 114.095C191.195 113.066 190.801 111.958 190.588 110.28C190.088 106.364 190.535 102.049 189.194 98.8431C188.928 98.2039 188.236 97.6645 188.055 97.0552C187.853 96.426 188.066 95.7368 187.927 95.2674C187.832 94.9377 187.608 94.5182 187.331 94.0688C187.747 94.3285 188.204 94.5682 188.683 94.748C189.056 94.8978 189.258 94.9377 189.641 95.0476C189.258 94.9178 189.066 94.8678 188.704 94.698C188.108 94.4383 187.566 94.0987 187.108 93.7292C186.725 93.1499 186.278 92.5506 185.895 92.0611C185.703 91.8214 185.511 91.5717 185.32 91.332C185.841 91.8314 186.373 92.3708 187.001 92.8602C187.268 93.06 187.406 93.1598 187.693 93.3396C187.417 93.1399 187.289 93.03 187.044 92.8202C186.437 92.2809 185.937 91.7016 185.447 91.1522C184.681 90.2832 183.893 89.4143 183.021 88.6751C183.234 88.825 183.457 88.9648 183.681 89.1146C184.756 89.9636 185.767 90.9525 186.831 91.8614C187.406 92.3408 188.045 92.7903 188.758 93.0999C189.034 93.2298 189.194 93.2597 189.492 93.3596C189.205 93.2398 189.056 93.1998 188.79 93.05C188.108 92.7004 187.523 92.221 187.001 91.7016C186.501 91.2121 186.033 90.6928 185.554 90.1934C186.672 91.1522 187.757 92.211 189.077 92.6904C189.811 92.9701 190.61 93.07 191.408 93.04C191.727 93.03 191.898 93.01 192.217 92.99C191.898 92.99 191.727 92.99 191.408 92.9701C190.61 92.9301 189.854 92.7703 189.194 92.4507C188.417 92.0911 187.757 91.5018 187.087 90.8426C187.225 90.9624 187.374 91.0723 187.523 91.1822C188.087 91.6117 188.662 91.9613 189.247 92.171C189.471 92.2709 189.609 92.2709 189.843 92.3408C189.62 92.2509 189.492 92.2309 189.269 92.1111C188.726 91.8614 188.215 91.4918 187.704 91.0424C188.183 91.1822 188.673 91.302 189.194 91.3919C189.992 91.5218 190.865 91.5717 191.727 91.4718C192.079 91.4319 192.249 91.4019 192.589 91.332C192.249 91.382 192.068 91.4019 191.727 91.4219C190.865 91.4718 190.014 91.3819 189.237 91.2022C189.12 91.1722 189.013 91.1422 188.896 91.1123C188.875 91.0923 188.843 91.0823 188.822 91.0623C188.545 90.8825 188.268 90.6628 187.981 90.4231C188.492 90.5629 189.024 90.6728 189.567 90.7327C189.875 90.7627 190.024 90.7727 190.333 90.7827C190.024 90.7527 189.875 90.7327 189.577 90.6828C188.917 90.5629 188.279 90.3831 187.683 90.1534C187.555 90.0335 187.417 89.9137 187.278 89.7938C187.193 89.7239 187.119 89.644 187.033 89.5741C187.64 89.7838 188.268 89.9437 188.907 90.0435C189.599 90.1534 190.322 90.2033 191.025 90.1334C191.312 90.1035 191.451 90.0835 191.727 90.0335C191.451 90.0635 191.302 90.0735 191.025 90.0835C190.322 90.1035 189.62 90.0136 188.949 89.8538C188.321 89.7039 187.704 89.4842 187.108 89.2345C188.396 89.644 189.769 89.8637 191.067 89.674C191.791 89.5741 192.494 89.3543 193.122 89.0247C193.377 88.8949 193.494 88.815 193.728 88.6652C193.473 88.795 193.356 88.8649 193.09 88.9648C192.44 89.2345 191.749 89.4043 191.046 89.4343C190.227 89.4842 189.386 89.3543 188.577 89.1346C188.747 89.1646 188.917 89.1845 189.088 89.2045C189.716 89.2645 190.354 89.2844 190.95 89.1845C191.195 89.1546 191.302 89.1246 191.536 89.0647C191.302 89.0947 191.184 89.1146 190.94 89.1346C190.344 89.1845 189.726 89.1346 189.12 89.0148C187.64 88.7251 186.203 88.0659 184.809 87.3068C185.937 87.8062 187.097 88.2257 188.226 88.4254C188.832 88.5353 189.428 88.5952 189.992 88.5653C190.216 88.5653 190.333 88.5453 190.546 88.5153C190.333 88.5153 190.227 88.5253 190.003 88.5153C189.45 88.4954 188.875 88.3955 188.289 88.2457C186.352 87.7263 184.532 86.6775 182.489 85.5788C180.307 84.4601 177.816 84.0007 175.453 84.0906C174.963 84.1006 174.463 84.1405 173.995 84.2004C173.005 83.9707 172.015 83.9807 171.185 84.0306C169.588 84.1605 168.173 84.5301 166.8 84.9496C166.619 84.9995 166.448 85.0494 166.31 85.0994C164.394 85.6887 162.574 86.4278 160.796 87.2568C160.041 87.6164 159.285 87.986 158.54 88.3855C157.742 88.8449 157.146 89.1046 156.156 89.8538C154.666 90.9824 153.356 92.3908 152.303 93.899C150.195 96.9354 149.163 100.172 148.12 102.958C147.013 105.805 146.129 108.801 145.054 111.189C144.001 113.626 142.606 115.663 141.276 116.472C140.531 116.952 139.594 117.161 139.147 117.052C139.051 117.032 138.987 117.022 138.955 116.992C138.945 116.982 138.913 116.982 138.913 116.962C138.913 116.942 138.913 116.922 138.892 117.022C138.913 116.922 138.913 116.962 138.913 116.982C138.913 117.012 138.945 117.012 138.955 117.032C138.987 117.072 139.062 117.092 139.158 117.122C139.637 117.291 140.637 117.132 141.467 116.662C142.627 116.033 143.873 114.585 144.863 112.757C145.874 110.929 146.693 108.791 147.502 106.504C146.555 109.53 145.597 112.377 144.224 114.565C143.447 115.823 142.542 116.792 141.638 117.351C141.276 117.601 140.712 117.821 140.712 117.821C140.712 117.821 141.297 117.631 141.68 117.401C142.627 116.872 143.607 115.923 144.437 114.664C145.938 112.427 146.991 109.501 148.035 106.414C147.694 107.523 147.534 108.062 147.183 109.121H147.226C146.236 112.287 144.98 115.284 143.192 117.102C143.043 117.261 142.957 117.321 142.808 117.471C142.095 118.04 141.372 118.42 140.584 118.64C140.126 118.78 139.998 118.78 139.594 118.81C140.009 118.81 140.137 118.81 140.616 118.71C140.807 118.68 140.893 118.63 141.084 118.59C140.712 118.74 140.446 118.839 140.116 118.919C139.711 119.009 139.488 119.029 139.104 119.029C139.488 119.059 139.722 119.049 140.137 118.989C141.244 118.78 142.372 118.25 143.351 117.331C143.532 117.171 143.628 117.102 143.798 116.922C144.341 116.382 144.597 116.073 145.086 115.414C143.841 117.601 142.127 119.069 140.147 119.549C139.381 119.718 138.934 119.728 138.338 119.649C138.157 119.599 138.093 119.559 137.987 119.499C137.806 119.379 137.806 119.339 137.795 119.269C137.774 119.339 137.774 119.409 137.848 119.489C137.71 119.409 137.699 119.399 137.636 119.329C137.636 119.289 137.593 119.279 137.582 119.239L137.561 119.179V119.149L137.54 119.139C137.54 119.139 137.54 119.129 137.54 119.139C137.54 119.119 137.508 119.059 137.455 118.899C137.455 118.899 137.412 118.78 137.401 118.69C137.401 118.79 137.401 118.869 137.401 118.919C137.465 119.089 137.487 119.149 137.487 119.159V119.199V119.269C137.487 119.269 137.529 119.329 137.529 119.379C137.529 119.549 137.987 119.928 139.019 119.968C139.913 120.048 140.36 120.028 141.372 119.748C141.638 119.669 141.776 119.619 142.042 119.519C141.457 119.848 141.095 119.988 140.477 120.188C139.945 120.338 139.658 120.378 139.126 120.418C139.658 120.418 139.956 120.378 140.499 120.258C141.606 119.988 142.67 119.439 143.585 118.68C144.66 117.931 145.618 116.862 146.438 115.643C146.151 116.153 146.002 116.412 145.672 116.892C144.767 118.21 143.671 119.309 142.34 120.008C141.808 120.298 141.521 120.398 140.956 120.597C141.542 120.418 141.84 120.338 142.383 120.068C143.479 119.529 144.469 118.74 145.32 117.761C144.927 118.29 144.703 118.54 144.256 119.009C143.383 119.778 142.372 120.378 141.276 120.737C140.658 120.937 140.36 120.997 139.732 121.067C140.36 121.027 140.669 120.987 141.308 120.817C141.776 120.677 142.01 120.597 142.457 120.408C142.266 120.527 141.797 120.757 141.797 120.757C141.797 120.757 142.542 120.438 142.883 120.208C143.671 119.788 144.043 119.529 144.746 118.939C143.947 119.738 143.5 120.088 142.521 120.647C140.946 121.526 138.977 121.906 137.369 121.436C136.763 121.227 136.475 121.087 136.06 120.667C136.443 121.107 136.72 121.277 137.338 121.526C138.966 122.086 141.02 121.786 142.702 120.937C144.703 119.968 146.257 118.24 147.385 116.302C147.13 116.792 146.991 117.032 146.704 117.501C146.108 118.42 145.767 118.859 145.001 119.649C144.416 120.198 144.096 120.438 143.415 120.877C141.872 121.836 139.998 122.405 138.178 122.206C137.465 122.116 137.103 122.016 136.475 121.716C137.082 122.056 137.444 122.166 138.168 122.305C140.009 122.595 141.978 122.096 143.617 121.167C145.182 120.288 146.459 118.989 147.449 117.521C147.151 118.01 146.991 118.25 146.651 118.72C146.332 119.109 146.161 119.289 145.81 119.649C144.469 120.987 142.734 121.986 140.839 122.385C140.084 122.535 139.69 122.575 138.913 122.565C139.69 122.605 140.084 122.575 140.85 122.465C142.149 122.206 142.777 121.956 143.947 121.347C142.223 122.515 140.062 123.254 137.816 122.995C136.667 122.855 135.432 122.365 134.655 121.386C133.921 120.408 133.506 119.329 133.623 118.04C133.772 117.112 134.144 116.213 135.571 115.913C134.134 116.153 133.697 117.072 133.495 118.02C133.389 118.67 133.442 119.289 133.623 119.898C133.772 120.378 134.027 121.057 134.41 121.556C135.198 122.645 136.518 123.234 137.742 123.424C140.669 123.874 143.511 122.795 145.597 121.077C145.161 121.466 144.937 121.656 144.448 122.006L144.394 122.046L144.426 122.026C144.362 122.066 144.341 122.086 144.277 122.126C142.521 123.294 140.339 124.093 137.944 123.913C136.986 123.814 136.475 123.714 135.507 123.274C136.454 123.754 136.965 123.874 137.934 124.003C140.35 124.273 142.617 123.554 144.469 122.405C147.619 120.428 149.312 117.301 150.429 114.355C150.813 113.436 150.983 112.976 151.302 112.048C150.866 113.835 150.323 115.653 149.482 117.441C149.003 118.32 148.748 118.76 148.13 119.609C147.917 119.878 147.822 120.018 147.598 120.288C146.608 121.416 145.363 122.435 143.926 123.154C143.128 123.544 142.734 123.704 141.861 123.973C142.745 123.744 143.149 123.584 143.969 123.224C144.299 123.064 144.469 122.985 144.788 122.795C144.096 123.234 143.724 123.424 142.968 123.764C142.117 124.113 141.616 124.273 140.669 124.463C141.627 124.303 142.127 124.163 143 123.834C144.16 123.384 145.246 122.745 146.183 121.986C146.033 122.146 145.884 122.305 145.735 122.465C144.682 123.334 143.447 124.063 142.074 124.563C141.105 124.892 140.605 125.012 139.562 125.152C140.616 125.052 141.116 124.942 142.106 124.643C143.138 124.313 144.107 123.844 144.99 123.274L144.969 123.294V123.304C144.98 123.284 144.895 123.404 144.852 123.454L144.799 123.514C144.235 123.874 143.617 124.183 142.968 124.453C141.67 124.992 140.222 125.332 138.689 125.332C137.178 125.342 135.379 125.012 133.772 123.844C133.155 123.364 132.75 122.915 132.409 122.445C132.25 122.206 132.09 121.966 131.941 121.696C131.877 121.566 131.813 121.426 131.75 121.277L131.654 121.047L131.601 120.927V120.897H131.59C131.59 120.907 131.59 120.917 131.59 120.907C131.601 120.937 131.622 120.997 131.664 121.107L131.643 121.057L131.601 120.937V120.917C131.601 120.917 131.622 120.997 131.654 121.077V121.097L131.675 121.117L131.739 121.287C131.803 121.436 131.867 121.576 131.92 121.716C132.058 121.986 132.218 122.235 132.367 122.485C132.697 122.965 133.091 123.424 133.708 123.933C135.305 125.162 137.135 125.542 138.679 125.572C140.243 125.611 141.744 125.302 143.096 124.792C143.404 124.683 143.703 124.553 143.99 124.423C143.82 124.603 143.649 124.782 143.479 124.952C143.436 124.992 143.394 125.032 143.351 125.082C142.51 125.442 141.946 125.621 140.935 125.851C141.893 125.661 142.447 125.502 143.224 125.202C142.745 125.661 142.266 126.101 141.776 126.52C141.574 126.69 141.361 126.85 141.159 127.02C139.998 127.26 138.742 127.349 137.401 127.24C135.879 127.05 134.996 126.87 133.325 125.991C134.975 126.9 135.847 127.1 137.38 127.329C138.604 127.459 139.754 127.419 140.85 127.25C139.988 127.909 139.104 128.478 138.21 128.928C137.008 129.557 135.794 129.966 134.591 130.186L134.368 130.236C134.24 130.276 133.995 130.346 134.038 130.326H134.017H133.974H133.9C133.814 130.346 133.655 130.366 133.538 130.386C133.261 130.426 132.931 130.456 132.601 130.476C131.92 130.526 131.164 130.546 130.419 130.536C128.578 130.506 126.672 130.306 125.033 129.936C124.373 129.787 124.065 129.697 123.49 129.507C124.054 129.737 124.363 129.836 125.023 130.026C126.672 130.486 128.578 130.765 130.451 130.855C134.836 131.225 138.806 129.986 142.457 126.9C142.478 126.9 142.5 126.9 142.521 126.88C140.275 128.938 137.795 130.416 135.273 131.045L134.975 131.115L134.826 131.155L134.751 131.175H134.708L134.687 131.185C134.666 131.185 134.655 131.195 134.666 131.185C134.623 131.195 134.549 131.215 134.421 131.255C134.272 131.285 134.134 131.315 133.942 131.345C133.58 131.415 133.155 131.465 132.707 131.514C131.813 131.604 130.845 131.644 129.887 131.644C129.11 131.644 127.95 131.584 127.95 131.574C127.95 131.574 129.11 131.694 129.887 131.714C130.855 131.754 131.824 131.744 132.739 131.684C133.186 131.654 133.633 131.614 134.006 131.564C134.208 131.544 134.347 131.514 134.506 131.495C134.506 131.495 134.677 131.445 134.762 131.415H134.772H134.794H134.836L134.911 131.395L135.06 131.365L135.368 131.305C138.264 130.695 141.148 128.958 143.681 126.56C142.808 127.429 142.351 127.839 141.425 128.588L141.457 128.618C140.052 129.737 138.572 130.656 137.018 131.275C136.635 131.435 136.241 131.564 135.847 131.694C135.656 131.764 135.454 131.804 135.251 131.864L134.953 131.944H134.911L134.889 131.964C134.858 131.974 134.794 131.994 134.687 132.024H134.677H134.613L134.496 132.074C133.836 132.244 132.91 132.383 132.016 132.463C131.707 132.493 131.547 132.503 131.228 132.533C129.844 132.573 128.429 132.533 127.056 132.373C126.3 132.294 125.927 132.244 125.204 132.124C125.927 132.274 126.3 132.354 127.056 132.463C127.375 132.513 127.524 132.533 127.843 132.563C127.13 132.533 126.779 132.503 126.087 132.443C125.31 132.364 124.927 132.314 124.182 132.174C124.916 132.344 125.299 132.403 126.076 132.523C127.982 132.793 130.015 132.873 131.952 132.773C132.292 132.773 132.463 132.763 132.793 132.743C133.304 132.713 133.676 132.683 134.027 132.643C134.208 132.623 134.357 132.593 134.549 132.573L134.794 132.533H134.858L134.889 132.513C134.868 132.513 134.783 132.543 135.07 132.463H135.081H135.102L135.273 132.433C132.431 133.302 128.961 133.412 125.757 133.173C124.448 133.043 123.788 132.953 122.585 132.683C122.202 132.573 122.032 132.503 121.67 132.383C121.021 132.124 120.691 131.994 120.169 131.694C120.552 131.954 120.84 132.114 121.233 132.304C120.627 132.094 120.35 131.974 119.85 131.724C119.275 131.425 119.041 131.255 118.711 130.935C119.009 131.285 119.232 131.475 119.797 131.824C120.829 132.443 122.287 132.943 123.831 133.252C125.204 133.612 125.927 133.752 127.396 133.962C127.801 134.002 128.003 134.042 128.407 134.071C127.407 134.071 126.907 134.071 125.917 134.002C125.087 133.942 124.671 133.912 123.862 133.802C124.671 133.952 125.076 134.002 125.906 134.091C127.545 134.251 129.227 134.291 130.887 134.201C132.771 134.211 134.368 134.131 136.188 133.682C135.805 133.792 135.698 133.822 135.251 133.952C135.028 134.022 134.783 134.081 134.453 134.161C132.558 134.561 130.451 134.721 128.397 134.721C127.567 134.721 127.162 134.701 126.342 134.651C127.162 134.731 127.577 134.771 128.397 134.801C130.068 134.871 131.75 134.811 133.378 134.621C132.548 134.781 132.122 134.841 131.271 134.95C129.727 135.05 128.173 135.04 126.641 134.93C125.778 134.861 125.342 134.821 124.501 134.701C125.342 134.861 125.778 134.92 126.641 135.03C127.279 135.1 127.598 135.13 128.237 135.17C127.939 135.17 127.247 135.19 127.247 135.19C127.247 135.19 128.322 135.21 128.865 135.2C130.047 135.25 130.643 135.25 131.813 135.2C130.366 135.36 129.621 135.4 128.152 135.43C125.789 135.45 123.405 135.26 121.191 134.691C120.307 134.461 119.871 134.321 119.062 133.972C119.85 134.361 120.286 134.521 121.159 134.801C123.362 135.47 125.757 135.759 128.152 135.829C130.951 135.879 133.772 135.73 136.412 134.91C135.773 135.12 135.4 135.26 134.783 135.42C133.484 135.73 132.803 135.839 131.441 136.019C130.451 136.109 129.951 136.139 128.95 136.169C126.694 136.229 124.427 136.089 122.234 135.66C121.361 135.47 120.914 135.38 120.073 135.1C120.903 135.42 121.34 135.54 122.202 135.769C124.384 136.299 126.672 136.539 128.95 136.569C131.1 136.588 133.272 136.469 135.39 135.999C134.708 136.189 134.368 136.259 133.676 136.409C133.069 136.489 132.771 136.529 132.165 136.589C129.876 136.788 127.577 136.768 125.299 136.529C124.395 136.429 123.937 136.359 123.043 136.199C123.937 136.399 124.384 136.479 125.299 136.618C126.832 136.828 127.609 136.888 129.174 136.948C126.704 137.078 124.203 137.008 121.734 136.549C119.2 136.049 116.433 135.2 114.656 132.913C114.006 131.984 113.762 131.435 113.527 130.336C113.698 131.445 113.921 132.014 114.528 132.993C116.231 135.41 119.041 136.429 121.606 137.058L121.649 136.988ZM187.47 90.2233C187.544 90.2433 187.619 90.2733 187.693 90.2932C188.076 90.5829 188.438 90.8426 188.79 91.0424C188.236 90.8825 187.704 90.6828 187.204 90.463C187.023 90.2832 186.831 90.1035 186.64 89.9237C186.916 90.0335 187.193 90.1334 187.47 90.2233ZM186.395 89.2844C186.661 89.4842 186.916 89.684 187.172 89.8937C186.767 89.7239 186.384 89.5341 186.012 89.3244C185.873 89.1945 185.724 89.0647 185.586 88.9348C185.852 89.0547 186.118 89.1746 186.395 89.2844ZM175.549 84.2204C175.836 84.2204 176.124 84.2504 176.422 84.2704H176.219C175.634 84.2404 175.048 84.2504 174.484 84.2903C174.421 84.2704 174.357 84.2504 174.303 84.2404C174.719 84.2204 175.134 84.2104 175.549 84.2204ZM165.895 141.862C166.214 140.194 166.47 138.516 166.555 136.808C166.597 137.368 166.597 137.637 166.629 138.197C166.587 138.676 166.565 138.916 166.523 139.385C166.395 140.494 166.235 141.603 166.033 142.701C165.937 142.651 165.852 142.601 165.756 142.551C165.799 142.322 165.852 142.092 165.895 141.862ZM165.192 135.789C165.235 136.329 165.267 136.678 165.299 137.148C165.352 138.207 165.363 138.746 165.341 139.825C165.331 140.054 165.32 140.254 165.299 140.444C165.16 140.184 165.043 139.935 164.916 139.645C165.075 138.366 165.171 137.098 165.182 135.789H165.192ZM164.905 139.775C165.033 140.034 165.16 140.254 165.299 140.504C165.267 140.903 165.235 141.253 165.192 141.782C165.192 141.902 165.16 142.032 165.15 142.152C164.969 142.022 164.788 141.872 164.607 141.722C164.713 141.073 164.82 140.414 164.894 139.775H164.905ZM164.011 139.375C163.979 140.064 163.947 140.544 163.915 141.073C163.841 140.993 163.766 140.913 163.692 140.833C163.809 140.374 163.894 139.974 164.022 139.375H164.011ZM163.404 138.057C163.404 138.726 163.436 139.046 163.425 139.725C163.394 139.965 163.362 140.194 163.33 140.434C163.245 140.344 163.159 140.244 163.074 140.144C163.202 139.445 163.319 138.746 163.404 138.057ZM162.563 137.797C162.638 137.487 162.723 137.038 162.787 136.838L162.968 135.63C162.968 136.229 162.978 136.738 162.968 137.128C162.946 138.017 162.893 138.916 162.797 139.825C162.606 139.595 162.404 139.365 162.212 139.135C162.34 138.686 162.457 138.237 162.563 137.787V137.797ZM158.167 134.411C157.976 134.99 157.752 135.56 157.486 136.129C157.454 136.129 157.412 136.129 157.38 136.119C157.71 135.42 157.986 134.721 158.21 134.002C158.199 134.141 158.178 134.271 158.167 134.411ZM159.423 136.678C159.423 136.678 159.423 136.708 159.423 136.718C159.37 136.688 159.306 136.658 159.242 136.628C159.306 136.479 159.37 136.329 159.445 136.169C159.445 136.339 159.434 136.509 159.423 136.678ZM159.445 136.029C159.37 136.229 159.285 136.429 159.211 136.618C159.104 136.569 158.998 136.519 158.881 136.479C158.912 136.409 158.955 136.329 158.987 136.249C159.157 135.879 159.317 135.5 159.466 135.13C159.455 135.43 159.445 135.73 159.434 136.019L159.445 136.029ZM159.53 133.922C159.519 134.191 159.509 134.451 159.498 134.721C159.328 135.22 159.136 135.72 158.923 136.219C158.891 136.299 158.849 136.379 158.817 136.449C158.7 136.409 158.583 136.369 158.465 136.329L158.508 136.039C158.987 134.97 159.349 133.892 159.615 132.823C159.583 133.193 159.562 133.552 159.54 133.912L159.53 133.922ZM159.743 130.226C159.658 130.925 159.636 131.265 159.509 131.974C159.306 133.103 159.019 134.241 158.593 135.38C158.636 135.05 158.678 134.721 158.732 134.391C159.232 133.003 159.54 131.604 159.743 130.236V130.226ZM157.667 133.183C157.965 131.634 158.306 130.106 158.678 128.578C158.678 128.778 158.668 128.968 158.657 129.167C158.54 130.186 158.487 130.695 158.274 131.714C158.21 132.044 158.178 132.214 158.082 132.553C157.901 133.203 157.678 133.852 157.412 134.481C157.486 134.042 157.571 133.612 157.667 133.173V133.183ZM157.241 135.5C157.508 134.95 157.742 134.391 157.955 133.822C157.742 134.581 157.486 135.35 157.156 136.099C157.156 136.099 157.146 136.099 157.135 136.099C157.167 135.899 157.199 135.7 157.231 135.5H157.241ZM140.956 138.596C140.871 138.636 140.775 138.686 140.69 138.726C140.616 138.726 140.552 138.726 140.477 138.716C141.063 138.436 141.584 138.147 142.329 137.737C143.149 137.278 143.543 137.028 144.309 136.529C143.266 137.288 142.149 137.987 140.956 138.606V138.596ZM154.336 136.718C154.208 136.778 154.08 136.838 153.963 136.908C154.421 136.379 154.761 135.879 155.23 135.12C154.985 135.68 154.676 136.209 154.336 136.718ZM156.464 134.461C156.337 134.801 156.241 135.07 156.049 135.48C156.039 135.51 156.028 135.52 156.017 135.54L156.039 135.5C156.007 135.57 155.996 135.6 155.964 135.66C155.879 135.849 155.783 136.039 155.687 136.219C155.624 136.239 155.549 136.249 155.485 136.269C155.868 135.67 156.198 135.04 156.464 134.391C156.464 134.411 156.464 134.421 156.464 134.441V134.461ZM156.688 129.986C156.603 130.576 156.56 130.875 156.432 131.465C156.315 131.964 156.209 132.204 156.071 132.703C155.517 134.271 154.761 135.789 153.676 137.078C153.527 137.158 153.388 137.238 153.239 137.318C153.218 137.328 153.197 137.338 153.186 137.358C153.825 136.678 154.378 135.949 154.825 135.14C155.751 133.552 156.337 131.794 156.688 129.996V129.986ZM156.124 128.808C156.06 129.387 156.049 129.677 155.954 130.256C155.773 131.395 155.655 131.964 155.304 133.053C155.028 133.842 154.857 134.221 154.485 134.97C153.846 136.269 152.899 137.398 151.802 138.426C151.504 138.646 151.228 138.816 150.962 138.866C150.855 138.886 150.717 138.866 150.578 138.856C151.877 137.867 153.058 136.718 153.867 135.41C155.123 133.452 155.794 131.165 156.124 128.818V128.808ZM154.964 128.498C154.878 129.127 154.847 129.447 154.719 130.056C154.4 131.744 153.857 133.342 153.037 134.751C152.686 135.33 152.548 135.56 152.122 136.059C152.569 135.58 152.728 135.35 153.101 134.791C153.835 133.672 154.357 132.413 154.74 131.085C154.591 131.784 154.517 132.124 154.293 132.793C153.846 133.962 153.207 135.09 152.473 136.009C152.026 136.539 151.771 136.798 151.238 137.298C151.792 136.828 152.069 136.569 152.548 136.059C152.888 135.68 153.026 135.5 153.335 135.06C153.229 135.26 152.984 135.69 152.952 135.739C152.995 135.69 153.431 135.01 153.623 134.641C154.123 133.832 154.336 133.392 154.719 132.493C154.346 133.642 154.101 134.191 153.516 135.24C152.771 136.559 151.621 137.767 150.355 138.816C149.674 138.656 148.748 138.257 148.024 138.267C147.971 138.267 147.907 138.267 147.854 138.267C148.514 137.887 149.163 137.437 149.769 136.948C150.749 136.249 151.26 135.829 151.983 135.05C152.175 134.841 152.271 134.691 152.462 134.441C152.069 135.13 151.909 135.36 151.398 135.969C150.962 136.469 150.717 136.718 150.206 137.198C150.738 136.748 150.994 136.499 151.462 136.019C152.335 135.1 152.984 134.012 153.505 132.773C154.155 131.475 154.634 130.016 154.953 128.478L154.964 128.498ZM150.685 134.551C150.845 134.391 150.876 134.371 151.036 134.171C150.781 134.551 150.642 134.701 150.28 135.09C149.865 135.52 149.631 135.74 149.152 136.149C149.652 135.759 149.908 135.55 150.344 135.14C151.292 134.271 152.079 132.973 152.633 131.544C152.739 131.285 152.803 131.165 152.899 130.905C153.133 130.266 153.261 129.866 153.41 129.307C153.431 129.277 153.452 129.237 153.484 129.207C153.09 131.764 152.207 134.061 150.706 135.66C149.982 136.429 149.557 136.808 148.694 137.487C148.396 137.677 148.247 137.777 147.949 137.947C147.577 138.157 147.332 138.296 147.045 138.426C146.555 138.546 146.044 138.696 145.512 138.746C145.129 138.776 144.714 138.796 144.288 138.816C146.885 137.108 148.992 135.07 150.759 132.943C150.536 133.322 150.28 133.672 150.28 133.662C150.28 133.662 150.738 133.113 151.015 132.633C151.43 132.124 151.824 131.614 152.196 131.105C152.367 130.855 152.537 130.606 152.707 130.356C152.622 130.705 152.516 131.055 152.409 131.385C152.335 131.624 152.292 131.744 152.207 131.964C151.792 132.923 151.206 133.862 150.642 134.501C150.302 134.871 150.089 135.08 149.652 135.46C150.121 135.1 150.344 134.9 150.706 134.541L150.685 134.551ZM152.675 113.596C152.654 113.945 152.633 114.305 152.601 114.654C152.494 114.784 152.377 114.924 152.271 115.054C152.218 115.124 152.154 115.184 152.1 115.254C152.313 114.694 152.494 114.145 152.665 113.596H152.675ZM150.099 117.361C150.227 117.141 150.291 117.032 150.408 116.802C150.259 117.151 150.089 117.511 149.897 117.861C149.833 117.931 149.769 118.01 149.706 118.08C149.823 117.861 149.95 117.621 150.089 117.351L150.099 117.361ZM151.739 130.685C151.717 130.735 151.707 130.795 151.685 130.855C149.652 133.722 147.119 136.549 143.692 138.826C143.394 138.826 143.096 138.826 142.798 138.826C144.192 138.027 145.469 137.118 146.63 136.149C148.641 134.461 150.312 132.603 151.749 130.695L151.739 130.685ZM146.534 133.732C146.587 133.782 146.608 133.812 146.661 133.862C145.831 134.651 145.406 135.05 144.48 135.779C143.021 136.888 141.361 137.867 139.573 138.636C139.52 138.636 139.456 138.626 139.402 138.616C139.243 138.596 139.083 138.566 138.923 138.516C139.658 138.227 140.371 137.907 141.052 137.557C143.117 136.509 144.927 135.17 146.523 133.722L146.534 133.732Z" fill="#3155FE"/>
<path d="M147.449 114.794C147.545 114.584 147.598 114.475 147.683 114.265C147.79 114.035 147.843 113.925 147.96 113.686C147.769 114.135 147.662 114.355 147.449 114.794Z" fill="#3155FE"/>
<path d="M142.935 126.501C142.935 126.501 142.925 126.501 142.914 126.501C142.989 126.441 143.063 126.371 143.138 126.301C143.074 126.361 143.01 126.421 142.946 126.491L142.935 126.501Z" fill="#3155FE"/>
<path d="M137.678 133.572C137.933 133.462 138.05 133.412 138.306 133.303C138.582 133.183 138.721 133.123 138.998 133.003C138.476 133.253 138.21 133.362 137.678 133.572Z" fill="#3155FE"/>
<path d="M137.347 137.967C137.347 137.967 137.294 137.947 137.262 137.937C137.411 137.887 137.549 137.837 137.709 137.787C138.017 137.707 138.177 137.647 138.486 137.547C138.113 137.707 137.73 137.837 137.347 137.967Z" fill="#3155FE"/>
<path d="M155.55 126.7C155.572 126.431 155.582 126.291 155.614 126.021C155.572 126.54 155.561 126.8 155.508 127.319C155.529 127.07 155.54 126.95 155.55 126.7Z" fill="#3155FE"/>
<path d="M152.079 130.246C152.26 129.996 152.441 129.737 152.622 129.487C152.43 129.776 152.238 130.066 152.047 130.356C152.047 130.316 152.068 130.286 152.079 130.246Z" fill="#3155FE"/>
<path d="M147.428 138.347C147.428 138.347 147.333 138.367 147.279 138.377C147.396 138.327 147.513 138.277 147.631 138.217C147.556 138.267 147.492 138.307 147.418 138.347H147.428Z" fill="#3155FE"/>
<path d="M156.272 136.139C156.272 136.139 156.187 136.149 156.145 136.159C156.198 136.059 156.251 135.959 156.304 135.85C156.304 135.949 156.283 136.039 156.272 136.139Z" fill="#3155FE"/>
<path d="M158.518 123.334C158.54 123.574 158.55 123.814 158.561 124.053C158.54 124.143 158.508 124.243 158.486 124.333C158.486 124.033 158.508 123.714 158.518 123.324V123.334Z" fill="#3155FE"/>
<path d="M158.028 136.239C158.028 136.239 157.985 136.229 157.953 136.219C157.974 136.169 158.006 136.109 158.038 136.059V136.239H158.028Z" fill="#3155FE"/>
<path d="M160.402 137.357C160.338 137.308 160.264 137.258 160.189 137.208V137.188L160.211 137.078V137.018L160.232 136.988V136.958C160.232 137.018 160.232 137.178 160.232 137.158V137.138L160.275 136.848C160.275 136.848 160.275 136.848 160.275 136.838C160.307 136.758 160.349 136.668 160.381 136.588C160.381 136.848 160.381 137.108 160.381 137.367L160.402 137.357Z" fill="#3155FE"/>
<path d="M160.359 136.489C160.381 136.379 160.391 136.269 160.413 136.159C160.413 136.229 160.413 136.289 160.413 136.349C160.391 136.399 160.381 136.439 160.359 136.489Z" fill="#3155FE"/>
<path d="M160.391 125.901C160.391 125.901 160.391 125.821 160.391 125.791C160.423 125.671 160.444 125.551 160.476 125.432C160.444 125.601 160.423 125.751 160.391 125.901Z" fill="#3155FE"/>
<path d="M163.757 133.792C163.778 133.522 163.799 133.392 163.821 133.123C163.789 133.632 163.757 133.892 163.746 134.401C163.746 134.151 163.746 134.031 163.746 133.792H163.757Z" fill="#3155FE"/>
<path d="M174.654 84.3506C174.899 84.3506 175.144 84.3506 175.399 84.3706C175.261 84.3706 175.112 84.3706 174.974 84.3706C174.91 84.3706 174.825 84.3706 174.729 84.3706C174.708 84.3706 174.676 84.3506 174.654 84.3506Z" fill="#3155FE"/>
<path d="M175.943 84.6699C175.741 84.6499 175.539 84.64 175.337 84.62C175.294 84.6 175.252 84.58 175.209 84.5601C175.528 84.59 175.848 84.62 176.178 84.6699C176.103 84.6699 176.018 84.6699 175.943 84.6699Z" fill="#3155FE"/>
<path d="M175.027 84.4799C175.027 84.4799 174.92 84.4399 174.867 84.4199C174.91 84.4199 174.942 84.4199 174.974 84.4199C175.453 84.4399 175.932 84.4799 176.421 84.5498C175.953 84.5098 175.485 84.4898 175.027 84.4799Z" fill="#3155FE"/>
<path d="M134.432 130.186C134.506 130.166 134.538 130.156 134.432 130.186V130.186Z" fill="#3155FE"/>
<g clip-path="url(#clip1_1308_15)">
<path d="M222.391 56.9129C223.562 57.5522 224.541 59.9693 225.552 61.4476C225.999 62.0968 226.67 62.8459 227.223 63.5451C227.862 64.3442 228.756 65.0733 228.894 65.6426C229.043 66.2419 228.586 67.1608 228.714 68.0897C229.012 70.2072 231.885 73.9328 232.992 76.1202C238.208 86.3881 239.56 97.6947 245.339 107.873C249.65 115.474 252.066 123.574 256.036 131.205C257.569 134.152 260.464 135.89 262.486 138.457C264.125 140.534 262.965 145.588 263.338 148.105C264.658 156.985 266.978 165.365 265.882 174.424C264.977 181.885 260.251 188.787 259.644 196.048C259.463 198.276 259.187 200.493 258.857 202.721H319.91C319.431 200.733 319.165 198.695 319.345 196.428C320.005 188.168 313.3 177.61 312.746 168.811C312.257 160.97 314.3 153.369 314.119 145.568C313.992 140.095 316.812 135.81 319.484 131.095C324.987 121.387 322.73 110.619 324.71 100.092C327.115 87.307 323.869 75.0115 325.253 62.3365C325.647 58.7707 327.147 54.8554 325.253 52.2185C326.126 51.3096 326.594 48.5628 327.296 46.8049C327.988 45.0769 330.255 40.1927 325.998 40.8719C325.817 39.6434 325.455 38.5846 324.699 37.9054C323.167 37.5758 323.05 39.1939 321.911 38.9542C320.74 38.7145 320.74 36.8067 319.867 36.6869C318.388 36.4771 318.26 38.5247 317.078 38.4348C315.46 38.3049 315.801 35.0488 315.588 33.5506C315.471 32.7215 315.003 31.6628 314.843 30.5841C314.503 28.3068 314.811 24.9707 312.778 24.9707C310.692 24.9707 311.597 30.2445 311.842 33.171C312.225 37.6857 313.768 43.3789 309.798 44.6874C308.989 44.9571 307.691 45.1369 306.445 44.6874C305.083 44.198 305.019 42.2503 303.284 41.7209C302.922 41.611 300.698 41.2714 300.123 41.9007C298.526 43.6286 303.71 47.1145 304.774 48.0035C307.105 49.9412 308.531 51.8489 310.905 53.2373C311.416 62.5662 311.256 72.085 310.351 80.6349C310.075 83.2618 310.383 85.7788 310.171 88.3158C309.532 95.787 305.179 103.548 303.848 110.13C303.752 110.599 303.795 111.309 303.763 111.898C303.508 111.898 303.273 111.858 303.092 111.748C302.89 111.239 302.592 110.849 302.273 110.47C301.24 110.859 301.123 110.1 300.847 109.561C301.773 109.491 302.209 110.03 303.209 109.87C303.22 108.862 301.634 109.021 301.208 108.242C301.698 108.122 303.816 108.432 304.018 107.533C303.837 107.114 302.901 107.653 302.358 107.673C301.89 107.653 301.485 107.543 301.102 107.413C300.708 107.034 300.378 106.554 300.41 105.875C301.485 105.895 302.411 106.974 303.508 106.335C302.603 105.785 301.187 105.106 301.528 103.628C301.879 103.518 302.241 103.668 302.464 103.418C302.613 102.799 301.879 102.499 301.698 101.97C301.868 101.77 302.571 102.06 302.72 101.67C302.486 101.131 301.836 101.101 301.634 100.531C301.773 100.212 302.209 100.022 302.092 99.5825C302.699 99.6524 302.773 100.392 303.55 100.252C303.646 99.0531 301.836 98.6336 301.432 97.415C301.475 97.1953 301.751 97.455 301.996 97.2852C302.049 95.9468 301.773 94.1989 300.942 93.1401C301.091 92.9403 301.655 93.1301 301.751 92.8005C301.475 92.0913 300.612 92.1113 300.165 91.6219C299.995 91.3722 300.346 91.3622 300.24 91.1425C299.867 90.713 299.144 90.713 298.963 90.0438C298.792 89.7541 299.388 89.814 299.335 89.5743C299.239 89.025 298.675 89.0449 298.494 88.6155C298.622 88.4357 299.144 88.4357 299.08 88.176C298.856 87.4968 298.058 87.5367 297.462 87.307C291.927 84.5103 287.606 80.1954 279.602 80.4651C278.782 80.6549 277.952 80.8446 277.228 80.9146C277.079 81.0644 277.334 81.394 277.185 81.5338C276.291 81.4939 275.61 81.1842 274.556 81.354C273.705 81.8435 272.97 82.3828 271.821 82.7324C270.618 84.0209 269.298 85.2594 267.446 86.2482C267.468 86.3781 267.595 86.3781 267.617 86.5179C268.128 86.6378 268.436 86.1883 269.011 86.1284C268.649 87.0074 267.265 87.4269 266.425 88.0961C266.116 88.4956 265.786 88.8751 265.307 89.1948C264.934 89.7741 264.562 90.3534 264.157 90.9127C264.509 92.0814 263.625 93.0702 264.572 94.1289C264.647 95.2376 262.731 95.4274 262.571 96.4262C263.125 96.5461 263.519 96.1166 263.945 95.9668C264.168 96.1865 264.03 96.7159 264.019 97.0255C265.222 97.9944 263.987 98.8533 263.593 99.6624C263.859 99.8422 264.466 99.5925 264.945 99.5126C265.094 99.8921 264.243 100.342 264.296 100.891C265.52 102.03 264.764 103.578 264.147 104.617C264.03 104.726 263.881 104.826 263.732 104.926C261.049 101.64 258.399 98.294 256.59 94.4186C255.323 91.6918 254.961 88.6654 253.428 86.0385C252.034 83.6413 250.267 81.424 249.15 78.887C246.84 73.6132 245.265 68.0398 243.008 62.3066C244.253 60.259 245.201 58.1215 246.361 56.024C247.436 54.0563 250.544 51.779 249.522 49.9112C248.756 48.5229 246.063 49.8213 245.243 50.6104C244.051 51.759 244.328 54.306 241.71 54.4459C238.41 54.6256 236.76 50.8102 235.941 48.1633C234.919 44.8272 235.206 41.2614 234.27 38.215C233.982 37.2961 233.248 35.5382 232.226 35.5981C230.204 35.708 231.524 40.0728 231.673 41.3613C232.024 44.5076 232.396 46.8548 232.226 49.3918C230.917 49.8113 230.768 48.5029 229.437 48.5129C228.171 48.5229 227.042 49.8013 226.095 50.4306C224.807 49.4917 220.486 48.0834 219.773 49.9112C218.879 52.1985 223.764 51.809 224.233 53.3971C222.455 53.9864 215.898 53.6168 216.047 55.6644C216.165 57.2725 220.922 56.1039 222.37 56.883L222.391 56.9129ZM300.719 95.3775C300.698 95.5173 300.942 95.777 300.729 95.8369C300.644 95.797 300.346 95.3874 300.719 95.3775ZM297.089 114.735C297.611 114.595 297.355 114.085 297.43 113.736C297.898 113.796 298.154 114.105 298.707 114.065C299.069 113.866 298.867 113.406 298.846 113.037C299.442 112.967 299.474 113.606 300.219 113.346C300.559 112.957 299.942 112.517 300.208 112.118C300.942 112.198 301.283 113.266 302.103 112.927C302.422 112.757 302.113 112.437 302.028 112.248C302.347 112.487 302.975 112.687 303.625 112.717C302.837 114.695 299.293 115.374 298.462 117.312C297.43 116.333 296.323 115.164 295.855 113.586C296.206 114.035 296.589 114.465 297.089 114.735ZM279.453 117.761C279.708 117.501 279.846 117.192 279.942 116.862C280.155 117.431 280.315 118.041 280.421 118.7C279.846 118.66 279.335 118.21 278.771 117.711C279.005 117.661 279.165 117.711 279.453 117.761ZM276.685 113.916C277.302 114.215 276.845 114.914 276.515 115.184C276.653 115.354 277.015 115.264 277.175 115.424C277.143 115.803 276.994 116.143 276.781 116.443C276.355 116.343 275.866 116.293 275.408 116.083C275.323 116.043 275.238 116.003 275.152 115.953C275.802 115.334 276.121 114.575 276.696 113.916H276.685ZM275.003 114.365C274.812 114.575 274.716 115.174 274.29 115.064C274.546 114.874 274.695 114.305 275.003 114.365ZM274.418 111.648C274.663 112.637 274.876 113.616 273.939 114.065C273.556 113.007 273.865 112.267 274.418 111.648ZM266.595 106.325C267.297 106.594 266.403 108.023 266.925 108.402C267.798 108.112 267.744 107.403 268.021 106.844C268.606 107.753 268.266 108.802 268.681 109.85C269.128 110.34 269.362 111.518 270.373 111.009C270.171 110.43 269.777 109.93 269.756 109.381C272.119 109.711 270.576 112.947 271.395 114.245C272.438 113.886 272.193 112.947 272.928 112.437C273.066 113.077 272.736 114.235 273.3 115.104C272.694 114.964 272.034 115.024 271.31 115.544C269.916 112.787 268.053 110.28 266.095 107.813C266.052 107.233 266.169 106.704 266.595 106.325ZM265.605 104.387C265.658 105.156 265.2 105.695 264.86 106.285C264.69 106.075 264.519 105.865 264.349 105.665C264.924 105.356 265.381 104.746 265.605 104.387Z" fill="#3155FE"/>
<path d="M301.068 96.3664C301.037 96.676 300.888 96.1067 301.068 96.3664V96.3664Z" fill="#3155FE"/>
</g>
</g>
<path d="M302.075 172.979C302.416 173.228 302.683 173.169 303.003 173.557C303.141 173.727 303.237 174.125 303.312 174.285C303.611 174.912 303.781 175.749 304.4 176.168C305.061 176.616 306.17 176.556 307.503 176.606C309.028 176.656 310.51 176.925 311.065 175.739C311.257 175.351 311.097 175.052 311.225 174.583C311.417 173.866 311.769 173.179 311.694 172.411C311.694 171.963 311.118 172.222 310.457 172.122C311.47 171.505 312.697 171.016 313.71 170.239C314.669 169.512 315.768 168.595 316.653 167.489C316.973 167.091 317.165 166.224 317.432 165.606C317.89 164.52 318.722 163.474 319.447 162.418C320.609 160.724 322.06 159.17 323.627 157.645C326.304 155.045 329.13 152.653 332.148 149.824C342.034 140.587 350.81 131.122 360.813 122.164C364.066 130.783 372.523 143.008 371.51 152.285C371.275 154.407 370.155 156.689 369.803 159.09C369.622 160.375 369.611 161.67 369.494 162.996C369.11 167.32 369.153 172.312 368.566 176.895C368.492 177.473 368.364 178.031 368.257 178.629C368.044 179.834 367.681 181.09 367.639 182.246C367.596 183.521 368.097 184.766 367.639 186.012C368.353 190.804 362.861 197.739 359.928 203H395.803C397.05 201.117 397.999 199.244 398.17 197.6C400.303 197.899 401.796 200.111 402.862 203H432.818C431.154 196.882 429.406 190.804 429.15 184.567C429.128 184.019 429.342 183.491 429.299 182.973C429.256 182.375 429 181.538 428.83 180.801C427.539 175.122 426.484 169.671 425.641 163.892C424.564 156.489 421.301 149.973 419.445 142.809C416.129 129.946 419.019 115.279 424.02 103.193C425.78 98.9488 429.096 95.0829 431.773 91.3166C432.253 90.6291 432.786 89.9815 433.319 89.284C435.122 86.9326 435.697 84.5712 437.18 82.4688C440.539 77.6763 444.325 71.4888 446.223 66.0586C448.249 60.2497 445.786 52.7171 444.794 46.8684C444.282 43.8992 443.738 40.9699 443.397 37.6022C443.29 36.5361 443.077 35.45 443.088 34.4138C443.088 33.6466 443.344 32.8295 443.397 32.0922C443.578 29.5614 443.568 26.5923 443.088 24.2807C442.885 23.2644 442.384 22.2281 442.16 21.2417C442.064 20.8332 442.245 20.6041 442.16 20.2254C442.032 19.6675 441.755 18.9401 441.072 18.4818C440.315 18.133 439.878 18.4619 439.217 18.6312C439.035 16.9175 438.246 15.4927 436.433 16.0307C435.186 16.3894 435.793 17.9736 434.567 18.4917C434.076 18.6412 434.066 18.0234 433.789 17.6249C433.447 17.1267 432.989 16.23 432.551 15.4528C432.37 15.124 432.349 15.1639 432.082 14.8749C432.029 14.8251 431.954 14.8151 431.901 14.7653C431.848 14.7155 431.826 14.6358 431.773 14.586C431.613 14.4564 431.442 14.0678 430.995 14.0081C430.483 13.9383 429.565 14.3369 429.288 14.586C429.086 14.7753 428.926 14.9845 428.819 15.4528C428.648 16.2399 429.086 16.5887 429.438 17.336C429.704 17.9138 429.949 18.5216 430.216 19.2191C429.896 19.8568 428.734 18.2426 428.2 17.4854C427.625 16.6684 426.995 15.662 425.876 15.7517C425.14 15.8115 424.383 16.7381 424.329 17.057C424.201 17.7544 424.703 18.2427 425.108 18.9401C425.46 19.5379 425.876 20.1358 426.036 20.5343C426.196 20.903 426.516 21.999 426.654 22.5569C426.899 23.5533 427.23 24.4999 426.814 24.8685C426.697 24.9682 426.441 24.9183 426.196 25.1575C425.705 25.6357 425.087 26.7118 425.108 27.9075C425.129 29.0633 426.036 30.5578 426.814 31.8132C427.155 32.3712 427.465 33.0388 427.902 33.5469C428.009 33.6665 428.264 33.7163 428.36 33.8359C428.574 34.085 428.851 34.5931 429.288 34.8522C429.651 35.0614 430.184 35.181 430.525 35.2906C430.899 35.4002 431.442 35.3205 431.762 35.5795C432.05 35.8087 432.253 36.4962 432.381 37.0243C432.519 37.6121 432.456 38.19 432.541 38.758C432.658 39.5252 432.946 40.1429 432.999 40.6411C433.127 41.8069 432.999 43.3014 432.999 44.6963C432.999 48.8711 431.485 52.767 431.144 56.862C430.856 60.2995 432.061 64.1854 429.598 67.1446C426.345 71.0504 421.557 73.5314 418.592 77.8556C417.312 79.7288 414.636 80.6056 412.396 81.7714C409.133 83.4652 406.456 86.0857 405.113 89.4434C403.769 92.7912 398.341 88.8456 395.813 90.5992C395.28 89.1346 397.765 87.2315 399.258 86.0259C399.279 86.0259 399.301 86.0358 399.311 86.0458C400.292 86.4543 400.9 87.7197 401.881 87.9887C402.35 87.7097 402.255 87.2414 402.798 87.1318C403.374 87.0123 404.174 87.6998 404.707 87.1318C404.793 86.6636 404.515 86.534 404.462 86.1953C404.494 85.8864 405.251 86.1953 405.049 86.0458C404.718 85.8067 404.291 85.6672 403.971 85.428C403.641 84.352 404.409 83.6346 405.049 83.0168C405.443 83.0667 405.816 83.1264 406.296 83.0965C405.891 82.688 405.646 81.9407 405.88 81.1536C407.085 81.5123 408.717 81.582 409.453 80.765C408.12 80.5857 406.765 80.0177 406.957 78.6726C407.907 79.1011 408.93 79.948 410.199 79.6092C409.879 78.9417 409.154 78.2641 409.453 77.2777C410.071 77.2678 410.093 77.8158 410.455 78.0549C410.775 77.6264 411.319 76.9987 411.202 76.4208C410.274 76.2315 409.261 75.2252 410.039 74.169C410.69 74.179 410.615 74.8665 411.202 74.9462C408.472 71.5187 411.82 66.6564 411.202 62.4517C410.988 61.0468 409.591 59.0441 408.546 57.7189C406.744 55.4372 404.707 53.6438 401.743 52.4382C399.546 51.5514 397.285 50.7543 394.022 51.0432C392.337 51.1927 390.225 53.3648 388.21 51.9798C385.672 52.0496 383.187 53.0061 381.651 54.1519C380.19 55.238 379.305 57.1909 377.919 58.4961C377.418 58.9644 376.714 59.2832 376.341 59.7416C375.434 60.8276 375.05 62.093 374.933 63.5477C374.752 65.7895 375.594 68.6591 373.685 69.5957C373.76 69.7551 374.154 69.6256 374.186 69.8249C374.186 70.3828 373.738 70.5422 373.44 70.8312C373.419 71.16 374.08 70.8511 374.101 71.1401C374.101 71.6183 373.376 72.0567 372.608 72.0667C372.832 72.9734 374.581 72.4453 375.189 72.9933C375.135 73.3122 374.901 73.4517 374.944 73.8502C376.415 74.169 376.49 77.2578 374.357 76.8792C374.656 77.746 375.765 77.8457 376.767 78.0449C376.383 79.7487 373.344 78.9417 372.693 78.0449C372.8 79.3103 374.282 80.3067 375.935 80.1373C376.159 79.938 375.711 80.0277 375.935 79.8284C376.117 79.8982 376.5 79.948 376.682 80.217C376.266 80.6554 375.605 80.8647 375.434 81.5422C375.711 81.4525 376.053 81.2732 376.266 81.5422C376.159 82.1101 375.765 82.419 375.765 83.0965C376.202 83.1464 376.127 82.7179 376.511 82.708C376.906 82.7877 376.724 83.2759 377.172 82.9371C377.514 83.256 377.951 83.4951 378.399 83.7243C378.121 84.3819 377.823 85.0295 377.567 85.6771C376.906 87.3311 373.024 91.2469 371.03 93.1101C370.827 93.13 367.18 92.3229 367.244 92.3429C362.85 91.3266 358.222 92.3429 354.788 94.8039C348.763 99.1381 347.323 108.823 344.711 114.931C342.14 120.959 336.787 125.383 331.69 129.557C323.414 136.333 322.785 147.911 315.576 155.334C315.416 155.493 315.117 155.573 314.957 155.762C314.851 155.892 314.915 156.081 314.808 156.2C314.062 156.948 313.187 158.881 312.323 159.528C312.046 159.738 311.513 159.917 311.086 160.106C310.265 160.465 309.433 160.644 308.452 161.122C308.26 161.212 308.143 161.481 307.983 161.561C306.735 162.169 304.997 162.647 303.803 163.593C303.301 163.992 302.886 164.221 302.715 164.749C302.566 165.198 302.555 165.377 302.555 166.194C302.438 166.553 301.894 166.822 301.627 167.21C301.403 167.519 301.062 168.017 301.009 168.366C300.945 168.795 301.254 169.542 301.318 170.249C301.446 171.644 301.137 172.302 302.096 172.999L302.075 172.979Z" fill="#3155FE"/>
<defs>
<clipPath id="clip0_1308_15">
<rect width="350" height="203" fill="white"/>
</clipPath>
<clipPath id="clip1_1308_15">
<rect width="112.441" height="177.74" fill="white" transform="translate(216.068 24.9707)"/>
</clipPath>
</defs>
</svg>
