<svg width="336" height="202" viewBox="0 0 336 202" fill="none" xmlns="http://www.w3.org/2000/svg">
<g clip-path="url(#clip0_320_3111)">
<path d="M166.228 178.486C161.724 175.289 162.533 176.554 161.431 178.065C160.293 179.634 157.913 177.233 157.127 176.378C156.212 175.395 154.488 174.821 153.222 174.423C150.806 173.65 146.842 173.252 145.903 176.343C147.979 176.659 151.873 180.805 147.874 181.191C146.631 181.308 145.481 180.699 144.367 180.243C142.69 179.552 140.837 179.692 139.219 178.861C136.65 177.561 134.504 175.945 131.854 174.762C129.391 173.662 128.288 170.488 126.74 168.474C122.577 163.052 116.713 159.352 112.116 154.352C108.046 149.925 104.95 144.597 104.153 138.566C100.236 145.569 99.2505 155.347 99.9542 163.204C100.353 167.713 101.01 172.268 100.47 176.741C100.4 177.292 100.834 179.154 100.47 179.54C100.189 179.845 99.5202 179.645 99.3561 180.09C99.8955 182.514 100.728 184.868 101.666 187.163C103.637 191.988 105.032 196.941 106.088 201.988H64.4543C63.9148 201.754 63.3753 201.602 62.8358 201.567C62.4136 201.543 61.9563 201.696 61.4754 201.988H25.8817C27.0779 196.59 28.6026 191.285 30.9012 186.191C32.7659 182.046 35.088 178.123 37.2107 174.095C39.5445 169.68 41.3975 165.055 43.6492 160.605C46.1942 155.569 50.0526 151.178 51.8821 145.78C53.7351 140.323 52.1401 135.041 51.4365 129.549C50.7094 123.952 49.6656 121.762 46.03 117.664C44.5288 115.977 44.8924 113.542 43.2388 111.75C41.7259 110.111 39.826 108.893 37.9378 107.745C32.3789 104.384 26.1983 102.253 20.5104 99.1382C17.2032 97.3348 14.2712 95.145 11.4449 92.6625C8.03207 89.6647 0.397278 87.9081 0.0571747 82.7206C-0.294647 77.2168 2.71938 70.9987 4.49026 65.9399C7.01173 58.7382 9.61533 51.431 10.4245 43.796C10.835 39.9668 10.5183 36.1961 10.4714 32.3669C10.4362 29.4394 10.0375 24.1581 11.996 21.7224C13.3565 20.0361 16.5464 17.3779 18.9858 17.577C19.4901 17.6356 19.9123 17.8581 20.2758 18.2211C20.6629 17.741 21.2023 17.3662 21.7653 17.1203C23.0788 16.5699 24.3102 17.0852 24.5565 18.5607C26.3743 16.6285 28.5087 18.8066 27.6878 20.8793C27.3125 21.8395 26.7965 22.7295 26.2805 23.6195C25.3422 25.2237 26.9372 25.0364 27.1248 26.5938C27.2539 27.6946 26.3977 28.9124 26.386 30.0717C26.3743 31.6526 26.386 32.7651 25.4947 34.1352C24.017 36.3718 21.261 37.695 20.1116 40.0956C18.6809 43.1051 18.5284 46.6182 17.8834 49.8385C15.9131 59.757 15.6903 70.1673 12.2306 79.7462C21.3196 79.0787 26.8551 85.3905 35.1232 87.3812C38.4304 88.1775 41.3623 88.8332 44.3764 89.9457C44.435 89.852 44.4937 89.7584 44.5523 89.6764C43.8955 88.8215 42.5586 88.6927 42.3592 87.5217C42.195 86.4912 43.1567 86.0345 43.5202 85.1094C42.9808 84.4654 42.2302 83.6574 42.4061 82.3927C42.7697 81.7369 44.2239 81.5378 44.8455 81.3153C44.177 79.9453 42.9925 79.2661 42.1129 78.1887C41.8666 77.2168 42.4647 76.6313 42.8048 75.8584C42.5117 75.1558 41.7494 75.0972 41.3389 74.5469C41.3741 73.774 41.8901 73.3407 42.1012 72.685C41.9604 72.2283 41.4913 72.2166 41.3623 71.7364C41.3389 70.8348 41.9956 70.4132 42.6289 69.9799C41.9839 69.4881 41.1395 68.5747 41.9956 67.8604C41.5382 67.8018 41.0105 67.837 40.4593 67.9189C40.0019 68.1414 39.3569 69.1719 38.7119 68.4927C38.9347 67.6262 39.8846 67.2866 41.1043 67.1461C41.3154 66.3264 41.9135 65.7877 42.8752 65.5066C43.4616 64.3239 41.937 63.1178 42.6758 61.8648C43.4264 61.572 43.8955 61.0685 44.4819 61.0919C44.2708 60.1902 43.4147 60.1902 43.0629 59.4876C42.7228 58.0707 44.0128 57.8365 44.3881 56.9582C43.1215 57.1456 42.7931 58.7499 41.5734 59.2534C41.6203 60.0731 41.8901 60.5884 42.324 60.8694C42.7227 60.8928 42.8869 60.5415 43.1684 60.7289C42.2185 62.1693 40.4007 60.6118 40.6469 58.9138C42.066 58.2464 42.3357 56.7475 43.8721 56.1737C43.8134 55.4359 43.5672 55.1549 43.6492 54.7567C44.2356 53.4569 45.4084 52.5904 46.2059 51.4428C46.1121 50.4708 46.0769 48.9485 46.7571 48.2693C46.6985 47.9297 46.6398 47.5784 46.5929 47.2388C47.4138 46.22 48.6335 45.494 49.9822 44.8499C49.8649 41.8873 52.1519 40.646 54.861 39.7092C55.8578 38.8192 55.6702 37.0744 57.4763 36.7699C58.7311 36.6528 59.5638 36.2196 60.7483 36.0439C62.0735 36.243 63.3284 36.5357 64.7944 36.5474C65.7443 35.4701 68.043 35.6809 69.1688 34.8729C69.8021 34.7558 70.1891 35.0017 70.8928 34.7792C71.6199 35.1188 72.089 35.8097 72.7692 36.2196C73.6254 35.8097 73.9889 35.0486 74.7278 34.545C76.0999 34.2171 77.4955 34.7558 78.5276 35.2828C78.6918 35.7746 78.9967 36.0908 79.2078 36.524C80.3336 36.1727 81.2601 35.2593 82.6323 35.5872C83.2304 36.1727 83.7699 36.8636 83.9106 38.0815C84.2507 38.6436 84.9778 38.6787 85.4235 39.0886C86.4555 38.8075 86.5024 37.8121 87.4876 37.496C88.59 37.9527 88.3437 39.5804 89.1998 40.3064C89.8214 40.0839 89.7745 39.393 90.2553 39.0768C91.2756 38.6436 92.4719 38.8075 92.941 39.5101C92.4953 40.4352 92.0262 41.3486 90.9942 41.8521C91.5923 43.9366 94.3249 41.3486 95.0285 42.8475C94.3835 43.597 92.4719 43.5267 91.5454 43.9951C91.7447 44.4401 92.3546 44.3347 92.7064 44.5806C93.0113 45.6579 94.0082 45.775 94.2545 46.9461C94.6415 47.2857 95.3803 47.1451 95.7908 47.473C96.3186 48.4332 95.6032 49.979 96.8815 50.0024C97.679 49.3818 97.2099 47.8595 98.3006 47.4496C99.1919 47.7775 99.2271 48.6089 99.5437 49.7565C99.1567 51.5013 98.0426 52.7192 97.5852 54.4171C98.3709 54.8621 98.9456 55.6116 99.2271 56.7592C99.6258 57.0051 100.329 56.8411 100.728 57.0988C102.182 58.6796 100.939 60.8694 100.998 62.3683C101.35 62.907 102.534 62.6728 103.226 62.3917C103.86 62.1575 104 61.2207 104.692 61.291C104.786 63.188 103.214 64.359 101.35 63.9609C101.068 64.1834 100.951 64.4996 100.928 64.8977C101.42 66.2444 103.367 66.4786 104.094 65.3544C104.387 65.331 104.434 65.6472 104.563 65.8579C104.293 66.6425 103.027 66.9938 102.112 66.8299C101.549 68.1883 103.308 69.9448 102.147 71.1744C103.062 71.631 103.918 70.4132 104.868 70.6357C105.654 71.713 104.786 73.2002 104.047 73.9497C104.856 75.1324 106.533 74.2541 107.249 73.4344C107.964 75.2144 104.974 75.671 103.836 75.0504C103.402 75.5657 103.132 76.2097 102.757 76.7718C103.261 77.6149 104.634 77.5681 105.501 77.006C106.146 76.6664 105.924 75.7062 106.698 75.4603C107.988 77.5681 104.446 78.8562 102.781 78.1302C102.675 78.9382 103.66 79.1958 103.543 80.4254C103.73 80.8118 104.317 80.6596 104.598 80.9289C105.255 82.3107 103.59 83.0484 104.293 84.4537C104.809 84.8986 106.076 84.3014 106.803 84.4302C107.003 84.7347 107.026 85.2734 107.108 85.7301C107.436 86.0814 108.023 86.0697 108.293 86.5029C108.562 87.4397 108.293 87.9901 108.152 88.6459C109.031 88.5405 110.544 87.9433 111.4 88.4117C112.339 88.8801 112.245 90.6834 112.303 91.5851C112.327 91.5968 112.35 91.6203 112.362 91.632C113.289 91.4095 113.312 90.5312 114.321 90.3556C114.461 90.4727 114.708 90.4375 114.837 90.5663C114.813 91.4914 114.274 92.1824 113.523 92.6625C115.822 94.9577 117.206 98.1779 117.464 102.195C117.757 106.68 117.03 111.141 116.455 115.579C115.857 120.345 116.15 124.83 116.174 129.596C116.197 133.016 115.646 136.622 116.912 139.889C118.367 143.613 121.944 146.4 123.996 149.843C126.095 153.368 127.796 157.115 129.836 160.687C131.338 163.31 133.214 167.525 136.064 168.931C137.389 169.586 139.172 169.165 140.556 168.942C146.537 168.006 151.111 169.352 158.992 170.828C161.677 171.331 164.539 173.345 166.955 175.629C168.984 176.694 168.386 179.997 166.216 178.463L166.228 178.486ZM51.6358 88.7396C52.187 88.6693 52.5154 88.4351 52.4685 87.9316C52.0229 88.0487 51.5772 88.1775 51.5068 88.5756C51.5889 88.5756 51.6358 88.6342 51.6358 88.7513V88.7396ZM50.3458 92.44C50.1112 92.1589 49.6539 92.0067 49.3138 92.0887C49.6539 92.2175 49.9939 92.3346 50.3458 92.44ZM50.3458 89.7232C50.0174 89.6413 49.4076 89.7232 49.4545 90.1565C49.865 90.0979 50.3458 90.0745 50.3458 89.7232ZM49.3489 88.3414C49.689 88.2595 49.9822 88.1306 50.0409 87.8379C49.6773 87.6505 49.1144 87.6857 49.3489 88.3414ZM43.1684 87.2173C43.4851 88.5171 44.3881 88.9738 45.6781 88.9386C46.8275 87.5334 45.08 86.1048 44.0011 85.7301C43.7783 86.257 43.1684 86.5146 43.1801 87.2173H43.1684ZM43.2622 82.4629C43.1567 82.9899 43.2505 83.47 43.5906 83.8564C44.2356 83.2007 46.6281 82.9548 45.6547 81.6901C45.2911 82.0882 44.0714 82.0062 43.2622 82.4629ZM43.8369 78.2122C44.3295 77.7672 44.6578 77.1934 44.7047 76.4322C43.9776 76.2331 43.3326 77.1817 42.9925 77.7789C43.3326 77.8374 43.6023 78.0014 43.8369 78.2239V78.2122ZM44.6344 74.8045C44.5523 73.6101 42.711 73.1065 42.84 74.5117C43.0629 75.1792 44.2004 75.4603 44.6344 74.8045ZM43.1449 66.2561C42.7462 66.3029 42.5586 66.502 42.2302 66.5957C42.2302 67.0875 42.4765 67.2632 42.5117 67.7081C43.3091 67.6496 43.2388 66.9587 43.1449 66.2561ZM42.8048 71.3383C42.8635 71.7481 42.8869 72.2166 43.1567 72.3454C44.2943 71.4203 45.9479 70.1556 45.1152 68.3522C44.6578 68.6801 43.6141 68.5981 43.2974 69.0314C43.6844 69.3359 44.6461 68.8557 44.7399 69.5701C44.3294 70.3312 43.145 70.5303 42.8048 71.3266V71.3383ZM44.0363 66.9821C44.0011 67.2163 43.9542 67.6613 44.177 67.8252C44.4467 67.7433 44.6227 67.591 44.6813 67.3568C44.4585 67.2515 44.3881 66.9236 44.0363 66.9821ZM44.1066 58.4688C44.2825 58.5859 44.564 58.3166 44.951 58.3283C44.9276 58.1995 44.9158 58.0824 44.8924 57.9536C44.4702 58.0121 44.2356 58.1995 44.1066 58.4688ZM45.6547 53.6794C44.9158 53.8902 44.4702 54.3235 44.5288 55.1197C44.8924 54.663 45.6195 54.464 45.772 53.855C45.7016 53.855 45.6547 53.7965 45.6547 53.6794ZM44.8103 78.8445C44.8338 80.0624 45.8892 80.8118 46.7454 81.2334C46.3466 80.0975 45.2677 79.8984 44.8103 78.8445ZM47.2145 91.1753C47.6836 91.3978 48.1644 91.6203 48.657 91.831C48.4342 91.2807 48.1644 91.0582 48.2231 90.3673C47.6484 90.5078 47.191 90.742 46.7688 90.9762C46.9096 91.0465 47.062 91.105 47.2145 91.1753ZM47.1559 84.9338C47.4373 85.1211 47.578 85.4959 48.012 85.4724C48.6687 85.2851 48.3638 84.5356 48.3638 84.0672C48.5515 84.0672 48.528 83.915 48.6101 83.833C49.4427 83.833 50.5921 83.751 50.4865 82.8494C50.4044 82.58 50.2168 82.4512 49.9353 82.4512C49.6773 83.7628 47.2262 83.4934 47.1441 84.9338H47.1559ZM48.7743 75.2026C48.2348 75.3666 47.9768 76.1746 48.2348 76.643C48.5749 76.28 48.9033 75.9053 48.7743 75.2026ZM48.4342 80.8586C48.5163 81.4793 48.6335 82.0414 48.7977 82.5449C49.3255 82.4161 49.4779 82.0297 49.5131 81.5612C49.2668 81.1748 48.9971 80.8235 48.4342 80.8703V80.8586ZM49.1026 79.0084C49.9588 79.8633 50.1112 81.6784 51.1785 82.2521C51.5537 82.0531 51.7648 81.7252 51.8 81.2802C51.0964 80.2614 50.1816 79.5354 49.1144 79.0084H49.1026ZM50.1581 84.9221C50.7915 85.2734 51.7649 85.7652 52.3395 85.8237C51.7179 85.5076 50.8384 84.4068 50.1581 84.9221ZM49.0909 85.4841C48.9854 85.6832 48.9033 85.9057 48.915 86.1868C49.6539 87.1119 51.3778 88.4468 52.5389 87.0533C51.7062 86.0931 50.2989 85.9174 49.0909 85.4841ZM77.3665 36.1727C77.6597 36.3132 77.6363 36.8753 78.0585 36.8402C77.9881 36.4655 77.519 36.0439 77.3665 36.1727ZM87.4524 38.6904C86.6901 38.7607 87.1592 39.6389 87.6048 39.6272C87.7573 39.393 87.5697 38.9012 87.4524 38.6904ZM88.5431 41.8053C88.1912 41.6765 87.8746 40.8919 87.5579 41.091C87.816 41.6179 88.2382 41.9224 88.3085 42.707C88.7073 42.8475 89.4813 42.9061 89.7393 42.5782C89.6455 41.8873 89.0004 41.981 88.5548 41.8053H88.5431ZM90.2905 43.6438C89.7979 43.5033 88.8011 43.5033 88.2851 43.7726C88.2264 44.9905 89.7628 44.9788 90.3022 44.3113C90.2788 43.8897 90.2788 43.9951 90.2905 43.6321V43.6438ZM99.8955 81.3153C100.048 80.7767 100.67 79.7228 100.247 79.3246C99.9893 79.6291 99.6023 79.8633 99.3209 80.156C99.4264 80.6596 99.403 81.3505 99.8955 81.3153ZM96.5648 59.6281C96.6352 60.0029 97.1395 60.3659 97.3389 60.1785C97.3389 60.0029 97.0105 59.1714 96.5648 59.6281ZM95.8729 70.8465C95.9315 71.4203 96.1192 71.8067 96.3655 72.1229C96.5179 72.0995 96.6821 72.076 96.8346 72.0409C97.1747 71.5139 97.292 70.8113 97.3858 70.1204C96.6938 69.9214 96.0723 70.4366 95.8612 70.8465H95.8729ZM97.3272 75.0504C97.2099 75.2261 97.2568 75.8233 97.6204 75.6828C97.7024 75.5539 97.5617 75.0855 97.3272 75.0504ZM98.0308 71.6545C97.7494 73.0246 98.0308 75.7413 99.4264 76.0692C100.224 75.5305 100.67 74.7459 100.892 73.7974C100.423 73.1768 99.7665 72.8255 98.969 72.6615C98.6524 72.3337 98.4882 71.795 98.0308 71.6545ZM98.3827 59.5228C98.2536 60.1434 98.6055 61.0334 99.0511 61.2441C99.1684 60.7523 99.3326 59.3705 98.3827 59.5228ZM98.6172 69.9214C98.8635 71.0104 99.0629 72.1463 100.13 72.0877C100.939 71.5374 100.822 70.3078 100.928 69.2539C99.9542 68.8206 98.9456 68.844 98.6172 69.9214ZM100.025 67.2749C100.294 67.4037 100.576 67.5208 101.01 67.4037C101.362 66.584 99.7196 65.8111 100.025 67.2749ZM104.305 71.6076C104.188 71.6193 104.153 71.5139 104.012 71.5608C103.543 72.076 102.171 72.1346 101.725 72.4156C102.3 72.6615 102.91 72.8606 103.555 72.9894C103.953 72.6381 104.352 72.2868 104.293 71.6076H104.305ZM102.804 74.2658C101.291 73.6335 101.197 75.7764 100.564 76.561C100.775 76.8069 101.139 76.8303 101.573 76.7835C101.666 75.7179 102.546 75.2143 102.804 74.2658ZM101.186 82.1585C101.432 82.8025 102.616 83.388 103.097 82.6152C103.015 81.772 101.702 82.018 101.186 82.1585ZM103.062 87.1704C103.32 85.9994 102.921 85.0275 102.64 83.9501C102.276 83.7159 101.702 83.7862 101.326 83.5871C100.939 84.1375 100.634 84.7464 100.365 85.3905C100.857 86.3975 101.936 86.6083 102.382 87.674C102.464 88.0604 102.429 88.4 102.335 88.6693C102.804 88.6693 103.273 88.6927 103.73 88.7161C104.458 88.7513 105.173 88.8332 105.853 88.9386C105.806 88.6459 105.795 88.318 105.818 87.9901C104.821 87.8262 103.472 88.1658 103.074 87.1821L103.062 87.1704ZM104.247 85.531C104.223 85.9057 104.528 85.8237 104.622 86.0462C105.208 85.9174 105.83 85.812 105.959 85.3436C105.302 85.5193 104.868 85.4022 104.247 85.5193V85.531ZM110.462 89.8403C110.134 89.8403 109.817 89.8989 109.489 89.9808C109.958 90.1799 110.415 90.4024 110.849 90.6483C110.755 90.3673 110.638 90.0862 110.462 89.8403Z" fill="#3055FE"/>
<path d="M45.6331 55.3304C45.797 55.307 45.8555 55.2133 45.8789 55.0962C45.715 55.1196 45.6448 55.2133 45.6331 55.3304Z" fill="#3055FE"/>
<path d="M46.7703 81.4207C46.8171 81.9593 46.7352 81.1162 46.7703 81.4207V81.4207Z" fill="#3055FE"/>
<path d="M49.2556 89.0321C49.5131 89.1375 49.478 88.6691 49.3024 88.7394C49.3024 88.7979 49.3024 88.8565 49.2204 88.8448C49.2204 88.9033 49.2438 88.9736 49.2556 89.0321Z" fill="#3055FE"/>
<path d="M101.457 77.9779C101.492 77.7554 101.047 77.65 101.047 77.8491C101.235 77.8139 101.211 78.0833 101.457 77.9779Z" fill="#3055FE"/>
<path d="M107.472 87.0415C107.402 87.0766 107.285 87.0766 107.296 87.1703C107.366 87.1352 107.484 87.1352 107.472 87.0415Z" fill="#3055FE"/>
<path d="M334.651 119.818C331.766 118.846 329.831 116.914 327.697 115.181C327.368 114.666 327.005 114.197 326.536 113.834C327.122 116.457 328.916 118.729 329.913 121.258C330.746 122.465 331.966 123.776 332.329 125.123C331.203 124.924 330.64 123.343 329.62 122.711C328.963 121.563 328.271 120.45 327.685 119.233C326.817 118.202 326.055 117.066 325.468 115.766C323.569 115.509 321.868 115.052 319.956 114.806C320.144 115.52 320.566 116.001 321.024 116.446C321.727 117.863 322.513 119.197 322.959 120.884C323.158 123.038 324.061 125.287 323.733 127.055C324.038 127.652 323.838 128.343 323.92 129.28C323.967 129.362 324.026 129.432 324.014 129.573C324.483 130.392 325.117 131.048 325.949 131.505C326.16 131.809 326.407 132.079 326.629 132.371C327.603 133.039 328.576 133.706 329.526 134.397C329.984 134.737 330.464 135.065 330.98 135.357C331.262 135.779 332.364 135.814 332.142 136.423C332.059 137.032 331.391 136.376 330.887 136.517C328.119 135.299 325.844 133.074 323.545 131.692C322.724 130.451 321.762 129.35 320.648 128.413C320.836 130.603 320.942 132.652 320.355 134.397C320.965 134.655 321.399 135.088 322.091 135.264C323.076 136.505 324.612 137.184 324.894 139.116C325.762 140.311 325.855 142.278 326.242 143.941C326.113 145.756 326.946 147.595 326.536 149.058C325.726 148.801 326.043 147.431 325.668 146.74C325.597 145.779 325.234 145.112 324.988 144.327C324.495 143.473 323.897 142.711 323.533 141.728C321.704 139.374 320.637 137.208 318.021 136.13C317.693 138.063 318.596 139.28 319.382 140.568C319.933 141.482 321.27 142.079 321.211 143.274C320.496 143.402 320.261 142.243 319.569 142.021C319.358 143.25 319.476 145.335 318.608 145.592C318.139 144.901 318.432 143.882 318.315 143.086C317.963 141.634 317.247 140.545 316.673 139.327C316.485 141.81 315.758 144.327 314.55 146.072C314.82 147.278 315.218 148.367 315.23 149.831C315.957 152.162 316.661 154.515 317.353 156.869C318.232 158.883 319.698 160.827 320.25 162.853C318.655 161.998 318.197 160.019 316.872 158.895C315.664 157.654 315.031 155.839 313.881 154.562C313.377 158.86 316.051 161.331 316.872 164.305C316.403 164.223 316.075 163.181 315.711 162.666C315.406 161.975 314.89 161.495 314.749 160.64C314.55 160.417 314.362 160.195 314.175 159.972C314.093 159.246 313.659 158.883 313.307 158.426C313.131 159.832 313.952 160.733 313.694 161.904C314.222 162.595 314.245 163.474 314.655 164.41C314.902 165.043 315.652 165.652 315.429 166.436C314.726 166.108 314.433 165.382 314.081 164.703C312.861 163.579 311.794 162.092 311.184 160.651C310.75 163.181 310.856 166.026 310.609 168.462C310.387 169.809 310.586 171.6 309.742 172.326C308.803 171.073 309.812 169.141 309.542 167.502C309.061 164.176 308.721 160.687 308.041 157.548C307.349 160.487 306.786 163.52 306.903 166.225C307.279 174.821 312.931 182.538 316.473 190.056C318.361 194.072 320.308 198.089 322.361 202.035H255.77C257.002 198.335 258.175 194.611 259.3 190.875C262.608 179.926 264.214 171.308 262.537 159.843C261.845 155.101 261.329 150.382 260.403 145.721C259.171 139.491 256.193 133.706 254.046 127.676C253.425 129.327 252.018 130.954 250.704 132.196C250.294 132.852 249.848 133.964 248.968 133.835C250.235 131.142 252.147 129.104 253.718 126.727C253.026 124.713 252.451 122.675 252.076 120.568C250.411 111.258 241.85 106.679 236.009 99.9694C231.67 94.9809 228.949 89.3366 224.375 84.594C222.417 82.5564 221.15 77.4977 219.919 74.9214C217.714 70.2725 216.037 65.4128 213.715 60.799C212.823 59.0308 211.721 57.2391 210.619 55.3772C209.692 53.8197 208.179 52.1803 206.936 50.5409C206.139 49.487 206.033 48.8898 205.001 48.4096C204.684 48.2691 204.25 48.152 203.641 48.0232C203.031 47.8944 202.28 47.9881 201.506 47.8241C200.838 47.6953 200.017 47.2738 199.184 47.0513C198.351 46.8288 197.507 46.6765 196.663 46.4658C194.352 45.9037 192.71 45.1074 190.459 45.3065C190.154 45.3299 189.931 45.2479 189.661 45.2245C189.567 45.2245 188.969 45.1308 188.911 45.1074C188.183 44.9552 187.316 44.8263 186.588 44.721C184.583 44.4399 182.871 44.9669 182.132 43.5617C181.147 43.3157 179.681 43.5617 179.223 42.7888C179.2 41.0205 181.182 40.9152 182.718 41.243C182.472 41.044 182.015 40.8332 181.557 40.6575C181.241 40.5404 180.338 40.6927 180.396 40.0837C180.725 39.4982 180.795 39.3694 181.17 39.1118C181.405 38.9596 181.733 38.5848 182.144 38.538C182.965 38.4209 183.973 39.0181 184.853 39.1118C185.627 39.1938 186.577 39.0064 187.374 39.1118C188.887 39.3226 190.177 40.2594 191.631 39.8847C190.224 38.9713 187.949 38.9127 186.788 37.7534C187.198 35.7041 189.415 36.3482 191.244 36.7815C192.452 37.0625 193.449 37.5426 194.727 37.9408C195.607 38.2101 196.041 38.2335 197.437 38.3272C197.917 38.3623 198.551 38.5731 198.797 38.5263C199.583 38.3741 199.677 37.9642 200.157 37.5543C200.533 37.2382 201.225 37.0274 201.318 36.395C201.647 35.5051 200.111 34.5565 199.77 33.3036C199.36 31.8047 199.512 30.6454 200.931 29.8257C202.139 30.2823 202.702 31.3246 203.453 32.3433C203.535 32.4604 203.77 32.6127 203.84 32.7298C203.922 32.8469 203.922 33.1865 204.039 33.3153C204.907 34.3692 206.232 34.9781 207.135 36.0203C207.405 36.3248 207.476 36.8283 207.71 37.1796L208.484 38.1516C208.707 38.4677 209.047 38.7839 209.258 39.1235C209.798 39.9666 210.361 40.8215 211.193 41.6412C211.322 41.7583 211.639 41.7349 211.78 41.8286C212.038 42.0276 212.061 42.4726 212.366 42.8005C213.316 43.8076 213.656 45.6343 214.301 47.2503C214.583 47.9647 214.981 48.8195 215.462 49.569C216.67 51.4426 218.3 53.7963 219.719 55.7519C219.966 56.1032 220.247 56.3725 220.493 56.7239C220.728 57.0517 220.845 57.5553 221.08 57.8832C221.338 58.2462 221.607 58.5155 221.854 58.8551C224.305 62.2159 227.096 65.3894 229.019 69.1015C230.626 72.193 231.635 77.3688 234.25 79.7343C237.065 82.2988 240.548 84.067 243.398 86.8072C246.998 90.2617 250.481 92.8965 254.445 95.4961C255.372 94.9223 256.298 94.3485 257.178 93.7045C258.362 92.8262 259.523 92.1588 260.755 91.3859C263.182 89.8753 265.082 87.8846 266.548 85.4137C264.414 86.21 262.889 88.1188 260.075 87.9197C260.825 86.8072 262.444 86.5613 263.452 85.7065C264.719 85.402 265.61 84.7228 266.443 83.9734C264.566 84.3481 262.702 86.1749 260.555 85.32C261.646 84.1256 264.038 84.231 265.387 83.2942C266.724 82.3808 268.061 81.4674 269.351 80.4954C272.975 77.3923 275.684 73.3757 279.015 69.9797C283.295 67.1927 287.904 64.7102 294.566 64.2886C295.14 64.4526 295.891 64.4525 296.395 64.675C297.58 64.4057 298.905 64.7102 299.878 64.9678C301.778 65.9983 303.362 67.3332 304.898 68.7267C307.29 71.7011 308.498 75.8582 309.519 80.2027C310.293 77.7319 311.09 75.2142 311.735 72.6028C313.694 64.7687 315.488 57.7309 318.901 50.3535C321.458 44.8263 323.744 39.0298 325.492 33.1396C326.09 31.1021 325.21 28.4556 324.718 25.7857C324.518 24.6732 324.518 23.6076 324.331 22.4951C324.155 21.5232 323.733 20.5512 323.557 19.591C323.311 18.256 323.44 16.9094 323.17 15.7149C323.088 15.3402 322.924 14.7547 322.783 14.3683C322.548 13.7242 322.232 13.127 322.009 12.0497C321.786 11.0192 321.446 9.6842 321.047 8.37267C320.684 7.21336 319.992 6.11261 320.273 4.88304C320.308 4.74252 320.672 4.76594 320.66 4.49661C320.66 4.49661 320.472 4.26241 320.461 4.11018C320.402 2.76351 319.663 1.38171 319.886 0.046755C320.965 -0.0703464 321.458 0.40977 321.821 1.00699C322.325 1.51052 322.103 0.562001 322.724 0.679103C322.994 0.690813 322.935 0.702523 323.123 0.807914C323.146 0.819624 323.522 1.15922 323.569 1.19435C324.19 1.69789 324.343 2.62299 324.73 3.71203C325.023 4.53174 325.468 5.43342 325.703 6.22971C325.996 7.22507 326.02 8.2907 326.289 9.32119C326.383 9.69591 326.758 10.0706 326.876 10.4805C327.005 10.9723 327.146 11.593 327.286 11.9794C327.486 12.5298 327.884 12.8577 328.037 13.3846C328.283 14.216 328.635 15.1294 328.811 16.0897C329.655 16.4058 330.312 16.9094 331.133 17.249C331.743 16.4878 331.485 15.0826 331.719 13.9584C331.93 12.9045 332.587 10.4219 333.854 10.2814C336.95 9.91841 335.261 15.7969 335.015 18.0218C334.886 19.2046 334.921 20.4575 334.815 21.1133C334.733 21.6871 334.405 22.2843 334.241 22.8581C334.053 23.4905 334.053 24.1697 333.854 24.7903C333.525 25.8208 332.81 26.8044 332.493 27.8935C332.024 29.4861 332.13 31.2894 331.719 33.1162C329.773 41.8637 328.623 50.4004 327.345 59.2884C326.536 64.9327 324.483 69.4879 323.006 74.6989C321.528 79.8982 320.426 86.2334 319.135 91.9128C318.666 93.9621 318.221 95.8592 317.775 98.1075C317.728 98.3417 317.693 98.5876 317.658 98.8453C317.763 98.9975 317.869 99.138 317.974 99.2902C318.69 99.864 319.593 100.239 320.297 100.836C320.449 101.304 319.945 101.129 319.816 101.316C322.009 102.792 324.225 104.244 325.996 106.141C327.017 106.96 327.873 107.932 328.506 109.127C329.186 110.251 330.171 111.059 330.347 112.698C329.339 112.652 329.139 110.532 328.119 110.485C329.221 112.956 330.805 114.947 332.376 116.949C333.021 117.488 333.561 118.144 334.311 118.589C334.675 119.42 335.918 119.361 336.047 120.415C335.507 120.661 335.12 120.017 334.698 119.842L334.651 119.818ZM327.404 117.792C327.192 117.289 326.981 116.293 326.536 116.34C326.735 116.902 327.052 117.359 327.404 117.792ZM327.697 133.8C326.712 132.992 325.586 131.798 324.507 131.388C325.445 132.313 326.547 133.074 327.697 133.8ZM258.714 94.6413C257.694 95.1448 256.931 95.8943 255.982 96.4681C256.556 96.8311 257.143 97.2058 257.752 97.5688C257.799 97.5923 257.846 97.6274 257.893 97.6625C258.362 96.9365 258.831 96.2222 259.207 95.4142C260.004 94.6881 260.544 93.7279 261.142 92.8145C260.133 93.2244 259.312 93.8216 258.726 94.6413H258.714ZM262.866 94.9341C262.784 95.2737 262.573 95.4727 262.479 95.8006C261.775 96.1402 261.505 96.9482 260.931 97.5454C260.532 97.9553 260.133 98.4003 259.734 98.857C260.344 99.2668 260.989 99.7118 261.634 100.18C262.725 97.8265 263.78 95.4259 265.082 93.2946C264.203 93.7045 263.78 94.571 262.866 94.9341ZM267.498 82.5798C268.026 82.4628 268.284 82.088 268.659 81.807C268.214 82.0061 267.768 82.2051 267.498 82.5798ZM318.315 108.237C318.244 108.26 318.127 108.237 318.127 108.33C319.147 110.977 320.414 113.378 323.733 113.729C322.454 111.363 320.297 109.888 318.326 108.225L318.315 108.237Z" fill="#3055FE"/>
<path d="M268.953 81.526C268.449 81.9475 269.257 81.3503 268.953 81.526V81.526Z" fill="#3055FE"/>
<path d="M255.324 95.7069C255.09 96.023 255.652 95.4727 255.324 95.7069V95.7069Z" fill="#3055FE"/>
<path d="M282.628 34.6153C281.467 35.6692 280.036 36.606 278.945 37.6482C278.195 38.3508 277.561 39.1822 276.775 40.0253C275.99 40.8802 275.204 41.7702 274.395 42.625C274.078 42.9646 273.503 44.0185 273.093 44.5689C272.342 45.576 271.557 46.6416 270.489 47.6018C262.831 54.4991 258.058 64.2536 252.288 72.6967C252.159 72.884 251.76 72.9543 251.631 73.1299C251.49 73.329 251.549 73.5866 251.408 73.774C251.315 73.9145 251.057 74.0784 250.974 74.2073C249.696 76.2682 247.984 78.8796 246.424 80.9172C244.724 83.1304 242.882 85.004 241.229 87.1938C239.751 89.1377 236.338 90.6834 235.377 92.8147C234.567 94.6063 232.597 96.1638 231.26 97.7915C230.932 98.2013 230.732 98.6697 230.392 99.0913C229.536 100.134 228.328 101.316 227.355 102.558C226.721 103.377 226.252 104.326 225.619 105.157C224.997 105.977 224.306 106.726 223.672 107.534C220.224 111.926 216.084 116.27 212.836 120.732C212.038 121.832 211.206 123.273 210.244 124.631C207.582 128.355 208.719 132.676 208.508 137.395C208.391 140.053 208.285 142.805 207.863 145.405C207.453 147.852 206.714 150.253 206.561 152.759C206.245 157.783 206.995 163.521 208.297 167.256C209.177 169.797 210.138 173.299 211.112 176.132C211.382 176.917 211.44 177.807 212.191 178.299C212.355 179.247 211.487 179.177 211.323 179.809C211.71 180.641 212.707 181.25 212.625 182.409C212.625 182.503 212.32 182.737 212.402 183.053C212.695 184.107 213.481 185.032 213.926 186.086C214.138 186.59 214.161 187.316 214.36 187.819C214.442 188.018 214.689 188.217 214.794 188.463C216.507 192.456 217.785 197.257 219.134 202.012H154.303C154.842 200.103 155.475 198.136 156.073 196.25C157 193.346 157.821 190.477 158.888 187.374C159.099 186.753 159.51 186.027 159.756 185.208C160.131 183.966 159.826 181.835 160.847 180.887C161.21 180.161 160.706 180.149 160.624 179.376C161.609 177.596 161.984 175.324 162.571 173.099C162.852 172.057 163.157 170.956 163.439 169.856C164.271 166.542 165.069 161.588 164.74 156.658C164.471 152.665 162.934 148.977 162.137 144.972C161.738 142.958 161.515 140.838 161.269 138.695C161.14 137.618 161.222 136.575 161.046 135.451C160.905 134.514 160.471 133.531 160.401 132.641C160.319 131.692 160.26 130.627 160.401 129.608C160.53 128.765 160.46 128.46 159.756 127.231C159.627 126.997 159.51 126.657 159.322 126.364C159.275 126.282 158.923 126.224 158.888 126.153C158.407 125.1 157.469 124.022 156.719 122.91C155.311 120.825 153.81 118.741 152.813 117.066C141.027 97.206 128.408 77.7906 118.58 56.9114C117.126 53.8199 115.355 50.6582 113.818 47.391C112.986 45.6345 112.528 43.7492 111.649 42.625C111.062 41.8756 110.124 41.5828 109.479 40.8919C109.327 40.7162 109.186 40.4118 109.045 40.2478C107.544 38.4211 106.148 35.4116 104.706 33.1047C104.46 32.7065 104.307 32.203 104.061 31.8048L102.055 28.7953C101.997 28.7133 101.715 28.4206 101.68 28.3386C101.152 27.1559 99.921 25.6102 99.0883 24.4391C97.9625 22.87 96.0274 21.3125 96.6959 19.0291C98.0211 18.8417 98.6192 19.8136 99.2994 20.5397C99.921 21.2189 100.484 22.0737 101.035 22.706C101.188 22.8817 101.293 23.2213 101.469 23.3501C101.774 23.5843 102.02 23.7834 102.313 24.2635C102.454 24.4977 102.618 24.6733 102.771 24.8724C103.31 25.5867 103.897 26.3362 104.507 27.0388C105.234 26.2191 104.553 24.6382 105.586 23.7951C106.5 23.3033 108.013 23.6429 108.541 24.1464C108.729 22.952 108.541 22.1322 110.359 21.8512C111.789 21.7927 112.012 23.6077 113.173 23.151C113.431 22.7529 113.091 22.2493 112.962 21.8512C112.54 20.5045 111.942 19.111 111.449 17.5185C111.285 17.0032 111.215 16.5465 111.015 16.0078C110.699 15.1647 110.277 14.3333 109.925 13.1974L109.303 11.2769C109.303 11.2769 108.987 9.96541 109.925 9.52042H110.359C111.18 9.40332 111.496 10.3518 111.872 10.8202C112.798 11.9561 113.197 12.9281 113.818 14.4972C114.065 15.1062 114.44 15.6331 114.686 16.2303C115.261 17.6238 115.425 19.1344 115.988 20.5514C116.469 21.7692 117.419 22.8114 117.935 24.0059C118.334 24.9427 118.357 25.9498 118.803 26.8163C119.248 27.6829 120.022 28.3855 120.538 29.1935C122.415 29.0764 123.822 29.5448 124.655 30.7041C125.089 31.313 125.441 31.9336 125.089 33.0812C124.796 34.018 124.315 35.9853 123.787 36.9807C123.236 37.9995 121.477 39.2759 121.406 40.0136C121.324 40.8451 123.271 43.6555 124.221 45.2012C126.918 49.5925 129.264 52.9299 132.243 56.888C135.738 61.5369 139.737 66.3849 141.308 72.0877C142.762 77.3222 144.416 80.4488 147.841 84.5824C150.878 88.2477 154.185 97.206 158.501 99.1264C159.088 99.3841 159.733 99.7237 160.389 100.122C160.389 99.993 160.413 99.8525 160.424 99.7237C160.014 99.3255 159.498 99.0093 159.275 98.4707C159.346 97.7563 159.51 96.9249 160.295 96.9601C159.897 97.7329 159.815 98.6463 160.659 98.8805C161.058 98.9976 161.222 98.5995 161.679 98.4355C162.711 98.0608 164.107 98.5644 163.673 96.7376C163.18 96.0467 161.926 95.5197 162.641 94.1848C161.632 92.8966 162.84 91.2806 164.459 92.0184C164.295 91.0113 163.474 90.4844 163.732 89.1611C164.084 88.6342 164.94 88.8566 165.456 88.5639C165.479 87.4631 166.148 87.2875 166.675 86.9128C166.593 85.9525 166.112 85.2733 166.288 84.114C166.617 83.7979 166.98 83.5519 167.637 83.7159C167.449 83.2006 167.555 82.4746 167.719 81.69C167.039 81.5964 166.687 81.9711 166.124 82.0413C165.948 82.8259 166.136 83.3412 166.148 83.9852C165.679 83.7393 165.901 84.0438 165.62 84.0789C165.033 83.388 165.291 81.6666 165.89 80.9406C165.116 81.2802 162.899 80.7064 163.298 79.5354C164.037 79.6642 164.459 80.4136 165.268 80.0389C165.432 78.8445 164.447 78.4815 164.224 77.5681C164.541 76.3853 166.054 76.9357 166.746 76.3034C166.499 75.2612 165.42 74.8162 165.397 73.61C165.667 73.0597 166.265 73.0128 166.875 72.966C167.133 72.5678 167.039 71.8301 167.672 71.7715C167.813 71.2914 167.649 71.0338 167.79 70.5537C168.259 69.4178 169.338 69.1602 170.241 68.6684C171.695 68.9962 172.316 68.118 172.879 67.1577C172.985 66.783 172.95 66.502 172.961 66.1975C173.032 65.8462 173.442 65.975 173.56 65.6823C173.395 63.9726 173.806 62.3332 175.6 62.6611C176.163 61.6657 176.867 60.8577 178.262 61.0685C178.767 60.483 179.271 59.8975 180.033 59.6867C180.608 59.7687 180.842 59.7218 181.359 59.9092C183.423 60.0848 184.079 58.2229 186.214 58.504C186.554 58.6093 186.8 58.7733 187.082 58.9138C187.375 58.9138 187.398 58.5157 187.668 58.4805C188.337 58.7382 189.017 58.9958 189.673 59.2534C190.342 59.1597 190.541 58.3751 191.198 58.2698C191.96 58.4571 192.523 58.8553 193.344 58.7967C193.72 58.3986 194.318 58.4103 194.611 58.9138C194.881 58.9489 195.256 58.8201 195.444 59.0543C195.842 59.0895 195.537 59.6398 195.842 59.7452C196.018 59.8858 196.968 59.7687 197.25 60.0614C197.601 60.2488 197.484 60.7874 197.766 61.0333C198.786 61.5135 199.982 61.8531 200.287 62.8601C200.146 63.3988 200.24 63.7384 200.44 64.0311C201.425 64.3005 202.445 64.5581 202.984 65.1553C203.524 65.2256 203.782 64.886 204.439 65.1319C204.884 65.5769 205.142 66.1624 204.873 67.146C205.025 67.6379 205.682 67.755 206.292 67.9072C206.386 68.2936 206.69 68.762 206.386 69.4178C206.491 69.7106 206.878 69.8042 207.148 69.9799C207.089 70.3546 207.042 70.7528 206.89 70.9987C207.863 72.076 207.887 73.7974 207.183 75.3783C207.218 75.5539 207.265 75.7179 207.265 75.9169C207.734 76.2565 208.59 76.0458 209.001 76.2917C208.801 76.6078 208.79 77.1816 208.696 77.65C209.118 77.7671 209.388 77.65 209.658 77.5447C210.326 78.1887 212.285 77.7789 212.414 78.9733C212.214 79.5822 211.675 80.601 211.124 81.0577C211.499 81.409 212.038 81.1045 212.472 81.1982C212.402 81.5144 212.308 81.5027 212.378 81.7954C211.628 82.0179 210.748 82.0765 210.467 82.9782C211.909 82.7088 213.387 83.7861 213.622 85.0977C213.281 86.0579 212.883 86.9479 212.273 87.5217C213.962 88.2711 212.695 90.5195 211.733 91.2338C211.769 91.8896 212.085 92.3346 212.519 92.6859C214.841 92.6507 215.791 94.618 215.498 96.3628C215.779 96.035 216.049 95.7071 216.342 95.3675C217.75 93.7749 219.438 92.276 220.682 91.0464C221.983 89.7466 223.074 88.6224 224.587 87.3695C232.914 80.4956 237.593 70.5771 244.958 62.7079C246.377 61.1856 248.418 59.3237 249.942 57.5086C250.294 57.0987 250.447 56.6655 250.81 56.2088C250.951 56.0331 251.326 55.9511 251.455 55.7755C251.608 55.5647 251.514 55.3071 251.678 55.1314C252.229 54.4757 252.968 53.8082 253.625 52.9651C254.751 51.5364 256.041 49.9321 257.096 48.199C257.378 47.7306 257.741 47.4379 257.964 46.8992C258.152 46.4308 258.398 45.5291 258.398 45.3886C258.351 44.323 257.002 43.3862 256.451 42.1449C256.334 41.8873 256.299 41.6296 256.228 41.5008C255.126 39.1002 255.806 34.1469 255.361 31.1139C255.103 29.3925 253.707 27.5189 254.716 25.9146C256.463 25.5165 257.542 26.746 258.398 27.6477C258.855 28.1278 258.75 29.9429 259.043 31.1139C259.289 32.0976 259.454 33.2569 260.345 33.4911C261.271 33.737 262.374 32.9056 262.948 32.4138C263.511 31.9219 263.91 31.2779 264.25 30.6807C264.719 29.8727 265.059 29.0412 265.552 28.3035C265.728 28.0342 266.115 27.6009 266.42 27.2145C266.631 26.9451 266.842 26.6641 267.065 26.3479C267.534 25.6921 268.003 24.7085 268.578 23.7482C268.894 23.2213 269.305 22.7646 269.657 22.2376C271.111 20.0596 273.058 15.3755 274.852 16.6051C276.306 17.0266 274.453 20.1649 273.55 21.8044C273.503 21.898 273.257 22.343 273.222 22.4133C272.682 23.6194 271.686 25.1418 270.947 26.3479C270.876 27.2145 271.85 26.9802 272.331 27.6829C273.339 28.6197 273.339 29.4628 272.858 31.4067C273.679 31.8868 275.051 30.95 276.295 32.8822C277.139 34.1469 275.767 35.2476 275.919 36.0673C276.541 36.2547 276.846 35.7043 277.221 35.4233C278.042 34.8026 278.793 34.0298 279.602 33.2569C279.719 33.1398 280.2 32.6831 280.493 32.4723C281.889 31.4184 284.164 29.2169 285.442 30.4465C286.357 31.8165 283.812 33.4794 282.628 34.5567V34.6153ZM162.043 99.829C161.691 99.9579 161.093 99.7471 161.093 100.379C161.093 100.485 161.093 100.555 161.116 100.602C161.175 100.649 161.234 100.684 161.292 100.719C161.445 100.742 161.632 100.719 161.773 100.848C161.75 100.906 161.703 100.942 161.668 100.988C161.832 101.105 161.996 101.223 162.16 101.351C162.019 100.918 161.961 100.426 162.031 99.8408L162.043 99.829ZM163.263 95.0864C163.661 95.953 164.811 96.2458 164.459 97.6744C165.456 96.7024 164.553 94.1613 163.263 95.0864ZM165.772 89.2314C165.573 89.2314 165.397 89.2665 165.315 89.4187C165.491 89.5475 165.714 89.6295 165.854 89.77C165.937 89.5007 165.796 89.4187 165.772 89.2197V89.2314ZM165.491 77.5212C165.585 78.5049 166.593 79.512 166.324 80.7532C166.816 80.5893 167.402 80.5424 167.778 80.2029C168.094 79.1138 167.473 78.7157 167.485 77.8491C166.91 78.2004 166.23 77.5212 165.491 77.5212ZM167.754 74.7108C167.614 74.6874 167.473 74.664 167.344 74.6405C167.356 75.3549 167.754 75.7881 168.2 76.198C168.435 75.835 169.138 76.1394 169.314 75.6827C169.49 75.0387 168.786 74.418 168.798 73.6569C167.977 73.5515 168.317 74.4883 167.766 74.7225L167.754 74.7108ZM168.927 70.2258C168.892 70.6825 169.044 70.9987 169.373 71.186C169.9 70.9167 170.311 70.4834 170.686 69.9916C170.299 69.6169 169.302 69.8979 168.939 70.2258H168.927ZM183.997 59.8272C183.774 59.9911 183.903 60.2839 184.173 60.2956C184.29 60.0146 184.161 59.9092 183.997 59.8272ZM210.807 100.297C211.077 100.18 211.323 100.063 211.581 99.9344C211.311 99.8759 211.018 99.9344 210.725 100.215C210.748 100.239 210.783 100.262 210.807 100.297ZM212.613 85.2499C212.402 84.8986 212.191 84.559 211.733 84.3951C211.604 84.6995 211.323 84.7932 211.182 85.0977C211.511 85.2031 211.44 85.6129 211.862 85.6598C212.191 85.6364 212.449 85.5193 212.613 85.2499ZM211.757 88.8215C210.83 88.7864 210.091 89.0323 209.646 89.7115C209.927 90.0862 210.396 90.6249 210.866 90.6249C211.335 90.2619 211.616 89.6529 211.757 88.8332V88.8215ZM213.176 94.7117C211.827 95.2621 210.725 94.2667 210.009 93.6578C209.564 94.1262 209.024 94.981 209.13 95.8944C210.279 96.5502 211.346 97.2645 211.487 98.6697C211.968 98.822 212.355 99.0328 212.683 99.2904C212.918 99.1147 213.152 98.9157 213.375 98.7049C213.223 98.7049 213.059 98.6815 212.777 98.6229C212.296 98.2365 212.05 97.6978 212.027 96.9952C212.836 97.124 212.437 98.1428 213.457 98.1077C214.525 97.2762 213.844 95.3792 213.164 94.7L213.176 94.7117ZM214.29 94.7117C214.231 95.1567 214.501 95.6134 214.759 96.0233C215.029 95.5197 214.783 94.8874 214.29 94.7117Z" fill="#3055FE"/>
<path d="M212.085 86.4794C211.816 86.7019 212.377 86.2803 212.085 86.4794V86.4794Z" fill="#3055FE"/>
<path d="M179.166 61.2206C179.259 61.2206 179.271 61.3611 179.329 61.244C179.341 61.162 179.201 61.1152 179.166 61.2206Z" fill="#3055FE"/>
</g>
<defs>
<clipPath id="clip0_320_3111">
<rect width="336" height="202" fill="white" transform="matrix(-1 0 0 1 336 0)"/>
</clipPath>
</defs>
</svg>
