<svg width="413" height="195" viewBox="0 0 413 195" fill="none" xmlns="http://www.w3.org/2000/svg">
<g clip-path="url(#clip0_1406_4)">
<path d="M151.363 172.581C147.275 169.669 148.009 170.821 147.009 172.197C145.976 173.626 143.815 171.44 143.102 170.661C142.271 169.765 140.706 169.242 139.557 168.88C137.364 168.176 133.765 167.813 132.914 170.629C134.798 170.917 138.332 174.693 134.702 175.045C133.574 175.152 132.53 174.597 131.519 174.181C129.997 173.552 128.315 173.68 126.846 172.922C124.514 171.738 122.566 170.266 120.16 169.189C117.924 168.186 116.924 165.296 115.519 163.461C111.739 158.522 106.416 155.152 102.243 150.597C98.5493 146.565 95.7388 141.712 95.0149 136.218C91.4592 142.597 90.565 151.504 91.2037 158.661C91.5657 162.768 92.1618 166.917 91.6721 170.992C91.6082 171.493 92.0021 173.189 91.6721 173.541C91.4166 173.818 90.8098 173.637 90.6608 174.042C91.1505 176.25 91.9063 178.394 92.758 180.485C94.5465 184.88 95.8133 189.392 96.7714 193.989H58.9791C58.4894 193.776 57.9997 193.637 57.51 193.605C57.1267 193.584 56.7116 193.722 56.2751 193.989H23.9653C25.0512 189.072 26.4351 184.24 28.5217 179.6C30.2144 175.824 32.3222 172.25 34.2491 168.581C36.3676 164.56 38.0496 160.346 40.0936 156.293C42.4037 151.706 45.9062 147.706 47.5669 142.789C49.2489 137.818 47.8011 133.008 47.1624 128.005C46.5023 122.906 45.5548 120.912 42.2547 117.178C40.892 115.642 41.222 113.424 39.721 111.792C38.3477 110.298 36.6231 109.189 34.9091 108.144C29.8631 105.082 24.2527 103.141 19.0896 100.304C16.0875 98.661 13.4261 96.6663 10.8604 94.405C7.76253 91.6743 0.832138 90.0743 0.523407 85.349C0.204041 80.3357 2.93999 74.6717 4.5475 70.0637C6.83632 63.5037 9.19971 56.8477 9.93427 49.893C10.3069 46.405 10.0194 42.9703 9.97682 39.4823C9.94489 36.8157 9.58295 32.005 11.3608 29.7863C12.5957 28.2503 15.4913 25.829 17.7056 26.0103C18.1634 26.0637 18.5466 26.2663 18.8767 26.597C19.228 26.1597 19.7177 25.8183 20.2287 25.5943C21.421 25.093 22.5388 25.5623 22.7624 26.9063C24.4124 25.1463 26.3499 27.1303 25.6047 29.0183C25.2641 29.893 24.7957 30.7037 24.3273 31.5143C23.4756 32.9757 24.9234 32.805 25.0938 34.2237C25.2109 35.2263 24.4337 36.3357 24.4231 37.3917C24.4124 38.8317 24.4231 39.845 23.614 41.093C22.2726 43.1303 19.7709 44.3357 18.7276 46.5223C17.4288 49.2637 17.2904 52.4637 16.7049 55.397C14.9164 64.4317 14.7142 73.9143 11.5737 82.6397C19.8241 82.0317 24.8489 87.781 32.3542 89.5943C35.3563 90.3197 38.0177 90.917 40.7536 91.9303C40.8068 91.845 40.8601 91.7597 40.9133 91.685C40.3172 90.9063 39.1035 90.789 38.9226 89.7223C38.7735 88.7837 39.6465 88.3677 39.9765 87.525C39.4868 86.9383 38.8055 86.2023 38.9651 85.0503C39.2952 84.453 40.6152 84.2717 41.1795 84.069C40.5727 82.821 39.4974 82.2023 38.699 81.221C38.4754 80.3357 39.0184 79.8023 39.3271 79.0983C39.061 78.4583 38.369 78.405 37.9964 77.9037C38.0283 77.1997 38.4967 76.805 38.6883 76.2077C38.5606 75.7917 38.1348 75.781 38.0177 75.3437C37.9964 74.5223 38.5926 74.1383 39.1674 73.7437C38.5819 73.2957 37.8154 72.4637 38.5925 71.813C38.1774 71.7597 37.6983 71.7917 37.198 71.8663C36.7828 72.069 36.1973 73.0077 35.6117 72.389C35.814 71.5997 36.6763 71.2903 37.7835 71.1623C37.9751 70.4157 38.518 69.925 39.391 69.669C39.9233 68.5917 38.5393 67.493 39.21 66.3517C39.8913 66.085 40.3171 65.6263 40.8494 65.6477C40.6578 64.8263 39.8807 64.8263 39.5613 64.1863C39.2526 62.8957 40.4236 62.6823 40.7643 61.8823C39.6145 62.053 39.3165 63.5143 38.2093 63.973C38.2519 64.7197 38.4967 65.189 38.8906 65.445C39.2526 65.4663 39.4016 65.1463 39.6571 65.317C38.7948 66.629 37.1447 65.2103 37.3683 63.6637C38.6564 63.0557 38.9013 61.6903 40.2959 61.1677C40.2426 60.4957 40.0191 60.2397 40.0936 59.877C40.6259 58.693 41.6904 57.9037 42.4144 56.8583C42.3292 55.973 42.2972 54.5863 42.9147 53.9677C42.8615 53.6583 42.8082 53.3383 42.7657 53.029C43.5109 52.101 44.618 51.4397 45.8423 50.853C45.7358 48.1543 47.8117 47.0237 50.2709 46.1703C51.1758 45.3597 51.0055 43.7703 52.6449 43.493C53.784 43.3863 54.5398 42.9917 55.6151 42.8317C56.818 43.013 57.9571 43.2797 59.2878 43.2903C60.1501 42.309 62.2367 42.501 63.2587 41.765C63.8335 41.6583 64.1849 41.8823 64.8236 41.6797C65.4836 41.989 65.9095 42.6183 66.5269 42.9917C67.3041 42.6183 67.6341 41.925 68.3048 41.4663C69.5503 41.1677 70.8172 41.6583 71.754 42.1383C71.903 42.5863 72.1798 42.8743 72.3714 43.269C73.3934 42.949 74.2344 42.117 75.48 42.4157C76.0229 42.949 76.5126 43.5783 76.6404 44.6877C76.9491 45.1997 77.6091 45.2317 78.0137 45.605C78.9505 45.349 78.9931 44.4423 79.8873 44.1543C80.888 44.5703 80.6644 46.053 81.4416 46.7143C82.0058 46.5117 81.9632 45.8823 82.3997 45.5943C83.3259 45.1997 84.4117 45.349 84.8376 45.989C84.433 46.8317 84.0072 47.6637 83.0704 48.1223C83.6133 50.021 86.0938 47.6637 86.7325 49.029C86.147 49.7117 84.4117 49.6477 83.5707 50.0743C83.7517 50.4797 84.3053 50.3837 84.6247 50.6077C84.9015 51.589 85.8063 51.6957 86.0299 52.7623C86.3812 53.0717 87.0519 52.9437 87.4245 53.2423C87.9035 54.117 87.2542 55.525 88.4145 55.5463C89.1384 54.981 88.7126 53.5943 89.7027 53.221C90.5117 53.5197 90.5437 54.277 90.8311 55.3223C90.4798 56.9117 89.4685 58.021 89.0533 59.5677C89.7665 59.973 90.2882 60.6557 90.5437 61.701C90.9056 61.925 91.5444 61.7757 91.9063 62.0103C93.2264 63.4503 92.0979 65.445 92.1512 66.8103C92.4706 67.301 93.5458 67.0877 94.1739 66.8317C94.7487 66.6183 94.8765 65.765 95.5046 65.829C95.5898 67.557 94.1632 68.6237 92.4706 68.261C92.2151 68.4637 92.1086 68.7517 92.0873 69.1143C92.5344 70.341 94.3016 70.5543 94.9616 69.5303C95.2278 69.509 95.2704 69.797 95.3875 69.989C95.1426 70.7037 93.9929 71.0237 93.1625 70.8743C92.6515 72.1117 94.2484 73.7117 93.1945 74.8317C94.0248 75.2477 94.802 74.1383 95.6643 74.341C96.3775 75.3223 95.5898 76.677 94.9191 77.3597C95.6536 78.437 97.176 77.637 97.8254 76.8903C98.4747 78.5117 95.7601 78.9277 94.7274 78.3623C94.3335 78.8317 94.0887 79.4183 93.748 79.9303C94.2058 80.6983 95.4514 80.6557 96.2391 80.1437C96.8247 79.8343 96.6224 78.9597 97.325 78.7357C98.496 80.6557 95.281 81.829 93.7693 81.1677C93.6735 81.9037 94.5678 82.1383 94.4613 83.2583C94.6316 83.6103 95.1639 83.4717 95.4194 83.717C96.0156 84.9757 94.5039 85.6477 95.1426 86.9277C95.611 87.333 96.7608 86.789 97.4208 86.9063C97.6018 87.1837 97.6231 87.6743 97.6976 88.0903C97.9957 88.4103 98.528 88.3997 98.7728 88.7943C99.0177 89.6477 98.7728 90.149 98.6451 90.7463C99.4435 90.6503 100.817 90.1063 101.594 90.533C102.446 90.9597 102.36 92.6023 102.414 93.4237C102.435 93.4343 102.456 93.4557 102.467 93.4663C103.308 93.2637 103.329 92.4637 104.245 92.3037C104.372 92.4103 104.596 92.3783 104.713 92.4957C104.692 93.3383 104.202 93.9677 103.521 94.405C105.607 96.4957 106.864 99.429 107.098 103.088C107.364 107.173 106.704 111.237 106.182 115.28C105.639 119.621 105.905 123.706 105.927 128.048C105.948 131.162 105.448 134.448 106.597 137.424C107.918 140.816 111.164 143.354 113.027 146.49C114.933 149.701 116.477 153.114 118.329 156.368C119.692 158.757 121.395 162.597 123.982 163.877C125.185 164.474 126.803 164.09 128.059 163.888C133.489 163.034 137.64 164.261 144.794 165.605C147.232 166.064 149.83 167.898 152.023 169.978C153.864 170.949 153.322 173.957 151.352 172.56L151.363 172.581ZM47.3433 90.8317C47.8437 90.7677 48.1418 90.5543 48.0992 90.0957C47.6946 90.2023 47.2901 90.3197 47.2262 90.6823C47.3007 90.6823 47.3433 90.7357 47.3433 90.8423V90.8317ZM46.1723 94.2023C45.9594 93.9463 45.5442 93.8077 45.2355 93.8823C45.5442 93.9997 45.8529 94.1063 46.1723 94.2023ZM46.1723 91.7277C45.8742 91.653 45.3206 91.7277 45.3632 92.1223C45.7358 92.069 46.1723 92.0477 46.1723 91.7277ZM45.2674 90.469C45.5761 90.3943 45.8423 90.277 45.8955 90.0103C45.5655 89.8397 45.0545 89.8717 45.2674 90.469ZM39.6571 89.445C39.9445 90.629 40.7643 91.045 41.9353 91.013C42.9786 89.733 41.3924 88.4317 40.413 88.0903C40.2107 88.5703 39.6571 88.805 39.6678 89.445H39.6571ZM39.7423 85.1143C39.6465 85.5943 39.7316 86.0317 40.0404 86.3837C40.6259 85.7863 42.7976 85.5623 41.914 84.4103C41.584 84.773 40.4768 84.6983 39.7423 85.1143ZM40.2639 81.2423C40.711 80.837 41.0091 80.3143 41.0517 79.621C40.3917 79.4397 39.8062 80.3037 39.4974 80.8477C39.8062 80.901 40.051 81.0503 40.2639 81.253V81.2423ZM40.9878 78.1383C40.9133 77.0503 39.2419 76.5917 39.359 77.8717C39.5613 78.4797 40.5939 78.7357 40.9878 78.1383ZM39.6358 70.3517C39.2739 70.3943 39.1035 70.5757 38.8055 70.661C38.8055 71.109 39.029 71.269 39.061 71.6743C39.7849 71.621 39.721 70.9917 39.6358 70.3517ZM39.3271 74.981C39.3803 75.3543 39.4016 75.781 39.6465 75.8983C40.6791 75.0557 42.1802 73.9037 41.4243 72.261C41.0091 72.5597 40.0617 72.485 39.7742 72.8797C40.1255 73.157 40.9985 72.7197 41.0836 73.3703C40.711 74.0637 39.6358 74.245 39.3271 74.9703V74.981ZM40.4449 71.013C40.413 71.2263 40.3704 71.6317 40.5726 71.781C40.8175 71.7063 40.9772 71.5677 41.0304 71.3543C40.8281 71.2583 40.7643 70.9597 40.4449 71.013ZM40.5088 63.2583C40.6685 63.365 40.924 63.1197 41.2753 63.1303C41.254 63.013 41.2433 62.9063 41.222 62.789C40.8388 62.8423 40.6259 63.013 40.5088 63.2583ZM41.914 58.8957C41.2433 59.0877 40.8388 59.4823 40.892 60.2077C41.222 59.7917 41.8821 59.6103 42.0205 59.0557C41.9566 59.0557 41.914 59.0023 41.914 58.8957ZM41.1475 81.8183C41.1688 82.9277 42.1269 83.6103 42.9041 83.9943C42.5421 82.9597 41.5627 82.7783 41.1475 81.8183ZM43.3299 93.0503C43.7557 93.253 44.1922 93.4557 44.6393 93.6477C44.437 93.1463 44.1922 92.9437 44.2454 92.3143C43.7238 92.4423 43.3086 92.6557 42.9254 92.869C43.0531 92.933 43.1915 92.9863 43.3299 93.0503ZM43.2767 87.365C43.5322 87.5357 43.6599 87.877 44.0538 87.8557C44.65 87.685 44.3732 87.0023 44.3732 86.5757C44.5435 86.5757 44.5222 86.437 44.5967 86.3623C45.3526 86.3623 46.3959 86.2877 46.3 85.4663C46.2255 85.221 46.0552 85.1037 45.7997 85.1037C45.5655 86.2983 43.3405 86.053 43.266 87.365H43.2767ZM44.7458 78.501C44.2561 78.6503 44.0219 79.3863 44.2561 79.813C44.5648 79.4823 44.8629 79.141 44.7458 78.501ZM44.437 83.653C44.5116 84.2183 44.618 84.7303 44.7671 85.189C45.2461 85.0717 45.3845 84.7197 45.4165 84.293C45.1929 83.941 44.948 83.621 44.437 83.6637V83.653ZM45.0438 81.9677C45.821 82.7463 45.9594 84.3997 46.9281 84.9223C47.2688 84.741 47.4604 84.4423 47.4924 84.037C46.8536 83.109 46.0233 82.4477 45.0545 81.9677H45.0438ZM46.002 87.3543C46.5768 87.6743 47.4604 88.1223 47.9821 88.1757C47.4179 87.8877 46.6194 86.885 46.002 87.3543ZM45.0332 87.8663C44.9374 88.0477 44.8629 88.2503 44.8735 88.5063C45.5442 89.349 47.1091 90.565 48.1631 89.2957C47.4072 88.421 46.1297 88.261 45.0332 87.8663ZM70.7001 42.949C70.9662 43.077 70.9449 43.589 71.3281 43.557C71.2643 43.2157 70.8384 42.8317 70.7001 42.949ZM79.8554 45.2423C79.1634 45.3063 79.5892 46.1063 79.9938 46.0957C80.1322 45.8823 79.9618 45.4343 79.8554 45.2423ZM80.8454 48.0797C80.5261 47.9623 80.2386 47.2477 79.9512 47.429C80.1854 47.909 80.5686 48.1863 80.6325 48.901C80.9945 49.029 81.6971 49.0823 81.9313 48.7837C81.8461 48.1543 81.2606 48.2397 80.8561 48.0797H80.8454ZM82.4316 49.7543C81.9845 49.6263 81.0796 49.6263 80.6112 49.8717C80.558 50.981 81.9526 50.9703 82.4423 50.3623C82.421 49.9783 82.421 50.0743 82.4316 49.7437V49.7543ZM91.1505 84.069C91.2889 83.5783 91.8531 82.6183 91.4699 82.2557C91.2356 82.533 90.8843 82.7463 90.6288 83.013C90.7247 83.4717 90.7034 84.101 91.1505 84.069ZM88.1271 64.3143C88.191 64.6557 88.6487 64.9863 88.8297 64.8157C88.8297 64.6557 88.5316 63.8983 88.1271 64.3143ZM87.499 74.533C87.5522 75.0557 87.7226 75.4077 87.9461 75.6957C88.0845 75.6743 88.2336 75.653 88.372 75.621C88.6807 75.141 88.7871 74.501 88.8723 73.8717C88.2442 73.6903 87.68 74.1597 87.4884 74.533H87.499ZM88.8191 78.3623C88.7126 78.5223 88.7552 79.0663 89.0852 78.9383C89.1597 78.821 89.032 78.3943 88.8191 78.3623ZM89.4578 75.269C89.2023 76.517 89.4578 78.9917 90.7247 79.2903C91.4486 78.7997 91.8531 78.085 92.0554 77.221C91.6295 76.6557 91.0334 76.3357 90.3095 76.1863C90.022 75.8877 89.873 75.397 89.4578 75.269ZM89.7772 64.2183C89.6601 64.7837 89.9795 65.5943 90.384 65.7863C90.4905 65.3383 90.6395 64.0797 89.7772 64.2183ZM89.9901 73.6903C90.2137 74.6823 90.3946 75.717 91.3634 75.6637C92.098 75.1623 91.9915 74.0423 92.0873 73.0823C91.2037 72.6877 90.2882 72.709 89.9901 73.6903ZM91.2676 71.2797C91.5124 71.397 91.7679 71.5037 92.1618 71.397C92.4812 70.6503 90.9908 69.9463 91.2676 71.2797ZM95.1533 75.2263C95.0468 75.237 95.0149 75.141 94.8871 75.1837C94.4613 75.653 93.2158 75.7063 92.8112 75.9623C93.3329 76.1863 93.8864 76.3677 94.472 76.485C94.8339 76.165 95.1959 75.845 95.1426 75.2263H95.1533ZM93.7906 77.6477C92.4173 77.0717 92.3322 79.0237 91.7573 79.7383C91.9489 79.9623 92.2789 79.9837 92.6728 79.941C92.758 78.9703 93.5564 78.5117 93.7906 77.6477ZM92.3215 84.837C92.5451 85.4237 93.6203 85.957 94.0568 85.253C93.9823 84.485 92.7899 84.709 92.3215 84.837ZM94.0248 89.4023C94.259 88.3357 93.8971 87.4503 93.6416 86.469C93.3116 86.2557 92.7899 86.3197 92.4493 86.1383C92.0979 86.6397 91.8212 87.1943 91.5763 87.781C92.0234 88.6983 93.0028 88.8903 93.4074 89.861C93.4819 90.213 93.45 90.5223 93.3648 90.7677C93.7906 90.7677 94.2164 90.789 94.6316 90.8103C95.2917 90.8423 95.9411 90.917 96.5585 91.013C96.5159 90.7463 96.5053 90.4477 96.5266 90.149C95.6217 89.9997 94.3974 90.309 94.0355 89.413L94.0248 89.4023ZM95.1 87.909C95.0788 88.2503 95.3556 88.1757 95.4407 88.3783C95.973 88.261 96.5372 88.165 96.6543 87.7383C96.0582 87.8983 95.6643 87.7917 95.1 87.8983V87.909ZM100.742 91.8343C100.444 91.8343 100.157 91.8877 99.8587 91.9623C100.285 92.1437 100.7 92.3463 101.094 92.5703C101.008 92.3143 100.902 92.0583 100.742 91.8343Z" fill="#3055FE"/>
<path d="M41.8917 60.3999C42.0407 60.3785 42.0939 60.2932 42.1152 60.1865C41.9662 60.2079 41.9023 60.2932 41.8917 60.3999Z" fill="#3055FE"/>
<path d="M42.924 84.1653C42.9666 84.656 42.892 83.888 42.924 84.1653V84.1653Z" fill="#3055FE"/>
<path d="M45.1806 91.0984C45.4148 91.1944 45.3828 90.7678 45.2232 90.8318C45.2232 90.8851 45.2232 90.9384 45.1486 90.9278C45.1486 90.9811 45.1699 91.0451 45.1806 91.0984Z" fill="#3055FE"/>
<path d="M92.5646 81.0293C92.5965 80.8266 92.192 80.7306 92.192 80.9119C92.3624 80.8799 92.341 81.1253 92.5646 81.0293Z" fill="#3055FE"/>
<path d="M98.0266 89.2852C97.9627 89.3172 97.8563 89.3172 97.8669 89.4025C97.9308 89.3705 98.0372 89.3705 98.0266 89.2852Z" fill="#3055FE"/>
<path d="M304.245 119.141C301.626 118.256 299.869 116.496 297.932 114.917C297.634 114.448 297.304 114.021 296.878 113.69C297.41 116.08 299.039 118.149 299.944 120.453C300.7 121.552 301.807 122.746 302.137 123.973C301.115 123.792 300.604 122.352 299.678 121.776C299.082 120.73 298.454 119.717 297.921 118.608C297.134 117.669 296.442 116.634 295.909 115.45C294.185 115.216 292.641 114.8 290.906 114.576C291.076 115.226 291.459 115.664 291.875 116.069C292.513 117.36 293.227 118.576 293.631 120.112C293.812 122.074 294.632 124.122 294.334 125.733C294.61 126.277 294.43 126.906 294.504 127.76C294.547 127.834 294.6 127.898 294.589 128.026C295.015 128.773 295.59 129.37 296.346 129.786C296.537 130.064 296.761 130.309 296.963 130.576C297.847 131.184 298.73 131.792 299.593 132.421C300.008 132.73 300.444 133.029 300.913 133.296C301.168 133.68 302.169 133.712 301.967 134.266C301.892 134.821 301.285 134.224 300.828 134.352C298.315 133.242 296.25 131.216 294.163 129.957C293.418 128.826 292.545 127.824 291.534 126.97C291.704 128.965 291.8 130.832 291.268 132.421C291.821 132.656 292.215 133.05 292.843 133.21C293.738 134.341 295.132 134.96 295.388 136.72C296.175 137.808 296.261 139.6 296.612 141.114C296.495 142.768 297.251 144.442 296.878 145.776C296.143 145.541 296.431 144.293 296.09 143.664C296.026 142.789 295.696 142.181 295.473 141.466C295.026 140.688 294.483 139.994 294.153 139.098C292.492 136.954 291.523 134.981 289.149 134C288.851 135.76 289.671 136.869 290.384 138.042C290.884 138.874 292.098 139.418 292.045 140.506C291.395 140.624 291.183 139.568 290.554 139.365C290.363 140.485 290.469 142.384 289.682 142.618C289.256 141.989 289.522 141.061 289.415 140.336C289.096 139.013 288.447 138.021 287.925 136.912C287.755 139.173 287.095 141.466 285.998 143.056C286.243 144.154 286.605 145.146 286.616 146.48C287.276 148.602 287.914 150.746 288.542 152.89C289.341 154.725 290.672 156.496 291.172 158.341C289.724 157.562 289.309 155.76 288.106 154.736C287.009 153.605 286.435 151.952 285.391 150.789C284.934 154.704 287.361 156.954 288.106 159.664C287.68 159.589 287.382 158.64 287.052 158.17C286.775 157.541 286.307 157.104 286.179 156.325C285.998 156.122 285.828 155.92 285.657 155.717C285.583 155.056 285.189 154.725 284.87 154.309C284.71 155.589 285.455 156.41 285.221 157.477C285.7 158.106 285.721 158.906 286.094 159.76C286.317 160.336 286.999 160.89 286.797 161.605C286.158 161.306 285.892 160.645 285.572 160.026C284.465 159.002 283.496 157.648 282.943 156.336C282.549 158.64 282.645 161.232 282.421 163.45C282.219 164.677 282.4 166.309 281.633 166.97C280.782 165.829 281.697 164.069 281.452 162.576C281.016 159.546 280.707 156.368 280.09 153.509C279.462 156.186 278.951 158.949 279.057 161.413C279.398 169.242 284.529 176.272 287.744 183.12C289.458 186.778 291.225 190.437 293.088 194.032H232.642C233.76 190.661 234.824 187.269 235.846 183.866C238.848 173.893 240.307 166.042 238.784 155.6C238.156 151.28 237.688 146.981 236.847 142.736C235.729 137.061 233.025 131.792 231.077 126.298C230.513 127.802 229.235 129.285 228.043 130.416C227.67 131.013 227.266 132.026 226.467 131.909C227.617 129.456 229.352 127.6 230.779 125.434C230.151 123.6 229.629 121.744 229.288 119.824C227.777 111.344 220.005 107.173 214.704 101.061C210.765 96.5172 208.295 91.3758 204.143 87.0558C202.365 85.1998 201.216 80.5918 200.098 78.2452C198.096 74.0105 196.574 69.5838 194.466 65.3812C193.657 63.7705 192.656 62.1385 191.656 60.4425C190.815 59.0238 189.441 57.5305 188.313 56.0372C187.589 55.0772 187.493 54.5332 186.556 54.0958C186.269 53.9678 185.875 53.8612 185.322 53.7438C184.768 53.6265 184.087 53.7118 183.384 53.5625C182.777 53.4452 182.032 53.0612 181.276 52.8585C180.52 52.6558 179.754 52.5172 178.987 52.3252C176.89 51.8132 175.4 51.0878 173.356 51.2692C173.079 51.2905 172.877 51.2158 172.632 51.1945C172.547 51.1945 172.004 51.1092 171.95 51.0878C171.29 50.9492 170.503 50.8318 169.843 50.7358C168.022 50.4798 166.468 50.9598 165.797 49.6798C164.903 49.4558 163.572 49.6798 163.157 48.9758C163.136 47.3652 164.935 47.2692 166.33 47.5678C166.106 47.3865 165.691 47.1945 165.276 47.0345C164.988 46.9278 164.168 47.0665 164.222 46.5118C164.52 45.9785 164.584 45.8612 164.924 45.6265C165.137 45.4878 165.435 45.1465 165.808 45.1038C166.553 44.9972 167.469 45.5412 168.267 45.6265C168.97 45.7012 169.832 45.5305 170.556 45.6265C171.929 45.8185 173.1 46.6718 174.42 46.3305C173.143 45.4985 171.078 45.4452 170.024 44.3892C170.396 42.5225 172.408 43.1092 174.069 43.5038C175.165 43.7598 176.07 44.1972 177.231 44.5598C178.029 44.8052 178.423 44.8265 179.69 44.9118C180.126 44.9438 180.701 45.1358 180.925 45.0932C181.638 44.9545 181.723 44.5812 182.16 44.2078C182.5 43.9198 183.128 43.7278 183.214 43.1518C183.512 42.3412 182.117 41.4772 181.808 40.3358C181.436 38.9705 181.574 37.9145 182.862 37.1678C183.959 37.5838 184.47 38.5332 185.151 39.4612C185.226 39.5678 185.439 39.7065 185.502 39.8132C185.577 39.9198 185.577 40.2292 185.683 40.3465C186.471 41.3065 187.674 41.8612 188.494 42.8105C188.739 43.0878 188.803 43.5465 189.016 43.8665L189.718 44.7518C189.92 45.0398 190.229 45.3278 190.421 45.6372C190.911 46.4052 191.422 47.1838 192.177 47.9305C192.294 48.0372 192.582 48.0158 192.71 48.1012C192.944 48.2825 192.965 48.6878 193.242 48.9865C194.104 49.9038 194.413 51.5678 194.998 53.0398C195.254 53.6905 195.616 54.4692 196.052 55.1518C197.149 56.8585 198.629 59.0025 199.917 60.7838C200.14 61.1038 200.396 61.3492 200.619 61.6692C200.832 61.9678 200.939 62.4265 201.152 62.7252C201.386 63.0558 201.631 63.3012 201.854 63.6105C204.079 66.6718 206.613 69.5625 208.359 72.9438C209.817 75.7598 210.733 80.4745 213.107 82.6292C215.662 84.9652 218.824 86.5758 221.411 89.0718C224.679 92.2185 227.841 94.6185 231.439 96.9865C232.28 96.4638 233.121 95.9412 233.919 95.3545C234.994 94.5545 236.048 93.9465 237.166 93.2425C239.37 91.8665 241.094 90.0532 242.425 87.8025C240.488 88.5278 239.104 90.2665 236.549 90.0852C237.23 89.0718 238.699 88.8478 239.615 88.0692C240.764 87.7918 241.574 87.1732 242.329 86.4905C240.626 86.8318 238.933 88.4958 236.985 87.7172C237.975 86.6292 240.147 86.7252 241.371 85.8718C242.585 85.0398 243.798 84.2078 244.969 83.3225C248.259 80.4958 250.718 76.8372 253.742 73.7438C257.627 71.2052 261.811 68.9438 267.858 68.5598C268.379 68.7092 269.061 68.7092 269.519 68.9118C270.594 68.6665 271.797 68.9438 272.68 69.1785C274.405 70.1172 275.842 71.3332 277.237 72.6025C279.408 75.3118 280.505 79.0985 281.431 83.0558C282.134 80.8052 282.858 78.5118 283.443 76.1332C285.221 68.9972 286.85 62.5865 289.948 55.8665C292.268 50.8318 294.344 45.5518 295.931 40.1865C296.473 38.3305 295.675 35.9198 295.228 33.4878C295.047 32.4745 295.047 31.5038 294.877 30.4905C294.717 29.6052 294.334 28.7198 294.174 27.8452C293.95 26.6292 294.068 25.4025 293.823 24.3145C293.748 23.9732 293.599 23.4398 293.471 23.0878C293.258 22.5012 292.971 21.9572 292.769 20.9758C292.567 20.0372 292.258 18.8212 291.896 17.6265C291.566 16.5705 290.938 15.5678 291.193 14.4478C291.225 14.3198 291.555 14.3412 291.545 14.0958C291.545 14.0958 291.374 13.8825 291.364 13.7438C291.31 12.5172 290.64 11.2585 290.842 10.0425C291.821 9.93583 292.268 10.3732 292.598 10.9172C293.056 11.3758 292.854 10.5118 293.418 10.6185C293.663 10.6292 293.61 10.6398 293.78 10.7358C293.801 10.7465 294.142 11.0558 294.185 11.0878C294.749 11.5465 294.887 12.3892 295.239 13.3812C295.505 14.1278 295.909 14.9492 296.122 15.6745C296.388 16.5812 296.41 17.5518 296.654 18.4905C296.74 18.8318 297.08 19.1732 297.187 19.5465C297.304 19.9945 297.432 20.5598 297.559 20.9118C297.74 21.4132 298.102 21.7118 298.241 22.1918C298.464 22.9492 298.784 23.7812 298.943 24.6558C299.71 24.9438 300.306 25.4025 301.051 25.7118C301.605 25.0185 301.371 23.7385 301.583 22.7145C301.775 21.7545 302.371 19.4932 303.521 19.3652C306.331 19.0345 304.798 24.3892 304.575 26.4158C304.458 27.4932 304.49 28.6345 304.394 29.2318C304.319 29.7545 304.021 30.2985 303.872 30.8212C303.702 31.3972 303.702 32.0158 303.521 32.5812C303.223 33.5198 302.573 34.4158 302.286 35.4078C301.86 36.8585 301.956 38.5012 301.583 40.1652C299.816 48.1332 298.773 55.9092 297.613 64.0052C296.878 69.1465 295.015 73.2958 293.674 78.0425C292.332 82.7785 291.332 88.5492 290.161 93.7225C289.735 95.5892 289.33 97.3172 288.926 99.3652C288.883 99.5785 288.851 99.8025 288.819 100.037C288.915 100.176 289.011 100.304 289.107 100.442C289.756 100.965 290.576 101.306 291.215 101.85C291.353 102.277 290.895 102.117 290.778 102.288C292.769 103.632 294.781 104.954 296.388 106.682C297.315 107.429 298.092 108.314 298.667 109.402C299.284 110.426 300.178 111.162 300.338 112.656C299.422 112.613 299.241 110.682 298.315 110.64C299.316 112.89 300.753 114.704 302.18 116.528C302.765 117.018 303.255 117.616 303.936 118.021C304.266 118.778 305.395 118.725 305.512 119.685C305.022 119.909 304.671 119.322 304.287 119.162L304.245 119.141ZM297.666 117.296C297.474 116.837 297.283 115.93 296.878 115.973C297.059 116.485 297.346 116.901 297.666 117.296ZM297.932 131.877C297.038 131.141 296.016 130.053 295.036 129.68C295.888 130.522 296.889 131.216 297.932 131.877ZM235.314 96.2078C234.388 96.6665 233.696 97.3492 232.833 97.8718C233.355 98.2025 233.887 98.5438 234.441 98.8745C234.483 98.8958 234.526 98.9278 234.569 98.9598C234.994 98.2985 235.42 97.6478 235.761 96.9118C236.485 96.2505 236.975 95.3758 237.517 94.5438C236.602 94.9172 235.857 95.4612 235.324 96.2078H235.314ZM239.082 96.4745C239.008 96.7838 238.816 96.9652 238.731 97.2638C238.092 97.5732 237.847 98.3092 237.326 98.8532C236.964 99.2265 236.602 99.6318 236.24 100.048C236.794 100.421 237.379 100.826 237.965 101.253C238.955 99.1092 239.913 96.9225 241.094 94.9812C240.296 95.3545 239.913 96.1438 239.082 96.4745ZM243.287 85.2212C243.767 85.1145 244.001 84.7732 244.341 84.5172C243.937 84.6985 243.532 84.8798 243.287 85.2212ZM289.415 108.592C289.352 108.613 289.245 108.592 289.245 108.677C290.171 111.088 291.321 113.274 294.334 113.594C293.173 111.44 291.215 110.096 289.426 108.581L289.415 108.592Z" fill="#3055FE"/>
<path d="M244.608 84.2613C244.15 84.6453 244.884 84.1013 244.608 84.2613V84.2613Z" fill="#3055FE"/>
<path d="M232.238 97.1786C232.025 97.4666 232.536 96.9652 232.238 97.1786V97.1786Z" fill="#3055FE"/>
<path d="M257.02 41.5308C255.967 42.4908 254.668 43.3441 253.678 44.2935C252.996 44.9335 252.422 45.6908 251.708 46.4588C250.995 47.2375 250.282 48.0481 249.547 48.8268C249.26 49.1361 248.738 50.0961 248.366 50.5975C247.684 51.5148 246.971 52.4855 246.002 53.3601C239.05 59.6428 234.718 68.5281 229.48 76.2188C229.363 76.3895 229.001 76.4535 228.884 76.6135C228.756 76.7948 228.809 77.0295 228.682 77.2001C228.596 77.3281 228.362 77.4775 228.288 77.5948C227.127 79.4721 225.573 81.8508 224.157 83.7068C222.613 85.7228 220.942 87.4295 219.441 89.4241C218.1 91.1948 215.002 92.6028 214.129 94.5441C213.394 96.1761 211.606 97.5948 210.392 99.0775C210.094 99.4508 209.913 99.8775 209.604 100.261C208.827 101.211 207.731 102.288 206.847 103.419C206.272 104.165 205.846 105.029 205.272 105.787C204.707 106.533 204.079 107.216 203.504 107.952C200.375 111.952 196.617 115.909 193.668 119.973C192.944 120.976 192.188 122.288 191.315 123.525C188.898 126.917 189.931 130.853 189.74 135.152C189.633 137.573 189.537 140.08 189.154 142.448C188.781 144.677 188.111 146.864 187.972 149.147C187.685 153.723 188.366 158.949 189.548 162.352C190.346 164.667 191.219 167.856 192.103 170.437C192.348 171.152 192.401 171.963 193.082 172.411C193.231 173.275 192.444 173.211 192.294 173.787C192.646 174.544 193.551 175.099 193.476 176.155C193.476 176.24 193.199 176.453 193.274 176.741C193.54 177.701 194.253 178.544 194.658 179.504C194.849 179.963 194.871 180.624 195.052 181.083C195.126 181.264 195.35 181.445 195.446 181.669C197 185.307 198.16 189.68 199.385 194.011H140.535C141.025 192.272 141.6 190.48 142.142 188.763C142.983 186.117 143.729 183.504 144.697 180.677C144.889 180.112 145.262 179.451 145.485 178.704C145.826 177.573 145.549 175.632 146.475 174.768C146.805 174.107 146.348 174.096 146.273 173.392C147.167 171.771 147.508 169.701 148.04 167.675C148.296 166.725 148.572 165.723 148.828 164.72C149.584 161.701 150.308 157.189 150.01 152.699C149.765 149.061 148.37 145.701 147.646 142.053C147.284 140.219 147.082 138.288 146.859 136.336C146.741 135.355 146.816 134.405 146.656 133.381C146.529 132.528 146.135 131.632 146.071 130.821C145.996 129.957 145.943 128.987 146.071 128.059C146.188 127.291 146.124 127.013 145.485 125.893C145.368 125.68 145.262 125.371 145.091 125.104C145.049 125.029 144.729 124.976 144.697 124.912C144.261 123.952 143.409 122.971 142.728 121.957C141.451 120.059 140.088 118.16 139.183 116.635C128.484 98.5441 117.029 80.8588 108.108 61.8401C106.788 59.0241 105.181 56.1441 103.786 53.1681C103.03 51.5681 102.615 49.8508 101.816 48.8268C101.284 48.1441 100.433 47.8775 99.847 47.2481C99.7086 47.0881 99.5808 46.8108 99.4531 46.6615C98.0904 44.9975 96.8236 42.2561 95.5142 40.1548C95.2906 39.7921 95.1522 39.3335 94.9287 38.9708L93.1083 36.2295C93.055 36.1548 92.7995 35.8881 92.7676 35.8135C92.2885 34.7361 91.1707 33.3281 90.4149 32.2615C89.3929 30.8321 87.6364 29.4135 88.2431 27.3335C89.4461 27.1628 89.989 28.0481 90.6065 28.7095C91.1707 29.3281 91.6817 30.1068 92.1821 30.6828C92.3205 30.8428 92.4163 31.1521 92.576 31.2695C92.8528 31.4828 93.0763 31.6641 93.3425 32.1015C93.4702 32.3148 93.6192 32.4748 93.7576 32.6561C94.2473 33.3068 94.7796 33.9895 95.3332 34.6295C95.9932 33.8828 95.3758 32.4428 96.3126 31.6748C97.143 31.2268 98.5163 31.5361 98.9953 31.9948C99.1657 30.9068 98.9953 30.1601 100.645 29.9041C101.944 29.8508 102.146 31.5041 103.2 31.0881C103.435 30.7255 103.126 30.2668 103.009 29.9041C102.626 28.6775 102.083 27.4081 101.635 25.9575C101.486 25.4881 101.423 25.0721 101.242 24.5815C100.954 23.8135 100.571 23.0561 100.252 22.0215L99.6873 20.2721C99.6873 20.2721 99.3999 19.0775 100.252 18.6721H100.645C101.391 18.5655 101.678 19.4295 102.019 19.8561C102.86 20.8908 103.222 21.7761 103.786 23.2055C104.009 23.7601 104.35 24.2401 104.574 24.7841C105.095 26.0535 105.244 27.4295 105.755 28.7201C106.192 29.8295 107.054 30.7788 107.523 31.8668C107.885 32.7201 107.906 33.6375 108.31 34.4268C108.715 35.2161 109.417 35.8561 109.886 36.5921C111.589 36.4855 112.867 36.9121 113.623 37.9681C114.016 38.5228 114.336 39.0881 114.016 40.1335C113.75 40.9868 113.314 42.7788 112.835 43.6855C112.334 44.6135 110.738 45.7761 110.674 46.4481C110.599 47.2055 112.366 49.7655 113.229 51.1735C115.677 55.1735 117.806 58.2135 120.51 61.8188C123.683 66.0535 127.313 70.4695 128.74 75.6641C130.06 80.4321 131.561 83.2801 134.669 87.0455C137.426 90.3841 140.428 98.5441 144.346 100.293C144.878 100.528 145.464 100.837 146.06 101.2C146.06 101.083 146.081 100.955 146.092 100.837C145.719 100.475 145.251 100.187 145.049 99.6961C145.113 99.0454 145.262 98.2881 145.975 98.3201C145.613 99.0241 145.538 99.8561 146.305 100.069C146.667 100.176 146.816 99.8134 147.231 99.6641C148.168 99.3228 149.435 99.7814 149.041 98.1175C148.594 97.4881 147.455 97.0081 148.104 95.7921C147.189 94.6188 148.285 93.1468 149.754 93.8188C149.605 92.9015 148.86 92.4214 149.094 91.2161C149.413 90.7361 150.191 90.9388 150.659 90.6721C150.68 89.6694 151.287 89.5095 151.766 89.1681C151.692 88.2934 151.255 87.6748 151.415 86.6188C151.713 86.3308 152.043 86.1068 152.639 86.2561C152.469 85.7868 152.565 85.1255 152.714 84.4108C152.096 84.3255 151.777 84.6668 151.266 84.7308C151.106 85.4454 151.276 85.9148 151.287 86.5015C150.861 86.2775 151.064 86.5548 150.808 86.5868C150.276 85.9575 150.51 84.3895 151.053 83.7281C150.35 84.0375 148.338 83.5148 148.7 82.4481C149.371 82.5655 149.754 83.2481 150.489 82.9068C150.638 81.8188 149.744 81.4881 149.541 80.6561C149.829 79.5788 151.202 80.0801 151.83 79.5041C151.607 78.5548 150.627 78.1495 150.606 77.0508C150.851 76.5495 151.394 76.5068 151.947 76.4641C152.181 76.1015 152.096 75.4295 152.671 75.3761C152.799 74.9388 152.65 74.7041 152.778 74.2668C153.203 73.2321 154.183 72.9975 155.003 72.5495C156.323 72.8481 156.887 72.0481 157.398 71.1735C157.494 70.8321 157.462 70.5761 157.472 70.2988C157.536 69.9788 157.909 70.0961 158.015 69.8295C157.866 68.2721 158.239 66.7788 159.868 67.0775C160.379 66.1708 161.017 65.4348 162.284 65.6268C162.742 65.0935 163.2 64.5601 163.892 64.3681C164.413 64.4428 164.626 64.4001 165.095 64.5708C166.968 64.7308 167.564 63.0348 169.502 63.2908C169.811 63.3868 170.034 63.5361 170.29 63.6641C170.556 63.6641 170.577 63.3015 170.822 63.2695C171.429 63.5041 172.046 63.7388 172.642 63.9735C173.249 63.8881 173.43 63.1735 174.026 63.0775C174.718 63.2481 175.229 63.6108 175.975 63.5575C176.315 63.1948 176.858 63.2055 177.124 63.6641C177.369 63.6961 177.71 63.5788 177.88 63.7921C178.242 63.8241 177.965 64.3255 178.242 64.4215C178.402 64.5495 179.264 64.4428 179.52 64.7095C179.839 64.8801 179.733 65.3708 179.988 65.5948C180.914 66.0321 182 66.3415 182.277 67.2588C182.149 67.7495 182.234 68.0588 182.415 68.3255C183.309 68.5708 184.236 68.8055 184.725 69.3495C185.215 69.4135 185.449 69.1041 186.045 69.3281C186.45 69.7335 186.684 70.2668 186.439 71.1628C186.578 71.6108 187.174 71.7175 187.727 71.8561C187.813 72.2081 188.089 72.6348 187.813 73.2321C187.908 73.4988 188.26 73.5841 188.505 73.7441C188.451 74.0855 188.409 74.4481 188.27 74.6721C189.154 75.6535 189.175 77.2215 188.537 78.6615C188.568 78.8215 188.611 78.9708 188.611 79.1521C189.037 79.4615 189.814 79.2695 190.187 79.4935C190.006 79.7815 189.995 80.3041 189.91 80.7308C190.293 80.8375 190.538 80.7308 190.783 80.6348C191.39 81.2215 193.167 80.8481 193.285 81.9361C193.104 82.4908 192.614 83.4188 192.113 83.8348C192.454 84.1548 192.944 83.8774 193.338 83.9628C193.274 84.2508 193.189 84.2401 193.253 84.5068C192.571 84.7095 191.773 84.7628 191.517 85.5841C192.827 85.3388 194.168 86.3201 194.381 87.5148C194.072 88.3895 193.71 89.2001 193.157 89.7228C194.69 90.4054 193.54 92.4535 192.667 93.1041C192.699 93.7015 192.986 94.1068 193.38 94.4268C195.488 94.3948 196.35 96.1868 196.084 97.7761C196.34 97.4775 196.585 97.1788 196.851 96.8695C198.128 95.4188 199.661 94.0535 200.79 92.9334C201.971 91.7495 202.961 90.7254 204.335 89.5841C211.893 83.3228 216.141 74.2881 222.826 67.1201C224.115 65.7335 225.967 64.0375 227.351 62.3841C227.67 62.0108 227.809 61.6161 228.139 61.2001C228.266 61.0401 228.607 60.9655 228.724 60.8055C228.863 60.6135 228.777 60.3788 228.926 60.2188C229.427 59.6215 230.097 59.0135 230.694 58.2455C231.716 56.9441 232.887 55.4828 233.845 53.9041C234.1 53.4775 234.43 53.2108 234.633 52.7201C234.803 52.2935 235.026 51.4721 235.026 51.3441C234.984 50.3735 233.76 49.5201 233.259 48.3895C233.153 48.1548 233.121 47.9201 233.057 47.8028C232.056 45.6161 232.674 41.1041 232.269 38.3415C232.035 36.7735 230.768 35.0668 231.684 33.6055C233.27 33.2428 234.249 34.3628 235.026 35.1841C235.442 35.6215 235.346 37.2748 235.612 38.3415C235.835 39.2375 235.985 40.2935 236.794 40.5068C237.635 40.7308 238.635 39.9735 239.157 39.5255C239.668 39.0775 240.03 38.4908 240.339 37.9468C240.764 37.2108 241.073 36.4535 241.52 35.7815C241.68 35.5361 242.031 35.1415 242.308 34.7895C242.5 34.5441 242.691 34.2881 242.894 34.0001C243.319 33.4028 243.745 32.5068 244.267 31.6321C244.554 31.1521 244.927 30.7361 245.246 30.2561C246.566 28.2721 248.334 24.0055 249.962 25.1255C251.282 25.5095 249.6 28.3681 248.781 29.8615C248.738 29.9468 248.515 30.3521 248.483 30.4161C247.993 31.5148 247.088 32.9015 246.417 34.0001C246.353 34.7895 247.237 34.5761 247.674 35.2161C248.589 36.0695 248.589 36.8375 248.153 38.6081C248.898 39.0455 250.143 38.1921 251.272 39.9521C252.038 41.1041 250.793 42.1068 250.931 42.8535C251.495 43.0241 251.772 42.5228 252.113 42.2668C252.858 41.7015 253.539 40.9975 254.274 40.2935C254.38 40.1868 254.817 39.7708 255.083 39.5788C256.35 38.6188 258.415 36.6135 259.575 37.7335C260.406 38.9815 258.096 40.4961 257.02 41.4775V41.5308ZM147.561 100.933C147.242 101.051 146.699 100.859 146.699 101.435C146.699 101.531 146.699 101.595 146.72 101.637C146.773 101.68 146.827 101.712 146.88 101.744C147.018 101.765 147.189 101.744 147.316 101.861C147.295 101.915 147.252 101.947 147.22 101.989C147.37 102.096 147.519 102.203 147.668 102.32C147.54 101.925 147.487 101.477 147.55 100.944L147.561 100.933ZM148.668 96.6134C149.03 97.4028 150.074 97.6695 149.754 98.9708C150.659 98.0855 149.839 95.7708 148.668 96.6134ZM150.946 91.2801C150.766 91.2801 150.606 91.3121 150.531 91.4508C150.691 91.5681 150.893 91.6428 151.021 91.7708C151.096 91.5255 150.968 91.4508 150.946 91.2695V91.2801ZM150.691 80.6135C150.776 81.5095 151.692 82.4268 151.447 83.5575C151.894 83.4081 152.426 83.3655 152.767 83.0561C153.054 82.0641 152.49 81.7015 152.501 80.9121C151.979 81.2321 151.362 80.6135 150.691 80.6135ZM152.746 78.0535C152.618 78.0321 152.49 78.0108 152.373 77.9895C152.384 78.6401 152.746 79.0348 153.15 79.4081C153.363 79.0775 154.002 79.3548 154.161 78.9388C154.321 78.3521 153.682 77.7868 153.693 77.0935C152.948 76.9975 153.257 77.8508 152.756 78.0641L152.746 78.0535ZM153.81 73.9681C153.778 74.3841 153.917 74.6721 154.215 74.8428C154.694 74.5975 155.066 74.2028 155.407 73.7548C155.056 73.4135 154.151 73.6695 153.821 73.9681H153.81ZM167.49 64.4961C167.288 64.6455 167.405 64.9121 167.65 64.9228C167.756 64.6668 167.639 64.5708 167.49 64.4961ZM191.826 101.36C192.071 101.253 192.294 101.147 192.529 101.029C192.284 100.976 192.018 101.029 191.752 101.285C191.773 101.307 191.805 101.328 191.826 101.36ZM193.465 87.6535C193.274 87.3335 193.082 87.0241 192.667 86.8748C192.55 87.1521 192.294 87.2374 192.167 87.5148C192.465 87.6108 192.401 87.9841 192.784 88.0268C193.082 88.0055 193.316 87.8988 193.465 87.6535ZM192.688 90.9068C191.847 90.8748 191.177 91.0988 190.772 91.7175C191.028 92.0588 191.453 92.5495 191.879 92.5495C192.305 92.2188 192.561 91.6641 192.688 90.9174V90.9068ZM193.976 96.2721C192.752 96.7734 191.752 95.8668 191.102 95.3121C190.698 95.7388 190.208 96.5174 190.304 97.3494C191.347 97.9468 192.316 98.5975 192.444 99.8774C192.88 100.016 193.231 100.208 193.529 100.443C193.742 100.283 193.955 100.101 194.157 99.9095C194.019 99.9095 193.87 99.8881 193.615 99.8348C193.178 99.4828 192.955 98.9921 192.933 98.3521C193.668 98.4695 193.306 99.3974 194.232 99.3654C195.201 98.6081 194.583 96.8801 193.966 96.2615L193.976 96.2721ZM194.988 96.2721C194.935 96.6774 195.179 97.0935 195.414 97.4668C195.659 97.0081 195.435 96.4321 194.988 96.2721Z" fill="#3055FE"/>
<path d="M192.987 88.7738C192.742 88.9765 193.253 88.5925 192.987 88.7738V88.7738Z" fill="#3055FE"/>
<path d="M163.104 65.7655C163.189 65.7655 163.2 65.8935 163.253 65.7868C163.264 65.7121 163.136 65.6695 163.104 65.7655Z" fill="#3055FE"/>
</g>
<g clip-path="url(#clip1_1406_4)">
<path d="M412.469 13.4902C412.439 13.8502 412.069 14.3402 411.889 14.8702C411.609 15.7102 411.549 16.4502 411.089 17.1802C410.909 17.4702 410.679 17.6002 410.559 17.9302C410.309 18.5902 410.279 19.3402 410.089 20.1102C409.999 20.4602 409.939 20.8302 409.849 21.2002C409.609 22.2102 409.109 23.0102 408.699 23.9602C408.129 25.2702 407.639 26.4702 406.999 27.7902C406.479 28.8502 406.159 29.4702 405.819 31.0202C405.709 31.5202 405.499 31.9602 405.399 32.4102C403.619 40.4002 402.739 48.5202 401.109 56.5902C399.649 63.8102 396.809 70.4802 396.289 77.8102C396.109 80.4102 395.019 83.0402 396.129 85.4702C397.079 87.5402 393.979 94.1402 393.289 96.3002C392.759 97.9502 391.469 99.6802 391.209 101.38C390.909 103.34 391.799 105.32 391.609 107.32C391.189 111.65 390.589 116.41 388.969 120.47C388.099 122.67 387.029 124.49 386.509 126.8C385.059 133.31 382.209 138.77 379.519 144.76C373.779 157.52 377.659 172.7 378.159 186.17C378.219 187.9 379.409 190.72 378.359 192.31C377.279 193.95 377.049 192.39 377.219 194.48H326.089C327.589 186.9 329.429 179.4 330.339 171.72C330.919 166.81 331.589 162.02 332.999 157.27C334.359 152.67 336.799 148.48 336.549 143.53C336.349 139.41 334.369 135.62 334.139 131.51C333.919 127.57 335.099 123.71 336.869 120.23C337.809 118.39 338.869 117.85 337.939 115.81C336.989 113.73 335.679 111.83 334.629 109.81C332.939 106.55 331.229 103.33 329.269 100.21C327.809 97.8802 327.309 95.9302 326.109 93.4702C323.799 88.7202 320.719 84.9302 317.459 81.1602C312.409 75.3102 308.389 68.3402 303.839 61.9902C303.399 61.3802 302.849 60.7702 302.389 60.1502C302.249 59.9502 302.249 59.6702 302.119 59.5002C302.009 59.3602 301.779 59.2902 301.669 59.1502C301.439 58.8402 301.329 58.4502 301.109 58.1602C300.429 57.3002 299.589 56.4702 298.769 55.6202C298.409 55.2502 298.079 54.9802 297.739 54.6002C297.739 54.6002 297.579 54.4202 297.599 54.4302C296.699 53.8402 295.629 53.4802 294.719 52.8002C293.849 52.1502 292.799 50.9602 292.079 49.9202C291.959 49.7402 291.949 49.4702 291.809 49.2702C291.599 48.9702 291.349 48.7702 291.089 48.2702C290.959 48.0202 290.919 47.8002 290.819 47.6202C290.729 47.4402 290.479 47.3202 290.379 47.1102C290.109 46.5402 290.009 45.9602 289.559 45.3102C289.439 45.1402 289.259 45.0102 289.119 44.8002C289.049 44.6802 288.949 44.3802 288.839 44.3102C288.189 43.8302 287.179 44.1002 286.679 43.5202C286.399 43.1902 285.829 40.4702 285.859 39.6702C285.879 38.9902 285.879 38.7302 286.449 38.1302C286.199 37.0202 284.419 36.4402 285.089 35.0302C285.279 34.2902 285.899 35.1102 286.179 35.2702C286.619 35.5302 287.009 35.7502 287.229 35.9802C287.779 35.8002 287.859 35.4302 288.539 35.2802C289.419 35.0902 290.789 35.4502 291.709 35.2002C291.799 35.0102 291.489 34.4802 291.159 34.0502C290.899 33.7102 290.559 33.3702 290.279 33.0402C289.669 32.3202 288.849 31.6902 288.539 30.8602C287.579 30.4202 286.899 29.1502 286.529 28.0302C286.349 27.4602 285.949 26.8802 286.339 26.2802C287.419 26.1602 288.049 26.9702 288.619 27.5502C289.249 28.1902 289.759 28.7002 290.369 29.2802C290.549 29.4502 290.779 29.7502 290.979 29.9302C291.099 30.0402 291.259 30.1702 291.379 30.2702C291.549 30.4102 291.699 30.4902 291.879 30.6302C292.469 31.0902 293.029 32.1502 293.609 32.8102C294.379 33.6702 295.209 34.3702 295.959 35.3502C296.199 35.6702 296.509 35.9202 296.689 36.1902C296.809 36.3802 296.829 36.7802 296.949 37.0002C297.349 37.7802 297.899 38.8102 298.489 39.6402C298.839 40.1302 299.109 40.8502 299.449 41.6102C300.289 43.4602 301.059 45.3702 302.219 47.0302C302.919 48.0302 303.949 49.0402 304.839 50.0702C305.379 50.6902 306.119 51.2102 306.599 51.9402C306.679 52.0602 306.629 52.2902 306.719 52.4202C306.819 52.5602 307.069 52.6302 307.169 52.7702C307.239 52.8702 307.209 53.1502 307.289 53.2502C307.409 53.4002 307.709 53.4302 307.899 53.6102C308.239 53.9502 308.619 54.5002 309.059 54.9602C309.789 55.7002 310.469 56.4602 311.269 57.1802C311.549 57.4302 311.809 57.7002 312.149 58.0302C312.189 58.0702 312.239 58.3302 312.279 58.3602C312.879 58.6802 313.299 59.2402 313.919 59.7402C313.969 59.7802 314.009 60.0402 314.049 60.0602C315.059 60.6102 316.059 61.8102 317.019 62.6502C322.559 67.4902 329.159 71.6302 331.869 78.9102C333.699 83.8203 338.779 90.2902 343.419 93.0202C343.709 93.1902 344.169 93.2402 344.499 93.4202C345.319 93.8802 346.289 94.4802 347.229 95.0402C348.159 95.5902 348.999 96.0602 349.789 96.8102C350.919 97.8802 351.869 99.3002 353.149 100.53C353.239 99.8002 353.599 99.4002 353.909 98.8502C353.949 98.7802 354.019 98.4702 354.099 98.3902C354.749 97.6802 356.019 97.6802 356.259 96.9702C356.559 96.0802 355.409 94.2202 354.889 94.0302C354.329 93.8102 353.529 94.0303 352.989 94.0502C352.179 94.0702 351.489 94.2002 350.789 93.8902C350.429 93.7302 349.769 93.2702 349.589 93.0102C348.929 92.1002 349.369 91.1602 349.199 89.6602C349.139 89.1003 348.849 88.4402 348.709 87.7302C348.669 87.5402 348.859 87.6402 348.879 87.5802C348.949 87.3202 348.399 86.3802 348.369 85.9602C348.319 85.2902 348.959 83.4802 348.439 82.8102C348.399 82.7602 348.189 82.6902 348.139 82.6302C347.879 82.3402 347.459 82.0502 347.429 81.4702C347.389 80.7302 347.999 80.2802 348.209 79.4702C348.399 78.7402 348.579 77.6702 348.419 76.6402C348.359 76.2802 348.159 76.3702 348.149 75.9902C347.889 76.0202 347.889 75.8202 347.689 75.8002C347.729 75.6302 347.859 75.7302 347.849 75.8102C347.969 75.4302 347.319 74.3902 347.379 73.5702C347.429 72.9402 347.899 72.1702 348.169 71.4102C348.689 69.9302 349.069 68.6002 349.599 66.9302C349.649 66.7602 349.699 66.5902 349.739 66.4202C349.329 66.4302 348.889 66.6002 348.509 66.5402C348.349 66.8802 348.749 67.6402 348.479 67.8902C347.699 67.3502 346.899 65.2602 347.959 64.6302C347.629 64.2202 348.119 63.9302 348.169 63.6102C348.089 63.4202 347.909 63.3602 347.879 63.0802C348.029 62.7102 348.439 62.5502 348.929 62.4402C348.839 62.1802 348.809 62.0902 348.929 61.8802C349.129 61.7602 349.449 61.7402 349.759 61.6902C349.819 61.4202 349.649 61.2902 349.809 61.0502C349.969 60.8802 350.489 60.9802 350.629 60.7902C350.389 60.4102 350.539 59.9302 350.759 59.7102C351.729 59.8602 352.259 59.6802 352.649 59.0202C353.289 59.2402 353.499 58.6502 353.989 58.4802C354.129 58.4302 354.439 58.5002 354.619 58.4702C355.899 58.2502 357.709 57.4402 358.559 57.7902C359.319 57.4302 360.219 57.8302 360.889 57.1902C361.169 55.7502 362.809 54.7102 364.519 54.7702C364.189 55.7002 362.489 55.6002 362.299 56.6302C363.359 56.1502 364.269 57.0102 365.229 56.8702C365.359 56.8502 365.539 56.6602 365.689 56.5902C366.539 56.2102 367.889 56.0302 368.369 56.5002C368.389 57.0002 367.569 56.9102 367.629 57.3102C367.659 57.4902 368.189 57.5402 368.439 57.7902C368.869 57.9202 369.289 58.0702 369.679 58.2402C370.199 58.2302 370.699 58.2402 371.109 58.3802C371.669 59.1202 372.559 58.9402 373.189 59.5802C373.399 59.8002 373.459 60.2602 373.739 60.5002C374.109 60.8202 375.059 60.9402 375.669 61.1502C377.299 61.7402 378.139 62.6902 379.069 64.2202C379.019 64.4102 378.719 64.4102 378.619 64.5702C378.709 64.9402 379.069 65.2102 378.969 65.5902C380.809 66.3602 381.669 70.7802 379.929 72.0402C380.059 71.3902 380.299 70.4902 380.199 69.8802C379.909 70.3702 379.929 71.4102 379.279 71.4202C379.479 70.5502 379.529 68.7302 378.539 68.1202C378.929 72.5302 379.399 76.0002 377.799 78.7002C377.449 79.3002 376.899 80.0502 376.379 80.7402C375.849 81.4302 375.229 82.1302 374.889 82.7802C374.099 84.3002 374.989 85.6502 376.719 85.2902C376.749 85.8702 375.909 85.8002 375.629 86.1502C375.769 86.4002 376.379 86.0302 376.449 86.4002C376.089 87.1102 374.869 87.1102 374.169 86.8502C374.339 87.3502 373.599 87.1602 373.429 87.4102C373.429 87.4702 373.429 87.5302 373.419 87.5802C373.469 87.7902 373.689 87.8702 373.559 88.0702C373.499 88.0902 373.439 88.0702 373.389 88.0902C373.349 89.1002 373.389 90.1002 373.579 91.1002C375.849 91.8402 377.869 81.1702 378.669 80.0802C380.139 78.0602 380.809 75.3202 381.849 73.0502C382.749 71.0902 385.039 68.8602 385.369 66.7702C386.109 62.2302 386.899 58.6102 388.679 54.3202C391.469 47.5702 394.429 40.8002 395.939 33.6302C396.409 31.4102 396.839 28.9502 396.259 27.0202C395.889 25.7702 395.019 24.9302 394.599 23.7402C394.009 22.0502 394.069 19.5802 394.449 17.0902C394.799 14.8202 395.079 12.9202 396.459 11.2302C397.169 10.3702 397.939 9.58024 398.779 9.82024C399.799 10.1202 399.699 11.7102 399.339 13.0202C399.239 13.3802 399.289 13.6502 399.109 13.9502C399.049 14.0602 398.679 14.2102 398.609 14.3902C398.369 15.0102 398.489 15.7102 398.329 16.1102C398.879 16.2802 399.229 15.5702 399.679 14.9402C399.749 14.8402 399.989 14.5702 400.029 14.4902C400.249 14.0102 400.249 13.3202 400.479 12.6302C400.659 12.0802 400.989 11.5602 401.069 11.0902C401.189 10.4002 401.229 9.43024 401.079 8.72024C400.909 7.85024 400.019 6.93024 399.859 5.94024C399.739 5.23024 399.829 3.80024 399.939 2.63024C400.059 1.34024 400.299 0.110243 400.919 0.0202433C402.139 -0.169757 402.429 2.54024 402.869 3.64024C402.959 3.86024 403.249 3.98024 403.309 4.15024C403.419 4.50024 403.309 4.70024 403.409 4.95024C403.759 5.83024 404.119 6.75024 404.489 7.56024C404.669 7.94024 405.029 8.30024 405.199 8.72024C405.419 9.26024 405.379 9.90024 405.569 10.1702C405.919 10.6502 406.719 10.8402 407.229 11.2402C407.449 11.6902 407.599 12.2002 407.749 12.7002C408.459 12.6802 408.549 13.1902 408.959 13.4202C410.269 11.8102 409.419 7.70024 411.489 6.97024C412.989 8.34024 411.829 10.8002 412.179 12.7102C412.229 12.9802 412.459 13.3202 412.439 13.5202L412.469 13.4902Z" fill="#3D5FFE"/>
</g>
<defs>
<clipPath id="clip0_1406_4">
<rect width="305" height="184" fill="white" transform="matrix(-1 0 0 1 305.469 10)"/>
</clipPath>
<clipPath id="clip1_1406_4">
<rect width="127.52" height="194.49" fill="white" transform="matrix(-1 0 0 1 412.469 0)"/>
</clipPath>
</defs>
</svg>
