<svg width="425" height="203" viewBox="0 0 425 203" fill="none" xmlns="http://www.w3.org/2000/svg">
<g clip-path="url(#clip0_1405_3)">
<path d="M423.866 185.461C423.781 185.89 424.314 186.5 424.026 186.639C421.158 187.209 420.731 184.382 419.323 183.114C418.769 183.233 419.867 184.172 419.014 184.142C417.468 184.492 416.444 183.133 416.039 181.935C414.653 180.826 412.914 180.057 411.955 178.559C409.246 177.91 408.553 175.383 405.834 174.733C404.522 177.131 402.123 176.032 401.76 173.415C400.982 172.826 399.745 172.656 399.404 171.647C398.689 171.657 398.764 172.416 398.145 172.526C395.405 170.468 393.549 167.652 391.715 164.885C386.308 156.705 379.612 149.254 371.944 142.841C373.096 148.305 372.606 153.948 373.512 159.451C373.885 161.719 375.623 165.005 373.203 165.774C373.725 172.876 376.178 178.169 378.065 183.992C377.98 187.978 374.141 176.342 377.831 187.978C378.535 190.175 379.228 192.373 379.921 194.58C380.795 197.377 381.648 200.183 382.448 203.01H353.219C351.076 197.267 345.541 183.972 341.574 189.676C338.759 193.721 336.37 198.256 334.248 203.01H305.392C308.058 192.952 311.502 183.243 314.318 173.395C314.872 171.467 315.267 169.5 315.48 167.512C315.992 162.578 314.766 166.913 314.222 164.446C313.987 160.92 315.629 157.164 315.789 153.568C316.184 144.809 315.139 139.205 309.988 131.824C304.358 123.764 299.826 115.463 293.214 107.992C290.09 104.457 287.989 99.5323 286.101 95.3173C285.184 93.2697 284.278 91.2421 282.508 89.694C281.313 88.6552 278.999 87.2568 279.021 85.5289C279.053 82.7022 273.39 77.5383 271.737 75.1212C269.338 71.6453 266.683 68.3692 264.827 64.5836C260.455 55.6942 255.806 46.7847 253.044 37.3259C252.425 35.2283 251.572 33.4904 252.884 32.3318C253.033 32.2019 253.95 31.7724 253.982 31.5926C254.068 31.0932 251.551 28.786 250.996 27.917C250.058 26.4188 249.61 24.7807 248.96 23.3624C248.618 22.6233 248.096 22.0539 247.701 21.3048C247.339 20.6156 247.285 19.7966 246.912 18.9576C246.667 18.3982 246.07 17.9088 245.814 17.3395C245.569 16.8001 245.59 16.1509 245.345 15.5816C244.428 13.4641 242.007 11.1368 243.617 8.9694C245.739 10.8472 246.678 13.8436 248.48 16.0211C249.13 15.1421 248.149 14.0734 248.011 12.9347C247.947 12.4353 248.085 11.866 248.011 11.3166C247.445 7.41124 245.963 4.26496 247.541 0.589303C247.605 0.449469 247.616 0.0599291 248.011 0C249.44 0.529374 249.589 2.24734 250.367 3.37601C251.828 3.67565 253.236 5.53346 254.132 6.75202C256.2 9.5587 256.67 12.2255 258.525 15.5716C259.016 16.4605 259.378 17.2896 259.783 18.2185C260.764 20.5058 262.353 23.4423 263.078 26.1491C263.377 26.5087 263.9 25.9393 264.337 26.2989C268.336 30.1144 269.274 35.4481 271.556 40.7019C275.448 49.6912 281.345 60.2687 288.714 67.0108C292.457 70.4267 296.157 73.2934 300.103 76.4197C302.961 78.687 306.661 81.4537 308.89 84.2104C310.031 85.6188 310.937 87.0471 311.865 88.7651C312.473 88.4554 313.902 88.3256 314.531 87.8861C314.979 87.5765 315.576 86.2181 316.258 85.389C317.048 84.4302 318.007 83.9408 318.455 83.3315C318.7 83.0019 319.234 81.8133 319.244 81.7134C319.266 80.8344 318.242 80.0354 317.837 79.2163C317.655 78.8568 317.495 78.4772 317.335 78.0677C317.069 78.2675 316.888 78.5671 316.258 78.4373C316.141 77.9778 316.877 77.3086 316.45 76.5595C315.107 76.8092 313.454 76.7992 312.622 76.11C312.633 75.5207 313.251 75.5107 313.774 75.3909C313.859 74.7716 312.963 75.0812 313.006 74.4919C312.643 74.6717 311.897 74.7816 311.566 74.4919C312.068 73.4632 312.835 72.6941 313.678 71.9849C313.678 71.5354 313.795 71.3856 313.816 71.1059C313.774 70.9661 313.72 70.8163 313.688 70.6665C313.55 70.6265 313.518 70.9062 313.209 70.8163C313.177 70.5466 313.059 70.3568 312.921 70.187C312.611 70.6964 311.982 70.4068 311.385 70.5466C311.193 70.217 311.342 69.6177 311.193 69.4679C310.468 69.7475 310.276 70.5266 309.37 70.6365C309.924 69.4579 310.916 68.2893 311.289 67.2305C310.457 67.5401 310.073 68.7088 308.986 68.489C309.604 67.4003 310.671 66.4315 311.097 65.4426C310.66 65.2329 310.137 65.8821 309.658 65.6224C309.839 65.0131 310.383 64.7435 310.617 64.1841C310.617 63.8845 310.34 64.1542 310.137 63.9144V63.1953C309.476 63.2452 308.922 63.7346 308.229 63.465C308.9 61.9168 311.023 61.717 311.193 59.6994C310.831 59.4198 310.468 59.9092 310.137 59.6994C309.924 59.0302 310.82 58.7605 311.001 58.1712C310.489 58.0514 309.487 59.2799 308.9 58.5308C309.764 57.512 311.215 57.0525 311.481 55.4844C311.556 55.1748 311.129 55.3346 311.097 55.1248C311.119 54.0061 311.705 53.4268 312.057 52.6078C311.897 52.458 311.577 52.458 311.481 52.2482C312.505 50.6401 315.043 50.4304 316.365 49.1119C315.363 48.9222 312.547 50.0109 313.017 48.213C313.539 48.1431 313.422 48.6725 313.784 48.7524C314.755 48.7624 315.16 48.243 315.896 48.0332C315.117 47.5837 314.68 45.8358 315.32 44.8969C316.173 45.2765 315.107 47.1243 316.376 47.2242C317.165 47.1542 317.847 46.9845 318.103 46.4151C317.325 45.9557 316.12 45.4862 316.568 44.1678C316.674 44.0679 316.909 44.0679 317.144 44.0779C317.282 43.2489 317.431 42.4298 318.199 42.2001C318.466 42.5896 318.103 43.0391 318.103 43.4586C318.21 43.7782 318.434 43.988 318.775 44.0879C319.084 43.8681 318.978 43.2589 319.639 43.3687C319.82 43.5885 319.735 44.1178 319.639 44.3576C319.692 44.4874 319.777 44.5873 319.831 44.7171C321.473 45.7659 325.323 44.0879 327.103 45.4363C331.23 44.8769 333.566 46.5649 335.72 48.1231C336.285 48.203 336.52 47.9733 336.967 47.9433C337.266 48.3329 336.882 48.7224 336.775 49.022C337.373 49.9909 338.439 50.5103 339.74 50.8199C339.665 51.0796 339.591 51.3393 339.356 51.4492C340.785 53.3869 342.481 55.9139 342.043 58.8005C342.662 60.5384 341.627 63.8445 342.811 65.2628C343.248 65.4226 343.728 65.5425 344.059 65.8022C344.08 65.952 343.973 65.952 343.963 66.0719C344.059 66.3915 343.59 66.1917 343.387 66.2517C343.462 66.6013 343.344 66.7211 343.483 66.8809C343.43 67.1306 343.11 67.1306 342.907 67.2405C343.056 67.7 343.302 68.0595 343.771 68.2293C344.773 68.2793 344.869 67.4702 345.498 67.1506C345.562 68.4091 344.624 68.7287 343.483 68.8586C343.44 69.348 343.792 69.4679 343.771 69.9373C344.645 70.1271 344.613 69.4679 345.306 69.4878C345.274 70.1071 344.485 70.7464 343.387 70.6565C343.206 72.3445 343.91 74.8615 342.523 75.4108C342.587 74.6817 342.747 73.2234 342.139 72.6341C341.585 73.4931 341.937 75.6705 340.796 75.6805C340.86 75.1911 341.02 74.7616 340.892 74.3321C340.422 74.8115 339.9 76.12 338.876 75.5007C339.036 75.0113 339.889 74.8415 339.452 74.0624C339.164 74.1423 338.93 74.2722 338.716 74.422C338.663 74.8215 338.599 75.2211 338.535 75.6006C338.866 76.0201 339.377 76.2698 339.836 76.5695C339.793 76.7093 339.537 76.6494 339.644 76.929C339.047 77.1188 338.663 76.959 338.343 76.6893C338.023 78.4473 337.714 80.2152 337.938 82.4625C340.497 82.5923 343.078 82.8321 345.552 83.4713C346.65 83.761 350.169 85.9684 350.329 84.8097C354.733 88.0459 359.66 90.7327 363.36 94.748C367.914 99.6722 369.684 106.754 372.339 112.657C376.988 122.985 384.549 132.673 391.886 141.423C394.104 144.07 408.297 161.789 404.789 164.466C406.228 166.403 408.19 167.842 409.961 169.46C411.72 171.078 413.224 172.836 414.823 174.604C416.412 176.352 417.798 178.289 419.537 179.887C421.275 181.495 423.28 182.844 424.709 184.732C424.73 185.241 423.919 184.971 423.919 185.471L423.866 185.461ZM341.041 73.4032C341.201 72.734 341.265 72.0748 341.009 71.6253C340.87 71.7052 340.732 71.7851 340.582 71.8451C340.7 72.4044 340.86 72.9138 341.052 73.4032H341.041Z" fill="#3155FE"/>
<path d="M317.389 44.8771C317.389 44.7273 317.314 44.6474 317.197 44.6074C317.197 44.7572 317.272 44.8372 317.389 44.8771Z" fill="#3155FE"/>
<path d="M285.389 117.021C285.389 117.021 285.41 117.121 285.42 117.201C285.42 117.111 285.399 117.061 285.389 117.021Z" fill="#3155FE"/>
<path d="M292.67 121.067V121.087C292.67 121.067 292.681 121.057 292.692 121.037L292.713 120.997L292.681 121.067H292.67Z" fill="#3155FE"/>
<path d="M302.78 136.988C299.708 137.687 296.584 137.837 293.481 137.667C294.142 137.747 294.483 137.777 295.155 137.827C295.187 137.827 295.198 137.827 295.23 137.827H295.187C295.272 137.827 295.315 137.827 295.39 137.837C297.768 137.987 300.178 137.947 302.63 137.557C303.611 137.388 304.102 137.298 305.094 137.018C304.123 137.338 303.633 137.447 302.662 137.657C300.231 138.147 297.8 138.286 295.39 138.227C291.423 138.147 287.243 137.398 283.638 135.42C282.529 134.831 281.975 134.521 280.951 133.822C282.764 135.29 284.854 136.569 287.211 137.408C287.498 137.507 287.776 137.597 288.053 137.687C288.138 137.677 288.213 137.667 288.298 137.657C289.407 137.567 290.751 137.777 291.209 138.396C292.926 138.616 294.622 138.696 296.339 138.686C297.277 138.666 297.746 138.656 298.695 138.586C297.757 138.696 297.288 138.716 296.339 138.776C295.944 138.786 295.752 138.796 295.358 138.806C296.232 138.836 296.669 138.846 297.554 138.836C298.535 138.826 299.037 138.786 300.039 138.716C299.047 138.826 298.546 138.866 297.565 138.916C295.912 138.996 294.259 138.956 292.606 138.816C294.633 139.125 296.669 139.305 298.749 139.315C299.762 139.315 300.274 139.295 301.308 139.235C300.284 139.345 299.772 139.385 298.759 139.425C296.275 139.505 293.843 139.355 291.391 138.976C291.391 139.006 291.391 139.036 291.391 139.056C291.561 139.086 291.721 139.116 291.892 139.135C293.886 139.425 295.869 139.575 297.896 139.565C300.721 139.535 303.601 139.295 306.661 138.237C307.888 137.777 308.517 137.517 309.743 136.738C308.549 137.547 307.92 137.837 306.704 138.346C303.675 139.505 300.764 139.845 297.917 139.965C295.571 140.024 293.321 139.965 290.975 139.595C290.943 139.635 290.922 139.665 290.89 139.705C293.15 140.134 295.358 140.334 297.64 140.374C298.674 140.384 299.197 140.374 300.252 140.324C299.207 140.404 298.685 140.444 297.65 140.454C295.315 140.484 293.033 140.344 290.676 139.945C290.57 140.064 290.442 140.184 290.314 140.314C291.753 140.594 293.204 140.754 294.59 140.863C295.592 140.933 296.083 140.953 297.096 140.983C296.093 140.993 295.592 140.983 294.59 140.953C293.108 140.873 291.657 140.754 290.132 140.494C290.1 140.524 290.068 140.544 290.047 140.574C291.135 140.823 291.988 140.963 293.342 141.163C294.387 141.313 295.976 141.443 295.976 141.443C295.976 141.443 294.398 141.363 293.342 141.243C292.201 141.113 291.071 140.943 289.887 140.704C289.823 140.754 289.77 140.794 289.706 140.843C291.487 141.253 293.129 141.443 294.867 141.613C297.714 141.842 300.583 141.842 303.686 141.363C304.944 141.143 305.573 141.023 306.906 140.634C305.595 141.063 304.966 141.203 303.718 141.473C300.626 142.052 297.736 142.142 294.856 142.002C293.182 141.912 291.508 141.732 289.77 141.413C289.503 141.363 289.247 141.313 288.981 141.253C288.885 141.293 288.789 141.323 288.682 141.343C289.354 141.523 290.004 141.663 290.644 141.802C291.956 142.062 293.246 142.252 294.537 142.382C295.571 142.482 296.093 142.521 297.149 142.571C296.093 142.551 295.582 142.531 294.537 142.462C293.236 142.362 291.945 142.222 290.612 141.992C289.94 141.872 289.269 141.742 288.565 141.573C288.426 141.543 288.288 141.503 288.138 141.463C287.573 141.563 286.944 141.593 286.315 141.633L286.475 141.692H286.507V141.702C286.411 141.672 286.336 141.653 286.283 141.633C286.283 141.633 286.272 141.633 286.261 141.633H286.283L286.443 141.692L286.752 141.802C287.168 141.952 287.541 142.072 287.925 142.182C288.661 142.402 289.365 142.581 290.047 142.741C291.145 143.001 292.745 143.271 292.745 143.261C292.745 143.261 291.145 143.041 290.036 142.811C289.354 142.671 288.639 142.502 287.893 142.302C287.509 142.192 287.136 142.082 286.709 141.942L286.389 141.832L286.229 141.772L286.144 141.742H286.123C285.803 141.643 286.56 141.862 286.475 141.842L286.443 141.832L285.91 141.643C285.131 141.682 284.385 141.752 283.787 141.952C283.03 142.212 282.263 142.601 281.719 143.171C281.921 143.121 282.135 143.061 282.38 142.981C282.124 143.081 281.889 143.161 281.665 143.221C281.175 143.75 280.887 144.429 280.983 145.288C281.111 146.347 282.582 147.206 283.532 148.145C285.472 150.093 287.04 151.411 289.386 153.029C291.028 154.158 292.574 154.827 292.18 156.725C289.535 156.845 288.234 154.707 286.08 153.988C285.814 154.228 286.368 154.987 285.696 155.057C284.374 155.027 283.51 154.567 282.263 154.457C282.06 154.757 282.732 155.796 282.391 156.245C278.349 155.946 275.225 154.777 272.985 152.789C272.623 154.367 273.497 158.413 271.588 158.393C269.893 158.373 270.639 154.567 270.191 152.909C269.882 151.791 268.965 151.081 268.538 150.292C266.224 151.701 265.382 155.167 262.812 157.204C261.895 157.933 260.573 158.563 259.506 159.352C257.853 160.57 256.702 162.278 254.036 162.208C252.106 162.158 250.986 161.09 249.333 160.54C246.816 158.123 246.262 153.888 244.63 150.652C243.308 152.5 242.402 154.238 241.325 156.485C240.749 157.694 239.853 159.032 239.928 160.89C239.981 162.358 240.983 164.695 241.325 166.723C242.242 172.116 245.153 175.682 247.435 180.467C247.797 181.216 248.235 182.135 247.2 182.604C245.686 183.283 247.19 184.602 247.744 185.621C249.216 188.277 250.463 190.874 250.399 193.931C250.335 196.947 249.504 200.023 248.565 202.99H196.739C200.461 198.595 204.737 194.61 209.28 190.914C204.919 189.796 207.616 172.146 208.768 167.971C211.072 159.551 203.671 143.78 209.536 136.828C212.191 133.622 216.617 131.435 220.85 129.567C216.723 127.959 212.394 126.64 208.128 125.162C204.108 123.764 200.376 121.606 196.803 119.449C191.813 116.422 187.003 112.467 181.416 109.441C179.912 108.632 176.692 107.453 176.073 106.344C175.38 105.106 175.817 103.418 176.073 101.939C174.292 101.66 173.343 100.601 172.128 99.792C171.424 97.7344 170.197 95.7568 168.694 94.0788C168.065 93.3796 164.45 91.5418 165.772 89.7938C166.742 88.5054 169.248 90.6628 169.718 91.2221C170.187 91.7815 173.844 96.4859 173.791 92.4107C173.791 91.7815 173.301 91.0423 173.279 90.3831C173.258 89.3444 174.004 86.8273 173.663 85.2592C173.375 83.9507 171.765 83.2416 171.754 82.043C171.744 80.6946 173.119 80.3849 173.535 79.1864C173.642 79.2463 173.652 78.9267 173.919 79.3062C174.74 80.4649 174.548 81.4137 175.071 82.4026C176.031 84.2504 178.163 85.1693 179.144 86.8074C179.763 87.8461 179.656 89.0847 180.541 90.1434C181.149 89.0048 181.298 86.8074 182.834 86.9272C183.452 87.3367 183.079 88.1957 182.962 88.7151C182.813 89.3643 182.759 90.0735 182.578 90.7427C182.386 91.4419 181.778 92.0711 181.693 92.7703C181.586 93.5694 181.864 94.688 182.077 95.7468C182.237 96.5458 182.226 97.8643 182.589 98.4836C182.877 98.973 184.871 99.9318 185.894 100.511C189.371 102.449 192.869 104.247 196.452 105.755C199.011 106.834 201.623 107.783 203.831 108.971C205.964 110.12 207.862 112.117 210.058 113.256C213.194 114.884 218.003 115.124 222.524 115.404C227.216 115.693 231.375 116.582 234.606 117.791C234.958 117.122 235.715 115.903 235.364 114.934C235.193 114.435 234.564 114.415 234.222 114.095C233.103 113.066 233.497 111.958 233.711 110.28C234.212 106.364 233.764 102.049 235.108 98.8431C235.374 98.2039 236.067 97.6645 236.249 97.0552C236.451 96.426 236.238 95.7368 236.377 95.2674C236.473 94.9377 236.696 94.5182 236.974 94.0688C236.558 94.3285 236.099 94.5682 235.619 94.748C235.246 94.8978 235.044 94.9377 234.66 95.0476C235.044 94.9178 235.236 94.8678 235.598 94.698C236.195 94.4383 236.739 94.0987 237.198 93.7292C237.582 93.1499 238.029 92.5506 238.413 92.0611C238.605 91.8214 238.797 91.5717 238.989 91.332C238.467 91.8314 237.933 92.3708 237.304 92.8602C237.038 93.06 236.899 93.1598 236.611 93.3396C236.888 93.1399 237.016 93.03 237.262 92.8202C237.869 92.2809 238.371 91.7016 238.861 91.1522C239.629 90.2832 240.418 89.4143 241.293 88.6751C241.079 88.825 240.855 88.9648 240.631 89.1146C239.554 89.9636 238.541 90.9525 237.475 91.8614C236.899 92.3408 236.259 92.7903 235.545 93.0999C235.268 93.2298 235.108 93.2597 234.809 93.3596C235.097 93.2398 235.246 93.1998 235.513 93.05C236.195 92.7004 236.782 92.221 237.304 91.7016C237.805 91.2121 238.275 90.6928 238.755 90.1934C237.635 91.1522 236.547 92.211 235.225 92.6904C234.489 92.9701 233.689 93.07 232.89 93.04C232.57 93.03 232.399 93.01 232.079 92.99C232.399 92.99 232.57 92.99 232.89 92.9701C233.689 92.9301 234.446 92.7703 235.108 92.4507C235.886 92.0911 236.547 91.5018 237.219 90.8426C237.08 90.9624 236.931 91.0723 236.782 91.1822C236.217 91.6117 235.641 91.9613 235.054 92.171C234.83 92.2709 234.692 92.2709 234.457 92.3408C234.681 92.2509 234.809 92.2309 235.033 92.1111C235.577 91.8614 236.089 91.4918 236.6 91.0424C236.121 91.1822 235.63 91.302 235.108 91.3919C234.308 91.5218 233.433 91.5717 232.57 91.4718C232.218 91.4319 232.047 91.4019 231.706 91.332C232.047 91.382 232.228 91.4019 232.57 91.4219C233.433 91.4718 234.286 91.3819 235.065 91.2022C235.182 91.1722 235.289 91.1422 235.406 91.1123C235.427 91.0923 235.459 91.0823 235.481 91.0623C235.758 90.8825 236.035 90.6628 236.323 90.4231C235.811 90.5629 235.278 90.6728 234.734 90.7327C234.425 90.7627 234.276 90.7727 233.967 90.7827C234.276 90.7527 234.425 90.7327 234.724 90.6828C235.385 90.5629 236.025 90.3831 236.622 90.1534C236.75 90.0335 236.888 89.9137 237.027 89.7938C237.112 89.7239 237.187 89.644 237.272 89.5741C236.664 89.7838 236.035 89.9437 235.395 90.0435C234.702 90.1534 233.977 90.2033 233.273 90.1334C232.985 90.1035 232.847 90.0835 232.57 90.0335C232.847 90.0635 232.996 90.0735 233.273 90.0835C233.977 90.1035 234.681 90.0136 235.353 89.8538C235.982 89.7039 236.6 89.4842 237.198 89.2345C235.907 89.644 234.532 89.8637 233.231 89.674C232.506 89.5741 231.802 89.3543 231.173 89.0247C230.917 88.8949 230.799 88.815 230.565 88.6652C230.821 88.795 230.938 88.8649 231.205 88.9648C231.855 89.2345 232.548 89.4043 233.252 89.4343C234.073 89.4842 234.916 89.3543 235.726 89.1346C235.555 89.1646 235.385 89.1845 235.214 89.2045C234.585 89.2645 233.945 89.2844 233.348 89.1845C233.103 89.1546 232.996 89.1246 232.762 89.0647C232.996 89.0947 233.113 89.1146 233.359 89.1346C233.956 89.1845 234.574 89.1346 235.182 89.0148C236.664 88.7251 238.104 88.0659 239.501 87.3068C238.371 87.8062 237.208 88.2257 236.078 88.4254C235.47 88.5353 234.873 88.5952 234.308 88.5653C234.084 88.5653 233.967 88.5453 233.753 88.5153C233.967 88.5153 234.073 88.5253 234.297 88.5153C234.852 88.4954 235.427 88.3955 236.014 88.2457C237.955 87.7263 239.778 86.6775 241.826 85.5788C244.012 84.4601 246.507 84.0007 248.874 84.0906C249.365 84.1006 249.866 84.1405 250.335 84.2004C251.327 83.9707 252.319 83.9807 253.151 84.0306C254.75 84.1605 256.168 84.5301 257.544 84.9496C257.725 84.9995 257.896 85.0494 258.035 85.0994C259.954 85.6887 261.778 86.4278 263.558 87.2568C264.316 87.6164 265.073 87.986 265.819 88.3855C266.619 88.8449 267.216 89.1046 268.208 89.8538C269.701 90.9824 271.012 92.3908 272.068 93.899C274.179 96.9354 275.214 100.172 276.259 102.958C277.368 105.805 278.253 108.801 279.33 111.189C280.386 113.626 281.783 115.663 283.116 116.472C283.862 116.952 284.801 117.161 285.248 117.052C285.344 117.032 285.408 117.022 285.44 116.992C285.451 116.982 285.483 116.982 285.483 116.962C285.483 116.942 285.483 116.922 285.504 117.022C285.483 116.922 285.483 116.962 285.483 116.982C285.483 117.012 285.451 117.012 285.44 117.032C285.408 117.072 285.334 117.092 285.238 117.122C284.758 117.291 283.755 117.132 282.924 116.662C281.761 116.033 280.514 114.585 279.522 112.757C278.509 110.929 277.688 108.791 276.877 106.504C277.826 109.53 278.786 112.377 280.162 114.565C280.94 115.823 281.847 116.792 282.753 117.351C283.116 117.601 283.681 117.821 283.681 117.821C283.681 117.821 283.094 117.631 282.71 117.401C281.761 116.872 280.78 115.923 279.949 114.664C278.445 112.427 277.389 109.501 276.344 106.414C276.685 107.523 276.845 108.062 277.197 109.121H277.155C278.146 112.287 279.405 115.284 281.196 117.102C281.345 117.261 281.431 117.321 281.58 117.471C282.295 118.04 283.02 118.42 283.809 118.64C284.267 118.78 284.395 118.78 284.801 118.81C284.385 118.81 284.257 118.81 283.777 118.71C283.585 118.68 283.5 118.63 283.308 118.59C283.681 118.74 283.947 118.839 284.278 118.919C284.683 119.009 284.907 119.029 285.291 119.029C284.907 119.059 284.673 119.049 284.257 118.989C283.148 118.78 282.017 118.25 281.036 117.331C280.855 117.171 280.759 117.102 280.588 116.922C280.045 116.382 279.789 116.073 279.298 115.414C280.546 117.601 282.263 119.069 284.246 119.549C285.014 119.718 285.462 119.728 286.059 119.649C286.24 119.599 286.304 119.559 286.411 119.499C286.592 119.379 286.592 119.339 286.603 119.269C286.624 119.339 286.624 119.409 286.549 119.489C286.688 119.409 286.699 119.399 286.763 119.329C286.763 119.289 286.805 119.279 286.816 119.239L286.837 119.179V119.149L286.859 119.139C286.859 119.139 286.859 119.129 286.859 119.139C286.859 119.119 286.891 119.059 286.944 118.899C286.944 118.899 286.987 118.78 286.997 118.69C286.997 118.79 286.997 118.869 286.997 118.919C286.933 119.089 286.912 119.149 286.912 119.159V119.199V119.269C286.912 119.269 286.869 119.329 286.869 119.379C286.869 119.549 286.411 119.928 285.376 119.968C284.481 120.048 284.033 120.028 283.02 119.748C282.753 119.669 282.614 119.619 282.348 119.519C282.934 119.848 283.297 119.988 283.915 120.188C284.449 120.338 284.737 120.378 285.27 120.418C284.737 120.418 284.438 120.378 283.894 120.258C282.785 119.988 281.719 119.439 280.802 118.68C279.725 117.931 278.765 116.862 277.944 115.643C278.232 116.153 278.381 116.412 278.712 116.892C279.618 118.21 280.716 119.309 282.049 120.008C282.582 120.298 282.87 120.398 283.436 120.597C282.849 120.418 282.55 120.338 282.007 120.068C280.908 119.529 279.917 118.74 279.063 117.761C279.458 118.29 279.682 118.54 280.13 119.009C281.004 119.778 282.017 120.378 283.116 120.737C283.734 120.937 284.033 120.997 284.662 121.067C284.033 121.027 283.724 120.987 283.084 120.817C282.614 120.677 282.38 120.597 281.932 120.408C282.124 120.527 282.593 120.757 282.593 120.757C282.593 120.757 281.847 120.438 281.505 120.208C280.716 119.788 280.343 119.529 279.639 118.939C280.439 119.738 280.887 120.088 281.868 120.647C283.446 121.526 285.419 121.906 287.029 121.436C287.637 121.227 287.925 121.087 288.341 120.667C287.957 121.107 287.68 121.277 287.061 121.526C285.43 122.086 283.372 121.786 281.687 120.937C279.682 119.968 278.125 118.24 276.995 116.302C277.251 116.792 277.389 117.032 277.677 117.501C278.274 118.42 278.616 118.859 279.383 119.649C279.97 120.198 280.29 120.438 280.972 120.877C282.519 121.836 284.395 122.405 286.219 122.206C286.933 122.116 287.296 122.016 287.925 121.716C287.317 122.056 286.955 122.166 286.229 122.305C284.385 122.595 282.412 122.096 280.77 121.167C279.202 120.288 277.922 118.989 276.931 117.521C277.229 118.01 277.389 118.25 277.73 118.72C278.05 119.109 278.221 119.289 278.573 119.649C279.917 120.987 281.655 121.986 283.553 122.385C284.31 122.535 284.705 122.575 285.483 122.565C284.705 122.605 284.31 122.575 283.542 122.465C282.241 122.206 281.612 121.956 280.439 121.347C282.167 122.515 284.331 123.254 286.581 122.995C287.733 122.855 288.97 122.365 289.749 121.386C290.484 120.408 290.9 119.329 290.783 118.04C290.634 117.112 290.26 116.213 288.831 115.913C290.271 116.153 290.708 117.072 290.911 118.02C291.018 118.67 290.964 119.289 290.783 119.898C290.634 120.378 290.378 121.057 289.994 121.556C289.205 122.645 287.882 123.234 286.656 123.424C283.724 123.874 280.876 122.795 278.786 121.077C279.223 121.466 279.447 121.656 279.938 122.006L279.991 122.046L279.959 122.026C280.023 122.066 280.045 122.086 280.109 122.126C281.868 123.294 284.054 124.093 286.453 123.913C287.413 123.814 287.925 123.714 288.895 123.274C287.946 123.754 287.434 123.874 286.464 124.003C284.043 124.273 281.772 123.554 279.917 122.405C276.76 120.428 275.065 117.301 273.945 114.355C273.561 113.436 273.39 112.976 273.07 112.048C273.508 113.835 274.052 115.653 274.894 117.441C275.374 118.32 275.63 118.76 276.248 119.609C276.462 119.878 276.557 120.018 276.781 120.288C277.773 121.416 279.021 122.435 280.46 123.154C281.26 123.544 281.655 123.704 282.529 123.973C281.644 123.744 281.239 123.584 280.418 123.224C280.087 123.064 279.917 122.985 279.597 122.795C280.29 123.234 280.663 123.424 281.42 123.764C282.273 124.113 282.774 124.273 283.724 124.463C282.764 124.303 282.263 124.163 281.388 123.834C280.226 123.384 279.138 122.745 278.2 121.986C278.349 122.146 278.498 122.305 278.648 122.465C279.703 123.334 280.94 124.063 282.316 124.563C283.286 124.892 283.787 125.012 284.833 125.152C283.777 125.052 283.276 124.942 282.284 124.643C281.25 124.313 280.279 123.844 279.394 123.274L279.415 123.294V123.304C279.405 123.284 279.49 123.404 279.533 123.454L279.586 123.514C280.151 123.874 280.77 124.183 281.42 124.453C282.721 124.992 284.171 125.332 285.707 125.332C287.221 125.342 289.023 125.012 290.634 123.844C291.252 123.364 291.657 122.915 291.999 122.445C292.159 122.206 292.318 121.966 292.468 121.696C292.532 121.566 292.596 121.426 292.66 121.277L292.756 121.047L292.809 120.927V120.897H292.82C292.82 120.907 292.82 120.917 292.82 120.907C292.809 120.937 292.788 120.997 292.745 121.107L292.766 121.057L292.809 120.937V120.917C292.809 120.917 292.788 120.997 292.756 121.077V121.097L292.734 121.117L292.67 121.287C292.606 121.436 292.542 121.576 292.489 121.716C292.35 121.986 292.191 122.235 292.041 122.485C291.711 122.965 291.316 123.424 290.698 123.933C289.098 125.162 287.264 125.542 285.718 125.572C284.15 125.611 282.646 125.302 281.292 124.792C280.983 124.683 280.684 124.553 280.396 124.423C280.567 124.603 280.738 124.782 280.908 124.952C280.951 124.992 280.994 125.032 281.036 125.082C281.879 125.442 282.444 125.621 283.457 125.851C282.497 125.661 281.943 125.502 281.164 125.202C281.644 125.661 282.124 126.101 282.614 126.52C282.817 126.69 283.03 126.85 283.233 127.02C284.395 127.26 285.654 127.349 286.997 127.24C288.522 127.05 289.407 126.87 291.081 125.991C289.429 126.9 288.554 127.1 287.019 127.329C285.792 127.459 284.641 127.419 283.542 127.25C284.406 127.909 285.291 128.478 286.187 128.928C287.392 129.557 288.608 129.966 289.813 130.186L290.036 130.236C290.164 130.276 290.41 130.346 290.367 130.326H290.388H290.431H290.506C290.591 130.346 290.751 130.366 290.868 130.386C291.145 130.426 291.476 130.456 291.807 130.476C292.489 130.526 293.246 130.546 293.993 130.536C295.838 130.506 297.746 130.306 299.389 129.936C300.05 129.787 300.359 129.697 300.935 129.507C300.37 129.737 300.06 129.836 299.399 130.026C297.746 130.486 295.838 130.765 293.961 130.855C289.567 131.225 285.59 129.986 281.932 126.9C281.911 126.9 281.889 126.9 281.868 126.88C284.118 128.938 286.603 130.416 289.13 131.045L289.429 131.115L289.578 131.155L289.653 131.175H289.695L289.717 131.185C289.738 131.185 289.749 131.195 289.738 131.185C289.781 131.195 289.855 131.215 289.983 131.255C290.132 131.285 290.271 131.315 290.463 131.345C290.826 131.415 291.252 131.465 291.7 131.514C292.596 131.604 293.566 131.644 294.526 131.644C295.304 131.644 296.467 131.584 296.467 131.574C296.467 131.574 295.304 131.694 294.526 131.714C293.555 131.754 292.585 131.744 291.668 131.684C291.22 131.654 290.772 131.614 290.399 131.564C290.196 131.544 290.058 131.514 289.898 131.495C289.898 131.495 289.727 131.445 289.642 131.415H289.631H289.61H289.567L289.493 131.395L289.343 131.365L289.034 131.305C286.134 130.695 283.244 128.958 280.706 126.56C281.58 127.429 282.039 127.839 282.966 128.588L282.934 128.618C284.342 129.737 285.824 130.656 287.381 131.275C287.765 131.435 288.16 131.564 288.554 131.694C288.746 131.764 288.949 131.804 289.151 131.864L289.45 131.944H289.493L289.514 131.964C289.546 131.974 289.61 131.994 289.717 132.024H289.727H289.791L289.908 132.074C290.57 132.244 291.497 132.383 292.393 132.463C292.702 132.493 292.862 132.503 293.182 132.533C294.569 132.573 295.987 132.533 297.362 132.373C298.12 132.294 298.493 132.244 299.218 132.124C298.493 132.274 298.12 132.354 297.362 132.463C297.043 132.513 296.893 132.533 296.573 132.563C297.288 132.533 297.64 132.503 298.333 132.443C299.111 132.364 299.495 132.314 300.242 132.174C299.506 132.344 299.122 132.403 298.343 132.523C296.435 132.793 294.398 132.873 292.457 132.773C292.116 132.773 291.945 132.763 291.615 132.743C291.103 132.713 290.73 132.683 290.378 132.643C290.196 132.623 290.047 132.593 289.855 132.573L289.61 132.533H289.546L289.514 132.513C289.535 132.513 289.621 132.543 289.333 132.463H289.322H289.301L289.13 132.433C291.977 133.302 295.454 133.412 298.663 133.173C299.975 133.043 300.636 132.953 301.841 132.683C302.225 132.573 302.396 132.503 302.758 132.383C303.409 132.124 303.739 131.994 304.262 131.694C303.878 131.954 303.59 132.114 303.195 132.304C303.803 132.094 304.081 131.974 304.582 131.724C305.158 131.425 305.392 131.255 305.723 130.935C305.424 131.285 305.2 131.475 304.635 131.824C303.601 132.443 302.14 132.943 300.594 133.252C299.218 133.612 298.493 133.752 297.021 133.962C296.616 134.002 296.413 134.042 296.008 134.071C297.011 134.071 297.512 134.071 298.503 134.002C299.335 133.942 299.751 133.912 300.562 133.802C299.751 133.952 299.346 134.002 298.514 134.091C296.872 134.251 295.187 134.291 293.523 134.201C291.636 134.211 290.036 134.131 288.213 133.682C288.597 133.792 288.703 133.822 289.151 133.952C289.375 134.022 289.621 134.081 289.951 134.161C291.849 134.561 293.961 134.721 296.019 134.721C296.851 134.721 297.256 134.701 298.077 134.651C297.256 134.731 296.84 134.771 296.019 134.801C294.345 134.871 292.66 134.811 291.028 134.621C291.86 134.781 292.286 134.841 293.14 134.95C294.686 135.05 296.243 135.04 297.778 134.93C298.642 134.861 299.079 134.821 299.922 134.701C299.079 134.861 298.642 134.92 297.778 135.03C297.138 135.1 296.819 135.13 296.179 135.17C296.477 135.17 297.17 135.19 297.17 135.19C297.17 135.19 296.093 135.21 295.55 135.2C294.366 135.25 293.769 135.25 292.596 135.2C294.046 135.36 294.792 135.4 296.264 135.43C298.631 135.45 301.02 135.26 303.238 134.691C304.123 134.461 304.56 134.321 305.371 133.972C304.582 134.361 304.145 134.521 303.27 134.801C301.063 135.47 298.663 135.759 296.264 135.829C293.459 135.879 290.634 135.73 287.989 134.91C288.629 135.12 289.002 135.26 289.621 135.42C290.922 135.73 291.604 135.839 292.969 136.019C293.961 136.109 294.462 136.139 295.464 136.169C297.725 136.229 299.996 136.089 302.193 135.66C303.068 135.47 303.515 135.38 304.358 135.1C303.526 135.42 303.089 135.54 302.225 135.769C300.039 136.299 297.746 136.539 295.464 136.569C293.31 136.588 291.135 136.469 289.013 135.999C289.695 136.189 290.036 136.259 290.73 136.409C291.337 136.489 291.636 136.529 292.244 136.589C294.537 136.788 296.84 136.768 299.122 136.529C300.028 136.429 300.487 136.359 301.383 136.199C300.487 136.399 300.039 136.479 299.122 136.618C297.586 136.828 296.808 136.888 295.24 136.948C297.714 137.078 300.22 137.008 302.694 136.549C305.232 136.049 308.005 135.2 309.786 132.913C310.436 131.984 310.681 131.435 310.916 130.336C310.745 131.445 310.521 132.014 309.914 132.993C308.207 135.41 305.392 136.429 302.822 137.058L302.78 136.988ZM236.835 90.2233C236.76 90.2433 236.686 90.2733 236.611 90.2932C236.227 90.5829 235.865 90.8426 235.513 91.0424C236.067 90.8825 236.6 90.6828 237.102 90.463C237.283 90.2832 237.475 90.1035 237.667 89.9237C237.39 90.0335 237.112 90.1334 236.835 90.2233ZM237.912 89.2844C237.646 89.4842 237.39 89.684 237.134 89.8937C237.539 89.7239 237.923 89.5341 238.296 89.3244C238.435 89.1945 238.584 89.0647 238.723 88.9348C238.456 89.0547 238.189 89.1746 237.912 89.2844ZM248.778 84.2204C248.491 84.2204 248.203 84.2504 247.904 84.2704H248.107C248.693 84.2404 249.28 84.2504 249.845 84.2903C249.909 84.2704 249.973 84.2504 250.026 84.2404C249.61 84.2204 249.194 84.2104 248.778 84.2204ZM258.45 141.862C258.131 140.194 257.875 138.516 257.789 136.808C257.747 137.368 257.747 137.637 257.715 138.197C257.757 138.676 257.779 138.916 257.821 139.385C257.949 140.494 258.109 141.603 258.312 142.701C258.408 142.651 258.493 142.601 258.589 142.551C258.546 142.322 258.493 142.092 258.45 141.862ZM259.154 135.789C259.112 136.329 259.08 136.678 259.048 137.148C258.994 138.207 258.984 138.746 259.005 139.825C259.016 140.054 259.026 140.254 259.048 140.444C259.186 140.184 259.304 139.935 259.432 139.645C259.272 138.366 259.176 137.098 259.165 135.789H259.154ZM259.442 139.775C259.314 140.034 259.186 140.254 259.048 140.504C259.08 140.903 259.112 141.253 259.154 141.782C259.154 141.902 259.186 142.032 259.197 142.152C259.378 142.022 259.56 141.872 259.741 141.722C259.634 141.073 259.528 140.414 259.453 139.775H259.442ZM260.338 139.375C260.37 140.064 260.402 140.544 260.434 141.073C260.509 140.993 260.583 140.913 260.658 140.833C260.541 140.374 260.455 139.974 260.327 139.375H260.338ZM260.946 138.057C260.946 138.726 260.914 139.046 260.924 139.725C260.956 139.965 260.988 140.194 261.02 140.434C261.106 140.344 261.191 140.244 261.276 140.144C261.148 139.445 261.031 138.746 260.946 138.057ZM261.788 137.797C261.714 137.487 261.628 137.038 261.564 136.838L261.383 135.63C261.383 136.229 261.372 136.738 261.383 137.128C261.404 138.017 261.458 138.916 261.554 139.825C261.746 139.595 261.948 139.365 262.14 139.135C262.012 138.686 261.895 138.237 261.788 137.787V137.797ZM266.192 134.411C266.384 134.99 266.608 135.56 266.875 136.129C266.907 136.129 266.949 136.129 266.981 136.119C266.651 135.42 266.374 134.721 266.15 134.002C266.16 134.141 266.182 134.271 266.192 134.411ZM264.934 136.678C264.934 136.678 264.934 136.708 264.934 136.718C264.987 136.688 265.051 136.658 265.115 136.628C265.051 136.479 264.987 136.329 264.913 136.169C264.913 136.339 264.923 136.509 264.934 136.678ZM264.913 136.029C264.987 136.229 265.073 136.429 265.147 136.618C265.254 136.569 265.361 136.519 265.478 136.479C265.446 136.409 265.403 136.329 265.371 136.249C265.201 135.879 265.041 135.5 264.891 135.13C264.902 135.43 264.913 135.73 264.923 136.019L264.913 136.029ZM264.827 133.922C264.838 134.191 264.849 134.451 264.859 134.721C265.03 135.22 265.222 135.72 265.435 136.219C265.467 136.299 265.51 136.379 265.542 136.449C265.659 136.409 265.776 136.369 265.894 136.329L265.851 136.039C265.371 134.97 265.009 133.892 264.742 132.823C264.774 133.193 264.795 133.552 264.817 133.912L264.827 133.922ZM264.614 130.226C264.699 130.925 264.721 131.265 264.849 131.974C265.051 133.103 265.339 134.241 265.766 135.38C265.723 135.05 265.68 134.721 265.627 134.391C265.126 133.003 264.817 131.604 264.614 130.236V130.226ZM266.694 133.183C266.395 131.634 266.054 130.106 265.68 128.578C265.68 128.778 265.691 128.968 265.702 129.167C265.819 130.186 265.872 130.695 266.086 131.714C266.15 132.044 266.182 132.214 266.278 132.553C266.459 133.203 266.683 133.852 266.949 134.481C266.875 134.042 266.79 133.612 266.694 133.173V133.183ZM267.12 135.5C266.853 134.95 266.619 134.391 266.406 133.822C266.619 134.581 266.875 135.35 267.205 136.099C267.205 136.099 267.216 136.099 267.227 136.099C267.195 135.899 267.163 135.7 267.131 135.5H267.12ZM283.436 138.596C283.521 138.636 283.617 138.686 283.702 138.726C283.777 138.726 283.841 138.726 283.915 138.716C283.329 138.436 282.806 138.147 282.06 137.737C281.239 137.278 280.844 137.028 280.077 136.529C281.122 137.288 282.241 137.987 283.436 138.606V138.596ZM270.031 136.718C270.159 136.778 270.287 136.838 270.405 136.908C269.946 136.379 269.605 135.879 269.136 135.12C269.381 135.68 269.69 136.209 270.031 136.718ZM267.899 134.461C268.026 134.801 268.122 135.07 268.314 135.48C268.325 135.51 268.336 135.52 268.346 135.54L268.325 135.5C268.357 135.57 268.368 135.6 268.4 135.66C268.485 135.849 268.581 136.039 268.677 136.219C268.741 136.239 268.816 136.249 268.88 136.269C268.496 135.67 268.165 135.04 267.899 134.391C267.899 134.411 267.899 134.421 267.899 134.441V134.461ZM267.675 129.986C267.76 130.576 267.803 130.875 267.931 131.465C268.048 131.964 268.154 132.204 268.293 132.703C268.848 134.271 269.605 135.789 270.692 137.078C270.842 137.158 270.98 137.238 271.13 137.318C271.151 137.328 271.172 137.338 271.183 137.358C270.543 136.678 269.989 135.949 269.541 135.14C268.613 133.552 268.026 131.794 267.675 129.996V129.986ZM268.24 128.808C268.304 129.387 268.314 129.677 268.41 130.256C268.592 131.395 268.709 131.964 269.061 133.053C269.338 133.842 269.509 134.221 269.882 134.97C270.522 136.269 271.471 137.398 272.569 138.426C272.868 138.646 273.145 138.816 273.412 138.866C273.518 138.886 273.657 138.866 273.796 138.856C272.495 137.867 271.311 136.718 270.5 135.41C269.242 133.452 268.57 131.165 268.24 128.818V128.808ZM269.402 128.498C269.487 129.127 269.519 129.447 269.647 130.056C269.967 131.744 270.511 133.342 271.332 134.751C271.684 135.33 271.823 135.56 272.249 136.059C271.801 135.58 271.642 135.35 271.268 134.791C270.532 133.672 270.01 132.413 269.626 131.085C269.775 131.784 269.85 132.124 270.074 132.793C270.522 133.962 271.162 135.09 271.897 136.009C272.345 136.539 272.601 136.798 273.134 137.298C272.58 136.828 272.303 136.569 271.823 136.059C271.482 135.68 271.343 135.5 271.034 135.06C271.14 135.26 271.386 135.69 271.418 135.739C271.375 135.69 270.938 135.01 270.746 134.641C270.245 133.832 270.031 133.392 269.647 132.493C270.021 133.642 270.266 134.191 270.852 135.24C271.599 136.559 272.751 137.767 274.02 138.816C274.702 138.656 275.63 138.257 276.355 138.267C276.408 138.267 276.472 138.267 276.525 138.267C275.864 137.887 275.214 137.437 274.606 136.948C273.625 136.249 273.113 135.829 272.388 135.05C272.196 134.841 272.1 134.691 271.908 134.441C272.303 135.13 272.463 135.36 272.974 135.969C273.412 136.469 273.657 136.718 274.169 137.198C273.636 136.748 273.38 136.499 272.91 136.019C272.036 135.1 271.386 134.012 270.863 132.773C270.213 131.475 269.733 130.016 269.413 128.478L269.402 128.498ZM273.689 134.551C273.529 134.391 273.497 134.371 273.337 134.171C273.593 134.551 273.732 134.701 274.094 135.09C274.51 135.52 274.745 135.74 275.225 136.149C274.723 135.759 274.467 135.55 274.03 135.14C273.081 134.271 272.292 132.973 271.737 131.544C271.631 131.285 271.567 131.165 271.471 130.905C271.236 130.266 271.108 129.866 270.959 129.307C270.938 129.277 270.916 129.237 270.884 129.207C271.279 131.764 272.164 134.061 273.668 135.66C274.393 136.429 274.819 136.808 275.683 137.487C275.982 137.677 276.131 137.777 276.43 137.947C276.803 138.157 277.048 138.296 277.336 138.426C277.826 138.546 278.338 138.696 278.872 138.746C279.255 138.776 279.671 138.796 280.098 138.816C277.496 137.108 275.384 135.07 273.614 132.943C273.838 133.322 274.094 133.672 274.094 133.662C274.094 133.662 273.636 133.113 273.358 132.633C272.942 132.124 272.548 131.614 272.175 131.105C272.004 130.855 271.833 130.606 271.663 130.356C271.748 130.705 271.855 131.055 271.961 131.385C272.036 131.624 272.079 131.744 272.164 131.964C272.58 132.923 273.166 133.862 273.732 134.501C274.073 134.871 274.286 135.08 274.723 135.46C274.254 135.1 274.03 134.9 273.668 134.541L273.689 134.551ZM271.695 113.596C271.716 113.945 271.737 114.305 271.769 114.654C271.876 114.784 271.993 114.924 272.1 115.054C272.153 115.124 272.217 115.184 272.271 115.254C272.057 114.694 271.876 114.145 271.705 113.596H271.695ZM274.275 117.361C274.147 117.141 274.083 117.032 273.966 116.802C274.115 117.151 274.286 117.511 274.478 117.861C274.542 117.931 274.606 118.01 274.67 118.08C274.553 117.861 274.425 117.621 274.286 117.351L274.275 117.361ZM272.633 130.685C272.655 130.735 272.665 130.795 272.687 130.855C274.723 133.722 277.261 136.549 280.695 138.826C280.994 138.826 281.292 138.826 281.591 138.826C280.194 138.027 278.914 137.118 277.752 136.149C275.736 134.461 274.062 132.603 272.623 130.695L272.633 130.685ZM277.848 133.732C277.794 133.782 277.773 133.812 277.72 133.862C278.552 134.651 278.978 135.05 279.906 135.779C281.367 136.888 283.03 137.867 284.822 138.636C284.875 138.636 284.939 138.626 284.992 138.616C285.152 138.596 285.312 138.566 285.472 138.516C284.737 138.227 284.022 137.907 283.34 137.557C281.271 136.509 279.458 135.17 277.858 133.722L277.848 133.732Z" fill="#3155FE"/>
<path d="M276.932 114.794C276.836 114.584 276.782 114.475 276.697 114.265C276.59 114.035 276.537 113.925 276.419 113.686C276.612 114.135 276.718 114.355 276.932 114.794Z" fill="#3155FE"/>
<path d="M281.451 126.501C281.451 126.501 281.462 126.501 281.473 126.501C281.398 126.441 281.324 126.371 281.249 126.301C281.313 126.361 281.377 126.421 281.441 126.491L281.451 126.501Z" fill="#3155FE"/>
<path d="M286.721 133.572C286.465 133.462 286.347 133.412 286.092 133.303C285.814 133.183 285.676 133.123 285.398 133.003C285.921 133.253 286.188 133.362 286.721 133.572Z" fill="#3155FE"/>
<path d="M287.051 137.967C287.051 137.967 287.105 137.947 287.137 137.937C286.987 137.887 286.849 137.837 286.689 137.787C286.38 137.707 286.22 137.647 285.91 137.547C286.284 137.707 286.668 137.837 287.051 137.967Z" fill="#3155FE"/>
<path d="M268.815 126.7C268.794 126.431 268.783 126.291 268.751 126.021C268.794 126.54 268.804 126.8 268.857 127.319C268.836 127.07 268.825 126.95 268.815 126.7Z" fill="#3155FE"/>
<path d="M272.292 130.246C272.111 129.996 271.93 129.737 271.748 129.487C271.94 129.776 272.132 130.066 272.324 130.356C272.324 130.316 272.303 130.286 272.292 130.246Z" fill="#3155FE"/>
<path d="M276.953 138.347C276.953 138.347 277.048 138.367 277.102 138.377C276.984 138.327 276.867 138.277 276.75 138.217C276.825 138.267 276.889 138.307 276.963 138.347H276.953Z" fill="#3155FE"/>
<path d="M268.091 136.139C268.091 136.139 268.176 136.149 268.219 136.159C268.166 136.059 268.112 135.959 268.059 135.85C268.059 135.949 268.08 136.039 268.091 136.139Z" fill="#3155FE"/>
<path d="M265.841 123.334C265.82 123.574 265.809 123.814 265.799 124.053C265.82 124.143 265.852 124.243 265.873 124.333C265.873 124.033 265.852 123.714 265.841 123.324V123.334Z" fill="#3155FE"/>
<path d="M266.332 136.239C266.332 136.239 266.374 136.229 266.406 136.219C266.385 136.169 266.353 136.109 266.321 136.059V136.239H266.332Z" fill="#3155FE"/>
<path d="M263.953 137.357C264.017 137.308 264.092 137.258 264.166 137.208V137.188L264.145 137.078V137.018L264.123 136.988V136.958C264.123 137.018 264.123 137.178 264.123 137.158V137.138L264.081 136.848C264.081 136.848 264.081 136.848 264.081 136.838C264.049 136.758 264.006 136.668 263.974 136.588C263.974 136.848 263.974 137.108 263.974 137.367L263.953 137.357Z" fill="#3155FE"/>
<path d="M263.996 136.489C263.975 136.379 263.964 136.269 263.943 136.159C263.943 136.229 263.943 136.289 263.943 136.349C263.964 136.399 263.975 136.439 263.996 136.489Z" fill="#3155FE"/>
<path d="M263.963 125.901C263.963 125.901 263.963 125.821 263.963 125.791C263.931 125.671 263.91 125.551 263.878 125.432C263.91 125.601 263.931 125.751 263.963 125.901Z" fill="#3155FE"/>
<path d="M260.595 133.792C260.574 133.522 260.552 133.392 260.531 133.123C260.563 133.632 260.595 133.892 260.605 134.401C260.605 134.151 260.605 134.031 260.605 133.792H260.595Z" fill="#3155FE"/>
<path d="M249.674 84.3506C249.429 84.3506 249.183 84.3506 248.927 84.3706C249.066 84.3706 249.215 84.3706 249.354 84.3706C249.418 84.3706 249.503 84.3706 249.599 84.3706C249.621 84.3706 249.653 84.3506 249.674 84.3506Z" fill="#3155FE"/>
<path d="M248.383 84.6699C248.586 84.6499 248.789 84.64 248.991 84.62C249.034 84.6 249.076 84.58 249.119 84.5601C248.799 84.59 248.479 84.62 248.149 84.6699C248.223 84.6699 248.309 84.6699 248.383 84.6699Z" fill="#3155FE"/>
<path d="M249.301 84.4803C249.301 84.4803 249.408 84.4404 249.461 84.4204C249.418 84.4204 249.386 84.4204 249.354 84.4204C248.874 84.4404 248.395 84.4803 247.904 84.5503C248.373 84.5103 248.842 84.4903 249.301 84.4803Z" fill="#3155FE"/>
<path d="M289.973 130.186C289.898 130.166 289.866 130.156 289.973 130.186V130.186Z" fill="#3155FE"/>
<g clip-path="url(#clip1_1405_3)">
<path d="M201.847 56.9129C200.674 57.5522 199.693 59.9693 198.68 61.4476C198.232 62.0968 197.56 62.8459 197.006 63.5451C196.366 64.3442 195.47 65.0733 195.331 65.6426C195.182 66.2419 195.641 67.1608 195.513 68.0897C195.214 70.2072 192.335 73.9328 191.226 76.1202C186.001 86.3881 184.646 97.6947 178.856 107.873C174.537 115.474 172.117 123.574 168.139 131.205C166.603 134.152 163.703 135.89 161.677 138.457C160.035 140.534 161.197 145.588 160.824 148.105C159.501 156.985 157.177 165.365 158.275 174.424C159.181 181.885 163.916 188.787 164.524 196.048C164.705 198.276 164.982 200.493 165.313 202.721H104.146C104.626 200.733 104.892 198.695 104.711 196.428C104.05 188.168 110.768 177.61 111.323 168.811C111.813 160.97 109.766 153.369 109.947 145.568C110.075 140.095 107.249 135.81 104.572 131.095C99.0593 121.387 101.32 110.619 99.3366 100.092C96.9266 87.307 100.179 75.0115 98.7927 62.3365C98.3981 58.7707 96.8946 54.8554 98.7927 52.2185C97.9183 51.3096 97.4491 48.5628 96.7453 46.8049C96.0521 45.0769 93.7808 40.1927 98.0462 40.8719C98.2275 39.6434 98.5901 38.5846 99.3472 37.9054C100.883 37.5758 101 39.1939 102.141 38.9542C103.314 38.7145 103.314 36.8067 104.189 36.6869C105.671 36.4771 105.799 38.5247 106.982 38.4348C108.603 38.3049 108.262 35.0488 108.475 33.5506C108.593 32.7215 109.062 31.6628 109.222 30.5841C109.563 28.3068 109.254 24.9707 111.291 24.9707C113.381 24.9707 112.474 30.2445 112.229 33.171C111.845 37.6857 110.299 43.3789 114.276 44.6874C115.087 44.9571 116.388 45.1369 117.636 44.6874C119 44.198 119.064 42.2503 120.803 41.7209C121.165 41.611 123.394 41.2714 123.97 41.9007C125.569 43.6286 120.376 47.1145 119.31 48.0035C116.974 49.9412 115.545 51.8489 113.167 53.2373C112.656 62.5662 112.816 72.085 113.722 80.6349C113.999 83.2618 113.69 85.7788 113.903 88.3158C114.543 95.787 118.905 103.548 120.237 110.13C120.333 110.599 120.291 111.309 120.323 111.898C120.579 111.898 120.813 111.858 120.995 111.748C121.197 111.239 121.496 110.849 121.816 110.47C122.85 110.859 122.967 110.1 123.245 109.561C122.317 109.491 121.88 110.03 120.877 109.87C120.867 108.862 122.456 109.021 122.882 108.242C122.392 108.122 120.269 108.432 120.067 107.533C120.248 107.114 121.187 107.653 121.73 107.673C122.2 107.653 122.605 107.543 122.989 107.413C123.383 107.034 123.714 106.554 123.682 105.875C122.605 105.895 121.677 106.974 120.579 106.335C121.485 105.785 122.903 105.106 122.562 103.628C122.21 103.518 121.848 103.668 121.624 103.418C121.474 102.799 122.21 102.499 122.392 101.97C122.221 101.77 121.517 102.06 121.368 101.67C121.602 101.131 122.253 101.101 122.456 100.531C122.317 100.212 121.88 100.022 121.997 99.5825C121.389 99.6524 121.314 100.392 120.536 100.252C120.44 99.0531 122.253 98.6336 122.658 97.415C122.615 97.1953 122.338 97.455 122.093 97.2852C122.04 95.9468 122.317 94.1989 123.149 93.1401C122.999 92.9403 122.434 93.1301 122.338 92.8005C122.615 92.0913 123.479 92.1113 123.927 91.6219C124.098 91.3722 123.746 91.3622 123.852 91.1425C124.226 90.713 124.951 90.713 125.132 90.0438C125.303 89.7541 124.706 89.814 124.759 89.5743C124.855 89.025 125.42 89.0449 125.601 88.6155C125.473 88.4357 124.951 88.4357 125.015 88.176C125.239 87.4968 126.039 87.5367 126.636 87.307C132.181 84.5103 136.51 80.1954 144.529 80.4651C145.351 80.6549 146.182 80.8446 146.907 80.9146C147.057 81.0644 146.801 81.394 146.95 81.5338C147.846 81.4939 148.528 81.1842 149.584 81.354C150.437 81.8435 151.173 82.3828 152.325 82.7324C153.53 84.0209 154.852 85.2594 156.707 86.2482C156.686 86.3781 156.558 86.3781 156.537 86.5179C156.025 86.6378 155.716 86.1883 155.14 86.1284C155.502 87.0074 156.889 87.4269 157.731 88.0961C158.04 88.4956 158.371 88.8751 158.851 89.1948C159.224 89.7741 159.597 90.3534 160.003 90.9127C159.651 92.0814 160.536 93.0702 159.587 94.1289C159.512 95.2376 161.431 95.4274 161.591 96.4262C161.037 96.5461 160.642 96.1166 160.216 95.9668C159.992 96.1865 160.13 96.7159 160.141 97.0255C158.936 97.9944 160.173 98.8533 160.568 99.6624C160.301 99.8422 159.693 99.5925 159.213 99.5126C159.064 99.8921 159.917 100.342 159.864 100.891C158.638 102.03 159.395 103.578 160.013 104.617C160.13 104.726 160.28 104.826 160.429 104.926C163.116 101.64 165.772 98.294 167.584 94.4186C168.853 91.6918 169.216 88.6654 170.752 86.0385C172.149 83.6413 173.919 81.424 175.038 78.887C177.352 73.6132 178.931 68.0398 181.191 62.3066C179.944 60.259 178.995 58.1215 177.832 56.024C176.755 54.0563 173.641 51.779 174.665 49.9112C175.433 48.5229 178.131 49.8213 178.952 50.6104C180.146 51.759 179.869 54.306 182.492 54.4459C185.798 54.6256 187.451 50.8102 188.272 48.1633C189.296 44.8272 189.008 41.2614 189.946 38.215C190.234 37.2961 190.97 35.5382 191.994 35.5981C194.02 35.708 192.698 40.0728 192.548 41.3613C192.196 44.5076 191.823 46.8548 191.994 49.3918C193.305 49.8113 193.455 48.5029 194.788 48.5129C196.057 48.5229 197.187 49.8013 198.136 50.4306C199.426 49.4917 203.756 48.0834 204.47 49.9112C205.366 52.1985 200.471 51.809 200.002 53.3971C201.783 53.9864 208.352 53.6168 208.203 55.6644C208.085 57.2725 203.319 56.1039 201.868 56.883L201.847 56.9129ZM123.373 95.3775C123.394 95.5173 123.149 95.777 123.362 95.8369C123.447 95.797 123.746 95.3874 123.373 95.3775ZM127.009 114.735C126.486 114.595 126.742 114.085 126.668 113.736C126.198 113.796 125.943 114.105 125.388 114.065C125.025 113.866 125.228 113.406 125.249 113.037C124.652 112.967 124.62 113.606 123.874 113.346C123.533 112.957 124.151 112.517 123.884 112.118C123.149 112.198 122.807 113.266 121.986 112.927C121.666 112.757 121.976 112.437 122.061 112.248C121.741 112.487 121.112 112.687 120.461 112.717C121.251 114.695 124.802 115.374 125.633 117.312C126.668 116.333 127.777 115.164 128.246 113.586C127.894 114.035 127.51 114.465 127.009 114.735ZM144.679 117.761C144.423 117.501 144.284 117.192 144.188 116.862C143.975 117.431 143.815 118.041 143.708 118.7C144.284 118.66 144.796 118.21 145.361 117.711C145.127 117.661 144.967 117.711 144.679 117.761ZM147.451 113.916C146.833 114.215 147.291 114.914 147.622 115.184C147.483 115.354 147.121 115.264 146.961 115.424C146.993 115.803 147.142 116.143 147.355 116.443C147.782 116.343 148.272 116.293 148.731 116.083C148.816 116.043 148.902 116.003 148.987 115.953C148.336 115.334 148.016 114.575 147.441 113.916H147.451ZM149.136 114.365C149.328 114.575 149.424 115.174 149.851 115.064C149.595 114.874 149.445 114.305 149.136 114.365ZM149.723 111.648C149.477 112.637 149.264 113.616 150.203 114.065C150.586 113.007 150.277 112.267 149.723 111.648ZM157.561 106.325C156.857 106.594 157.752 108.023 157.23 108.402C156.356 108.112 156.409 107.403 156.132 106.844C155.545 107.753 155.886 108.802 155.47 109.85C155.023 110.34 154.788 111.518 153.775 111.009C153.978 110.43 154.372 109.93 154.393 109.381C152.026 109.711 153.572 112.947 152.751 114.245C151.706 113.886 151.951 112.947 151.216 112.437C151.077 113.077 151.408 114.235 150.842 115.104C151.45 114.964 152.111 115.024 152.836 115.544C154.233 112.787 156.1 110.28 158.062 107.813C158.104 107.233 157.987 106.704 157.561 106.325ZM158.552 104.387C158.499 105.156 158.957 105.695 159.299 106.285C159.469 106.075 159.64 105.865 159.811 105.665C159.235 105.356 158.776 104.746 158.552 104.387Z" fill="#3155FE"/>
<path d="M123.021 96.3664C123.053 96.676 123.202 96.1067 123.021 96.3664V96.3664Z" fill="#3155FE"/>
</g>
</g>
<path d="M145.196 172.979C144.854 173.228 144.587 173.169 144.267 173.557C144.128 173.727 144.032 174.125 143.957 174.285C143.658 174.912 143.487 175.749 142.867 176.168C142.205 176.616 141.094 176.556 139.758 176.606C138.23 176.656 136.745 176.925 136.19 175.739C135.997 175.351 136.158 175.052 136.029 174.583C135.837 173.866 135.484 173.179 135.559 172.411C135.559 171.963 136.136 172.222 136.799 172.122C135.784 171.505 134.555 171.016 133.54 170.239C132.578 169.512 131.478 168.595 130.591 167.489C130.271 167.091 130.078 166.224 129.811 165.606C129.352 164.52 128.518 163.474 127.792 162.418C126.627 160.724 125.174 159.17 123.604 157.645C120.922 155.045 118.091 152.653 115.067 149.824C105.163 140.587 96.3697 131.122 86.348 122.164C83.0893 130.783 74.6168 143.008 75.6318 152.285C75.8668 154.407 76.9886 156.689 77.3412 159.09C77.5229 160.375 77.5335 161.67 77.651 162.996C78.0357 167.32 77.9929 172.312 78.5806 176.895C78.6554 177.473 78.7836 178.031 78.8904 178.629C79.1041 179.834 79.4674 181.09 79.5101 182.246C79.5528 183.521 79.0507 184.766 79.5101 186.012C78.7943 190.804 84.2966 197.739 87.2348 203H51.2932C50.0432 201.117 49.0923 199.244 48.9213 197.6C46.7845 197.899 45.2887 200.111 44.2203 203H14.2085C15.8752 196.882 17.6274 190.804 17.8839 184.567C17.9052 184.019 17.6915 183.491 17.7343 182.973C17.777 182.375 18.0334 181.538 18.2044 180.801C19.4972 175.122 20.5549 169.671 21.3989 163.892C22.478 156.489 25.7474 149.973 27.6064 142.809C30.9292 129.946 28.0338 115.279 23.0229 103.193C21.2601 98.9488 17.9373 95.0829 15.2555 91.3166C14.7747 90.6291 14.2406 89.9815 13.7063 89.284C11.9007 86.9326 11.3238 84.5712 9.83868 82.4688C6.47318 77.6763 2.6803 71.4888 0.778519 66.0586C-1.25148 60.2497 1.21655 52.7171 2.21019 46.8684C2.72302 43.8992 3.26791 40.9699 3.6098 37.6022C3.71664 36.5361 3.93034 35.45 3.91966 34.4138C3.91966 33.6466 3.66322 32.8295 3.6098 32.0922C3.42818 29.5614 3.43887 26.5923 3.91966 24.2807C4.12265 23.2644 4.6248 22.2281 4.84918 21.2417C4.94533 20.8332 4.7637 20.6041 4.84918 20.2254C4.97739 19.6675 5.25516 18.9401 5.93895 18.4818C6.69753 18.133 7.13559 18.4619 7.79802 18.6312C7.97964 16.9175 8.77025 15.4927 10.5866 16.0307C11.8366 16.3894 11.2276 17.9736 12.4563 18.4917C12.9478 18.6412 12.9585 18.0234 13.2362 17.6249C13.5781 17.1267 14.0376 16.23 14.4756 15.4528C14.6572 15.124 14.6786 15.1639 14.9457 14.8749C14.9991 14.8251 15.0739 14.8151 15.1273 14.7653C15.1807 14.7155 15.2021 14.6358 15.2555 14.586C15.4158 14.4564 15.5867 14.0678 16.0355 14.0081C16.5483 13.9383 17.4672 14.3369 17.745 14.586C17.948 14.7753 18.1082 14.9845 18.2151 15.4528C18.386 16.2399 17.9479 16.5887 17.5954 17.336C17.3283 17.9138 17.0826 18.5216 16.8154 19.2191C17.136 19.8568 18.3005 18.2426 18.8347 17.4854C19.4117 16.6684 20.042 15.662 21.1639 15.7517C21.9011 15.8115 22.6597 16.7381 22.7131 17.057C22.8413 17.7544 22.3391 18.2427 21.9331 18.9401C21.5806 19.5379 21.1639 20.1358 21.0036 20.5343C20.8434 20.903 20.5228 21.999 20.3839 22.5569C20.1382 23.5533 19.807 24.4999 20.2237 24.8685C20.3412 24.9682 20.5976 24.9183 20.8434 25.1575C21.3348 25.6357 21.9545 26.7118 21.9331 27.9075C21.9118 29.0633 21.0036 30.5578 20.2237 31.8132C19.8818 32.3712 19.5719 33.0388 19.1339 33.5469C19.027 33.6665 18.7706 33.7163 18.6745 33.8359C18.4608 34.085 18.183 34.5931 17.745 34.8522C17.3817 35.0614 16.8475 35.181 16.5056 35.2906C16.1317 35.4002 15.5867 35.3205 15.2662 35.5795C14.9778 35.8087 14.7748 36.4962 14.6466 37.0243C14.5077 37.6121 14.5717 38.19 14.4863 38.758C14.3687 39.5252 14.0803 40.1429 14.0269 40.6411C13.8987 41.8069 14.0269 43.3014 14.0269 44.6963C14.0269 48.8711 15.544 52.767 15.8859 56.862C16.1744 60.2995 14.9671 64.1854 17.4351 67.1446C20.6938 71.0504 25.491 73.5314 28.4612 77.8556C29.7433 79.7288 32.425 80.6056 34.6687 81.7714C37.938 83.4652 40.6197 86.0857 41.9659 89.4434C43.3121 92.7912 48.7504 88.8456 51.2825 90.5992C51.8167 89.1346 49.3274 87.2315 47.8316 86.0259C47.8102 86.0259 47.7888 86.0358 47.7781 86.0458C46.7952 86.4543 46.1862 87.7197 45.2032 87.9887C44.7331 87.7097 44.8293 87.2414 44.2844 87.1318C43.7075 87.0123 42.9062 87.6998 42.3719 87.1318C42.2865 86.6636 42.5643 86.534 42.6177 86.1953C42.5856 85.8864 41.827 86.1953 42.03 86.0458C42.3613 85.8067 42.7886 85.6672 43.1092 85.428C43.4404 84.352 42.6711 83.6346 42.03 83.0168C41.6347 83.0667 41.2608 83.1264 40.78 83.0965C41.186 82.688 41.4317 81.9407 41.1967 81.1536C39.9894 81.5123 38.3547 81.582 37.6175 80.765C38.953 80.5857 40.3099 80.0177 40.1176 78.6726C39.1667 79.1011 38.141 79.948 36.8696 79.6092C37.1901 78.9417 37.9167 78.2641 37.6175 77.2777C36.9978 77.2678 36.9765 77.8158 36.6132 78.0549C36.2927 77.6264 35.7478 76.9987 35.8653 76.4208C36.7948 76.2315 37.8098 75.2252 37.0299 74.169C36.3781 74.179 36.4529 74.8665 35.8653 74.9462C38.6004 71.5187 35.2456 66.6564 35.8653 62.4517C36.079 61.0468 37.4786 59.0441 38.5256 57.7189C40.3313 55.4372 42.3719 53.6438 45.3421 52.4382C47.5431 51.5514 49.8081 50.7543 53.0775 51.0432C54.7656 51.1927 56.881 53.3648 58.9003 51.9798C61.4432 52.0496 63.9326 53.0061 65.4711 54.1519C66.9348 55.238 67.8216 57.1909 69.2106 58.4961C69.7127 58.9644 70.4179 59.2832 70.7918 59.7416C71.7 60.8276 72.0846 62.093 72.2021 63.5477C72.3838 65.7895 71.5397 68.6591 73.4522 69.5957C73.3774 69.7551 72.9821 69.6256 72.95 69.8249C72.95 70.3828 73.3988 70.5422 73.6979 70.8312C73.7193 71.16 73.0569 70.8511 73.0355 71.1401C73.0355 71.6183 73.762 72.0567 74.5313 72.0667C74.3069 72.9734 72.5547 72.4453 71.9457 72.9933C71.9991 73.3122 72.2342 73.4517 72.1915 73.8502C70.717 74.169 70.6422 77.2578 72.7791 76.8792C72.4799 77.746 71.3688 77.8457 70.3645 78.0449C70.7491 79.7487 73.7941 78.9417 74.4458 78.0449C74.339 79.3103 72.8539 80.3067 71.1978 80.1373C70.9735 79.938 71.4222 80.0277 71.1978 79.8284C71.0162 79.8982 70.6316 79.948 70.4499 80.217C70.8666 80.6554 71.529 80.8647 71.7 81.5422C71.4222 81.4525 71.0803 81.2732 70.8666 81.5422C70.9735 82.1101 71.3688 82.419 71.3688 83.0965C70.9307 83.1464 71.0055 82.7179 70.6209 82.708C70.2256 82.7877 70.4072 83.2759 69.9585 82.9371C69.6166 83.256 69.1785 83.4951 68.7298 83.7243C69.0076 84.3819 69.3067 85.0295 69.5632 85.6771C70.2256 87.3311 74.1146 91.2469 76.1125 93.1101C76.3156 93.13 79.9695 92.3229 79.9054 92.3429C84.3073 91.3266 88.9442 92.3429 92.3845 94.8039C98.4211 99.1381 99.8634 108.823 102.481 114.931C105.056 120.959 110.419 125.383 115.526 129.557C123.817 136.333 124.448 147.911 131.67 155.334C131.83 155.493 132.13 155.573 132.29 155.762C132.397 155.892 132.333 156.081 132.439 156.2C133.187 156.948 134.063 158.881 134.929 159.528C135.207 159.738 135.741 159.917 136.168 160.106C136.991 160.465 137.824 160.644 138.807 161.122C139 161.212 139.117 161.481 139.277 161.561C140.527 162.169 142.269 162.647 143.466 163.593C143.968 163.992 144.384 164.221 144.555 164.749C144.705 165.198 144.716 165.377 144.716 166.194C144.833 166.553 145.378 166.822 145.645 167.21C145.869 167.519 146.211 168.017 146.265 168.366C146.329 168.795 146.019 169.542 145.955 170.249C145.827 171.644 146.137 172.302 145.175 172.999L145.196 172.979Z" fill="#3155FE"/>
<defs>
<clipPath id="clip0_1405_3">
<rect width="350.655" height="203" fill="white" transform="matrix(-1 0 0 1 424.656 0)"/>
</clipPath>
<clipPath id="clip1_1405_3">
<rect width="112.652" height="177.74" fill="white" transform="matrix(-1 0 0 1 208.182 24.9707)"/>
</clipPath>
</defs>
</svg>
