<svg width="412" height="195" viewBox="0 0 412 195" fill="none" xmlns="http://www.w3.org/2000/svg">
<g clip-path="url(#clip0_1308_16)">
<path d="M261.106 172.581C265.194 169.669 264.459 170.821 265.46 172.197C266.493 173.626 268.654 171.44 269.367 170.661C270.198 169.765 271.762 169.242 272.912 168.88C275.105 168.176 278.703 167.813 279.555 170.629C277.671 170.917 274.136 174.693 277.767 175.045C278.895 175.152 279.938 174.597 280.95 174.181C282.472 173.552 284.154 173.68 285.623 172.922C287.955 171.738 289.903 170.266 292.309 169.189C294.544 168.186 295.545 165.296 296.95 163.461C300.729 158.522 306.052 155.152 310.225 150.597C313.919 146.565 316.73 141.712 317.454 136.218C321.01 142.597 321.904 151.504 321.265 158.661C320.903 162.768 320.307 166.917 320.797 170.992C320.861 171.493 320.467 173.189 320.797 173.541C321.052 173.818 321.659 173.637 321.808 174.042C321.318 176.25 320.562 178.394 319.711 180.485C317.922 184.88 316.655 189.392 315.697 193.989H353.49C353.979 193.776 354.469 193.637 354.959 193.605C355.342 193.584 355.757 193.722 356.194 193.989H388.503C387.418 189.072 386.034 184.24 383.947 179.6C382.254 175.824 380.147 172.25 378.22 168.581C376.101 164.56 374.419 160.346 372.375 156.293C370.065 151.706 366.563 147.706 364.902 142.789C363.22 137.818 364.668 133.008 365.306 128.005C365.966 122.906 366.914 120.912 370.214 117.178C371.577 115.642 371.247 113.424 372.748 111.792C374.121 110.298 375.846 109.189 377.56 108.144C382.606 105.082 388.216 103.141 393.379 100.304C396.381 98.661 399.043 96.6663 401.608 94.405C404.706 91.6743 411.637 90.0743 411.945 85.349C412.265 80.3357 409.529 74.6717 407.921 70.0637C405.632 63.5037 403.269 56.8477 402.534 49.893C402.162 46.405 402.449 42.9703 402.492 39.4823C402.524 36.8157 402.886 32.005 401.108 29.7863C399.873 28.2503 396.977 25.829 394.763 26.0103C394.305 26.0637 393.922 26.2663 393.592 26.597C393.241 26.1597 392.751 25.8183 392.24 25.5943C391.048 25.093 389.93 25.5623 389.706 26.9063C388.056 25.1463 386.119 27.1303 386.864 29.0183C387.205 29.893 387.673 30.7037 388.141 31.5143C388.993 32.9757 387.545 32.805 387.375 34.2237C387.258 35.2263 388.035 36.3357 388.046 37.3917C388.056 38.8317 388.046 39.845 388.855 41.093C390.196 43.1303 392.698 44.3357 393.741 46.5223C395.04 49.2637 395.178 52.4637 395.764 55.397C397.552 64.4317 397.755 73.9143 400.895 82.6397C392.645 82.0317 387.62 87.781 380.115 89.5943C377.112 90.3197 374.451 90.917 371.715 91.9303C371.662 91.845 371.609 91.7597 371.555 91.685C372.152 90.9063 373.365 90.789 373.546 89.7223C373.695 88.7837 372.822 88.3677 372.492 87.525C372.982 86.9383 373.663 86.2023 373.504 85.0503C373.174 84.453 371.854 84.2717 371.289 84.069C371.896 82.821 372.971 82.2023 373.77 81.221C373.993 80.3357 373.45 79.8023 373.142 79.0983C373.408 78.4583 374.1 78.405 374.472 77.9037C374.44 77.1997 373.972 76.805 373.78 76.2077C373.908 75.7917 374.334 75.781 374.451 75.3437C374.472 74.5223 373.876 74.1383 373.301 73.7437C373.887 73.2957 374.653 72.4637 373.876 71.813C374.291 71.7597 374.77 71.7917 375.271 71.8663C375.686 72.069 376.271 73.0077 376.857 72.389C376.655 71.5997 375.792 71.2903 374.685 71.1623C374.494 70.4157 373.951 69.925 373.078 69.669C372.545 68.5917 373.929 67.493 373.259 66.3517C372.577 66.085 372.152 65.6263 371.619 65.6477C371.811 64.8263 372.588 64.8263 372.907 64.1863C373.216 62.8957 372.045 62.6823 371.704 61.8823C372.854 62.053 373.152 63.5143 374.259 63.973C374.217 64.7197 373.972 65.189 373.578 65.445C373.216 65.4663 373.067 65.1463 372.812 65.317C373.674 66.629 375.324 65.2103 375.1 63.6637C373.812 63.0557 373.567 61.6903 372.173 61.1677C372.226 60.4957 372.45 60.2397 372.375 59.877C371.843 58.693 370.778 57.9037 370.054 56.8583C370.14 55.973 370.172 54.5863 369.554 53.9677C369.607 53.6583 369.661 53.3383 369.703 53.029C368.958 52.101 367.851 51.4397 366.626 50.853C366.733 48.1543 364.657 47.0237 362.198 46.1703C361.293 45.3597 361.463 43.7703 359.824 43.493C358.685 43.3863 357.929 42.9917 356.854 42.8317C355.651 43.013 354.512 43.2797 353.181 43.2903C352.319 42.309 350.232 42.501 349.21 41.765C348.635 41.6583 348.284 41.8823 347.645 41.6797C346.985 41.989 346.559 42.6183 345.942 42.9917C345.165 42.6183 344.835 41.925 344.164 41.4663C342.918 41.1677 341.652 41.6583 340.715 42.1383C340.566 42.5863 340.289 42.8743 340.097 43.269C339.075 42.949 338.234 42.117 336.989 42.4157C336.446 42.949 335.956 43.5783 335.828 44.6877C335.52 45.1997 334.86 45.2317 334.455 45.605C333.518 45.349 333.476 44.4423 332.581 44.1543C331.581 44.5703 331.804 46.053 331.027 46.7143C330.463 46.5117 330.506 45.8823 330.069 45.5943C329.143 45.1997 328.057 45.349 327.631 45.989C328.036 46.8317 328.462 47.6637 329.398 48.1223C328.855 50.021 326.375 47.6637 325.736 49.029C326.322 49.7117 328.057 49.6477 328.898 50.0743C328.717 50.4797 328.163 50.3837 327.844 50.6077C327.567 51.589 326.662 51.6957 326.439 52.7623C326.088 53.0717 325.417 52.9437 325.044 53.2423C324.565 54.117 325.215 55.525 324.054 55.5463C323.33 54.981 323.756 53.5943 322.766 53.221C321.957 53.5197 321.925 54.277 321.638 55.3223C321.989 56.9117 323 58.021 323.415 59.5677C322.702 59.973 322.181 60.6557 321.925 61.701C321.563 61.925 320.924 61.7757 320.562 62.0103C319.242 63.4503 320.371 65.445 320.318 66.8103C319.998 67.301 318.923 67.0877 318.295 66.8317C317.72 66.6183 317.592 65.765 316.964 65.829C316.879 67.557 318.306 68.6237 319.998 68.261C320.254 68.4637 320.36 68.7517 320.381 69.1143C319.934 70.341 318.167 70.5543 317.507 69.5303C317.241 69.509 317.198 69.797 317.081 69.989C317.326 70.7037 318.476 71.0237 319.306 70.8743C319.817 72.1117 318.22 73.7117 319.274 74.8317C318.444 75.2477 317.667 74.1383 316.804 74.341C316.091 75.3223 316.879 76.677 317.55 77.3597C316.815 78.437 315.293 77.637 314.643 76.8903C313.994 78.5117 316.709 78.9277 317.741 78.3623C318.135 78.8317 318.38 79.4183 318.721 79.9303C318.263 80.6983 317.017 80.6557 316.23 80.1437C315.644 79.8343 315.846 78.9597 315.144 78.7357C313.973 80.6557 317.188 81.829 318.699 81.1677C318.795 81.9037 317.901 82.1383 318.007 83.2583C317.837 83.6103 317.305 83.4717 317.049 83.717C316.453 84.9757 317.965 85.6477 317.326 86.9277C316.858 87.333 315.708 86.789 315.048 86.9063C314.867 87.1837 314.846 87.6743 314.771 88.0903C314.473 88.4103 313.941 88.3997 313.696 88.7943C313.451 89.6477 313.696 90.149 313.824 90.7463C313.025 90.6503 311.652 90.1063 310.875 90.533C310.023 90.9597 310.108 92.6023 310.055 93.4237C310.034 93.4343 310.013 93.4557 310.002 93.4663C309.161 93.2637 309.14 92.4637 308.224 92.3037C308.096 92.4103 307.873 92.3783 307.756 92.4957C307.777 93.3383 308.267 93.9677 308.948 94.405C306.861 96.4957 305.605 99.429 305.371 103.088C305.105 107.173 305.765 111.237 306.286 115.28C306.829 119.621 306.563 123.706 306.542 128.048C306.521 131.162 307.021 134.448 305.871 137.424C304.551 140.816 301.304 143.354 299.441 146.49C297.536 149.701 295.992 153.114 294.14 156.368C292.777 158.757 291.074 162.597 288.487 163.877C287.284 164.474 285.666 164.09 284.41 163.888C278.98 163.034 274.828 164.261 267.674 165.605C265.237 166.064 262.639 167.898 260.446 169.978C258.604 170.949 259.147 173.957 261.117 172.56L261.106 172.581ZM365.125 90.8317C364.625 90.7677 364.327 90.5543 364.37 90.0957C364.774 90.2023 365.179 90.3197 365.243 90.6823C365.168 90.6823 365.125 90.7357 365.125 90.8423V90.8317ZM366.296 94.2023C366.509 93.9463 366.925 93.8077 367.233 93.8823C366.925 93.9997 366.616 94.1063 366.296 94.2023ZM366.296 91.7277C366.595 91.653 367.148 91.7277 367.106 92.1223C366.733 92.069 366.296 92.0477 366.296 91.7277ZM367.201 90.469C366.893 90.3943 366.626 90.277 366.573 90.0103C366.903 89.8397 367.414 89.8717 367.201 90.469ZM372.812 89.445C372.524 90.629 371.704 91.045 370.533 91.013C369.49 89.733 371.076 88.4317 372.056 88.0903C372.258 88.5703 372.812 88.805 372.801 89.445H372.812ZM372.726 85.1143C372.822 85.5943 372.737 86.0317 372.428 86.3837C371.843 85.7863 369.671 85.5623 370.555 84.4103C370.885 84.773 371.992 84.6983 372.726 85.1143ZM372.205 81.2423C371.758 80.837 371.46 80.3143 371.417 79.621C372.077 79.4397 372.663 80.3037 372.971 80.8477C372.663 80.901 372.418 81.0503 372.205 81.253V81.2423ZM371.481 78.1383C371.555 77.0503 373.227 76.5917 373.11 77.8717C372.907 78.4797 371.875 78.7357 371.481 78.1383ZM372.833 70.3517C373.195 70.3943 373.365 70.5757 373.663 70.661C373.663 71.109 373.44 71.269 373.408 71.6743C372.684 71.621 372.748 70.9917 372.833 70.3517ZM373.142 74.981C373.088 75.3543 373.067 75.781 372.822 75.8983C371.79 75.0557 370.289 73.9037 371.044 72.261C371.46 72.5597 372.407 72.485 372.695 72.8797C372.343 73.157 371.47 72.7197 371.385 73.3703C371.758 74.0637 372.833 74.245 373.142 74.9703V74.981ZM372.024 71.013C372.056 71.2263 372.098 71.6317 371.896 71.781C371.651 71.7063 371.492 71.5677 371.438 71.3543C371.641 71.2583 371.704 70.9597 372.024 71.013ZM371.96 63.2583C371.8 63.365 371.545 63.1197 371.193 63.1303C371.215 63.013 371.225 62.9063 371.247 62.789C371.63 62.8423 371.843 63.013 371.96 63.2583ZM370.555 58.8957C371.225 59.0877 371.63 59.4823 371.577 60.2077C371.247 59.7917 370.587 59.6103 370.448 59.0557C370.512 59.0557 370.555 59.0023 370.555 58.8957ZM371.321 81.8183C371.3 82.9277 370.342 83.6103 369.565 83.9943C369.927 82.9597 370.906 82.7783 371.321 81.8183ZM369.139 93.0503C368.713 93.253 368.277 93.4557 367.829 93.6477C368.032 93.1463 368.277 92.9437 368.223 92.3143C368.745 92.4423 369.16 92.6557 369.543 92.869C369.416 92.933 369.277 92.9863 369.139 93.0503ZM369.192 87.365C368.937 87.5357 368.809 87.877 368.415 87.8557C367.819 87.685 368.096 87.0023 368.096 86.5757C367.925 86.5757 367.947 86.437 367.872 86.3623C367.116 86.3623 366.073 86.2877 366.169 85.4663C366.243 85.221 366.414 85.1037 366.669 85.1037C366.903 86.2983 369.128 86.053 369.203 87.365H369.192ZM367.723 78.501C368.213 78.6503 368.447 79.3863 368.213 79.813C367.904 79.4823 367.606 79.141 367.723 78.501ZM368.032 83.653C367.957 84.2183 367.851 84.7303 367.702 85.189C367.223 85.0717 367.084 84.7197 367.052 84.293C367.276 83.941 367.521 83.621 368.032 83.6637V83.653ZM367.425 81.9677C366.648 82.7463 366.509 84.3997 365.541 84.9223C365.2 84.741 365.008 84.4423 364.976 84.037C365.615 83.109 366.445 82.4477 367.414 81.9677H367.425ZM366.467 87.3543C365.892 87.6743 365.008 88.1223 364.487 88.1757C365.051 87.8877 365.849 86.885 366.467 87.3543ZM367.436 87.8663C367.531 88.0477 367.606 88.2503 367.595 88.5063C366.925 89.349 365.36 90.565 364.306 89.2957C365.062 88.421 366.339 88.261 367.436 87.8663ZM341.769 42.949C341.503 43.077 341.524 43.589 341.141 43.557C341.204 43.2157 341.63 42.8317 341.769 42.949ZM332.613 45.2423C333.305 45.3063 332.88 46.1063 332.475 46.0957C332.337 45.8823 332.507 45.4343 332.613 45.2423ZM331.623 48.0797C331.943 47.9623 332.23 47.2477 332.518 47.429C332.283 47.909 331.9 48.1863 331.836 48.901C331.474 49.029 330.772 49.0823 330.537 48.7837C330.623 48.1543 331.208 48.2397 331.613 48.0797H331.623ZM330.037 49.7543C330.484 49.6263 331.389 49.6263 331.858 49.8717C331.911 50.981 330.516 50.9703 330.026 50.3623C330.048 49.9783 330.048 50.0743 330.037 49.7437V49.7543ZM321.318 84.069C321.18 83.5783 320.616 82.6183 320.999 82.2557C321.233 82.533 321.584 82.7463 321.84 83.013C321.744 83.4717 321.765 84.101 321.318 84.069ZM324.342 64.3143C324.278 64.6557 323.82 64.9863 323.639 64.8157C323.639 64.6557 323.937 63.8983 324.342 64.3143ZM324.97 74.533C324.917 75.0557 324.746 75.4077 324.523 75.6957C324.384 75.6743 324.235 75.653 324.097 75.621C323.788 75.141 323.682 74.501 323.596 73.8717C324.225 73.6903 324.789 74.1597 324.98 74.533H324.97ZM323.65 78.3623C323.756 78.5223 323.714 79.0663 323.384 78.9383C323.309 78.821 323.437 78.3943 323.65 78.3623ZM323.011 75.269C323.266 76.517 323.011 78.9917 321.744 79.2903C321.02 78.7997 320.616 78.085 320.413 77.221C320.839 76.6557 321.435 76.3357 322.159 76.1863C322.447 75.8877 322.596 75.397 323.011 75.269ZM322.692 64.2183C322.809 64.7837 322.489 65.5943 322.085 65.7863C321.978 65.3383 321.829 64.0797 322.692 64.2183ZM322.479 73.6903C322.255 74.6823 322.074 75.717 321.105 75.6637C320.371 75.1623 320.477 74.0423 320.381 73.0823C321.265 72.6877 322.181 72.709 322.479 73.6903ZM321.201 71.2797C320.956 71.397 320.701 71.5037 320.307 71.397C319.988 70.6503 321.478 69.9463 321.201 71.2797ZM317.315 75.2263C317.422 75.237 317.454 75.141 317.582 75.1837C318.007 75.653 319.253 75.7063 319.658 75.9623C319.136 76.1863 318.582 76.3677 317.997 76.485C317.635 76.165 317.273 75.845 317.326 75.2263H317.315ZM318.678 77.6477C320.051 77.0717 320.137 79.0237 320.711 79.7383C320.52 79.9623 320.19 79.9837 319.796 79.941C319.711 78.9703 318.912 78.5117 318.678 77.6477ZM320.147 84.837C319.924 85.4237 318.848 85.957 318.412 85.253C318.486 84.485 319.679 84.709 320.147 84.837ZM318.444 89.4023C318.21 88.3357 318.572 87.4503 318.827 86.469C319.157 86.2557 319.679 86.3197 320.019 86.1383C320.371 86.6397 320.648 87.1943 320.892 87.781C320.445 88.6983 319.466 88.8903 319.061 89.861C318.987 90.213 319.019 90.5223 319.104 90.7677C318.678 90.7677 318.252 90.789 317.837 90.8103C317.177 90.8423 316.528 90.917 315.91 91.013C315.953 90.7463 315.963 90.4477 315.942 90.149C316.847 89.9997 318.071 90.309 318.433 89.413L318.444 89.4023ZM317.369 87.909C317.39 88.2503 317.113 88.1757 317.028 88.3783C316.496 88.261 315.932 88.165 315.814 87.7383C316.411 87.8983 316.804 87.7917 317.369 87.8983V87.909ZM311.726 91.8343C312.025 91.8343 312.312 91.8877 312.61 91.9623C312.184 92.1437 311.769 92.3463 311.375 92.5703C311.46 92.3143 311.567 92.0583 311.726 91.8343Z" fill="#3055FE"/>
<path d="M370.577 60.3999C370.428 60.3785 370.375 60.2932 370.354 60.1865C370.503 60.2079 370.566 60.2932 370.577 60.3999Z" fill="#3055FE"/>
<path d="M369.545 84.1653C369.502 84.656 369.577 83.888 369.545 84.1653V84.1653Z" fill="#3055FE"/>
<path d="M367.288 91.0984C367.054 91.1944 367.086 90.7678 367.246 90.8318C367.246 90.8851 367.246 90.9384 367.32 90.9278C367.32 90.9811 367.299 91.0451 367.288 91.0984Z" fill="#3055FE"/>
<path d="M319.904 81.0293C319.872 80.8266 320.277 80.7306 320.277 80.9119C320.106 80.8799 320.128 81.1253 319.904 81.0293Z" fill="#3055FE"/>
<path d="M314.442 89.2852C314.506 89.3172 314.612 89.3172 314.602 89.4025C314.538 89.3705 314.432 89.3705 314.442 89.2852Z" fill="#3055FE"/>
<path d="M108.224 119.141C110.843 118.256 112.599 116.496 114.537 114.917C114.835 114.448 115.165 114.021 115.591 113.69C115.058 116.08 113.43 118.149 112.525 120.453C111.769 121.552 110.662 122.746 110.332 123.973C111.354 123.792 111.865 122.352 112.791 121.776C113.387 120.73 114.015 119.717 114.547 118.608C115.335 117.669 116.027 116.634 116.559 115.45C118.284 115.216 119.828 114.8 121.563 114.576C121.393 115.226 121.009 115.664 120.594 116.069C119.955 117.36 119.242 118.576 118.838 120.112C118.657 122.074 117.837 124.122 118.135 125.733C117.858 126.277 118.039 126.906 117.965 127.76C117.922 127.834 117.869 127.898 117.88 128.026C117.454 128.773 116.879 129.37 116.123 129.786C115.931 130.064 115.708 130.309 115.506 130.576C114.622 131.184 113.738 131.792 112.876 132.421C112.461 132.73 112.024 133.029 111.556 133.296C111.3 133.68 110.3 133.712 110.502 134.266C110.577 134.821 111.183 134.224 111.641 134.352C114.154 133.242 116.219 131.216 118.305 129.957C119.051 128.826 119.924 127.824 120.935 126.97C120.765 128.965 120.669 130.832 121.201 132.421C120.647 132.656 120.254 133.05 119.625 133.21C118.731 134.341 117.337 134.96 117.081 136.72C116.293 137.808 116.208 139.6 115.857 141.114C115.974 142.768 115.218 144.442 115.591 145.776C116.325 145.541 116.038 144.293 116.378 143.664C116.442 142.789 116.772 142.181 116.996 141.466C117.443 140.688 117.986 139.994 118.316 139.098C119.977 136.954 120.946 134.981 123.32 134C123.618 135.76 122.798 136.869 122.085 138.042C121.584 138.874 120.371 139.418 120.424 140.506C121.073 140.624 121.286 139.568 121.914 139.365C122.106 140.485 121.999 142.384 122.787 142.618C123.213 141.989 122.947 141.061 123.053 140.336C123.373 139.013 124.022 138.021 124.544 136.912C124.714 139.173 125.374 141.466 126.471 143.056C126.226 144.154 125.864 145.146 125.853 146.48C125.193 148.602 124.554 150.746 123.926 152.89C123.128 154.725 121.797 156.496 121.297 158.341C122.745 157.562 123.16 155.76 124.363 154.736C125.459 153.605 126.034 151.952 127.077 150.789C127.535 154.704 125.108 156.954 124.363 159.664C124.789 159.589 125.087 158.64 125.417 158.17C125.694 157.541 126.162 157.104 126.29 156.325C126.471 156.122 126.641 155.92 126.811 155.717C126.886 155.056 127.28 154.725 127.599 154.309C127.759 155.589 127.014 156.41 127.248 157.477C126.769 158.106 126.747 158.906 126.375 159.76C126.151 160.336 125.47 160.89 125.672 161.605C126.311 161.306 126.577 160.645 126.896 160.026C128.004 159.002 128.972 157.648 129.526 156.336C129.92 158.64 129.824 161.232 130.048 163.45C130.25 164.677 130.069 166.309 130.835 166.97C131.687 165.829 130.772 164.069 131.016 162.576C131.453 159.546 131.762 156.368 132.379 153.509C133.007 156.186 133.518 158.949 133.412 161.413C133.071 169.242 127.94 176.272 124.725 183.12C123.011 186.778 121.244 190.437 119.381 194.032H179.827C178.709 190.661 177.645 187.269 176.623 183.866C173.621 173.893 172.162 166.042 173.684 155.6C174.313 151.28 174.781 146.981 175.622 142.736C176.74 137.061 179.444 131.792 181.392 126.298C181.956 127.802 183.234 129.285 184.426 130.416C184.799 131.013 185.203 132.026 186.002 131.909C184.852 129.456 183.117 127.6 181.69 125.434C182.318 123.6 182.84 121.744 183.18 119.824C184.692 111.344 192.463 107.173 197.765 101.061C201.704 96.5172 204.174 91.3758 208.326 87.0558C210.103 85.1998 211.253 80.5918 212.371 78.2452C214.372 74.0105 215.895 69.5838 218.003 65.3812C218.812 63.7705 219.812 62.1385 220.813 60.4425C221.654 59.0238 223.027 57.5305 224.156 56.0372C224.88 55.0772 224.976 54.5332 225.912 54.0958C226.2 53.9678 226.594 53.8612 227.147 53.7438C227.701 53.6265 228.382 53.7118 229.085 53.5625C229.692 53.4452 230.437 53.0612 231.193 52.8585C231.948 52.6558 232.715 52.5172 233.481 52.3252C235.579 51.8132 237.069 51.0878 239.113 51.2692C239.39 51.2905 239.592 51.2158 239.837 51.1945C239.922 51.1945 240.465 51.1092 240.518 51.0878C241.178 50.9492 241.966 50.8318 242.626 50.7358C244.447 50.4798 246.001 50.9598 246.671 49.6798C247.566 49.4558 248.896 49.6798 249.312 48.9758C249.333 47.3652 247.534 47.2692 246.139 47.5678C246.363 47.3865 246.778 47.1945 247.193 47.0345C247.481 46.9278 248.3 47.0665 248.247 46.5118C247.949 45.9785 247.885 45.8612 247.544 45.6265C247.332 45.4878 247.033 45.1465 246.661 45.1038C245.916 44.9972 245 45.5412 244.202 45.6265C243.499 45.7012 242.637 45.5305 241.913 45.6265C240.54 45.8185 239.369 46.6718 238.048 46.3305C239.326 45.4985 241.391 45.4452 242.445 44.3892C242.073 42.5225 240.061 43.1092 238.4 43.5038C237.303 43.7598 236.398 44.1972 235.238 44.5598C234.44 44.8052 234.046 44.8265 232.779 44.9118C232.342 44.9438 231.767 45.1358 231.544 45.0932C230.831 44.9545 230.746 44.5812 230.309 44.2078C229.968 43.9198 229.34 43.7278 229.255 43.1518C228.957 42.3412 230.352 41.4772 230.66 40.3358C231.033 38.9705 230.895 37.9145 229.606 37.1678C228.51 37.5838 227.999 38.5332 227.318 39.4612C227.243 39.5678 227.03 39.7065 226.966 39.8132C226.892 39.9198 226.892 40.2292 226.785 40.3465C225.998 41.3065 224.795 41.8612 223.975 42.8105C223.73 43.0878 223.666 43.5465 223.453 43.8665L222.751 44.7518C222.548 45.0398 222.24 45.3278 222.048 45.6372C221.558 46.4052 221.047 47.1838 220.291 47.9305C220.174 48.0372 219.887 48.0158 219.759 48.1012C219.525 48.2825 219.504 48.6878 219.227 48.9865C218.365 49.9038 218.056 51.5678 217.47 53.0398C217.215 53.6905 216.853 54.4692 216.416 55.1518C215.32 56.8585 213.84 59.0025 212.552 60.7838C212.328 61.1038 212.073 61.3492 211.849 61.6692C211.636 61.9678 211.53 62.4265 211.317 62.7252C211.083 63.0558 210.838 63.3012 210.614 63.6105C208.389 66.6718 205.856 69.5625 204.11 72.9438C202.651 75.7598 201.736 80.4745 199.362 82.6292C196.807 84.9652 193.645 86.5758 191.058 89.0718C187.79 92.2185 184.628 94.6185 181.03 96.9865C180.189 96.4638 179.348 95.9412 178.55 95.3545C177.474 94.5545 176.42 93.9465 175.303 93.2425C173.099 91.8665 171.374 90.0532 170.044 87.8025C171.981 88.5278 173.365 90.2665 175.92 90.0852C175.239 89.0718 173.77 88.8478 172.854 88.0692C171.704 87.7918 170.895 87.1732 170.139 86.4905C171.843 86.8318 173.535 88.4958 175.484 87.7172C174.493 86.6292 172.322 86.7252 171.098 85.8718C169.884 85.0398 168.67 84.2078 167.499 83.3225C164.21 80.4958 161.751 76.8372 158.727 73.7438C154.841 71.2052 150.658 68.9438 144.611 68.5598C144.089 68.7092 143.408 68.7092 142.95 68.9118C141.875 68.6665 140.672 68.9438 139.788 69.1785C138.064 70.1172 136.627 71.3332 135.232 72.6025C133.06 75.3118 131.964 79.0985 131.038 83.0558C130.335 80.8052 129.611 78.5118 129.026 76.1332C127.248 68.9972 125.619 62.5865 122.521 55.8665C120.2 50.8318 118.124 45.5518 116.538 40.1865C115.995 38.3305 116.794 35.9198 117.241 33.4878C117.422 32.4745 117.422 31.5038 117.592 30.4905C117.752 29.6052 118.135 28.7198 118.295 27.8452C118.518 26.6292 118.401 25.4025 118.646 24.3145C118.721 23.9732 118.87 23.4398 118.997 23.0878C119.21 22.5012 119.498 21.9572 119.7 20.9758C119.902 20.0372 120.211 18.8212 120.573 17.6265C120.903 16.5705 121.531 15.5678 121.276 14.4478C121.244 14.3198 120.914 14.3412 120.924 14.0958C120.924 14.0958 121.095 13.8825 121.105 13.7438C121.158 12.5172 121.829 11.2585 121.627 10.0425C120.647 9.93583 120.2 10.3732 119.87 10.9172C119.413 11.3758 119.615 10.5118 119.051 10.6185C118.806 10.6292 118.859 10.6398 118.689 10.7358C118.667 10.7465 118.327 11.0558 118.284 11.0878C117.72 11.5465 117.581 12.3892 117.23 13.3812C116.964 14.1278 116.559 14.9492 116.347 15.6745C116.08 16.5812 116.059 17.5518 115.814 18.4905C115.729 18.8318 115.388 19.1732 115.282 19.5465C115.165 19.9945 115.037 20.5598 114.909 20.9118C114.728 21.4132 114.366 21.7118 114.228 22.1918C114.004 22.9492 113.685 23.7812 113.525 24.6558C112.759 24.9438 112.163 25.4025 111.418 25.7118C110.864 25.0185 111.098 23.7385 110.885 22.7145C110.694 21.7545 110.098 19.4932 108.948 19.3652C106.137 19.0345 107.67 24.3892 107.894 26.4158C108.011 27.4932 107.979 28.6345 108.075 29.2318C108.149 29.7545 108.447 30.2985 108.596 30.8212C108.767 31.3972 108.767 32.0158 108.948 32.5812C109.246 33.5198 109.895 34.4158 110.183 35.4078C110.609 36.8585 110.513 38.5012 110.885 40.1652C112.652 48.1332 113.696 55.9092 114.856 64.0052C115.591 69.1465 117.454 73.2958 118.795 78.0425C120.136 82.7785 121.137 88.5492 122.308 93.7225C122.734 95.5892 123.139 97.3172 123.543 99.3652C123.586 99.5785 123.618 99.8025 123.65 100.037C123.554 100.176 123.458 100.304 123.362 100.442C122.713 100.965 121.893 101.306 121.254 101.85C121.116 102.277 121.574 102.117 121.691 102.288C119.7 103.632 117.688 104.954 116.08 106.682C115.154 107.429 114.377 108.314 113.802 109.402C113.185 110.426 112.291 111.162 112.131 112.656C113.046 112.613 113.227 110.682 114.154 110.64C113.153 112.89 111.716 114.704 110.289 116.528C109.704 117.018 109.214 117.616 108.533 118.021C108.203 118.778 107.074 118.725 106.957 119.685C107.447 119.909 107.798 119.322 108.181 119.162L108.224 119.141ZM114.803 117.296C114.995 116.837 115.186 115.93 115.591 115.973C115.41 116.485 115.122 116.901 114.803 117.296ZM114.537 131.877C115.431 131.141 116.453 130.053 117.432 129.68C116.581 130.522 115.58 131.216 114.537 131.877ZM177.155 96.2078C178.081 96.6665 178.773 97.3492 179.635 97.8718C179.114 98.2025 178.581 98.5438 178.028 98.8745C177.985 98.8958 177.943 98.9278 177.9 98.9598C177.474 98.2985 177.048 97.6478 176.708 96.9118C175.984 96.2505 175.494 95.3758 174.951 94.5438C175.867 94.9172 176.612 95.4612 177.144 96.2078H177.155ZM173.386 96.4745C173.461 96.7838 173.652 96.9652 173.738 97.2638C174.376 97.5732 174.621 98.3092 175.143 98.8532C175.505 99.2265 175.867 99.6318 176.229 100.048C175.675 100.421 175.09 100.826 174.504 101.253C173.514 99.1092 172.556 96.9225 171.374 94.9812C172.173 95.3545 172.556 96.1438 173.386 96.4745ZM169.181 85.2212C168.702 85.1145 168.468 84.7732 168.127 84.5172C168.532 84.6985 168.936 84.8798 169.181 85.2212ZM123.053 108.592C123.117 108.613 123.224 108.592 123.224 108.677C122.298 111.088 121.148 113.274 118.135 113.594C119.295 111.44 121.254 110.096 123.043 108.581L123.053 108.592Z" fill="#3055FE"/>
<path d="M167.861 84.2613C168.319 84.6453 167.584 84.1013 167.861 84.2613V84.2613Z" fill="#3055FE"/>
<path d="M180.231 97.1786C180.444 97.4666 179.933 96.9652 180.231 97.1786V97.1786Z" fill="#3055FE"/>
<path d="M155.448 41.5308C156.502 42.4908 157.801 43.3441 158.791 44.2935C159.472 44.9335 160.047 45.6908 160.76 46.4588C161.474 47.2375 162.187 48.0481 162.922 48.8268C163.209 49.1361 163.731 50.0961 164.103 50.5975C164.785 51.5148 165.498 52.4855 166.467 53.3601C173.418 59.6428 177.751 68.5281 182.989 76.2188C183.106 76.3895 183.468 76.4535 183.585 76.6135C183.713 76.7948 183.659 77.0295 183.787 77.2001C183.872 77.3281 184.107 77.4775 184.181 77.5948C185.341 79.4721 186.896 81.8508 188.312 83.7068C189.855 85.7228 191.527 87.4295 193.028 89.4241C194.369 91.1948 197.467 92.6028 198.34 94.5441C199.074 96.1761 200.863 97.5948 202.077 99.0775C202.375 99.4508 202.556 99.8775 202.864 100.261C203.641 101.211 204.738 102.288 205.622 103.419C206.196 104.165 206.622 105.029 207.197 105.787C207.761 106.533 208.389 107.216 208.964 107.952C212.094 111.952 215.852 115.909 218.801 119.973C219.525 120.976 220.281 122.288 221.154 123.525C223.57 126.917 222.538 130.853 222.729 135.152C222.836 137.573 222.932 140.08 223.315 142.448C223.687 144.677 224.358 146.864 224.496 149.147C224.784 153.723 224.103 158.949 222.921 162.352C222.122 164.667 221.249 167.856 220.366 170.437C220.121 171.152 220.068 171.963 219.386 172.411C219.237 173.275 220.025 173.211 220.174 173.787C219.823 174.544 218.918 175.099 218.993 176.155C218.993 176.24 219.269 176.453 219.195 176.741C218.929 177.701 218.215 178.544 217.811 179.504C217.619 179.963 217.598 180.624 217.417 181.083C217.343 181.264 217.119 181.445 217.023 181.669C215.469 185.307 214.308 189.68 213.084 194.011H271.934C271.444 192.272 270.869 190.48 270.326 188.763C269.485 186.117 268.74 183.504 267.771 180.677C267.58 180.112 267.207 179.451 266.984 178.704C266.643 177.573 266.92 175.632 265.993 174.768C265.663 174.107 266.121 174.096 266.196 173.392C265.301 171.771 264.961 169.701 264.429 167.675C264.173 166.725 263.896 165.723 263.641 164.72C262.885 161.701 262.161 157.189 262.459 152.699C262.704 149.061 264.099 145.701 264.822 142.053C265.184 140.219 265.387 138.288 265.61 136.336C265.727 135.355 265.653 134.405 265.812 133.381C265.94 132.528 266.334 131.632 266.398 130.821C266.473 129.957 266.526 128.987 266.398 128.059C266.281 127.291 266.345 127.013 266.984 125.893C267.101 125.68 267.207 125.371 267.377 125.104C267.42 125.029 267.739 124.976 267.771 124.912C268.208 123.952 269.059 122.971 269.741 121.957C271.018 120.059 272.381 118.16 273.286 116.635C283.985 98.5441 295.44 80.8588 304.361 61.8401C305.681 59.0241 307.288 56.1441 308.683 53.1681C309.439 51.5681 309.854 49.8508 310.652 48.8268C311.185 48.1441 312.036 47.8775 312.622 47.2481C312.76 47.0881 312.888 46.8108 313.016 46.6615C314.378 44.9975 315.645 42.2561 316.955 40.1548C317.178 39.7921 317.317 39.3335 317.54 38.9708L319.36 36.2295C319.414 36.1548 319.669 35.8881 319.701 35.8135C320.18 34.7361 321.298 33.3281 322.054 32.2615C323.076 30.8321 324.832 29.4135 324.226 27.3335C323.023 27.1628 322.48 28.0481 321.862 28.7095C321.298 29.3281 320.787 30.1068 320.287 30.6828C320.148 30.8428 320.052 31.1521 319.893 31.2695C319.616 31.4828 319.392 31.6641 319.126 32.1015C318.999 32.3148 318.85 32.4748 318.711 32.6561C318.221 33.3068 317.689 33.9895 317.136 34.6295C316.476 33.8828 317.093 32.4428 316.156 31.6748C315.326 31.2268 313.952 31.5361 313.473 31.9948C313.303 30.9068 313.473 30.1601 311.823 29.9041C310.525 29.8508 310.322 31.5041 309.268 31.0881C309.034 30.7255 309.343 30.2668 309.46 29.9041C309.843 28.6775 310.386 27.4081 310.833 25.9575C310.982 25.4881 311.046 25.0721 311.227 24.5815C311.515 23.8135 311.898 23.0561 312.217 22.0215L312.781 20.2721C312.781 20.2721 313.069 19.0775 312.217 18.6721H311.823C311.078 18.5655 310.791 19.4295 310.45 19.8561C309.609 20.8908 309.247 21.7761 308.683 23.2055C308.459 23.7601 308.119 24.2401 307.895 24.7841C307.373 26.0535 307.224 27.4295 306.713 28.7201C306.277 29.8295 305.415 30.7788 304.946 31.8668C304.584 32.7201 304.563 33.6375 304.158 34.4268C303.754 35.2161 303.051 35.8561 302.583 36.5921C300.88 36.4855 299.602 36.9121 298.846 37.9681C298.452 38.5228 298.133 39.0881 298.452 40.1335C298.718 40.9868 299.155 42.7788 299.634 43.6855C300.134 44.6135 301.731 45.7761 301.795 46.4481C301.87 47.2055 300.102 49.7655 299.24 51.1735C296.792 55.1735 294.662 58.2135 291.958 61.8188C288.786 66.0535 285.156 70.4695 283.729 75.6641C282.409 80.4321 280.908 83.2801 277.8 87.0455C275.042 90.3841 272.04 98.5441 268.123 100.293C267.59 100.528 267.005 100.837 266.409 101.2C266.409 101.083 266.387 100.955 266.377 100.837C266.749 100.475 267.218 100.187 267.42 99.6961C267.356 99.0454 267.207 98.2881 266.494 98.3201C266.856 99.0241 266.93 99.8561 266.164 100.069C265.802 100.176 265.653 99.8134 265.238 99.6641C264.301 99.3228 263.034 99.7814 263.428 98.1175C263.875 97.4881 265.014 97.0081 264.365 95.7921C265.28 94.6188 264.184 93.1468 262.715 93.8188C262.864 92.9015 263.609 92.4214 263.375 91.2161C263.055 90.7361 262.278 90.9388 261.81 90.6721C261.788 89.6694 261.182 89.5095 260.703 89.1681C260.777 88.2934 261.214 87.6748 261.054 86.6188C260.756 86.3308 260.426 86.1068 259.83 86.2561C260 85.7868 259.904 85.1255 259.755 84.4108C260.373 84.3255 260.692 84.6668 261.203 84.7308C261.363 85.4454 261.192 85.9148 261.182 86.5015C261.607 86.2775 261.405 86.5548 261.661 86.5868C262.193 85.9575 261.959 84.3895 261.416 83.7281C262.118 84.0375 264.13 83.5148 263.769 82.4481C263.098 82.5655 262.715 83.2481 261.98 82.9068C261.831 81.8188 262.725 81.4881 262.928 80.6561C262.64 79.5788 261.267 80.0801 260.639 79.5041C260.862 78.5548 261.842 78.1495 261.863 77.0508C261.618 76.5495 261.075 76.5068 260.522 76.4641C260.287 76.1015 260.373 75.4295 259.798 75.3761C259.67 74.9388 259.819 74.7041 259.691 74.2668C259.265 73.2321 258.286 72.9975 257.466 72.5495C256.146 72.8481 255.582 72.0481 255.071 71.1735C254.975 70.8321 255.007 70.5761 254.996 70.2988C254.933 69.9788 254.56 70.0961 254.453 69.8295C254.603 68.2721 254.23 66.7788 252.601 67.0775C252.09 66.1708 251.451 65.4348 250.185 65.6268C249.727 65.0935 249.269 64.5601 248.577 64.3681C248.055 64.4428 247.843 64.4001 247.374 64.5708C245.5 64.7308 244.904 63.0348 242.967 63.2908C242.658 63.3868 242.434 63.5361 242.179 63.6641C241.913 63.6641 241.892 63.3015 241.647 63.2695C241.04 63.5041 240.422 63.7388 239.826 63.9735C239.219 63.8881 239.038 63.1735 238.442 63.0775C237.75 63.2481 237.239 63.6108 236.494 63.5575C236.154 63.1948 235.611 63.2055 235.344 63.6641C235.1 63.6961 234.759 63.5788 234.589 63.7921C234.227 63.8241 234.503 64.3255 234.227 64.4215C234.067 64.5495 233.205 64.4428 232.949 64.7095C232.63 64.8801 232.736 65.3708 232.481 65.5948C231.555 66.0321 230.469 66.3415 230.192 67.2588C230.32 67.7495 230.234 68.0588 230.054 68.3255C229.159 68.5708 228.233 68.8055 227.743 69.3495C227.254 69.4135 227.019 69.1041 226.423 69.3281C226.019 69.7335 225.785 70.2668 226.029 71.1628C225.891 71.6108 225.295 71.7175 224.741 71.8561C224.656 72.2081 224.379 72.6348 224.656 73.2321C224.56 73.4988 224.209 73.5841 223.964 73.7441C224.017 74.0855 224.06 74.4481 224.198 74.6721C223.315 75.6535 223.293 77.2215 223.932 78.6615C223.9 78.8215 223.858 78.9708 223.858 79.1521C223.432 79.4615 222.655 79.2695 222.282 79.4935C222.463 79.7815 222.474 80.3041 222.559 80.7308C222.176 80.8375 221.931 80.7308 221.686 80.6348C221.079 81.2215 219.301 80.8481 219.184 81.9361C219.365 82.4908 219.855 83.4188 220.355 83.8348C220.015 84.1548 219.525 83.8774 219.131 83.9628C219.195 84.2508 219.28 84.2401 219.216 84.5068C219.897 84.7095 220.696 84.7628 220.951 85.5841C219.642 85.3388 218.301 86.3201 218.088 87.5148C218.396 88.3895 218.758 89.2001 219.312 89.7228C217.779 90.4054 218.929 92.4535 219.802 93.1041C219.77 93.7015 219.482 94.1068 219.088 94.4268C216.981 94.3948 216.118 96.1868 216.384 97.7761C216.129 97.4775 215.884 97.1788 215.618 96.8695C214.34 95.4188 212.807 94.0535 211.679 92.9334C210.497 91.7495 209.507 90.7254 208.134 89.5841C200.576 83.3228 196.328 74.2881 189.642 67.1201C188.354 65.7335 186.502 64.0375 185.118 62.3841C184.799 62.0108 184.66 61.6161 184.33 61.2001C184.202 61.0401 183.862 60.9655 183.745 60.8055C183.606 60.6135 183.691 60.3788 183.542 60.2188C183.042 59.6215 182.371 59.0135 181.775 58.2455C180.753 56.9441 179.582 55.4828 178.624 53.9041C178.369 53.4775 178.038 53.2108 177.836 52.7201C177.666 52.2935 177.442 51.4721 177.442 51.3441C177.485 50.3735 178.709 49.5201 179.21 48.3895C179.316 48.1548 179.348 47.9201 179.412 47.8028C180.412 45.6161 179.795 41.1041 180.2 38.3415C180.434 36.7735 181.701 35.0668 180.785 33.6055C179.199 33.2428 178.219 34.3628 177.442 35.1841C177.027 35.6215 177.123 37.2748 176.857 38.3415C176.633 39.2375 176.484 40.2935 175.675 40.5068C174.834 40.7308 173.833 39.9735 173.312 39.5255C172.801 39.0775 172.439 38.4908 172.13 37.9468C171.704 37.2108 171.396 36.4535 170.948 35.7815C170.789 35.5361 170.437 35.1415 170.161 34.7895C169.969 34.5441 169.777 34.2881 169.575 34.0001C169.149 33.4028 168.723 32.5068 168.202 31.6321C167.914 31.1521 167.542 30.7361 167.222 30.2561C165.902 28.2721 164.135 24.0055 162.506 25.1255C161.186 25.5095 162.868 28.3681 163.688 29.8615C163.731 29.9468 163.954 30.3521 163.986 30.4161C164.476 31.5148 165.381 32.9015 166.051 34.0001C166.115 34.7895 165.232 34.5761 164.795 35.2161C163.88 36.0695 163.88 36.8375 164.316 38.6081C163.571 39.0455 162.325 38.1921 161.197 39.9521C160.43 41.1041 161.676 42.1068 161.538 42.8535C160.973 43.0241 160.697 42.5228 160.356 42.2668C159.611 41.7015 158.929 40.9975 158.195 40.2935C158.088 40.1868 157.652 39.7708 157.386 39.5788C156.119 38.6188 154.054 36.6135 152.893 37.7335C152.063 38.9815 154.373 40.4961 155.448 41.4775V41.5308ZM264.908 100.933C265.227 101.051 265.77 100.859 265.77 101.435C265.77 101.531 265.77 101.595 265.749 101.637C265.695 101.68 265.642 101.712 265.589 101.744C265.451 101.765 265.28 101.744 265.152 101.861C265.174 101.915 265.216 101.947 265.248 101.989C265.099 102.096 264.95 102.203 264.801 102.32C264.929 101.925 264.982 101.477 264.918 100.944L264.908 100.933ZM263.8 96.6134C263.438 97.4028 262.395 97.6695 262.715 98.9708C261.81 98.0855 262.629 95.7708 263.8 96.6134ZM261.522 91.2801C261.703 91.2801 261.863 91.3121 261.937 91.4508C261.778 91.5681 261.576 91.6428 261.448 91.7708C261.373 91.5255 261.501 91.4508 261.522 91.2695V91.2801ZM261.778 80.6135C261.693 81.5095 260.777 82.4268 261.022 83.5575C260.575 83.4081 260.043 83.3655 259.702 83.0561C259.414 82.0641 259.979 81.7015 259.968 80.9121C260.49 81.2321 261.107 80.6135 261.778 80.6135ZM259.723 78.0535C259.851 78.0321 259.979 78.0108 260.096 77.9895C260.085 78.6401 259.723 79.0348 259.319 79.4081C259.106 79.0775 258.467 79.3548 258.307 78.9388C258.148 78.3521 258.786 77.7868 258.776 77.0935C259.521 76.9975 259.212 77.8508 259.712 78.0641L259.723 78.0535ZM258.659 73.9681C258.691 74.3841 258.552 74.6721 258.254 74.8428C257.775 74.5975 257.402 74.2028 257.062 73.7548C257.413 73.4135 258.318 73.6695 258.648 73.9681H258.659ZM244.979 64.4961C245.181 64.6455 245.064 64.9121 244.819 64.9228C244.713 64.6668 244.83 64.5708 244.979 64.4961ZM220.643 101.36C220.398 101.253 220.174 101.147 219.94 101.029C220.185 100.976 220.451 101.029 220.717 101.285C220.696 101.307 220.664 101.328 220.643 101.36ZM219.003 87.6535C219.195 87.3335 219.386 87.0241 219.802 86.8748C219.919 87.1521 220.174 87.2374 220.302 87.5148C220.004 87.6108 220.068 87.9841 219.685 88.0268C219.386 88.0055 219.152 87.8988 219.003 87.6535ZM219.78 90.9068C220.621 90.8748 221.292 91.0988 221.697 91.7175C221.441 92.0588 221.015 92.5495 220.589 92.5495C220.164 92.2188 219.908 91.6641 219.78 90.9174V90.9068ZM218.492 96.2721C219.717 96.7734 220.717 95.8668 221.367 95.3121C221.771 95.7388 222.261 96.5174 222.165 97.3494C221.122 97.9468 220.153 98.5975 220.025 99.8774C219.589 100.016 219.237 100.208 218.939 100.443C218.726 100.283 218.514 100.101 218.311 99.9095C218.45 99.9095 218.599 99.8881 218.854 99.8348C219.291 99.4828 219.514 98.9921 219.536 98.3521C218.801 98.4695 219.163 99.3974 218.237 99.3654C217.268 98.6081 217.885 96.8801 218.503 96.2615L218.492 96.2721ZM217.481 96.2721C217.534 96.6774 217.289 97.0935 217.055 97.4668C216.81 97.0081 217.034 96.4321 217.481 96.2721Z" fill="#3055FE"/>
<path d="M219.481 88.7738C219.726 88.9765 219.215 88.5925 219.481 88.7738V88.7738Z" fill="#3055FE"/>
<path d="M249.365 65.7655C249.279 65.7655 249.269 65.8935 249.215 65.7868C249.205 65.7121 249.333 65.6695 249.365 65.7655Z" fill="#3055FE"/>
</g>
<g clip-path="url(#clip1_1308_16)">
<path d="M0 13.4902C0.03 13.8502 0.4 14.3402 0.58 14.8702C0.86 15.7102 0.92 16.4502 1.38 17.1802C1.56 17.4702 1.79 17.6002 1.91 17.9302C2.16 18.5902 2.19 19.3402 2.38 20.1102C2.47 20.4602 2.53 20.8302 2.62 21.2002C2.86 22.2102 3.36 23.0102 3.77 23.9602C4.34 25.2702 4.83 26.4702 5.47 27.7902C5.99 28.8502 6.31 29.4702 6.65 31.0202C6.76 31.5202 6.97 31.9602 7.07 32.4102C8.85 40.4002 9.73 48.5202 11.36 56.5902C12.82 63.8102 15.66 70.4802 16.18 77.8102C16.36 80.4102 17.45 83.0402 16.34 85.4702C15.39 87.5402 18.49 94.1402 19.18 96.3002C19.71 97.9502 21 99.6802 21.26 101.38C21.56 103.34 20.67 105.32 20.86 107.32C21.28 111.65 21.88 116.41 23.5 120.47C24.37 122.67 25.44 124.49 25.96 126.8C27.41 133.31 30.26 138.77 32.95 144.76C38.69 157.52 34.81 172.7 34.31 186.17C34.25 187.9 33.06 190.72 34.11 192.31C35.19 193.95 35.42 192.39 35.25 194.48H86.38C84.88 186.9 83.04 179.4 82.13 171.72C81.55 166.81 80.88 162.02 79.47 157.27C78.11 152.67 75.67 148.48 75.92 143.53C76.12 139.41 78.1 135.62 78.33 131.51C78.55 127.57 77.37 123.71 75.6 120.23C74.66 118.39 73.6 117.85 74.53 115.81C75.48 113.73 76.79 111.83 77.84 109.81C79.53 106.55 81.24 103.33 83.2 100.21C84.66 97.8802 85.16 95.9302 86.36 93.4702C88.67 88.7202 91.75 84.9302 95.01 81.1602C100.06 75.3102 104.08 68.3402 108.63 61.9902C109.07 61.3802 109.62 60.7702 110.08 60.1502C110.22 59.9502 110.22 59.6702 110.35 59.5002C110.46 59.3602 110.69 59.2902 110.8 59.1502C111.03 58.8402 111.14 58.4502 111.36 58.1602C112.04 57.3002 112.88 56.4702 113.7 55.6202C114.06 55.2502 114.39 54.9802 114.73 54.6002C114.73 54.6002 114.89 54.4202 114.87 54.4302C115.77 53.8402 116.84 53.4802 117.75 52.8002C118.62 52.1502 119.67 50.9602 120.39 49.9202C120.51 49.7402 120.52 49.4702 120.66 49.2702C120.87 48.9702 121.12 48.7702 121.38 48.2702C121.51 48.0202 121.55 47.8002 121.65 47.6202C121.74 47.4402 121.99 47.3202 122.09 47.1102C122.36 46.5402 122.46 45.9602 122.91 45.3102C123.03 45.1402 123.21 45.0102 123.35 44.8002C123.42 44.6802 123.52 44.3802 123.63 44.3102C124.28 43.8302 125.29 44.1002 125.79 43.5202C126.07 43.1902 126.64 40.4702 126.61 39.6702C126.59 38.9902 126.59 38.7302 126.02 38.1302C126.27 37.0202 128.05 36.4402 127.38 35.0302C127.19 34.2902 126.57 35.1102 126.29 35.2702C125.85 35.5302 125.46 35.7502 125.24 35.9802C124.69 35.8002 124.61 35.4302 123.93 35.2802C123.05 35.0902 121.68 35.4502 120.76 35.2002C120.67 35.0102 120.98 34.4802 121.31 34.0502C121.57 33.7102 121.91 33.3702 122.19 33.0402C122.8 32.3202 123.62 31.6902 123.93 30.8602C124.89 30.4202 125.57 29.1502 125.94 28.0302C126.12 27.4602 126.52 26.8802 126.13 26.2802C125.05 26.1602 124.42 26.9702 123.85 27.5502C123.22 28.1902 122.71 28.7002 122.1 29.2802C121.92 29.4502 121.69 29.7502 121.49 29.9302C121.37 30.0402 121.21 30.1702 121.09 30.2702C120.92 30.4102 120.77 30.4902 120.59 30.6302C120 31.0902 119.44 32.1502 118.86 32.8102C118.09 33.6702 117.26 34.3702 116.51 35.3502C116.27 35.6702 115.96 35.9202 115.78 36.1902C115.66 36.3802 115.64 36.7802 115.52 37.0002C115.12 37.7802 114.57 38.8102 113.98 39.6402C113.63 40.1302 113.36 40.8502 113.02 41.6102C112.18 43.4602 111.41 45.3702 110.25 47.0302C109.55 48.0302 108.52 49.0402 107.63 50.0702C107.09 50.6902 106.35 51.2102 105.87 51.9402C105.79 52.0602 105.84 52.2902 105.75 52.4202C105.65 52.5602 105.4 52.6302 105.3 52.7702C105.23 52.8702 105.26 53.1502 105.18 53.2502C105.06 53.4002 104.76 53.4302 104.57 53.6102C104.23 53.9502 103.85 54.5002 103.41 54.9602C102.68 55.7002 102 56.4602 101.2 57.1802C100.92 57.4302 100.66 57.7002 100.32 58.0302C100.28 58.0702 100.23 58.3302 100.19 58.3602C99.59 58.6802 99.17 59.2402 98.55 59.7402C98.5 59.7802 98.46 60.0402 98.42 60.0602C97.41 60.6102 96.41 61.8102 95.45 62.6502C89.91 67.4902 83.31 71.6302 80.6 78.9102C78.77 83.8203 73.69 90.2902 69.05 93.0202C68.76 93.1902 68.3 93.2402 67.97 93.4202C67.15 93.8802 66.18 94.4802 65.24 95.0402C64.31 95.5902 63.47 96.0602 62.68 96.8102C61.55 97.8802 60.6 99.3002 59.32 100.53C59.23 99.8002 58.87 99.4002 58.56 98.8502C58.52 98.7802 58.45 98.4702 58.37 98.3902C57.72 97.6802 56.45 97.6802 56.21 96.9702C55.91 96.0802 57.06 94.2202 57.58 94.0302C58.14 93.8102 58.94 94.0303 59.48 94.0502C60.29 94.0702 60.98 94.2002 61.68 93.8902C62.04 93.7302 62.7 93.2702 62.88 93.0102C63.54 92.1002 63.1 91.1602 63.27 89.6602C63.33 89.1003 63.62 88.4402 63.76 87.7302C63.8 87.5402 63.61 87.6402 63.59 87.5802C63.52 87.3202 64.07 86.3802 64.1 85.9602C64.15 85.2902 63.51 83.4802 64.03 82.8102C64.07 82.7602 64.28 82.6902 64.33 82.6302C64.59 82.3402 65.01 82.0502 65.04 81.4702C65.08 80.7302 64.47 80.2802 64.26 79.4702C64.07 78.7402 63.89 77.6702 64.05 76.6402C64.11 76.2802 64.31 76.3702 64.32 75.9902C64.58 76.0202 64.58 75.8202 64.78 75.8002C64.74 75.6302 64.61 75.7302 64.62 75.8102C64.5 75.4302 65.15 74.3902 65.09 73.5702C65.04 72.9402 64.57 72.1702 64.3 71.4102C63.78 69.9302 63.4 68.6002 62.87 66.9302C62.82 66.7602 62.77 66.5902 62.73 66.4202C63.14 66.4302 63.58 66.6002 63.96 66.5402C64.12 66.8802 63.72 67.6402 63.99 67.8902C64.77 67.3502 65.57 65.2602 64.51 64.6302C64.84 64.2202 64.35 63.9302 64.3 63.6102C64.38 63.4202 64.56 63.3602 64.59 63.0802C64.44 62.7102 64.03 62.5502 63.54 62.4402C63.63 62.1802 63.66 62.0902 63.54 61.8802C63.34 61.7602 63.02 61.7402 62.71 61.6902C62.65 61.4202 62.82 61.2902 62.66 61.0502C62.5 60.8802 61.98 60.9802 61.84 60.7902C62.08 60.4102 61.93 59.9302 61.71 59.7102C60.74 59.8602 60.21 59.6802 59.82 59.0202C59.18 59.2402 58.97 58.6502 58.48 58.4802C58.34 58.4302 58.03 58.5002 57.85 58.4702C56.57 58.2502 54.76 57.4402 53.91 57.7902C53.15 57.4302 52.25 57.8302 51.58 57.1902C51.3 55.7502 49.66 54.7102 47.95 54.7702C48.28 55.7002 49.98 55.6002 50.17 56.6302C49.11 56.1502 48.2 57.0102 47.24 56.8702C47.11 56.8502 46.93 56.6602 46.78 56.5902C45.93 56.2102 44.58 56.0302 44.1 56.5002C44.08 57.0002 44.9 56.9102 44.84 57.3102C44.81 57.4902 44.28 57.5402 44.03 57.7902C43.6 57.9202 43.18 58.0702 42.79 58.2402C42.27 58.2302 41.77 58.2402 41.36 58.3802C40.8 59.1202 39.91 58.9402 39.28 59.5802C39.07 59.8002 39.01 60.2602 38.73 60.5002C38.36 60.8202 37.41 60.9402 36.8 61.1502C35.17 61.7402 34.33 62.6902 33.4 64.2202C33.45 64.4102 33.75 64.4102 33.85 64.5702C33.76 64.9402 33.4 65.2102 33.5 65.5902C31.66 66.3602 30.8 70.7802 32.54 72.0402C32.41 71.3902 32.17 70.4902 32.27 69.8802C32.56 70.3702 32.54 71.4102 33.19 71.4202C32.99 70.5502 32.94 68.7302 33.93 68.1202C33.54 72.5302 33.07 76.0002 34.67 78.7002C35.02 79.3002 35.57 80.0502 36.09 80.7402C36.62 81.4302 37.24 82.1302 37.58 82.7802C38.37 84.3002 37.48 85.6502 35.75 85.2902C35.72 85.8702 36.56 85.8002 36.84 86.1502C36.7 86.4002 36.09 86.0302 36.02 86.4002C36.38 87.1102 37.6 87.1102 38.3 86.8502C38.13 87.3502 38.87 87.1602 39.04 87.4102C39.04 87.4702 39.04 87.5302 39.05 87.5802C39 87.7902 38.78 87.8702 38.91 88.0702C38.97 88.0902 39.03 88.0702 39.08 88.0902C39.12 89.1002 39.08 90.1002 38.89 91.1002C36.62 91.8402 34.6 81.1702 33.8 80.0802C32.33 78.0602 31.66 75.3202 30.62 73.0502C29.72 71.0902 27.43 68.8602 27.1 66.7702C26.36 62.2302 25.57 58.6102 23.79 54.3202C21 47.5702 18.04 40.8002 16.53 33.6302C16.06 31.4102 15.63 28.9502 16.21 27.0202C16.58 25.7702 17.45 24.9302 17.87 23.7402C18.46 22.0502 18.4 19.5802 18.02 17.0902C17.67 14.8202 17.39 12.9202 16.01 11.2302C15.3 10.3702 14.53 9.58024 13.69 9.82024C12.67 10.1202 12.77 11.7102 13.13 13.0202C13.23 13.3802 13.18 13.6502 13.36 13.9502C13.42 14.0602 13.79 14.2102 13.86 14.3902C14.1 15.0102 13.98 15.7102 14.14 16.1102C13.59 16.2802 13.24 15.5702 12.79 14.9402C12.72 14.8402 12.48 14.5702 12.44 14.4902C12.22 14.0102 12.22 13.3202 11.99 12.6302C11.81 12.0802 11.48 11.5602 11.4 11.0902C11.28 10.4002 11.24 9.43024 11.39 8.72024C11.56 7.85024 12.45 6.93024 12.61 5.94024C12.73 5.23024 12.64 3.80024 12.53 2.63024C12.41 1.34024 12.17 0.110243 11.55 0.0202433C10.33 -0.169757 10.04 2.54024 9.6 3.64024C9.51 3.86024 9.22 3.98024 9.16 4.15024C9.05 4.50024 9.16 4.70024 9.06 4.95024C8.71 5.83024 8.35 6.75024 7.98 7.56024C7.8 7.94024 7.44 8.30024 7.27 8.72024C7.05 9.26024 7.09 9.90024 6.9 10.1702C6.55 10.6502 5.75 10.8402 5.24 11.2402C5.02 11.6902 4.87 12.2002 4.72 12.7002C4.01 12.6802 3.92 13.1902 3.51 13.4202C2.2 11.8102 3.05 7.70024 0.98 6.97024C-0.52 8.34024 0.64 10.8002 0.29 12.7102C0.24 12.9802 0.01 13.3202 0.03 13.5202L0 13.4902Z" fill="#3D5FFE"/>
</g>
<defs>
<clipPath id="clip0_1308_16">
<rect width="305" height="184" fill="white" transform="translate(107 10)"/>
</clipPath>
<clipPath id="clip1_1308_16">
<rect width="127.52" height="194.49" fill="white"/>
</clipPath>
</defs>
</svg>
