<svg width="351" height="203" viewBox="0 0 351 203" fill="none" xmlns="http://www.w3.org/2000/svg">
<g clip-path="url(#clip0_320_3126)">
<path d="M349.866 185.461C349.781 185.89 350.314 186.5 350.026 186.639C347.158 187.209 346.731 184.382 345.323 183.114C344.769 183.233 345.867 184.172 345.014 184.142C343.468 184.492 342.444 183.133 342.039 181.935C340.653 180.826 338.914 180.057 337.955 178.559C335.246 177.91 334.553 175.383 331.834 174.733C330.522 177.131 328.123 176.032 327.76 173.415C326.982 172.826 325.745 172.656 325.404 171.647C324.689 171.657 324.764 172.416 324.145 172.526C321.405 170.468 319.549 167.652 317.715 164.885C312.308 156.705 305.612 149.254 297.944 142.841C299.096 148.305 298.606 153.948 299.512 159.451C299.885 161.719 301.623 165.005 299.203 165.774C299.725 172.876 302.178 178.169 304.065 183.992C303.98 187.978 300.141 176.342 303.831 187.978C304.535 190.175 305.228 192.373 305.921 194.58C306.795 197.377 307.648 200.183 308.448 203.01H279.219C277.076 197.267 271.541 183.972 267.574 189.676C264.759 193.721 262.37 198.256 260.248 203.01H231.392C234.058 192.952 237.502 183.243 240.318 173.395C240.872 171.467 241.267 169.5 241.48 167.512C241.992 162.578 240.766 166.913 240.222 164.446C239.987 160.92 241.629 157.164 241.789 153.568C242.184 144.809 241.139 139.205 235.988 131.824C230.358 123.764 225.826 115.463 219.214 107.992C216.09 104.457 213.989 99.5323 212.101 95.3173C211.184 93.2697 210.278 91.2421 208.508 89.694C207.313 88.6552 204.999 87.2568 205.021 85.5289C205.053 82.7022 199.39 77.5383 197.737 75.1212C195.338 71.6453 192.683 68.3692 190.827 64.5836C186.455 55.6942 181.806 46.7847 179.044 37.3259C178.425 35.2283 177.572 33.4904 178.884 32.3318C179.033 32.2019 179.95 31.7724 179.982 31.5926C180.068 31.0932 177.551 28.786 176.996 27.917C176.058 26.4188 175.61 24.7807 174.96 23.3624C174.618 22.6233 174.096 22.0539 173.701 21.3048C173.339 20.6156 173.285 19.7966 172.912 18.9576C172.667 18.3982 172.07 17.9088 171.814 17.3395C171.569 16.8001 171.59 16.1509 171.345 15.5816C170.428 13.4641 168.007 11.1368 169.617 8.9694C171.739 10.8472 172.678 13.8436 174.48 16.0211C175.13 15.1421 174.149 14.0734 174.011 12.9347C173.947 12.4353 174.085 11.866 174.011 11.3166C173.445 7.41124 171.963 4.26496 173.541 0.589303C173.605 0.449469 173.616 0.0599291 174.011 0C175.44 0.529374 175.589 2.24734 176.367 3.37601C177.828 3.67565 179.236 5.53346 180.132 6.75202C182.2 9.5587 182.67 12.2255 184.525 15.5716C185.016 16.4605 185.378 17.2896 185.783 18.2185C186.764 20.5058 188.353 23.4423 189.078 26.1491C189.377 26.5087 189.9 25.9393 190.337 26.2989C194.336 30.1144 195.274 35.4481 197.556 40.7019C201.448 49.6912 207.345 60.2687 214.714 67.0108C218.457 70.4267 222.157 73.2934 226.103 76.4197C228.961 78.687 232.661 81.4537 234.89 84.2104C236.031 85.6188 236.937 87.0471 237.865 88.7651C238.473 88.4554 239.902 88.3256 240.531 87.8861C240.979 87.5765 241.576 86.2181 242.258 85.389C243.048 84.4302 244.007 83.9408 244.455 83.3315C244.7 83.0019 245.234 81.8133 245.244 81.7134C245.266 80.8344 244.242 80.0354 243.837 79.2163C243.655 78.8568 243.495 78.4772 243.335 78.0677C243.069 78.2675 242.888 78.5671 242.258 78.4373C242.141 77.9778 242.877 77.3086 242.45 76.5595C241.107 76.8092 239.454 76.7992 238.622 76.11C238.633 75.5207 239.251 75.5107 239.774 75.3909C239.859 74.7716 238.963 75.0812 239.006 74.4919C238.643 74.6717 237.897 74.7816 237.566 74.4919C238.068 73.4632 238.835 72.6941 239.678 71.9849C239.678 71.5354 239.795 71.3856 239.816 71.1059C239.774 70.9661 239.72 70.8163 239.688 70.6665C239.55 70.6265 239.518 70.9062 239.209 70.8163C239.177 70.5466 239.059 70.3568 238.921 70.187C238.611 70.6964 237.982 70.4068 237.385 70.5466C237.193 70.217 237.342 69.6177 237.193 69.4679C236.468 69.7475 236.276 70.5266 235.37 70.6365C235.924 69.4579 236.916 68.2893 237.289 67.2305C236.457 67.5401 236.073 68.7088 234.986 68.489C235.604 67.4003 236.671 66.4315 237.097 65.4426C236.66 65.2329 236.137 65.8821 235.658 65.6224C235.839 65.0131 236.383 64.7435 236.617 64.1841C236.617 63.8845 236.34 64.1542 236.137 63.9144V63.1953C235.476 63.2452 234.922 63.7346 234.229 63.465C234.9 61.9168 237.023 61.717 237.193 59.6994C236.831 59.4198 236.468 59.9092 236.137 59.6994C235.924 59.0302 236.82 58.7605 237.001 58.1712C236.489 58.0514 235.487 59.2799 234.9 58.5308C235.764 57.512 237.215 57.0525 237.481 55.4844C237.556 55.1748 237.129 55.3346 237.097 55.1248C237.119 54.0061 237.705 53.4268 238.057 52.6078C237.897 52.458 237.577 52.458 237.481 52.2482C238.505 50.6401 241.043 50.4304 242.365 49.1119C241.363 48.9222 238.547 50.0109 239.017 48.213C239.539 48.1431 239.422 48.6725 239.784 48.7524C240.755 48.7624 241.16 48.243 241.896 48.0332C241.117 47.5837 240.68 45.8358 241.32 44.8969C242.173 45.2765 241.107 47.1243 242.376 47.2242C243.165 47.1542 243.847 46.9845 244.103 46.4151C243.325 45.9557 242.12 45.4862 242.568 44.1678C242.674 44.0679 242.909 44.0679 243.144 44.0779C243.282 43.2489 243.431 42.4298 244.199 42.2001C244.466 42.5896 244.103 43.0391 244.103 43.4586C244.21 43.7782 244.434 43.988 244.775 44.0879C245.084 43.8681 244.978 43.2589 245.639 43.3687C245.82 43.5885 245.735 44.1178 245.639 44.3576C245.692 44.4874 245.777 44.5873 245.831 44.7171C247.473 45.7659 251.323 44.0879 253.103 45.4363C257.23 44.8769 259.566 46.5649 261.72 48.1231C262.285 48.203 262.52 47.9733 262.967 47.9433C263.266 48.3329 262.882 48.7224 262.775 49.022C263.373 49.9909 264.439 50.5103 265.74 50.8199C265.665 51.0796 265.591 51.3393 265.356 51.4492C266.785 53.3869 268.481 55.9139 268.043 58.8005C268.662 60.5384 267.627 63.8445 268.811 65.2628C269.248 65.4226 269.728 65.5425 270.059 65.8022C270.08 65.952 269.973 65.952 269.963 66.0719C270.059 66.3915 269.59 66.1917 269.387 66.2517C269.462 66.6013 269.344 66.7211 269.483 66.8809C269.43 67.1306 269.11 67.1306 268.907 67.2405C269.056 67.7 269.302 68.0595 269.771 68.2293C270.773 68.2793 270.869 67.4702 271.498 67.1506C271.562 68.4091 270.624 68.7287 269.483 68.8586C269.44 69.348 269.792 69.4679 269.771 69.9373C270.645 70.1271 270.613 69.4679 271.306 69.4878C271.274 70.1071 270.485 70.7464 269.387 70.6565C269.206 72.3445 269.91 74.8615 268.523 75.4108C268.587 74.6817 268.747 73.2234 268.139 72.6341C267.585 73.4931 267.937 75.6705 266.796 75.6805C266.86 75.1911 267.02 74.7616 266.892 74.3321C266.422 74.8115 265.9 76.12 264.876 75.5007C265.036 75.0113 265.889 74.8415 265.452 74.0624C265.164 74.1423 264.93 74.2722 264.716 74.422C264.663 74.8215 264.599 75.2211 264.535 75.6006C264.866 76.0201 265.377 76.2698 265.836 76.5695C265.793 76.7093 265.537 76.6494 265.644 76.929C265.047 77.1188 264.663 76.959 264.343 76.6893C264.023 78.4473 263.714 80.2152 263.938 82.4625C266.497 82.5923 269.078 82.8321 271.552 83.4713C272.65 83.761 276.169 85.9684 276.329 84.8097C280.733 88.0459 285.66 90.7327 289.36 94.748C293.914 99.6722 295.684 106.754 298.339 112.657C302.988 122.985 310.549 132.673 317.886 141.423C320.104 144.07 334.297 161.789 330.789 164.466C332.228 166.403 334.19 167.842 335.961 169.46C337.72 171.078 339.224 172.836 340.823 174.604C342.412 176.352 343.798 178.289 345.537 179.887C347.275 181.495 349.28 182.844 350.709 184.732C350.73 185.241 349.919 184.971 349.919 185.471L349.866 185.461ZM267.041 73.4032C267.201 72.734 267.265 72.0748 267.009 71.6253C266.87 71.7052 266.732 71.7851 266.582 71.8451C266.7 72.4044 266.86 72.9138 267.052 73.4032H267.041Z" fill="#3155FE"/>
<path d="M243.389 44.8769C243.389 44.727 243.314 44.6471 243.197 44.6072C243.197 44.757 243.272 44.8369 243.389 44.8769Z" fill="#3155FE"/>
<path d="M211.389 117.022C211.389 117.022 211.41 117.122 211.42 117.202C211.42 117.112 211.399 117.062 211.389 117.022Z" fill="#3155FE"/>
<path d="M218.67 121.067V121.087C218.67 121.067 218.681 121.057 218.692 121.037L218.713 120.997L218.681 121.067H218.67Z" fill="#3155FE"/>
<path d="M228.78 136.988C225.708 137.687 222.584 137.837 219.481 137.667C220.142 137.747 220.483 137.777 221.155 137.827C221.187 137.827 221.198 137.827 221.23 137.827H221.187C221.272 137.827 221.315 137.827 221.39 137.837C223.768 137.987 226.178 137.947 228.63 137.557C229.611 137.388 230.102 137.298 231.094 137.018C230.123 137.338 229.633 137.447 228.662 137.657C226.231 138.147 223.8 138.286 221.39 138.227C217.423 138.147 213.243 137.398 209.638 135.42C208.529 134.831 207.975 134.521 206.951 133.822C208.764 135.29 210.854 136.569 213.211 137.408C213.498 137.507 213.776 137.597 214.053 137.687C214.138 137.677 214.213 137.667 214.298 137.657C215.407 137.567 216.751 137.777 217.209 138.396C218.926 138.616 220.622 138.696 222.339 138.686C223.277 138.666 223.746 138.656 224.695 138.586C223.757 138.696 223.288 138.716 222.339 138.776C221.944 138.786 221.752 138.796 221.358 138.806C222.232 138.836 222.669 138.846 223.554 138.836C224.535 138.826 225.037 138.786 226.039 138.716C225.047 138.826 224.546 138.866 223.565 138.916C221.912 138.996 220.259 138.956 218.606 138.816C220.633 139.125 222.669 139.305 224.749 139.315C225.762 139.315 226.274 139.295 227.308 139.235C226.284 139.345 225.772 139.385 224.759 139.425C222.275 139.505 219.843 139.355 217.391 138.976C217.391 139.006 217.391 139.036 217.391 139.056C217.561 139.086 217.721 139.116 217.892 139.135C219.886 139.425 221.869 139.575 223.896 139.565C226.721 139.535 229.601 139.295 232.661 138.237C233.888 137.777 234.517 137.517 235.743 136.738C234.549 137.547 233.92 137.837 232.704 138.346C229.675 139.505 226.764 139.845 223.917 139.965C221.571 140.024 219.321 139.965 216.975 139.595C216.943 139.635 216.922 139.665 216.89 139.705C219.15 140.134 221.358 140.334 223.64 140.374C224.674 140.384 225.197 140.374 226.252 140.324C225.207 140.404 224.685 140.444 223.65 140.454C221.315 140.484 219.033 140.344 216.676 139.945C216.57 140.064 216.442 140.184 216.314 140.314C217.753 140.594 219.204 140.754 220.59 140.863C221.592 140.933 222.083 140.953 223.096 140.983C222.093 140.993 221.592 140.983 220.59 140.953C219.108 140.873 217.657 140.754 216.132 140.494C216.1 140.524 216.068 140.544 216.047 140.574C217.135 140.823 217.988 140.963 219.342 141.163C220.387 141.313 221.976 141.443 221.976 141.443C221.976 141.443 220.398 141.363 219.342 141.243C218.201 141.113 217.071 140.943 215.887 140.704C215.823 140.754 215.77 140.794 215.706 140.843C217.487 141.253 219.129 141.443 220.867 141.613C223.714 141.842 226.583 141.842 229.686 141.363C230.944 141.143 231.573 141.023 232.906 140.634C231.595 141.063 230.966 141.203 229.718 141.473C226.626 142.052 223.736 142.142 220.856 142.002C219.182 141.912 217.508 141.732 215.77 141.413C215.503 141.363 215.247 141.313 214.981 141.253C214.885 141.293 214.789 141.323 214.682 141.343C215.354 141.523 216.004 141.663 216.644 141.802C217.956 142.062 219.246 142.252 220.537 142.382C221.571 142.482 222.093 142.521 223.149 142.571C222.093 142.551 221.582 142.531 220.537 142.462C219.236 142.362 217.945 142.222 216.612 141.992C215.94 141.872 215.269 141.742 214.565 141.573C214.426 141.543 214.288 141.503 214.138 141.463C213.573 141.563 212.944 141.593 212.315 141.633L212.475 141.692H212.507V141.702C212.411 141.672 212.336 141.653 212.283 141.633C212.283 141.633 212.272 141.633 212.261 141.633H212.283L212.443 141.692L212.752 141.802C213.168 141.952 213.541 142.072 213.925 142.182C214.661 142.402 215.365 142.581 216.047 142.741C217.145 143.001 218.745 143.271 218.745 143.261C218.745 143.261 217.145 143.041 216.036 142.811C215.354 142.671 214.639 142.502 213.893 142.302C213.509 142.192 213.136 142.082 212.709 141.942L212.389 141.832L212.229 141.772L212.144 141.742H212.123C211.803 141.643 212.56 141.862 212.475 141.842L212.443 141.832L211.91 141.643C211.131 141.682 210.385 141.752 209.787 141.952C209.03 142.212 208.263 142.601 207.719 143.171C207.921 143.121 208.135 143.061 208.38 142.981C208.124 143.081 207.889 143.161 207.665 143.221C207.175 143.75 206.887 144.429 206.983 145.288C207.111 146.347 208.582 147.206 209.532 148.145C211.472 150.093 213.04 151.411 215.386 153.029C217.028 154.158 218.574 154.827 218.18 156.725C215.535 156.845 214.234 154.707 212.08 153.988C211.814 154.228 212.368 154.987 211.696 155.057C210.374 155.027 209.51 154.567 208.263 154.457C208.06 154.757 208.732 155.796 208.391 156.245C204.349 155.946 201.225 154.777 198.985 152.789C198.623 154.367 199.497 158.413 197.588 158.393C195.893 158.373 196.639 154.567 196.191 152.909C195.882 151.791 194.965 151.081 194.538 150.292C192.224 151.701 191.382 155.167 188.812 157.204C187.895 157.933 186.573 158.563 185.506 159.352C183.853 160.57 182.702 162.278 180.036 162.208C178.106 162.158 176.986 161.09 175.333 160.54C172.816 158.123 172.262 153.888 170.63 150.652C169.308 152.5 168.402 154.238 167.325 156.485C166.749 157.694 165.853 159.032 165.928 160.89C165.981 162.358 166.983 164.695 167.325 166.723C168.242 172.116 171.153 175.682 173.435 180.467C173.797 181.216 174.235 182.135 173.2 182.604C171.686 183.283 173.19 184.602 173.744 185.621C175.216 188.277 176.463 190.874 176.399 193.931C176.335 196.947 175.504 200.023 174.565 202.99H122.739C126.461 198.595 130.737 194.61 135.28 190.914C130.919 189.796 133.616 172.146 134.768 167.971C137.072 159.551 129.671 143.78 135.536 136.828C138.191 133.622 142.617 131.435 146.85 129.567C142.723 127.959 138.394 126.64 134.128 125.162C130.108 123.764 126.376 121.606 122.803 119.449C117.813 116.422 113.003 112.467 107.416 109.441C105.912 108.632 102.692 107.453 102.073 106.344C101.38 105.106 101.817 103.418 102.073 101.939C100.292 101.66 99.3432 100.601 98.1276 99.792C97.4238 97.7344 96.1974 95.7568 94.6938 94.0788C94.0647 93.3796 90.4497 91.5418 91.772 89.7938C92.7424 88.5054 95.2484 90.6628 95.7176 91.2221C96.1868 91.7815 99.8444 96.4859 99.7911 92.4107C99.7911 91.7815 99.3006 91.0423 99.2793 90.3831C99.2579 89.3444 100.004 86.8273 99.6632 85.2592C99.3752 83.9507 97.765 83.2416 97.7543 82.043C97.7437 80.6946 99.1193 80.3849 99.5352 79.1864C99.6418 79.2463 99.6525 78.9267 99.9191 79.3062C100.74 80.4649 100.548 81.4137 101.071 82.4026C102.031 84.2504 104.163 85.1693 105.144 86.8074C105.763 87.8461 105.656 89.0847 106.541 90.1434C107.149 89.0048 107.298 86.8074 108.834 86.9272C109.452 87.3367 109.079 88.1957 108.962 88.7151C108.813 89.3643 108.759 90.0735 108.578 90.7427C108.386 91.4419 107.778 92.0711 107.693 92.7703C107.586 93.5694 107.864 94.688 108.077 95.7468C108.237 96.5458 108.226 97.8643 108.589 98.4836C108.877 98.973 110.871 99.9318 111.894 100.511C115.371 102.449 118.869 104.247 122.452 105.755C125.011 106.834 127.623 107.783 129.831 108.971C131.964 110.12 133.862 112.117 136.058 113.256C139.194 114.884 144.003 115.124 148.524 115.404C153.216 115.693 157.375 116.582 160.606 117.791C160.958 117.122 161.715 115.903 161.364 114.934C161.193 114.435 160.564 114.415 160.222 114.095C159.103 113.066 159.497 111.958 159.711 110.28C160.212 106.364 159.764 102.049 161.108 98.8431C161.374 98.2039 162.067 97.6645 162.249 97.0552C162.451 96.426 162.238 95.7368 162.377 95.2674C162.473 94.9377 162.696 94.5182 162.974 94.0688C162.558 94.3285 162.099 94.5682 161.619 94.748C161.246 94.8978 161.044 94.9377 160.66 95.0476C161.044 94.9178 161.236 94.8678 161.598 94.698C162.195 94.4383 162.739 94.0987 163.198 93.7292C163.582 93.1499 164.029 92.5506 164.413 92.0611C164.605 91.8214 164.797 91.5717 164.989 91.332C164.467 91.8314 163.933 92.3708 163.304 92.8602C163.038 93.06 162.899 93.1598 162.611 93.3396C162.888 93.1399 163.016 93.03 163.262 92.8202C163.869 92.2809 164.371 91.7016 164.861 91.1522C165.629 90.2832 166.418 89.4143 167.293 88.6751C167.079 88.825 166.855 88.9648 166.631 89.1146C165.554 89.9636 164.541 90.9525 163.475 91.8614C162.899 92.3408 162.259 92.7903 161.545 93.0999C161.268 93.2298 161.108 93.2597 160.809 93.3596C161.097 93.2398 161.246 93.1998 161.513 93.05C162.195 92.7004 162.782 92.221 163.304 91.7016C163.805 91.2121 164.275 90.6928 164.755 90.1934C163.635 91.1522 162.547 92.211 161.225 92.6904C160.489 92.9701 159.689 93.07 158.89 93.04C158.57 93.03 158.399 93.01 158.079 92.99C158.399 92.99 158.57 92.99 158.89 92.9701C159.689 92.9301 160.446 92.7703 161.108 92.4507C161.886 92.0911 162.547 91.5018 163.219 90.8426C163.08 90.9624 162.931 91.0723 162.782 91.1822C162.217 91.6117 161.641 91.9613 161.054 92.171C160.83 92.2709 160.692 92.2709 160.457 92.3408C160.681 92.2509 160.809 92.2309 161.033 92.1111C161.577 91.8614 162.089 91.4918 162.6 91.0424C162.121 91.1822 161.63 91.302 161.108 91.3919C160.308 91.5218 159.433 91.5717 158.57 91.4718C158.218 91.4319 158.047 91.4019 157.706 91.332C158.047 91.382 158.228 91.4019 158.57 91.4219C159.433 91.4718 160.286 91.3819 161.065 91.2022C161.182 91.1722 161.289 91.1422 161.406 91.1123C161.427 91.0923 161.459 91.0823 161.481 91.0623C161.758 90.8825 162.035 90.6628 162.323 90.4231C161.811 90.5629 161.278 90.6728 160.734 90.7327C160.425 90.7627 160.276 90.7727 159.967 90.7827C160.276 90.7527 160.425 90.7327 160.724 90.6828C161.385 90.5629 162.025 90.3831 162.622 90.1534C162.75 90.0335 162.888 89.9137 163.027 89.7938C163.112 89.7239 163.187 89.644 163.272 89.5741C162.664 89.7838 162.035 89.9437 161.395 90.0435C160.702 90.1534 159.977 90.2033 159.273 90.1334C158.985 90.1035 158.847 90.0835 158.57 90.0335C158.847 90.0635 158.996 90.0735 159.273 90.0835C159.977 90.1035 160.681 90.0136 161.353 89.8538C161.982 89.7039 162.6 89.4842 163.198 89.2345C161.907 89.644 160.532 89.8637 159.231 89.674C158.506 89.5741 157.802 89.3543 157.173 89.0247C156.917 88.8949 156.799 88.815 156.565 88.6652C156.821 88.795 156.938 88.8649 157.205 88.9648C157.855 89.2345 158.548 89.4043 159.252 89.4343C160.073 89.4842 160.916 89.3543 161.726 89.1346C161.555 89.1646 161.385 89.1845 161.214 89.2045C160.585 89.2645 159.945 89.2844 159.348 89.1845C159.103 89.1546 158.996 89.1246 158.762 89.0647C158.996 89.0947 159.113 89.1146 159.359 89.1346C159.956 89.1845 160.574 89.1346 161.182 89.0148C162.664 88.7251 164.104 88.0659 165.501 87.3068C164.371 87.8062 163.208 88.2257 162.078 88.4254C161.47 88.5353 160.873 88.5952 160.308 88.5653C160.084 88.5653 159.967 88.5453 159.753 88.5153C159.967 88.5153 160.073 88.5253 160.297 88.5153C160.852 88.4954 161.427 88.3955 162.014 88.2457C163.955 87.7263 165.778 86.6775 167.826 85.5788C170.012 84.4601 172.507 84.0007 174.874 84.0906C175.365 84.1006 175.866 84.1405 176.335 84.2004C177.327 83.9707 178.319 83.9807 179.151 84.0306C180.75 84.1605 182.168 84.5301 183.544 84.9496C183.725 84.9995 183.896 85.0494 184.035 85.0994C185.954 85.6887 187.778 86.4278 189.558 87.2568C190.316 87.6164 191.073 87.986 191.819 88.3855C192.619 88.8449 193.216 89.1046 194.208 89.8538C195.701 90.9824 197.012 92.3908 198.068 93.899C200.179 96.9354 201.214 100.172 202.259 102.958C203.368 105.805 204.253 108.801 205.33 111.189C206.386 113.626 207.783 115.663 209.116 116.472C209.862 116.952 210.801 117.161 211.248 117.052C211.344 117.032 211.408 117.022 211.44 116.992C211.451 116.982 211.483 116.982 211.483 116.962C211.483 116.942 211.483 116.922 211.504 117.022C211.483 116.922 211.483 116.962 211.483 116.982C211.483 117.012 211.451 117.012 211.44 117.032C211.408 117.072 211.334 117.092 211.238 117.122C210.758 117.291 209.755 117.132 208.924 116.662C207.761 116.033 206.514 114.585 205.522 112.757C204.509 110.929 203.688 108.791 202.877 106.504C203.826 109.53 204.786 112.377 206.162 114.565C206.94 115.823 207.847 116.792 208.753 117.351C209.116 117.601 209.681 117.821 209.681 117.821C209.681 117.821 209.094 117.631 208.71 117.401C207.761 116.872 206.78 115.923 205.949 114.664C204.445 112.427 203.389 109.501 202.344 106.414C202.685 107.523 202.845 108.062 203.197 109.121H203.155C204.146 112.287 205.405 115.284 207.196 117.102C207.345 117.261 207.431 117.321 207.58 117.471C208.295 118.04 209.02 118.42 209.809 118.64C210.267 118.78 210.395 118.78 210.801 118.81C210.385 118.81 210.257 118.81 209.777 118.71C209.585 118.68 209.5 118.63 209.308 118.59C209.681 118.74 209.947 118.839 210.278 118.919C210.683 119.009 210.907 119.029 211.291 119.029C210.907 119.059 210.673 119.049 210.257 118.989C209.148 118.78 208.017 118.25 207.036 117.331C206.855 117.171 206.759 117.102 206.588 116.922C206.045 116.382 205.789 116.073 205.298 115.414C206.546 117.601 208.263 119.069 210.246 119.549C211.014 119.718 211.462 119.728 212.059 119.649C212.24 119.599 212.304 119.559 212.411 119.499C212.592 119.379 212.592 119.339 212.603 119.269C212.624 119.339 212.624 119.409 212.549 119.489C212.688 119.409 212.699 119.399 212.763 119.329C212.763 119.289 212.805 119.279 212.816 119.239L212.837 119.179V119.149L212.859 119.139C212.859 119.139 212.859 119.129 212.859 119.139C212.859 119.119 212.891 119.059 212.944 118.899C212.944 118.899 212.987 118.78 212.997 118.69C212.997 118.79 212.997 118.869 212.997 118.919C212.933 119.089 212.912 119.149 212.912 119.159V119.199V119.269C212.912 119.269 212.869 119.329 212.869 119.379C212.869 119.549 212.411 119.928 211.376 119.968C210.481 120.048 210.033 120.028 209.02 119.748C208.753 119.669 208.614 119.619 208.348 119.519C208.934 119.848 209.297 119.988 209.915 120.188C210.449 120.338 210.737 120.378 211.27 120.418C210.737 120.418 210.438 120.378 209.894 120.258C208.785 119.988 207.719 119.439 206.802 118.68C205.725 117.931 204.765 116.862 203.944 115.643C204.232 116.153 204.381 116.412 204.712 116.892C205.618 118.21 206.716 119.309 208.049 120.008C208.582 120.298 208.87 120.398 209.436 120.597C208.849 120.418 208.55 120.338 208.007 120.068C206.908 119.529 205.917 118.74 205.063 117.761C205.458 118.29 205.682 118.54 206.13 119.009C207.004 119.778 208.017 120.378 209.116 120.737C209.734 120.937 210.033 120.997 210.662 121.067C210.033 121.027 209.724 120.987 209.084 120.817C208.614 120.677 208.38 120.597 207.932 120.408C208.124 120.527 208.593 120.757 208.593 120.757C208.593 120.757 207.847 120.438 207.505 120.208C206.716 119.788 206.343 119.529 205.639 118.939C206.439 119.738 206.887 120.088 207.868 120.647C209.446 121.526 211.419 121.906 213.029 121.436C213.637 121.227 213.925 121.087 214.341 120.667C213.957 121.107 213.68 121.277 213.061 121.526C211.43 122.086 209.372 121.786 207.687 120.937C205.682 119.968 204.125 118.24 202.995 116.302C203.251 116.792 203.389 117.032 203.677 117.501C204.274 118.42 204.616 118.859 205.383 119.649C205.97 120.198 206.29 120.438 206.972 120.877C208.519 121.836 210.395 122.405 212.219 122.206C212.933 122.116 213.296 122.016 213.925 121.716C213.317 122.056 212.955 122.166 212.229 122.305C210.385 122.595 208.412 122.096 206.77 121.167C205.202 120.288 203.922 118.989 202.931 117.521C203.229 118.01 203.389 118.25 203.73 118.72C204.05 119.109 204.221 119.289 204.573 119.649C205.917 120.987 207.655 121.986 209.553 122.385C210.31 122.535 210.705 122.575 211.483 122.565C210.705 122.605 210.31 122.575 209.542 122.465C208.241 122.206 207.612 121.956 206.439 121.347C208.167 122.515 210.331 123.254 212.581 122.995C213.733 122.855 214.97 122.365 215.749 121.386C216.484 120.408 216.9 119.329 216.783 118.04C216.634 117.112 216.26 116.213 214.831 115.913C216.271 116.153 216.708 117.072 216.911 118.02C217.018 118.67 216.964 119.289 216.783 119.898C216.634 120.378 216.378 121.057 215.994 121.556C215.205 122.645 213.882 123.234 212.656 123.424C209.724 123.874 206.876 122.795 204.786 121.077C205.223 121.466 205.447 121.656 205.938 122.006L205.991 122.046L205.959 122.026C206.023 122.066 206.045 122.086 206.109 122.126C207.868 123.294 210.054 124.093 212.453 123.913C213.413 123.814 213.925 123.714 214.895 123.274C213.946 123.754 213.434 123.874 212.464 124.003C210.043 124.273 207.772 123.554 205.917 122.405C202.76 120.428 201.065 117.301 199.945 114.355C199.561 113.436 199.39 112.976 199.07 112.048C199.508 113.835 200.052 115.653 200.894 117.441C201.374 118.32 201.63 118.76 202.248 119.609C202.462 119.878 202.557 120.018 202.781 120.288C203.773 121.416 205.021 122.435 206.46 123.154C207.26 123.544 207.655 123.704 208.529 123.973C207.644 123.744 207.239 123.584 206.418 123.224C206.087 123.064 205.917 122.985 205.597 122.795C206.29 123.234 206.663 123.424 207.42 123.764C208.273 124.113 208.774 124.273 209.724 124.463C208.764 124.303 208.263 124.163 207.388 123.834C206.226 123.384 205.138 122.745 204.2 121.986C204.349 122.146 204.498 122.305 204.648 122.465C205.703 123.334 206.94 124.063 208.316 124.563C209.286 124.892 209.787 125.012 210.833 125.152C209.777 125.052 209.276 124.942 208.284 124.643C207.25 124.313 206.279 123.844 205.394 123.274L205.415 123.294V123.304C205.405 123.284 205.49 123.404 205.533 123.454L205.586 123.514C206.151 123.874 206.77 124.183 207.42 124.453C208.721 124.992 210.171 125.332 211.707 125.332C213.221 125.342 215.023 125.012 216.634 123.844C217.252 123.364 217.657 122.915 217.999 122.445C218.159 122.206 218.318 121.966 218.468 121.696C218.532 121.566 218.596 121.426 218.66 121.277L218.756 121.047L218.809 120.927V120.897H218.82C218.82 120.907 218.82 120.917 218.82 120.907C218.809 120.937 218.788 120.997 218.745 121.107L218.766 121.057L218.809 120.937V120.917C218.809 120.917 218.788 120.997 218.756 121.077V121.097L218.734 121.117L218.67 121.287C218.606 121.436 218.542 121.576 218.489 121.716C218.35 121.986 218.191 122.235 218.041 122.485C217.711 122.965 217.316 123.424 216.698 123.933C215.098 125.162 213.264 125.542 211.718 125.572C210.15 125.611 208.646 125.302 207.292 124.792C206.983 124.683 206.684 124.553 206.396 124.423C206.567 124.603 206.738 124.782 206.908 124.952C206.951 124.992 206.994 125.032 207.036 125.082C207.879 125.442 208.444 125.621 209.457 125.851C208.497 125.661 207.943 125.502 207.164 125.202C207.644 125.661 208.124 126.101 208.614 126.52C208.817 126.69 209.03 126.85 209.233 127.02C210.395 127.26 211.654 127.349 212.997 127.24C214.522 127.05 215.407 126.87 217.081 125.991C215.429 126.9 214.554 127.1 213.019 127.329C211.792 127.459 210.641 127.419 209.542 127.25C210.406 127.909 211.291 128.478 212.187 128.928C213.392 129.557 214.608 129.966 215.813 130.186L216.036 130.236C216.164 130.276 216.41 130.346 216.367 130.326H216.388H216.431H216.506C216.591 130.346 216.751 130.366 216.868 130.386C217.145 130.426 217.476 130.456 217.807 130.476C218.489 130.526 219.246 130.546 219.993 130.536C221.838 130.506 223.746 130.306 225.389 129.936C226.05 129.787 226.359 129.697 226.935 129.507C226.37 129.737 226.06 129.836 225.399 130.026C223.746 130.486 221.838 130.765 219.961 130.855C215.567 131.225 211.59 129.986 207.932 126.9C207.911 126.9 207.889 126.9 207.868 126.88C210.118 128.938 212.603 130.416 215.13 131.045L215.429 131.115L215.578 131.155L215.653 131.175H215.695L215.717 131.185C215.738 131.185 215.749 131.195 215.738 131.185C215.781 131.195 215.855 131.215 215.983 131.255C216.132 131.285 216.271 131.315 216.463 131.345C216.826 131.415 217.252 131.465 217.7 131.514C218.596 131.604 219.566 131.644 220.526 131.644C221.304 131.644 222.467 131.584 222.467 131.574C222.467 131.574 221.304 131.694 220.526 131.714C219.555 131.754 218.585 131.744 217.668 131.684C217.22 131.654 216.772 131.614 216.399 131.564C216.196 131.544 216.058 131.514 215.898 131.495C215.898 131.495 215.727 131.445 215.642 131.415H215.631H215.61H215.567L215.493 131.395L215.343 131.365L215.034 131.305C212.134 130.695 209.244 128.958 206.706 126.56C207.58 127.429 208.039 127.839 208.966 128.588L208.934 128.618C210.342 129.737 211.824 130.656 213.381 131.275C213.765 131.435 214.16 131.564 214.554 131.694C214.746 131.764 214.949 131.804 215.151 131.864L215.45 131.944H215.493L215.514 131.964C215.546 131.974 215.61 131.994 215.717 132.024H215.727H215.791L215.908 132.074C216.57 132.244 217.497 132.383 218.393 132.463C218.702 132.493 218.862 132.503 219.182 132.533C220.569 132.573 221.987 132.533 223.362 132.373C224.12 132.294 224.493 132.244 225.218 132.124C224.493 132.274 224.12 132.354 223.362 132.463C223.043 132.513 222.893 132.533 222.573 132.563C223.288 132.533 223.64 132.503 224.333 132.443C225.111 132.364 225.495 132.314 226.242 132.174C225.506 132.344 225.122 132.403 224.343 132.523C222.435 132.793 220.398 132.873 218.457 132.773C218.116 132.773 217.945 132.763 217.615 132.743C217.103 132.713 216.73 132.683 216.378 132.643C216.196 132.623 216.047 132.593 215.855 132.573L215.61 132.533H215.546L215.514 132.513C215.535 132.513 215.621 132.543 215.333 132.463H215.322H215.301L215.13 132.433C217.977 133.302 221.454 133.412 224.663 133.173C225.975 133.043 226.636 132.953 227.841 132.683C228.225 132.573 228.396 132.503 228.758 132.383C229.409 132.124 229.739 131.994 230.262 131.694C229.878 131.954 229.59 132.114 229.195 132.304C229.803 132.094 230.081 131.974 230.582 131.724C231.158 131.425 231.392 131.255 231.723 130.935C231.424 131.285 231.2 131.475 230.635 131.824C229.601 132.443 228.14 132.943 226.594 133.252C225.218 133.612 224.493 133.752 223.021 133.962C222.616 134.002 222.413 134.042 222.008 134.071C223.011 134.071 223.512 134.071 224.503 134.002C225.335 133.942 225.751 133.912 226.562 133.802C225.751 133.952 225.346 134.002 224.514 134.091C222.872 134.251 221.187 134.291 219.523 134.201C217.636 134.211 216.036 134.131 214.213 133.682C214.597 133.792 214.703 133.822 215.151 133.952C215.375 134.022 215.621 134.081 215.951 134.161C217.849 134.561 219.961 134.721 222.019 134.721C222.851 134.721 223.256 134.701 224.077 134.651C223.256 134.731 222.84 134.771 222.019 134.801C220.345 134.871 218.66 134.811 217.028 134.621C217.86 134.781 218.286 134.841 219.14 134.95C220.686 135.05 222.243 135.04 223.778 134.93C224.642 134.861 225.079 134.821 225.922 134.701C225.079 134.861 224.642 134.92 223.778 135.03C223.138 135.1 222.819 135.13 222.179 135.17C222.477 135.17 223.17 135.19 223.17 135.19C223.17 135.19 222.093 135.21 221.55 135.2C220.366 135.25 219.769 135.25 218.596 135.2C220.046 135.36 220.792 135.4 222.264 135.43C224.631 135.45 227.02 135.26 229.238 134.691C230.123 134.461 230.56 134.321 231.371 133.972C230.582 134.361 230.145 134.521 229.27 134.801C227.063 135.47 224.663 135.759 222.264 135.829C219.459 135.879 216.634 135.73 213.989 134.91C214.629 135.12 215.002 135.26 215.621 135.42C216.922 135.73 217.604 135.839 218.969 136.019C219.961 136.109 220.462 136.139 221.464 136.169C223.725 136.229 225.996 136.089 228.193 135.66C229.068 135.47 229.515 135.38 230.358 135.1C229.526 135.42 229.089 135.54 228.225 135.769C226.039 136.299 223.746 136.539 221.464 136.569C219.31 136.588 217.135 136.469 215.013 135.999C215.695 136.189 216.036 136.259 216.73 136.409C217.337 136.489 217.636 136.529 218.244 136.589C220.537 136.788 222.84 136.768 225.122 136.529C226.028 136.429 226.487 136.359 227.383 136.199C226.487 136.399 226.039 136.479 225.122 136.618C223.586 136.828 222.808 136.888 221.24 136.948C223.714 137.078 226.22 137.008 228.694 136.549C231.232 136.049 234.005 135.2 235.786 132.913C236.436 131.984 236.681 131.435 236.916 130.336C236.745 131.445 236.521 132.014 235.914 132.993C234.207 135.41 231.392 136.429 228.822 137.058L228.78 136.988ZM162.835 90.2233C162.76 90.2433 162.686 90.2733 162.611 90.2932C162.227 90.5829 161.865 90.8426 161.513 91.0424C162.067 90.8825 162.6 90.6828 163.102 90.463C163.283 90.2832 163.475 90.1035 163.667 89.9237C163.39 90.0335 163.112 90.1334 162.835 90.2233ZM163.912 89.2844C163.646 89.4842 163.39 89.684 163.134 89.8937C163.539 89.7239 163.923 89.5341 164.296 89.3244C164.435 89.1945 164.584 89.0647 164.723 88.9348C164.456 89.0547 164.189 89.1746 163.912 89.2844ZM174.778 84.2204C174.491 84.2204 174.203 84.2504 173.904 84.2704H174.107C174.693 84.2404 175.28 84.2504 175.845 84.2903C175.909 84.2704 175.973 84.2504 176.026 84.2404C175.61 84.2204 175.194 84.2104 174.778 84.2204ZM184.45 141.862C184.131 140.194 183.875 138.516 183.789 136.808C183.747 137.368 183.747 137.637 183.715 138.197C183.757 138.676 183.779 138.916 183.821 139.385C183.949 140.494 184.109 141.603 184.312 142.701C184.408 142.651 184.493 142.601 184.589 142.551C184.546 142.322 184.493 142.092 184.45 141.862ZM185.154 135.789C185.112 136.329 185.08 136.678 185.048 137.148C184.994 138.207 184.984 138.746 185.005 139.825C185.016 140.054 185.026 140.254 185.048 140.444C185.186 140.184 185.304 139.935 185.432 139.645C185.272 138.366 185.176 137.098 185.165 135.789H185.154ZM185.442 139.775C185.314 140.034 185.186 140.254 185.048 140.504C185.08 140.903 185.112 141.253 185.154 141.782C185.154 141.902 185.186 142.032 185.197 142.152C185.378 142.022 185.56 141.872 185.741 141.722C185.634 141.073 185.528 140.414 185.453 139.775H185.442ZM186.338 139.375C186.37 140.064 186.402 140.544 186.434 141.073C186.509 140.993 186.583 140.913 186.658 140.833C186.541 140.374 186.455 139.974 186.327 139.375H186.338ZM186.946 138.057C186.946 138.726 186.914 139.046 186.924 139.725C186.956 139.965 186.988 140.194 187.02 140.434C187.106 140.344 187.191 140.244 187.276 140.144C187.148 139.445 187.031 138.746 186.946 138.057ZM187.788 137.797C187.714 137.487 187.628 137.038 187.564 136.838L187.383 135.63C187.383 136.229 187.372 136.738 187.383 137.128C187.404 138.017 187.458 138.916 187.554 139.825C187.746 139.595 187.948 139.365 188.14 139.135C188.012 138.686 187.895 138.237 187.788 137.787V137.797ZM192.192 134.411C192.384 134.99 192.608 135.56 192.875 136.129C192.907 136.129 192.949 136.129 192.981 136.119C192.651 135.42 192.374 134.721 192.15 134.002C192.16 134.141 192.182 134.271 192.192 134.411ZM190.934 136.678C190.934 136.678 190.934 136.708 190.934 136.718C190.987 136.688 191.051 136.658 191.115 136.628C191.051 136.479 190.987 136.329 190.913 136.169C190.913 136.339 190.923 136.509 190.934 136.678ZM190.913 136.029C190.987 136.229 191.073 136.429 191.147 136.618C191.254 136.569 191.361 136.519 191.478 136.479C191.446 136.409 191.403 136.329 191.371 136.249C191.201 135.879 191.041 135.5 190.891 135.13C190.902 135.43 190.913 135.73 190.923 136.019L190.913 136.029ZM190.827 133.922C190.838 134.191 190.849 134.451 190.859 134.721C191.03 135.22 191.222 135.72 191.435 136.219C191.467 136.299 191.51 136.379 191.542 136.449C191.659 136.409 191.776 136.369 191.894 136.329L191.851 136.039C191.371 134.97 191.009 133.892 190.742 132.823C190.774 133.193 190.795 133.552 190.817 133.912L190.827 133.922ZM190.614 130.226C190.699 130.925 190.721 131.265 190.849 131.974C191.051 133.103 191.339 134.241 191.766 135.38C191.723 135.05 191.68 134.721 191.627 134.391C191.126 133.003 190.817 131.604 190.614 130.236V130.226ZM192.694 133.183C192.395 131.634 192.054 130.106 191.68 128.578C191.68 128.778 191.691 128.968 191.702 129.167C191.819 130.186 191.872 130.695 192.086 131.714C192.15 132.044 192.182 132.214 192.278 132.553C192.459 133.203 192.683 133.852 192.949 134.481C192.875 134.042 192.79 133.612 192.694 133.173V133.183ZM193.12 135.5C192.853 134.95 192.619 134.391 192.406 133.822C192.619 134.581 192.875 135.35 193.205 136.099C193.205 136.099 193.216 136.099 193.227 136.099C193.195 135.899 193.163 135.7 193.131 135.5H193.12ZM209.436 138.596C209.521 138.636 209.617 138.686 209.702 138.726C209.777 138.726 209.841 138.726 209.915 138.716C209.329 138.436 208.806 138.147 208.06 137.737C207.239 137.278 206.844 137.028 206.077 136.529C207.122 137.288 208.241 137.987 209.436 138.606V138.596ZM196.031 136.718C196.159 136.778 196.287 136.838 196.405 136.908C195.946 136.379 195.605 135.879 195.136 135.12C195.381 135.68 195.69 136.209 196.031 136.718ZM193.899 134.461C194.026 134.801 194.122 135.07 194.314 135.48C194.325 135.51 194.336 135.52 194.346 135.54L194.325 135.5C194.357 135.57 194.368 135.6 194.4 135.66C194.485 135.849 194.581 136.039 194.677 136.219C194.741 136.239 194.816 136.249 194.88 136.269C194.496 135.67 194.165 135.04 193.899 134.391C193.899 134.411 193.899 134.421 193.899 134.441V134.461ZM193.675 129.986C193.76 130.576 193.803 130.875 193.931 131.465C194.048 131.964 194.154 132.204 194.293 132.703C194.848 134.271 195.605 135.789 196.692 137.078C196.842 137.158 196.98 137.238 197.13 137.318C197.151 137.328 197.172 137.338 197.183 137.358C196.543 136.678 195.989 135.949 195.541 135.14C194.613 133.552 194.026 131.794 193.675 129.996V129.986ZM194.24 128.808C194.304 129.387 194.314 129.677 194.41 130.256C194.592 131.395 194.709 131.964 195.061 133.053C195.338 133.842 195.509 134.221 195.882 134.97C196.522 136.269 197.471 137.398 198.569 138.426C198.868 138.646 199.145 138.816 199.412 138.866C199.518 138.886 199.657 138.866 199.796 138.856C198.495 137.867 197.311 136.718 196.5 135.41C195.242 133.452 194.57 131.165 194.24 128.818V128.808ZM195.402 128.498C195.487 129.127 195.519 129.447 195.647 130.056C195.967 131.744 196.511 133.342 197.332 134.751C197.684 135.33 197.823 135.56 198.249 136.059C197.801 135.58 197.642 135.35 197.268 134.791C196.532 133.672 196.01 132.413 195.626 131.085C195.775 131.784 195.85 132.124 196.074 132.793C196.522 133.962 197.162 135.09 197.897 136.009C198.345 136.539 198.601 136.798 199.134 137.298C198.58 136.828 198.303 136.569 197.823 136.059C197.482 135.68 197.343 135.5 197.034 135.06C197.14 135.26 197.386 135.69 197.418 135.739C197.375 135.69 196.938 135.01 196.746 134.641C196.245 133.832 196.031 133.392 195.647 132.493C196.021 133.642 196.266 134.191 196.852 135.24C197.599 136.559 198.751 137.767 200.02 138.816C200.702 138.656 201.63 138.257 202.355 138.267C202.408 138.267 202.472 138.267 202.525 138.267C201.864 137.887 201.214 137.437 200.606 136.948C199.625 136.249 199.113 135.829 198.388 135.05C198.196 134.841 198.1 134.691 197.908 134.441C198.303 135.13 198.463 135.36 198.974 135.969C199.412 136.469 199.657 136.718 200.169 137.198C199.636 136.748 199.38 136.499 198.91 136.019C198.036 135.1 197.386 134.012 196.863 132.773C196.213 131.475 195.733 130.016 195.413 128.478L195.402 128.498ZM199.689 134.551C199.529 134.391 199.497 134.371 199.337 134.171C199.593 134.551 199.732 134.701 200.094 135.09C200.51 135.52 200.745 135.74 201.225 136.149C200.723 135.759 200.467 135.55 200.03 135.14C199.081 134.271 198.292 132.973 197.737 131.544C197.631 131.285 197.567 131.165 197.471 130.905C197.236 130.266 197.108 129.866 196.959 129.307C196.938 129.277 196.916 129.237 196.884 129.207C197.279 131.764 198.164 134.061 199.668 135.66C200.393 136.429 200.819 136.808 201.683 137.487C201.982 137.677 202.131 137.777 202.43 137.947C202.803 138.157 203.048 138.296 203.336 138.426C203.826 138.546 204.338 138.696 204.872 138.746C205.255 138.776 205.671 138.796 206.098 138.816C203.496 137.108 201.384 135.07 199.614 132.943C199.838 133.322 200.094 133.672 200.094 133.662C200.094 133.662 199.636 133.113 199.358 132.633C198.942 132.124 198.548 131.614 198.175 131.105C198.004 130.855 197.833 130.606 197.663 130.356C197.748 130.705 197.855 131.055 197.961 131.385C198.036 131.624 198.079 131.744 198.164 131.964C198.58 132.923 199.166 133.862 199.732 134.501C200.073 134.871 200.286 135.08 200.723 135.46C200.254 135.1 200.03 134.9 199.668 134.541L199.689 134.551ZM197.695 113.596C197.716 113.945 197.737 114.305 197.769 114.654C197.876 114.784 197.993 114.924 198.1 115.054C198.153 115.124 198.217 115.184 198.271 115.254C198.057 114.694 197.876 114.145 197.705 113.596H197.695ZM200.275 117.361C200.147 117.141 200.083 117.032 199.966 116.802C200.115 117.151 200.286 117.511 200.478 117.861C200.542 117.931 200.606 118.01 200.67 118.08C200.553 117.861 200.425 117.621 200.286 117.351L200.275 117.361ZM198.633 130.685C198.655 130.735 198.665 130.795 198.687 130.855C200.723 133.722 203.261 136.549 206.695 138.826C206.994 138.826 207.292 138.826 207.591 138.826C206.194 138.027 204.914 137.118 203.752 136.149C201.736 134.461 200.062 132.603 198.623 130.695L198.633 130.685ZM203.848 133.732C203.794 133.782 203.773 133.812 203.72 133.862C204.552 134.651 204.978 135.05 205.906 135.779C207.367 136.888 209.03 137.867 210.822 138.636C210.875 138.636 210.939 138.626 210.992 138.616C211.152 138.596 211.312 138.566 211.472 138.516C210.737 138.227 210.022 137.907 209.34 137.557C207.271 136.509 205.458 135.17 203.858 133.722L203.848 133.732Z" fill="#3155FE"/>
<path d="M202.932 114.794C202.836 114.584 202.782 114.475 202.697 114.265C202.59 114.035 202.537 113.925 202.419 113.686C202.612 114.135 202.718 114.355 202.932 114.794Z" fill="#3155FE"/>
<path d="M207.451 126.501C207.451 126.501 207.462 126.501 207.473 126.501C207.398 126.441 207.324 126.371 207.249 126.301C207.313 126.361 207.377 126.421 207.441 126.491L207.451 126.501Z" fill="#3155FE"/>
<path d="M212.719 133.572C212.463 133.462 212.346 133.412 212.09 133.302C211.812 133.182 211.674 133.123 211.396 133.003C211.919 133.252 212.186 133.362 212.719 133.572Z" fill="#3155FE"/>
<path d="M213.051 137.967C213.051 137.967 213.105 137.947 213.137 137.937C212.987 137.887 212.849 137.837 212.689 137.787C212.38 137.707 212.22 137.647 211.91 137.547C212.284 137.707 212.668 137.837 213.051 137.967Z" fill="#3155FE"/>
<path d="M194.815 126.7C194.794 126.431 194.783 126.291 194.751 126.021C194.794 126.54 194.804 126.8 194.857 127.319C194.836 127.07 194.825 126.95 194.815 126.7Z" fill="#3155FE"/>
<path d="M198.292 130.246C198.111 129.996 197.93 129.737 197.748 129.487C197.94 129.776 198.132 130.066 198.324 130.356C198.324 130.316 198.303 130.286 198.292 130.246Z" fill="#3155FE"/>
<path d="M202.953 138.346C202.953 138.346 203.048 138.366 203.102 138.376C202.984 138.326 202.867 138.276 202.75 138.217C202.825 138.266 202.889 138.306 202.963 138.346H202.953Z" fill="#3155FE"/>
<path d="M194.091 136.139C194.091 136.139 194.176 136.149 194.219 136.159C194.166 136.059 194.112 135.959 194.059 135.849C194.059 135.949 194.08 136.039 194.091 136.139Z" fill="#3155FE"/>
<path d="M191.839 123.334C191.818 123.574 191.807 123.814 191.797 124.053C191.818 124.143 191.85 124.243 191.871 124.333C191.871 124.033 191.85 123.714 191.839 123.324V123.334Z" fill="#3155FE"/>
<path d="M192.332 136.239C192.332 136.239 192.374 136.229 192.406 136.219C192.385 136.169 192.353 136.109 192.321 136.059V136.239H192.332Z" fill="#3155FE"/>
<path d="M189.953 137.357C190.017 137.308 190.092 137.258 190.166 137.208V137.188L190.145 137.078V137.018L190.123 136.988V136.958C190.123 137.018 190.123 137.178 190.123 137.158V137.138L190.081 136.848C190.081 136.848 190.081 136.848 190.081 136.838C190.049 136.758 190.006 136.668 189.974 136.588C189.974 136.848 189.974 137.108 189.974 137.367L189.953 137.357Z" fill="#3155FE"/>
<path d="M189.996 136.489C189.975 136.379 189.964 136.269 189.943 136.159C189.943 136.229 189.943 136.289 189.943 136.349C189.964 136.399 189.975 136.439 189.996 136.489Z" fill="#3155FE"/>
<path d="M189.965 125.901C189.965 125.901 189.965 125.821 189.965 125.791C189.933 125.671 189.912 125.551 189.88 125.432C189.912 125.601 189.933 125.751 189.965 125.901Z" fill="#3155FE"/>
<path d="M186.595 133.792C186.574 133.522 186.552 133.392 186.531 133.123C186.563 133.632 186.595 133.892 186.605 134.401C186.605 134.151 186.605 134.031 186.605 133.792H186.595Z" fill="#3155FE"/>
<path d="M175.674 84.3503C175.429 84.3503 175.183 84.3503 174.927 84.3703C175.066 84.3703 175.215 84.3703 175.354 84.3703C175.418 84.3703 175.503 84.3703 175.599 84.3703C175.621 84.3703 175.653 84.3503 175.674 84.3503Z" fill="#3155FE"/>
<path d="M174.385 84.6699C174.588 84.6499 174.791 84.64 174.993 84.62C175.036 84.6 175.078 84.58 175.121 84.5601C174.801 84.59 174.481 84.62 174.151 84.6699C174.225 84.6699 174.311 84.6699 174.385 84.6699Z" fill="#3155FE"/>
<path d="M175.301 84.4801C175.301 84.4801 175.408 84.4401 175.461 84.4202C175.418 84.4202 175.386 84.4202 175.354 84.4202C174.874 84.4401 174.395 84.4801 173.904 84.55C174.373 84.5101 174.842 84.4901 175.301 84.4801Z" fill="#3155FE"/>
<path d="M215.973 130.186C215.898 130.166 215.866 130.156 215.973 130.186V130.186Z" fill="#3155FE"/>
<g clip-path="url(#clip1_320_3126)">
<path d="M127.847 56.9127C126.674 57.5519 125.693 59.9691 124.68 61.4473C124.232 62.0966 123.56 62.8457 123.006 63.5448C122.366 64.3439 121.47 65.073 121.331 65.6424C121.182 66.2417 121.641 67.1606 121.513 68.0895C121.214 70.207 118.335 73.9326 117.226 76.12C112.001 86.3878 110.646 97.6945 104.856 107.872C100.537 115.473 98.1165 123.574 94.1389 131.205C92.6034 134.151 89.7028 135.889 87.6767 138.456C86.0345 140.534 87.1969 145.588 86.8236 148.105C85.5013 156.984 83.1766 165.364 84.275 174.424C85.1814 181.885 89.9161 188.787 90.5239 196.048C90.7052 198.276 90.9825 200.493 91.3131 202.72H30.1459C30.6258 200.733 30.8924 198.695 30.7111 196.428C30.0499 188.168 36.7681 177.61 37.3226 168.81C37.8131 160.97 35.7657 153.369 35.947 145.568C36.0749 140.094 33.249 135.809 30.5724 131.095C25.0593 121.386 27.32 110.619 25.3366 100.092C22.9266 87.3068 26.179 75.0113 24.7927 62.3363C24.3981 58.7705 22.8946 54.8551 24.7927 52.2182C23.9183 51.3093 23.4491 48.5626 22.7453 46.8046C22.0521 45.0767 19.7808 40.1925 24.0462 40.8717C24.2275 39.6431 24.5901 38.5844 25.3472 37.9052C26.8828 37.5756 27.0001 39.1936 28.1411 38.9539C29.3141 38.7142 29.3141 36.8065 30.1886 36.6866C31.6708 36.4769 31.7988 38.5244 32.9825 38.4345C34.6033 38.3047 34.2621 35.0485 34.4754 33.5503C34.5927 32.7213 35.0619 31.6625 35.2218 30.5838C35.5631 28.3065 35.2538 24.9705 37.2906 24.9705C39.3807 24.9705 38.4743 30.2442 38.229 33.1708C37.8451 37.6854 36.2989 43.3787 40.2764 44.6871C41.0869 44.9568 42.3879 45.1366 43.6355 44.6871C45.0005 44.1977 45.0645 42.25 46.8026 41.7207C47.1652 41.6108 49.3939 41.2712 49.9698 41.9004C51.5693 43.6284 46.3761 47.1143 45.3097 48.0032C42.9744 49.9409 41.5454 51.8487 39.1674 53.237C38.6556 62.566 38.8155 72.0848 39.7219 80.6346C39.9992 83.2615 39.6899 85.7786 39.9032 88.3156C40.543 95.7867 44.9045 103.548 46.2375 110.13C46.3334 110.599 46.2908 111.308 46.3228 111.898C46.5787 111.898 46.8133 111.858 46.9946 111.748C47.1972 111.238 47.4958 110.849 47.8157 110.469C48.8501 110.859 48.9674 110.1 49.2446 109.56C48.3169 109.491 47.8797 110.03 46.8773 109.87C46.8666 108.861 48.4555 109.021 48.8821 108.242C48.3915 108.122 46.2695 108.432 46.0668 107.533C46.2481 107.113 47.1865 107.653 47.7304 107.673C48.1996 107.653 48.6048 107.543 48.9887 107.413C49.3833 107.033 49.7138 106.554 49.6819 105.875C48.6048 105.895 47.6771 106.974 46.5787 106.334C47.4851 105.785 48.9034 105.106 48.5622 103.627C48.2103 103.518 47.8477 103.667 47.6238 103.418C47.4745 102.798 48.2103 102.499 48.3915 101.969C48.2209 101.77 47.5171 102.059 47.3678 101.67C47.6024 101.13 48.2529 101.1 48.4555 100.531C48.3169 100.212 47.8797 100.022 47.997 99.5822C47.3892 99.6522 47.3145 100.391 46.536 100.251C46.4401 99.0529 48.2529 98.6334 48.6581 97.4148C48.6155 97.1951 48.3382 97.4548 48.093 97.285C48.0396 95.9465 48.3169 94.1986 49.1487 93.1399C48.9994 92.9401 48.4342 93.1299 48.3382 92.8003C48.6155 92.0911 49.4792 92.1111 49.9271 91.6217C50.0977 91.372 49.7458 91.362 49.8525 91.1422C50.2257 90.7127 50.9508 90.7127 51.1321 90.0435C51.3027 89.7539 50.7056 89.8138 50.7589 89.5741C50.8549 89.0247 51.42 89.0447 51.6013 88.6152C51.4734 88.4354 50.9508 88.4354 51.0148 88.1757C51.2388 87.4965 52.0385 87.5365 52.6357 87.3068C58.1808 84.5101 62.5103 80.1952 70.5294 80.4648C71.3506 80.6546 72.1823 80.8444 72.9075 80.9143C73.0568 81.0641 72.8008 81.3937 72.9501 81.5336C73.8459 81.4936 74.5283 81.184 75.5841 81.3538C76.4371 81.8432 77.1729 82.3826 78.3246 82.7322C79.5296 84.0206 80.8519 85.2592 82.7074 86.248C82.6861 86.3779 82.5581 86.3779 82.5368 86.5177C82.0249 86.6375 81.7157 86.1881 81.1399 86.1282C81.5024 87.0071 82.8887 87.4266 83.7311 88.0958C84.0404 88.4953 84.371 88.8749 84.8508 89.1945C85.2241 89.7738 85.5973 90.3531 86.0025 90.9125C85.6506 92.0811 86.5357 93.0699 85.5866 94.1287C85.512 95.2374 87.4315 95.4272 87.5914 96.426C87.0369 96.5458 86.6423 96.1163 86.2158 95.9665C85.9919 96.1863 86.1305 96.7156 86.1411 97.0253C84.9361 97.9941 86.1731 98.8531 86.5677 99.6621C86.3011 99.8419 85.6933 99.5922 85.2134 99.5123C85.0641 99.8919 85.9172 100.341 85.8639 100.891C84.6376 102.029 85.3947 103.578 86.0132 104.616C86.1305 104.726 86.2798 104.826 86.4291 104.926C89.1163 101.64 91.7716 98.2938 93.5844 94.4184C94.8534 91.6916 95.216 88.6651 96.7516 86.0383C98.1485 83.6411 99.9187 81.4237 101.038 78.8867C103.352 73.6129 104.931 68.0395 107.191 62.3063C105.944 60.2587 104.995 58.1213 103.832 56.0237C102.755 54.0561 99.6414 51.7788 100.665 49.911C101.433 48.5226 104.131 49.8211 104.952 50.6101C106.146 51.7588 105.869 54.3058 108.492 54.4456C111.798 54.6254 113.451 50.8099 114.272 48.163C115.296 44.827 115.008 41.2612 115.946 38.2148C116.234 37.2959 116.97 35.538 117.994 35.5979C120.02 35.7078 118.698 40.0726 118.548 41.3611C118.196 44.5074 117.823 46.8546 117.994 49.3916C119.305 49.8111 119.455 48.5026 120.788 48.5126C122.057 48.5226 123.187 49.8011 124.136 50.4304C125.426 49.4915 129.756 48.0831 130.47 49.911C131.366 52.1983 126.471 51.8087 126.002 53.3968C127.783 53.9862 134.352 53.6166 134.203 55.6642C134.085 57.2723 129.319 56.1036 127.868 56.8827L127.847 56.9127ZM49.3726 95.3772C49.3939 95.517 49.1487 95.7767 49.3619 95.8367C49.4473 95.7967 49.7458 95.3872 49.3726 95.3772ZM53.0089 114.734C52.4864 114.594 52.7423 114.085 52.6677 113.736C52.1985 113.795 51.9426 114.105 51.3881 114.065C51.0255 113.865 51.2281 113.406 51.2494 113.036C50.6523 112.966 50.6203 113.606 49.8738 113.346C49.5326 112.956 50.1511 112.517 49.8845 112.117C49.1487 112.197 48.8074 113.266 47.9863 112.926C47.6664 112.757 47.9757 112.437 48.061 112.247C47.7411 112.487 47.1119 112.687 46.4614 112.717C47.2505 114.694 50.8015 115.374 51.6333 117.311C52.6677 116.332 53.7767 115.164 54.2459 113.586C53.894 114.035 53.5101 114.465 53.0089 114.734ZM70.6787 117.761C70.4228 117.501 70.2842 117.191 70.1882 116.862C69.9749 117.431 69.815 118.04 69.7083 118.7C70.2842 118.66 70.796 118.21 71.3612 117.711C71.1266 117.661 70.9667 117.711 70.6787 117.761ZM73.4513 113.915C72.8328 114.215 73.2914 114.914 73.6219 115.184C73.4833 115.354 73.1207 115.264 72.9608 115.424C72.9928 115.803 73.1421 116.143 73.3553 116.442C73.7819 116.342 74.2724 116.292 74.731 116.083C74.8163 116.043 74.9016 116.003 74.9869 115.953C74.3364 115.334 74.0165 114.575 73.4406 113.915H73.4513ZM75.1362 114.365C75.3281 114.575 75.4241 115.174 75.8506 115.064C75.5947 114.874 75.4454 114.305 75.1362 114.365ZM75.7227 111.648C75.4774 112.637 75.2641 113.616 76.2025 114.065C76.5864 113.006 76.2772 112.267 75.7227 111.648ZM83.5605 106.324C82.8567 106.594 83.7525 108.022 83.2299 108.402C82.3555 108.112 82.4088 107.403 82.1316 106.844C81.5451 107.753 81.8863 108.801 81.4704 109.85C81.0226 110.34 80.788 111.518 79.7749 111.009C79.9775 110.429 80.3721 109.93 80.3934 109.381C78.026 109.71 79.5723 112.946 78.7512 114.245C77.7061 113.885 77.9514 112.946 77.2156 112.437C77.077 113.076 77.4076 114.235 76.8424 115.104C77.4502 114.964 78.1114 115.024 78.8365 115.543C80.2334 112.787 82.0996 110.28 84.0617 107.813C84.1044 107.233 83.9871 106.704 83.5605 106.324ZM84.5522 104.387C84.4989 105.156 84.9575 105.695 85.2987 106.284C85.4693 106.075 85.6399 105.865 85.8106 105.665C85.2347 105.355 84.7762 104.746 84.5522 104.387Z" fill="#3155FE"/>
<path d="M49.0214 96.3662C49.0533 96.6758 49.2023 96.1065 49.0214 96.3662V96.3662Z" fill="#3155FE"/>
</g>
</g>
<defs>
<clipPath id="clip0_320_3126">
<rect width="350.655" height="203" fill="white" transform="matrix(-1 0 0 1 350.656 0)"/>
</clipPath>
<clipPath id="clip1_320_3126">
<rect width="112.652" height="177.74" fill="white" transform="matrix(-1 0 0 1 134.182 24.9705)"/>
</clipPath>
</defs>
</svg>
