<svg width="466" height="463" viewBox="0 0 466 463" fill="none" xmlns="http://www.w3.org/2000/svg">
<mask id="mask0_1313_2" style="mask-type:alpha" maskUnits="userSpaceOnUse" x="-1" y="0" width="467" height="463">
<g clip-path="url(#clip0_1313_2)">
<path d="M192.756 423.577C202.668 422.06 209.283 416.214 211.895 406.682C213.811 399.616 216.102 392.519 216.956 385.248C217.829 377.877 217.429 370.571 218.424 363.119C220.519 347.144 197.863 337.88 190.338 353.69C186.874 360.873 182.447 367.35 178.912 374.363C175.108 381.948 172.936 390.576 170.347 398.656C168.166 405.463 172.01 413.953 177.128 418.374C181.475 422.178 186.855 424.465 192.715 423.517L192.756 423.577Z" fill="#CCFF00"/>
<path d="M129.899 371.966C134.396 371.535 138.987 369.562 143.297 367.951C153.775 366.491 163.373 358.569 168.841 350.005C172.042 344.956 170.892 337.454 167.674 332.724C163.885 327.156 158.335 325.46 151.933 325.159C143.397 324.758 132.437 329.193 126.181 335.888C122.502 338.298 118.49 340.799 115.725 343.904C111.008 349.181 109.104 356.717 112.402 363.179C115.66 369.58 122.834 372.63 129.899 371.966Z" fill="#CCFF00"/>
<path d="M387.212 127.25C395.999 121.044 402.219 115.329 408.059 106.213C412.544 99.1759 415.399 91.6153 419.114 84.2209C425.582 71.3785 410.221 58.687 398.387 66.229C391.301 70.736 383.967 74.3634 377.32 79.5792C368.798 86.3051 363.868 93.2046 358.625 102.488C349.022 119.509 371.533 138.313 387.161 127.24L387.212 127.25Z" fill="#CCFF00"/>
<path d="M428.053 196.76C445.41 199.853 450.549 173.754 433.291 170.16C427.035 168.847 420.729 167.525 414.474 166.213C407.105 164.685 401.421 164.471 394.017 166.057C385.734 167.837 383.101 181.212 390.101 185.944C396.361 190.17 401.709 192.087 409.118 193.414C415.412 194.526 421.758 195.648 428.053 196.76Z" fill="#CCFF00"/>
<path d="M325.858 307.85C402.043 247.219 356.744 128.852 288.525 82.8621C248.603 55.9099 196.23 40.6966 147.754 44.644C110.275 47.6999 64.3504 64.5682 55.5116 105.189C51.8838 122.012 72.3246 135.321 86.5438 125.535C126.088 98.3865 177.07 102.255 221.273 119.738C266.206 137.518 306.145 179.866 301.32 230.778C299.341 251.767 288.617 281.156 266.638 288.194C242.257 295.964 206.359 275.249 187.691 260.411C166.301 243.383 148.097 199.774 189.233 194.149C218.598 190.15 246.374 214.495 266.089 232.292C280.491 245.318 297.606 224.028 285.516 210.461C255.653 176.976 222.04 141.987 172.521 153.636C133.848 162.754 113.641 198.682 120.32 236.528C128.341 281.966 171.412 309.734 211.525 326.115C253.34 343.189 290.928 335.578 325.868 307.8L325.858 307.85Z" fill="#CCFF00"/>
</g>
</mask>
<g mask="url(#mask0_1313_2)">
<rect x="483.534" y="419.786" width="463.087" height="384.904" transform="rotate(-180 483.534 419.786)" fill="#F9FAF7"/>
</g>
<path d="M96.3141 231.309C105.839 231.309 111.671 225.665 111.671 216.783V195.69H104.547V216.601C104.547 221.875 101.583 225.022 96.3141 225.022C91.1305 225.022 88.075 221.875 88.075 216.601V195.69H80.9512V216.783C80.9512 225.665 86.8744 231.309 96.3141 231.309Z" fill="#1740FE"/>
<path d="M144.605 195.69V219.378L127.951 195.69H121.105V230.849H127.951V207.07L144.787 230.849H151.45V195.69H144.605Z" fill="#1740FE"/>
<path d="M161.259 230.849H168.383V195.69H161.259V230.849Z" fill="#1740FE"/>
<path d="M201.5 195.69L191.696 224.003L181.886 195.69H174.302L187.161 230.849H196.134L208.993 195.69H201.5Z" fill="#1740FE"/>
<path d="M221.86 224.555V215.861H235.641V209.756H221.86V201.983H239.806V195.69H214.827V230.849H240.267V224.555H221.86Z" fill="#1740FE"/>
<path d="M275.7 224.373C274.687 224.373 274.038 223.725 274.038 222.706V214.382H268.485C272.371 213.084 275.33 210.035 275.33 205.591C275.33 199.485 270.613 195.69 262.75 195.69H247.022V230.849H254.146V217.619H266.915V224.464C266.915 228.629 269.316 230.849 273.299 230.849H276.906V224.373H275.7ZM261.731 201.613C266.078 201.613 268.303 203.281 268.303 206.791C268.303 210.404 266.078 211.975 261.731 211.975H254.146V201.613H261.731Z" fill="#1740FE"/>
<path d="M294.762 231.31C303.74 231.31 309.106 227.332 309.106 220.578C309.106 213.915 302.813 211.696 296.15 209.938C290.972 208.55 288.383 207.44 288.383 205.13C288.383 202.905 290.881 201.426 294.762 201.426C298.375 201.426 301.794 202.632 304.389 204.76L308.27 199.395C304.389 196.618 300.133 195.229 295.137 195.229C286.716 195.229 281.35 199.116 281.35 205.5C281.35 212.715 288.383 214.843 294.579 216.601C299.484 217.989 301.891 218.729 301.891 221.136C301.891 223.725 299.296 225.204 295.04 225.204C290.881 225.204 286.898 223.725 283.939 220.857L279.962 226.223C283.66 229.551 288.935 231.31 294.762 231.31Z" fill="#1740FE"/>
<path d="M315.671 230.849H322.795V195.69H315.671V230.849Z" fill="#1740FE"/>
<path d="M359.99 195.69H328.627V202.165H340.747V230.849H347.87V202.165H359.99V195.69Z" fill="#1740FE"/>
<path d="M387.559 195.69L381.175 214.934H378.859L369.238 195.69H361.374L371.644 214.934H368.037C366 216.783 364.799 219.378 364.799 222.336C364.799 227.702 368.595 231.309 374.142 231.309C379.417 231.309 383.115 228.26 385.431 221.875L395.053 195.69H387.559ZM374.33 225.665C372.293 225.665 371.092 224.373 371.092 222.245C371.092 221.409 371.366 220.669 371.832 220.026H379.508L378.768 221.966C377.846 224.373 376.458 225.665 374.33 225.665Z" fill="#1740FE"/>
<path d="M244.071 193.487C243.308 193.908 242.375 194.38 241.271 194.898C240.179 195.41 238.904 195.973 237.448 196.582C236.156 197.083 235.001 197.515 233.988 197.88C232.987 198.244 232.15 198.5 231.484 198.653C230.494 198.938 229.47 199.097 228.412 199.131C227.365 199.177 226.301 199.114 225.225 198.949C224.89 198.904 224.52 198.796 224.11 198.631C223.712 198.46 223.302 198.278 222.881 198.084C222.289 197.84 221.8 197.629 221.425 197.447C221.043 197.276 220.725 197.174 220.469 197.129L220.105 196.651L219.194 196.377C218.75 196.269 218.267 195.973 217.737 195.49C217.203 195 216.645 194.357 216.053 193.555C215.49 192.764 215.052 192.042 214.733 191.37C214.415 190.705 214.198 190.113 214.096 189.595L213.618 186.591C213.447 185.561 213.328 184.736 213.254 184.11C213.191 183.49 213.186 183.08 213.231 182.881L213.8 181.424C213.709 180.912 213.641 180.48 213.595 180.127C213.561 179.763 213.561 179.484 213.595 179.285C213.607 179.137 213.737 178.602 213.982 177.692C214.221 176.781 214.574 175.529 215.029 173.936C215.223 173.652 215.444 173.293 215.689 172.866C215.945 172.445 216.196 171.967 216.44 171.433V170.682C216.469 170.499 216.537 170.306 216.645 170.09C216.765 169.862 216.918 169.606 217.1 169.316C217.749 168.303 218.426 167.279 219.126 166.243C219.82 165.196 220.497 164.195 221.151 163.239C221.726 162.499 222.432 161.754 223.268 161.009C224.099 160.269 225.043 159.501 226.09 158.71C226.329 158.516 226.625 158.266 226.978 157.959C227.325 157.657 227.729 157.316 228.184 156.935C228.594 156.752 229.1 156.479 229.709 156.115C230.329 155.751 231.08 155.267 231.962 154.659C232.19 154.613 232.469 154.539 232.805 154.431C233.135 154.312 233.556 154.169 234.056 153.999C234.159 153.942 234.307 153.851 234.489 153.725C234.682 153.589 234.904 153.452 235.149 153.316C235.433 153.134 236.384 152.94 237.994 152.724C239.615 152.496 240.657 152.422 241.112 152.496C242.142 152.65 243.001 152.855 243.684 153.111C244.378 153.356 244.918 153.669 245.3 154.044L246.369 154.408C247.217 154.744 247.763 155.523 248.008 156.752C248.264 157.982 248.224 159.689 247.894 161.873C247.741 162.909 247.61 163.734 247.507 164.354C247.399 164.98 247.291 165.396 247.189 165.606C246.973 166.243 246.711 167.063 246.392 168.064C246.074 169.054 245.687 170.192 245.231 171.478C245.123 171.842 244.867 172.423 244.458 173.208C244.059 173.982 243.553 174.938 242.933 176.076C242.261 177.305 241.709 178.249 241.271 178.898C240.827 179.535 240.497 179.865 240.27 179.877C239.342 179.968 238.347 180.081 237.288 180.218C236.799 180.144 236.457 180.053 236.264 179.945C236.065 179.825 235.98 179.672 236.014 179.49C236.042 179.325 236.116 179.08 236.241 178.761C236.361 178.443 236.435 178.215 236.469 178.078C236.526 177.214 236.588 176.349 236.651 175.484C236.696 175.165 236.879 174.562 237.197 173.663C237.516 172.77 237.96 171.637 238.54 170.272C239.143 168.77 239.661 167.586 240.088 166.721C240.526 165.845 240.844 165.299 241.044 165.083C241.8 164.599 242.369 164.104 242.751 163.603C243.126 163.091 243.348 162.613 243.411 162.169C243.502 161.549 243.433 160.98 243.206 160.462C242.978 159.95 242.574 159.524 242 159.188C241.436 158.96 240.867 158.744 240.293 158.528C239.729 158.317 239.16 158.09 238.586 157.845C238.096 157.936 237.664 157.999 237.288 158.027C236.907 158.061 236.571 158.09 236.287 158.118C234.768 158.135 233.226 158.613 231.667 159.552C230.119 160.479 228.571 161.862 227.024 163.694C225.732 165.287 224.639 166.915 223.746 168.565C222.847 170.221 222.159 171.922 221.675 173.663C221.521 174.181 221.311 174.824 221.038 175.598C220.776 176.372 220.452 177.282 220.059 178.329C220.161 179.046 220.247 179.683 220.309 180.241L219.513 183.245C219.496 183.37 219.564 183.621 219.718 183.996C219.866 184.36 220.11 184.906 220.446 185.635C220.628 186.09 220.77 186.591 220.878 187.137C220.998 187.672 221.072 188.264 221.106 188.912C221.134 189.066 221.197 189.248 221.288 189.458C221.379 189.658 221.493 189.817 221.629 189.936C221.931 190.301 222.221 190.614 222.494 190.87C223.314 192.042 224.224 192.963 225.225 193.646C226.227 194.34 227.342 194.784 228.571 194.966C228.674 194.978 229.1 194.978 229.846 194.966C230.585 194.966 231.627 194.944 232.964 194.898C233.203 194.773 233.516 194.659 233.897 194.557C234.273 194.466 234.745 194.363 235.308 194.261C235.837 193.88 236.332 193.629 236.788 193.51C237.254 193.385 237.681 193.356 238.062 193.419C238.199 193.282 238.364 193.111 238.563 192.918C238.756 192.719 239.018 192.497 239.337 192.258C240.065 192.093 240.736 191.837 241.362 191.484C241.982 191.137 242.591 190.705 243.183 190.187C243.786 192.264 244.082 193.362 244.071 193.487Z" fill="#CCFF00"/>
<path d="M249.024 185.163C249.098 184.697 249.098 183.946 249.024 182.91C248.944 181.863 248.944 181.084 249.024 180.566C249.07 180.281 249.161 179.832 249.297 179.223C249.445 178.62 249.548 178.17 249.593 177.88C249.713 177.061 249.849 175.809 250.003 174.125C250.168 172.441 250.31 171.189 250.435 170.369C250.646 168.975 250.987 167.2 251.459 165.044C251.943 162.876 252.54 160.327 253.257 157.396C253.576 156.349 253.946 155.576 254.373 155.075C254.794 154.563 255.306 154.341 255.898 154.415C256.091 154.449 256.267 154.614 256.421 154.915C256.569 155.223 256.706 155.661 256.831 156.236C257.286 156.799 257.741 157.328 258.196 157.829C258.543 158.238 258.777 158.728 258.902 159.285C259.038 159.832 259.044 160.463 258.925 161.174C258.834 161.846 258.56 162.756 258.105 163.906C257.65 165.044 257.383 165.908 257.309 166.5C257.127 167.684 256.927 168.662 256.717 169.436C256.518 170.21 256.313 170.802 256.102 171.212L255.579 172.236C255.545 172.907 255.516 173.67 255.488 174.534C255.226 175.798 254.987 177.106 254.76 178.472C254.543 179.855 254.441 181.283 254.441 182.751C254.452 184.225 254.543 185.721 254.714 187.235C254.97 189.283 255.403 190.87 256.011 191.991C256.615 193.101 257.405 193.732 258.378 193.88C258.862 193.943 259.334 193.892 259.79 193.721C260.245 193.556 260.7 193.237 261.155 192.765C261.519 192.435 261.861 192.077 262.179 191.695C262.509 191.303 262.839 190.922 263.158 190.557C263.522 190.239 263.909 189.841 264.319 189.351C264.74 188.85 265.206 188.253 265.707 187.553C266.299 186.279 266.925 184.993 267.596 183.684C268.262 182.381 268.939 181.067 269.622 179.747C269.804 179.337 270.031 178.791 270.305 178.108C270.578 177.425 270.879 176.64 271.215 175.741C271.807 174.682 272.455 173.186 273.172 171.257C273.884 169.334 274.72 166.99 275.676 164.224C275.904 163.803 276.199 163.263 276.564 162.608C276.928 161.96 277.343 161.192 277.815 160.31C277.952 159.991 278.191 159.502 278.544 158.83C278.908 158.147 279.386 157.3 279.978 156.281C280.262 155.769 280.66 155.411 281.161 155.211C281.662 155.001 282.259 154.95 282.959 155.052C283.38 155.115 283.648 155.433 283.756 156.008C283.875 156.588 283.852 157.43 283.687 158.534C283.369 160.674 282.709 163.24 281.707 166.227C280.717 169.22 279.369 172.6 277.656 176.378C277.565 176.742 277.394 177.192 277.155 177.721C276.928 178.239 276.655 178.83 276.336 179.496C276.256 179.923 276.142 180.407 275.995 180.953C275.841 181.488 275.636 182.085 275.38 182.751C274.834 183.98 274.333 185.294 273.878 186.688C273.423 188.071 273.013 189.528 272.649 191.058C272.615 191.286 272.524 191.616 272.376 192.037C272.222 192.464 272.046 192.993 271.852 193.63C271.625 194.222 271.448 194.762 271.329 195.246C271.204 195.735 271.113 196.191 271.056 196.612C271.039 197.232 271.01 197.806 270.965 198.341C271.204 198.705 271.386 199.001 271.511 199.229C271.63 199.468 271.682 199.661 271.67 199.798C271.454 200.162 271.158 200.549 270.783 200.959C270.401 201.38 269.901 201.824 269.28 202.279C268.654 202.825 268.063 203.212 267.505 203.44C266.942 203.667 266.447 203.741 266.026 203.667C265.627 203.605 265.275 203.292 264.956 202.734C264.649 202.188 264.535 201.693 264.615 201.255L264.637 201.004C264.757 200.788 264.871 200.538 264.979 200.253C264.99 200.128 264.984 200.003 264.956 199.866C264.922 199.741 264.899 199.576 264.888 199.366C264.945 199.274 265.036 199.121 265.161 198.91C265.28 198.694 265.411 198.455 265.548 198.182C265.514 198.074 265.479 197.932 265.434 197.75C265.4 197.579 265.354 197.385 265.297 197.158C265.354 197.038 265.417 196.885 265.479 196.703C265.553 196.509 265.667 196.27 265.821 195.997C265.832 195.815 265.844 195.587 265.844 195.314C265.889 195.149 265.957 194.922 266.048 194.631C266.14 194.347 266.242 193.983 266.367 193.539C266.532 193.192 266.663 192.89 266.754 192.629C266.845 192.373 266.896 192.185 266.913 192.06C266.942 191.878 266.936 191.718 266.891 191.582C266.856 191.445 266.8 191.354 266.709 191.309C266.572 191.326 266.367 191.462 266.094 191.718C265.832 191.98 265.514 192.344 265.138 192.811C264.683 193.346 264.296 193.784 263.977 194.131C263.67 194.484 263.465 194.711 263.363 194.814L263.158 195.269C262.43 195.997 261.781 196.6 261.223 197.067C260.677 197.533 260.267 197.869 259.994 198.068C259.494 198.37 258.925 198.637 258.287 198.865C257.661 199.092 256.91 199.257 256.034 199.366C255.607 199.377 255.198 199.434 254.805 199.525C253.969 199.4 253.24 199.172 252.62 198.842C252.011 198.523 251.573 198.136 251.3 197.681C250.162 195.895 249.4 193.966 249.024 191.9C248.66 189.823 248.66 187.576 249.024 185.163Z" fill="#CCFF00"/>
<path d="M298.378 198.479C298.981 200.561 299.277 201.66 299.265 201.779C298.912 202.132 298.582 202.507 298.264 202.917C297.957 203.338 297.615 203.759 297.24 204.169C296.921 204.544 296.523 204.84 296.056 205.056C295.584 205.267 295.06 205.432 294.486 205.557C293.632 205.751 292.824 205.944 292.05 206.126C291.288 206.32 290.605 206.536 290.002 206.763C289.285 206.957 288.545 207.059 287.772 207.059C287.009 207.059 286.292 207.042 285.609 207.014C285.063 207.071 284.551 207.082 284.084 207.037C283.612 206.991 283.174 206.934 282.764 206.877C282.412 206.832 282.127 206.769 281.899 206.695C281.683 206.633 281.513 206.547 281.376 206.445C281.194 206.291 281.012 206.132 280.83 205.967C280.659 205.796 280.5 205.648 280.352 205.512C279.999 205.238 279.743 205.022 279.578 204.874C279.305 204.675 279.157 204.197 279.146 203.44C279.146 202.695 279.248 201.62 279.464 200.209C279.601 199.241 280.107 197.722 280.989 195.657C281.882 193.58 282.383 192.191 282.491 191.492C282.52 191.327 282.525 191.099 282.514 190.809C282.514 190.507 282.525 190.274 282.559 190.103C282.651 189.483 283.083 188.089 283.857 185.915C284.631 183.747 285.086 182.24 285.222 181.386C285.279 180.948 285.16 180.607 284.858 180.362C284.551 180.123 284.426 179.81 284.471 179.429C284.562 178.9 284.705 178.308 284.904 177.654C285.097 177.005 285.37 176.288 285.723 175.514C285.979 174.894 286.235 174.262 286.497 173.625C286.753 172.988 287.003 172.368 287.248 171.759C287.521 171.047 287.8 170.325 288.09 169.597C288.375 168.868 288.625 168.151 288.841 167.434C289.052 166.979 289.348 166.41 289.729 165.727C290.121 165.045 290.599 164.282 291.163 163.429C291.419 163.019 291.652 162.632 291.868 162.268C292.096 161.904 292.329 161.511 292.574 161.084C292.813 160.754 293.126 160.481 293.507 160.265C293.883 160.037 294.332 159.85 294.85 159.696C295.259 159.594 295.624 159.525 295.942 159.491C296.272 159.463 296.5 159.457 296.625 159.468C297.228 159.559 297.638 159.827 297.854 160.265C298.082 160.709 298.127 161.369 297.991 162.245C297.957 162.507 297.9 162.808 297.809 163.155C297.718 163.491 297.564 163.872 297.353 164.293C297.2 164.749 297.058 165.147 296.921 165.477C296.796 165.813 296.693 166.063 296.602 166.228C296.511 166.763 296.403 167.252 296.284 167.707C296.176 168.151 296.062 168.561 295.942 168.936C295.806 169.164 295.59 169.454 295.305 169.801C294.969 170.848 294.696 171.713 294.486 172.396C294.287 173.079 294.167 173.574 294.122 173.875C293.968 174.803 293.541 175.941 292.847 177.289C292.164 178.644 291.766 179.679 291.663 180.407C291.618 180.726 291.504 181.136 291.322 181.637C291.14 182.126 290.878 182.695 290.548 183.343C290.167 184.243 289.865 184.937 289.638 185.437C289.41 185.927 289.257 186.223 289.183 186.325C289.075 186.644 288.961 187.031 288.841 187.486C288.733 187.93 288.579 188.436 288.386 189.011C287.504 191.366 286.816 193.329 286.315 194.906C285.814 196.47 285.501 197.648 285.382 198.433C285.257 199.196 285.245 199.788 285.336 200.209C285.439 200.618 285.655 200.846 285.973 200.891C287.385 201.108 288.83 201.164 290.321 201.073C291.823 200.982 293.399 200.749 295.055 200.368C295.237 200.385 295.407 200.368 295.578 200.322C295.76 200.265 295.942 200.226 296.124 200.209C296.454 199.935 296.705 199.679 296.875 199.435C297.177 199.298 297.45 199.156 297.695 199.002C297.951 198.837 298.178 198.661 298.378 198.479Z" fill="#CCFF00"/>
<path d="M311.404 162.173C312.371 162.025 313.406 161.963 314.499 161.991C315.603 162.025 316.82 162.139 318.14 162.333C318.379 162.378 318.738 162.48 319.21 162.628C319.694 162.765 320.075 162.856 320.348 162.901C320.758 163.038 321.065 163.152 321.281 163.243C321.52 163.351 321.85 163.488 322.26 163.653L323.261 163.516C323.426 163.55 323.614 163.664 323.83 163.857C324.058 164.039 324.331 164.256 324.65 164.495C324.832 164.404 325.094 164.301 325.446 164.176C325.793 164.239 326.05 164.415 326.22 164.7C326.385 164.99 326.476 165.377 326.493 165.86C326.431 166.224 326.368 166.577 326.311 166.907C326.266 167.243 326.186 167.607 326.084 168C326.038 168.17 326.004 168.449 325.993 168.842C325.976 169.223 325.953 169.513 325.924 169.707C325.89 169.968 325.816 170.139 325.697 170.23C325.589 170.321 325.435 170.355 325.242 170.321C324.388 170.202 323.563 170.014 322.761 169.752C321.953 169.479 321.15 169.132 320.348 168.705C319.631 168.739 318.994 168.751 318.436 168.751C317.993 168.705 317.668 168.717 317.458 168.774C317.259 168.836 317.15 168.933 317.139 169.069C317.196 169.24 317.287 169.428 317.412 169.638C317.532 169.838 317.691 170.025 317.89 170.207C318.038 170.344 318.186 170.617 318.323 171.027C318.47 171.436 318.618 171.96 318.755 172.597C318.801 172.859 318.823 173.109 318.823 173.348C318.835 173.576 318.829 173.798 318.801 174.008C318.721 174.464 318.584 175.044 318.391 175.738C318.192 176.421 318.004 176.984 317.822 177.422C317.486 178.259 317.219 178.959 317.025 179.516C316.826 180.062 316.672 180.484 316.57 180.768C316.479 180.996 316.394 181.263 316.32 181.565C316.257 181.872 316.189 182.219 316.115 182.612C316.035 182.964 315.876 183.38 315.637 183.863C315.409 184.336 315.17 184.882 314.931 185.502C314.886 185.792 314.795 186.128 314.658 186.503C314.533 186.868 314.391 187.289 314.226 187.755C314.118 188.028 313.958 188.347 313.748 188.711C313.532 189.064 313.327 189.462 313.133 189.917C313.116 190.253 313.093 190.6 313.065 190.964C312.883 191.59 312.701 192.233 312.519 192.899C312.246 193.826 311.961 194.777 311.677 195.744C311.386 196.717 311.119 197.65 310.88 198.543C310.709 198.788 310.527 199.078 310.334 199.408C310.3 199.562 310.288 199.807 310.288 200.137C310.3 200.455 310.294 200.723 310.266 200.933C310.22 201.178 310.112 201.525 309.947 201.98C309.793 202.435 309.702 202.777 309.674 203.004C309.611 203.448 309.497 204.114 309.332 205.007C309.179 205.884 309.065 206.555 308.991 207.01C309.065 207.403 309.11 207.773 309.128 208.125C309.019 208.427 308.906 208.672 308.786 208.854C308.678 209.036 308.547 209.178 308.399 209.286C307.972 209.468 307.586 209.61 307.238 209.719C306.977 209.901 306.761 210.043 306.578 210.151C306.408 210.27 306.266 210.322 306.146 210.31C305.657 210.231 305.327 210.111 305.145 209.946C304.974 209.775 304.906 209.588 304.94 209.377C305.088 208.632 305.281 207.921 305.509 207.238C305.463 207.158 305.423 207.022 305.395 206.828C305.378 206.629 305.327 206.396 305.236 206.123C305.401 204.381 305.531 202.572 305.623 200.706C305.879 199.403 306.106 198.077 306.305 196.723C306.396 196.085 306.539 195.306 306.738 194.378C306.948 193.44 307.221 192.347 307.557 191.101C307.921 189.889 308.2 188.819 308.399 187.892C308.593 186.953 308.746 186.173 308.854 185.548C308.883 185.292 308.951 184.967 309.059 184.569C309.179 184.159 309.321 183.659 309.492 183.067C309.628 182.566 309.753 182.122 309.879 181.724C310.015 181.314 310.112 180.939 310.175 180.586C310.203 180.421 310.22 180.233 310.22 180.017C310.231 179.806 310.243 179.624 310.243 179.471C310.561 178.959 310.795 178.532 310.948 178.196C311.113 177.866 311.21 177.639 311.244 177.513C311.165 177.229 311.096 176.933 311.039 176.626C311.233 176.307 311.472 175.755 311.745 174.964C312.029 174.179 312.365 173.138 312.746 171.846C312.775 171.59 312.82 171.271 312.883 170.89C312.94 170.515 313.025 170.048 313.133 169.502L313.019 168.887C312.94 168.83 312.792 168.745 312.564 168.637C312.337 168.535 312.029 168.432 311.654 168.341L311.199 168.569C310.891 168.603 310.584 168.626 310.266 168.637C309.947 168.654 309.611 168.683 309.264 168.728C306.852 169.047 304.462 169.337 302.095 169.593C301.913 169.564 301.776 169.473 301.685 169.32C301.594 169.172 301.56 168.967 301.594 168.705C301.605 168.569 301.696 168.341 301.867 168.022C302.032 167.692 302.283 167.283 302.618 166.793C302.783 166.008 302.937 165.36 303.073 164.859C303.21 164.358 303.352 163.983 303.506 163.721C303.762 163.266 304.098 162.896 304.507 162.606C304.917 162.321 305.384 162.128 305.918 162.037C307.011 161.889 308.012 161.82 308.923 161.832C309.844 161.849 310.675 161.963 311.404 162.173Z" fill="#CCFF00"/>
<path d="M324.138 196.431C324.212 195.964 324.212 195.213 324.138 194.178C324.059 193.131 324.059 192.351 324.138 191.833C324.184 191.549 324.275 191.099 324.411 190.491C324.559 189.887 324.662 189.438 324.707 189.148C324.827 188.328 324.963 187.077 325.117 185.392C325.282 183.708 325.424 182.456 325.549 181.637C325.76 180.243 326.101 178.468 326.574 176.311C327.057 174.143 327.655 171.594 328.372 168.664C328.69 167.617 329.06 166.843 329.487 166.342C329.908 165.83 330.42 165.608 331.012 165.682C331.205 165.716 331.382 165.881 331.535 166.183C331.683 166.49 331.82 166.928 331.945 167.503C332.4 168.066 332.855 168.596 333.311 169.096C333.658 169.506 333.891 169.995 334.016 170.553C334.153 171.099 334.158 171.731 334.039 172.442C333.948 173.113 333.675 174.024 333.22 175.173C332.764 176.311 332.497 177.176 332.423 177.768C332.241 178.951 332.042 179.93 331.831 180.704C331.632 181.478 331.427 182.069 331.217 182.479L330.693 183.503C330.659 184.175 330.631 184.937 330.602 185.802C330.34 187.065 330.101 188.374 329.874 189.74C329.658 191.122 329.555 192.55 329.555 194.018C329.567 195.492 329.658 196.989 329.828 198.502C330.084 200.55 330.517 202.138 331.126 203.259C331.729 204.368 332.52 205 333.493 205.148C333.976 205.211 334.449 205.159 334.904 204.989C335.359 204.824 335.814 204.505 336.269 204.033C336.634 203.703 336.975 203.344 337.294 202.963C337.624 202.57 337.954 202.189 338.272 201.825C338.636 201.506 339.023 201.108 339.433 200.619C339.854 200.118 340.321 199.521 340.821 198.821C341.413 197.546 342.039 196.26 342.71 194.952C343.376 193.649 344.053 192.334 344.736 191.014C344.918 190.604 345.146 190.058 345.419 189.375C345.692 188.693 345.994 187.907 346.329 187.008C346.921 185.95 347.57 184.454 348.287 182.525C348.998 180.601 349.834 178.257 350.79 175.492C351.018 175.071 351.314 174.53 351.678 173.876C352.042 173.227 352.457 172.459 352.93 171.577C353.066 171.259 353.305 170.769 353.658 170.098C354.022 169.415 354.5 168.567 355.092 167.549C355.376 167.037 355.775 166.678 356.275 166.479C356.776 166.268 357.373 166.217 358.073 166.32C358.494 166.382 358.762 166.701 358.87 167.276C358.989 167.856 358.967 168.698 358.802 169.802C358.483 171.941 357.823 174.507 356.822 177.495C355.831 180.488 354.483 183.867 352.77 187.646C352.679 188.01 352.509 188.459 352.27 188.988C352.042 189.506 351.769 190.098 351.45 190.764C351.371 191.19 351.257 191.674 351.109 192.22C350.955 192.755 350.75 193.353 350.494 194.018C349.948 195.247 349.447 196.562 348.992 197.956C348.537 199.339 348.127 200.795 347.763 202.326C347.729 202.553 347.638 202.883 347.49 203.304C347.336 203.731 347.16 204.26 346.967 204.898C346.739 205.489 346.563 206.03 346.443 206.514C346.318 207.003 346.227 207.458 346.17 207.879C346.153 208.499 346.124 209.074 346.079 209.609C346.318 209.973 346.5 210.269 346.625 210.497C346.745 210.736 346.796 210.929 346.784 211.066C346.568 211.43 346.272 211.817 345.897 212.226C345.516 212.647 345.015 213.091 344.395 213.546C343.769 214.093 343.177 214.48 342.619 214.707C342.056 214.935 341.561 215.009 341.14 214.935C340.742 214.872 340.389 214.559 340.07 214.002C339.763 213.455 339.649 212.96 339.729 212.522L339.752 212.272C339.871 212.056 339.985 211.805 340.093 211.521C340.104 211.396 340.099 211.27 340.07 211.134C340.036 211.009 340.013 210.844 340.002 210.633C340.059 210.542 340.15 210.388 340.275 210.178C340.395 209.962 340.525 209.723 340.662 209.45C340.628 209.341 340.594 209.199 340.548 209.017C340.514 208.846 340.469 208.653 340.412 208.425C340.469 208.306 340.531 208.152 340.594 207.97C340.668 207.777 340.782 207.538 340.935 207.265C340.947 207.083 340.958 206.855 340.958 206.582C341.003 206.417 341.072 206.189 341.163 205.899C341.254 205.615 341.356 205.25 341.481 204.807C341.646 204.459 341.777 204.158 341.868 203.896C341.959 203.64 342.011 203.452 342.028 203.327C342.056 203.145 342.05 202.986 342.005 202.849C341.971 202.713 341.914 202.622 341.823 202.576C341.686 202.593 341.481 202.73 341.208 202.986C340.947 203.248 340.628 203.612 340.252 204.078C339.797 204.613 339.41 205.051 339.092 205.398C338.784 205.751 338.579 205.979 338.477 206.081L338.272 206.536C337.544 207.265 336.895 207.868 336.338 208.334C335.791 208.801 335.382 209.137 335.109 209.336C334.608 209.637 334.039 209.905 333.402 210.132C332.776 210.36 332.025 210.525 331.148 210.633C330.722 210.644 330.312 210.701 329.919 210.792C329.083 210.667 328.355 210.44 327.734 210.11C327.126 209.791 326.687 209.404 326.414 208.949C325.276 207.162 324.514 205.233 324.138 203.168C323.774 201.091 323.774 198.843 324.138 196.431Z" fill="#CCFF00"/>
<path d="M366.188 199.641C366.125 200.068 366.353 200.711 366.871 201.576C367.4 202.429 368.225 203.482 369.351 204.739C370.046 205.576 370.791 206.39 371.582 207.175C372.367 207.966 373.158 208.762 373.949 209.565C374.279 209.929 374.706 210.407 375.223 210.998C375.753 211.59 376.367 212.29 377.067 213.092C377.613 213.639 378.165 214.173 378.728 214.708C379.286 215.255 379.901 215.806 380.572 216.37C380.993 216.825 381.482 217.314 382.029 217.849C382.575 218.395 383.195 218.97 383.895 219.579C384.305 219.926 384.578 220.472 384.714 221.218C384.851 221.957 384.862 222.89 384.76 224.017L384.305 224.836L383.941 224.973C383.713 224.939 383.428 224.797 383.098 224.541C382.763 224.296 382.336 223.949 381.824 223.494C381.716 223.414 381.243 223.095 380.413 222.538C379.576 221.974 378.364 221.178 376.771 220.148C375.889 219.613 375.093 219.038 374.381 218.418C373.681 217.792 373.05 217.149 372.492 216.484C372.14 216.085 371.701 215.647 371.172 215.163C370.654 214.674 370.017 214.139 369.26 213.548C368.532 212.944 367.895 212.381 367.349 211.863C366.802 211.351 366.37 210.924 366.051 210.589C365.004 209.422 364.139 208.529 363.457 207.903C362.774 207.266 362.279 206.924 361.977 206.879C361.704 207.186 361.533 207.493 361.477 207.812C361.033 208.813 360.549 210.099 360.02 211.658C359.485 213.206 358.882 215.016 358.199 217.098C358.136 217.462 358.023 217.724 357.858 217.895C357.687 218.06 357.476 218.122 357.22 218.077C356.356 217.94 355.724 217.633 355.331 217.166C354.95 216.694 354.819 216.017 354.944 215.141C355.126 214.014 355.377 212.842 355.695 211.613C356.026 210.373 356.469 209.087 357.016 207.767C357.226 207.175 357.391 206.646 357.516 206.173C357.636 205.707 357.727 205.274 357.789 204.876C357.954 203.829 357.641 202.873 356.856 202.008C356.082 201.132 355.718 200.54 355.764 200.233C355.838 199.721 355.974 199.294 356.173 198.958C356.384 198.611 356.657 198.355 356.993 198.185C357.778 197.838 358.523 197.49 359.223 197.138C359.405 197.064 359.542 196.927 359.633 196.728C359.724 196.535 359.792 196.244 359.838 195.863C359.883 195.636 359.917 195.397 359.952 195.135C359.997 194.879 360.031 194.634 360.065 194.406C360.43 192.421 360.794 190.355 361.158 188.216C361.169 188.079 361.203 187.846 361.249 187.51C361.306 187.163 361.351 186.725 361.385 186.19C361.397 185.769 361.442 185.388 361.522 185.052C361.596 184.722 361.659 184.409 361.704 184.119C361.624 183.652 361.556 183.248 361.499 182.913C361.454 182.583 361.454 182.264 361.499 181.957C361.528 181.684 361.613 181.274 361.75 180.728C361.886 180.17 361.977 179.749 362.023 179.476C362.068 179.174 362.097 178.742 362.114 178.179C362.142 177.604 362.182 177.166 362.228 176.859C362.347 176.056 362.649 175.322 363.138 174.651C363.622 173.968 364.304 173.325 365.186 172.716C365.989 172.216 366.802 171.863 367.622 171.647C368.441 171.419 369.26 171.368 370.08 171.487C370.455 171.55 371.013 171.664 371.741 171.829C372.481 171.999 373.073 172.119 373.516 172.193C373.79 172.227 374.541 172.58 375.77 173.263C376.282 173.399 376.731 173.536 377.113 173.672C377.505 173.809 377.824 173.945 378.068 174.082C378.581 174.418 378.985 174.685 379.275 174.879C379.576 175.078 379.798 175.197 379.935 175.243C380.265 175.425 380.572 175.584 380.845 175.721C381.118 175.857 381.329 176.005 381.482 176.153C381.756 176.335 382.063 176.551 382.416 176.79C382.78 177.018 383.201 177.285 383.69 177.587C384.418 178.105 385.101 178.691 385.739 179.339C386.376 179.977 386.945 180.654 387.446 181.365C388.066 182.275 388.492 183.152 388.72 183.982C388.948 184.802 389.005 185.598 388.902 186.372C388.868 186.588 388.8 186.896 388.697 187.305C388.589 187.715 388.47 188.182 388.333 188.694C388.162 189.32 387.719 189.963 386.99 190.628C386.273 191.283 385.283 191.965 384.009 192.677C382.899 193.314 381.858 193.837 380.891 194.247C379.935 194.645 379.076 194.902 378.319 195.021C378 195.175 377.75 195.317 377.568 195.453C377.306 195.653 376.783 195.903 375.997 196.205C375.223 196.495 374.177 196.853 372.856 197.274C370.455 198.02 368.76 198.498 367.758 198.708C366.768 198.924 366.245 199.232 366.188 199.641ZM365.095 182.958C365.579 182.685 366.034 182.435 366.461 182.207C366.882 181.968 367.394 181.883 367.986 181.957C368.27 182.002 368.561 182.355 368.851 183.004C369.152 183.641 369.283 184.113 369.238 184.415C369.221 184.569 369.112 184.916 368.919 185.462C368.72 185.997 368.418 186.731 368.009 187.67C367.189 189.752 366.7 191.061 366.552 191.607C366.415 192.142 366.148 192.967 365.755 194.088C365.602 194.378 365.442 194.748 365.277 195.203C365.243 195.419 365.26 195.567 365.323 195.658C365.38 195.749 365.488 195.812 365.642 195.84C370.421 194.281 372.902 193.462 373.084 193.382C373.249 193.354 373.437 193.314 373.653 193.268C373.864 193.223 374.074 193.172 374.29 193.109L374.882 192.563C376.293 191.926 377.773 191.254 379.32 190.537C380.259 189.98 380.987 189.411 381.505 188.83C382.034 188.239 382.353 187.624 382.461 186.987C382.581 186.167 382.222 185.28 381.391 184.324C380.555 183.368 379.235 182.384 377.431 181.365C375.884 180.455 374.455 179.749 373.152 179.248C371.861 178.748 370.66 178.418 369.556 178.247C368.111 178.036 366.99 178.127 366.188 178.52C365.38 178.901 364.913 179.584 364.777 180.568C364.652 181.331 364.617 181.923 364.663 182.344C364.72 182.753 364.868 182.958 365.095 182.958Z" fill="#CCFF00"/>
<path d="M413.035 215.671L413.855 218.971C413.565 219.153 413.223 219.341 412.831 219.54C412.449 219.734 412.011 219.95 411.51 220.177C410.993 220.268 410.384 220.405 409.69 220.587C408.99 220.781 408.193 221.002 407.3 221.247C406.583 221.566 406.008 221.793 405.57 221.93C405.126 222.066 404.825 222.118 404.66 222.089C404.37 222.044 403.818 222.089 402.998 222.226C402.19 222.362 401.132 222.579 399.812 222.886C399.095 223.022 398.338 223.159 397.536 223.296C396.745 223.443 395.931 223.557 395.101 223.637L393.098 222.909L391.755 223.25C391.311 223.187 390.879 223.119 390.458 223.045C390.031 222.966 389.615 222.886 389.206 222.795C388.551 222.67 388.073 222.505 387.772 222.294C387.465 222.095 387.339 221.85 387.385 221.566L387.817 220.337L387.613 220.041C386.867 219.916 386.384 219.745 386.156 219.517C385.928 219.29 385.871 218.8 385.997 218.061C386.042 217.714 386.139 217.162 386.293 216.399C386.44 215.625 386.64 214.618 386.884 213.372C386.896 213.253 387.004 213.025 387.203 212.689C387.413 212.359 387.527 212.109 387.544 211.938C387.482 211.699 387.442 211.517 387.431 211.392C387.413 211.273 387.413 211.153 387.431 211.028C387.624 210.152 387.886 209.088 388.204 207.842C388.534 206.584 388.944 205.099 389.433 203.381C389.872 202.368 390.276 201.218 390.64 199.944C390.759 198.942 390.873 197.935 390.981 196.917C392.375 193.309 393.786 189.696 395.214 186.083C395.442 185.434 395.783 184.831 396.239 184.285C396.694 183.739 397.223 183.215 397.832 182.715C398.071 182.595 398.241 182.498 398.333 182.419C398.469 182.225 398.64 181.998 398.856 181.736C399.084 181.48 399.345 181.167 399.653 180.803C399.801 180.729 400.045 180.632 400.381 180.507C400.711 180.37 401.143 180.188 401.678 179.961C401.934 179.813 402.23 179.636 402.566 179.437C402.913 179.227 403.294 178.976 403.704 178.686C404.643 178.322 405.525 177.912 406.344 177.457C407.163 176.991 408.119 176.763 409.212 176.774C409.741 176.837 410.264 176.888 410.782 176.934C411.294 176.979 411.784 177.019 412.239 177.047C412.705 177.002 413.115 176.996 413.468 177.025C413.695 177.042 413.889 177.036 414.06 177.002C414.242 176.973 414.401 176.968 414.538 176.979C414.674 177.013 414.856 177.065 415.084 177.138C415.311 177.201 415.63 177.292 416.04 177.412C416.313 177.474 416.563 177.525 416.791 177.571C417.018 177.605 417.246 177.628 417.474 177.639C418.304 178.066 418.907 178.567 419.272 179.141C419.636 179.705 419.761 180.336 419.659 181.03C419.414 182.578 419.078 183.71 418.657 184.422C418.247 185.122 417.724 185.423 417.087 185.332C416.586 185.258 416.062 184.922 415.516 184.331C414.97 183.739 413.314 183.232 410.555 182.806C409.371 182.868 408.199 182.931 407.05 182.988C406.913 183.141 406.765 183.255 406.617 183.329C406.463 183.392 406.327 183.437 406.207 183.466L405.115 182.851C404.717 182.942 404.25 183.255 403.704 183.784C403.158 184.319 402.566 185.076 401.929 186.06C401.792 186.277 401.661 186.55 401.542 186.88C401.434 187.198 401.348 187.585 401.291 188.04C400.637 189.588 400.005 191.079 399.402 192.501C398.765 194.049 398.264 195.227 397.9 196.029C397.547 196.82 397.337 197.298 397.263 197.463C397.155 197.679 397.064 197.884 396.99 198.078C396.91 198.26 396.859 198.459 396.83 198.669C396.785 198.942 396.808 199.17 396.899 199.352C396.99 199.534 397.149 199.642 397.377 199.671C397.57 199.705 398.111 199.409 398.993 198.783C399.886 198.163 400.523 197.839 400.904 197.804C401.416 197.748 401.917 197.668 402.407 197.577C402.907 197.486 403.436 197.372 404 197.235C404.21 197.224 404.756 197.224 405.638 197.235C406.515 197.253 407.738 197.281 409.303 197.327L410.19 197.759L412.011 197.691L412.899 198.26C413.081 198.521 413.24 198.823 413.377 199.17C413.525 199.523 413.65 199.91 413.741 200.331C413.525 201.685 413.229 202.675 412.853 203.312C412.472 203.95 411.988 204.223 411.397 204.132L409.667 203.13C408.102 203.056 406.572 202.988 405.069 202.925C403.567 202.851 402.031 202.766 400.472 202.675C398.526 202.755 396.99 203.142 395.852 203.836C394.714 204.536 393.991 205.577 393.689 206.954C393.61 207.227 393.462 207.659 393.234 208.251C393.018 208.832 392.762 209.549 392.46 210.413L392.506 211.46C392.187 212.405 391.903 213.293 391.664 214.123C391.419 214.96 391.243 215.711 391.14 216.377C391.106 216.604 391.118 216.775 391.163 216.877C391.22 216.985 391.305 217.025 391.414 216.991C392.472 217.071 393.331 217.128 393.985 217.173C394.651 217.219 395.112 217.281 395.374 217.355C395.948 217.48 396.54 217.617 397.149 217.765L399.266 217.901C399.505 217.89 400.022 217.788 400.813 217.606C401.616 217.412 402.315 217.355 402.907 217.446C403.573 217.537 404.25 217.56 404.933 217.515C405.616 217.469 406.264 217.378 406.89 217.241C407.539 217.105 408.176 216.968 408.802 216.832C409.422 216.695 410.054 216.559 410.691 216.422C410.93 216.411 411.243 216.331 411.624 216.194C412.017 216.058 412.489 215.887 413.035 215.671Z" fill="#CCFF00"/>
<defs>
<clipPath id="clip0_1313_2">
<rect width="394.819" height="396.412" fill="white" transform="matrix(-0.193195 0.98116 -0.981848 -0.189672 465.492 75.1882)"/>
</clipPath>
</defs>
</svg>
