<svg width="14" height="16" viewBox="0 0 14 16" fill="none" xmlns="http://www.w3.org/2000/svg">
<path d="M6.00061 1.00049L6.00061 12.8605L1.64061 9.23049C1.53949 9.14644 1.42281 9.08314 1.29723 9.04418C1.17164 9.00523 1.03961 8.9914 0.908683 9.00347C0.644257 9.02785 0.400346 9.15627 0.230608 9.36049C0.0608688 9.5647 -0.0207924 9.82799 0.00358728 10.0924C0.027967 10.3568 0.156392 10.6007 0.360609 10.7705L6.36061 15.7705C6.40833 15.8041 6.45847 15.8342 6.51061 15.8605C6.56061 15.8605 6.59061 15.9105 6.64061 15.9305C6.75527 15.9758 6.87732 15.9995 7.00061 16.0005C7.1239 15.9995 7.24595 15.9758 7.36061 15.9305C7.41061 15.9305 7.44061 15.8805 7.49061 15.8605C7.54275 15.8342 7.59288 15.8041 7.64061 15.7705L13.6406 10.7705C13.7535 10.6765 13.8443 10.5587 13.9065 10.4256C13.9687 10.2926 14.0008 10.1474 14.0006 10.0005C14.0011 9.76684 13.9197 9.5404 13.7706 9.36049C13.6867 9.25923 13.5836 9.17553 13.4672 9.11418C13.3509 9.05282 13.2236 9.01503 13.0926 9.00295C12.9616 8.99088 12.8295 9.00476 12.7039 9.0438C12.5783 9.08285 12.4617 9.14629 12.3606 9.23049L8.00061 12.8605L8.00061 1.00049C8.00061 0.735272 7.89525 0.480918 7.70772 0.293381C7.52018 0.105845 7.26582 0.000487987 7.00061 0.000487975C6.73539 0.000487964 6.48104 0.105845 6.2935 0.293381C6.10597 0.480918 6.00061 0.735271 6.00061 1.00049Z" fill="#1740FE"/>
</svg>
