<svg width="380" height="382" viewBox="0 0 380 382" fill="none" xmlns="http://www.w3.org/2000/svg">
<g opacity="0.4" clip-path="url(#clip0_1205_6305)">
<path d="M222.519 32.1175C214.432 33.3672 209.036 38.1827 206.904 46.0338C205.341 51.8538 203.472 57.7 202.775 63.6892C202.063 69.7609 202.389 75.7783 201.578 81.9164C199.868 95.0753 218.352 102.707 224.492 89.6837C227.318 83.767 230.93 78.4321 233.814 72.6553C236.918 66.4076 238.69 59.3003 240.802 52.6449C242.582 47.0382 239.445 40.0445 235.27 36.4032C231.723 33.2701 227.333 31.3859 222.552 32.1668L222.519 32.1175Z" fill="#3D5FFF"/>
<path d="M273.802 74.6293C270.132 74.9844 266.387 76.6097 262.87 77.9371C254.321 79.1395 246.491 85.6648 242.03 92.7187C239.418 96.8781 240.356 103.058 242.982 106.954C246.074 111.54 250.601 112.937 255.825 113.185C262.789 113.515 271.73 109.862 276.835 104.347C279.836 102.362 283.11 100.302 285.366 97.7441C289.214 93.3974 290.767 87.1899 288.076 81.8679C285.419 76.5952 279.566 74.083 273.802 74.6293Z" fill="#3D5FFF"/>
<path d="M63.8658 276.202C56.697 281.315 51.6217 286.021 46.8571 293.53C43.1978 299.327 40.8689 305.555 37.8381 311.645C32.5605 322.224 45.0937 332.678 54.7485 326.466C60.5299 322.753 66.5129 319.765 71.9367 315.469C78.8889 309.929 82.9117 304.246 87.1889 296.599C95.0235 282.579 76.6578 267.089 63.9071 276.21L63.8658 276.202Z" fill="#3D5FFF"/>
<path d="M30.5442 218.947C16.3833 216.4 12.1905 237.898 26.2709 240.858C31.3746 241.939 36.5195 243.028 41.6232 244.109C47.6352 245.367 52.2725 245.544 58.3132 244.237C65.0708 242.771 67.2195 231.754 61.5081 227.856C56.4009 224.376 52.0373 222.796 45.9931 221.703C40.8572 220.787 35.68 219.863 30.5442 218.947Z" fill="#3D5FFF"/>
<path d="M113.923 127.442C51.7657 177.384 88.7241 274.883 144.381 312.765C176.953 334.966 219.682 347.497 259.233 344.245C289.811 341.728 327.279 327.834 334.49 294.375C337.45 280.517 320.773 269.555 309.172 277.615C276.91 299.978 235.315 296.791 199.25 282.39C162.591 267.745 130.006 232.863 133.942 190.927C135.557 173.638 144.307 149.43 162.238 143.633C182.13 137.233 211.418 154.296 226.65 166.518C244.101 180.544 258.953 216.464 225.391 221.098C201.433 224.392 178.771 204.339 162.687 189.68C150.936 178.95 136.973 196.486 146.836 207.662C171.201 235.244 198.624 264.064 239.026 254.468C270.578 246.958 287.064 217.364 281.615 186.19C275.071 148.763 239.931 125.89 207.204 112.397C173.088 98.3334 142.421 104.603 113.914 127.484L113.923 127.442Z" fill="#3D5FFF"/>
</g>
<defs>
<clipPath id="clip0_1205_6305">
<rect width="325.098" height="323.533" fill="white" transform="translate(0 319.086) rotate(-78.964)"/>
</clipPath>
</defs>
</svg>
